%TF.GenerationSoftware,KiCad,Pcbnew,9.0.7*%
%TF.CreationDate,2026-06-29T13:41:52+03:00*%
%TF.ProjectId,VR-Conditioner-NCV1124,56522d43-6f6e-4646-9974-696f6e65722d,rev?*%
%TF.SameCoordinates,Original*%
%TF.FileFunction,Copper,L1,Top*%
%TF.FilePolarity,Positive*%
%FSLAX46Y46*%
G04 Gerber Fmt 4.6, Leading zero omitted, Abs format (unit mm)*
G04 Created by KiCad (PCBNEW 9.0.7) date 2026-06-29 13:41:52*
%MOMM*%
%LPD*%
G01*
G04 APERTURE LIST*
G04 Aperture macros list*
%AMRoundRect*
0 Rectangle with rounded corners*
0 $1 Rounding radius*
0 $2 $3 $4 $5 $6 $7 $8 $9 X,Y pos of 4 corners*
0 Add a 4 corners polygon primitive as box body*
4,1,4,$2,$3,$4,$5,$6,$7,$8,$9,$2,$3,0*
0 Add four circle primitives for the rounded corners*
1,1,$1+$1,$2,$3*
1,1,$1+$1,$4,$5*
1,1,$1+$1,$6,$7*
1,1,$1+$1,$8,$9*
0 Add four rect primitives between the rounded corners*
20,1,$1+$1,$2,$3,$4,$5,0*
20,1,$1+$1,$4,$5,$6,$7,0*
20,1,$1+$1,$6,$7,$8,$9,0*
20,1,$1+$1,$8,$9,$2,$3,0*%
G04 Aperture macros list end*
%TA.AperFunction,ComponentPad*%
%ADD10C,1.600000*%
%TD*%
%TA.AperFunction,SMDPad,CuDef*%
%ADD11RoundRect,0.250000X-0.412500X-0.650000X0.412500X-0.650000X0.412500X0.650000X-0.412500X0.650000X0*%
%TD*%
%TA.AperFunction,ComponentPad*%
%ADD12RoundRect,0.250000X-0.950000X-0.550000X0.950000X-0.550000X0.950000X0.550000X-0.950000X0.550000X0*%
%TD*%
%TA.AperFunction,ComponentPad*%
%ADD13O,2.400000X1.600000*%
%TD*%
%TA.AperFunction,SMDPad,CuDef*%
%ADD14RoundRect,0.250000X0.650000X-0.412500X0.650000X0.412500X-0.650000X0.412500X-0.650000X-0.412500X0*%
%TD*%
%TA.AperFunction,SMDPad,CuDef*%
%ADD15RoundRect,0.250000X0.412500X0.650000X-0.412500X0.650000X-0.412500X-0.650000X0.412500X-0.650000X0*%
%TD*%
%TA.AperFunction,SMDPad,CuDef*%
%ADD16R,1.520000X0.600000*%
%TD*%
%TA.AperFunction,Conductor*%
%ADD17C,0.381000*%
%TD*%
G04 APERTURE END LIST*
D10*
%TO.P,R2,2*%
%TO.N,Net-(J1-IN2)*%
X157175200Y-82905600D03*
%TO.P,R2,1*%
%TO.N,IN2+*%
X157175200Y-93065600D03*
%TD*%
%TO.P,R1,1*%
%TO.N,IN1+*%
X150114000Y-88188800D03*
%TO.P,R1,2*%
%TO.N,Net-(J1-IN1)*%
X150114000Y-78028800D03*
%TD*%
D11*
%TO.P,C3,1*%
%TO.N,GND*%
X155346400Y-91236800D03*
%TO.P,C3,2*%
%TO.N,VCC*%
X158471400Y-91236800D03*
%TD*%
D12*
%TO.P,J2,1,Pin_1*%
%TO.N,GND*%
X153162000Y-83820000D03*
D13*
%TO.P,J2,2,Pin_2*%
%TO.N,IN1+*%
X153162000Y-86360000D03*
%TO.P,J2,3,Pin_3*%
%TO.N,IN2+*%
X153162000Y-88900000D03*
%TO.P,J2,4,Pin_4*%
%TO.N,GND*%
X153162000Y-91440000D03*
%TO.P,J2,5,Pin_5*%
%TO.N,VCC*%
X160782000Y-91440000D03*
%TO.P,J2,6,Pin_6*%
%TO.N,GND*%
X160782000Y-88900000D03*
%TO.P,J2,7,Pin_7*%
%TO.N,OUT2*%
X160782000Y-86360000D03*
%TO.P,J2,8,Pin_8*%
%TO.N,OUT1*%
X160782000Y-83820000D03*
%TD*%
D14*
%TO.P,C1,1*%
%TO.N,GND*%
X155651200Y-88125700D03*
%TO.P,C1,2*%
%TO.N,IN1+*%
X155651200Y-85000700D03*
%TD*%
D15*
%TO.P,C2,1*%
%TO.N,IN2+*%
X150660500Y-90576400D03*
%TO.P,C2,2*%
%TO.N,GND*%
X147535500Y-90576400D03*
%TD*%
D10*
%TO.P,R3,1*%
%TO.N,GND*%
X147116800Y-86614000D03*
%TO.P,R3,2*%
%TO.N,Net-(J1-INADJ)*%
X147116800Y-76454000D03*
%TD*%
D16*
%TO.P,J1,1,INADJ*%
%TO.N,Net-(J1-INADJ)*%
X155101000Y-76835000D03*
%TO.P,J1,2,IN1*%
%TO.N,Net-(J1-IN1)*%
X155101000Y-78105000D03*
%TO.P,J1,3,IN2*%
%TO.N,Net-(J1-IN2)*%
X155101000Y-79375000D03*
%TO.P,J1,4,GND*%
%TO.N,GND*%
X155101000Y-80645000D03*
%TO.P,J1,5,DIAG*%
%TO.N,unconnected-(J1-DIAG-Pad5)*%
X160621000Y-80645000D03*
%TO.P,J1,6,OUT2*%
%TO.N,OUT2*%
X160621000Y-79375000D03*
%TO.P,J1,7,OUT1*%
%TO.N,OUT1*%
X160621000Y-78105000D03*
%TO.P,J1,8,VCC*%
%TO.N,VCC*%
X160621000Y-76835000D03*
%TD*%
D17*
%TO.N,VCC*%
X160578800Y-91236800D02*
X160782000Y-91440000D01*
X158471400Y-91236800D02*
X160578800Y-91236800D01*
%TO.N,Net-(J1-IN2)*%
X157175200Y-80876200D02*
X157175200Y-82905600D01*
X155674000Y-79375000D02*
X157175200Y-80876200D01*
X155101000Y-79375000D02*
X155674000Y-79375000D01*
%TO.N,IN2+*%
X156006800Y-89763600D02*
X157175200Y-90932000D01*
X154025600Y-89763600D02*
X156006800Y-89763600D01*
X153162000Y-88900000D02*
X154025600Y-89763600D01*
X157175200Y-90932000D02*
X157175200Y-93065600D01*
%TO.N,VCC*%
X163017200Y-90119200D02*
X163017200Y-78658200D01*
X160621000Y-76835000D02*
X160048000Y-76835000D01*
X161696400Y-91440000D02*
X163017200Y-90119200D01*
X161194000Y-76835000D02*
X160621000Y-76835000D01*
X160578800Y-91643200D02*
X160782000Y-91440000D01*
X163017200Y-78658200D02*
X161194000Y-76835000D01*
X160782000Y-91440000D02*
X161696400Y-91440000D01*
%TO.N,IN2+*%
X151485600Y-90576400D02*
X150660500Y-90576400D01*
X153162000Y-88900000D02*
X151485600Y-90576400D01*
%TO.N,IN1+*%
X149733000Y-88138000D02*
X151384000Y-88138000D01*
X153162000Y-86360000D02*
X154393500Y-86360000D01*
X154393500Y-86360000D02*
X155829000Y-84924500D01*
X151384000Y-88138000D02*
X153162000Y-86360000D01*
%TO.N,Net-(J1-IN2)*%
X154528000Y-79375000D02*
X155101000Y-79375000D01*
%TO.N,OUT2*%
X158750000Y-84328000D02*
X158750000Y-80786000D01*
X160782000Y-86360000D02*
X158750000Y-84328000D01*
X160161000Y-79375000D02*
X160621000Y-79375000D01*
X158750000Y-80786000D02*
X160161000Y-79375000D01*
%TO.N,Net-(J1-IN1)*%
X154974000Y-77978000D02*
X155101000Y-78105000D01*
X155024800Y-78028800D02*
X155101000Y-78105000D01*
X150114000Y-78028800D02*
X155024800Y-78028800D01*
%TO.N,Net-(J1-INADJ)*%
X151130000Y-76454000D02*
X147116800Y-76454000D01*
X155101000Y-76835000D02*
X151511000Y-76835000D01*
X151511000Y-76835000D02*
X151130000Y-76454000D01*
%TO.N,OUT1*%
X161772500Y-82829500D02*
X161772500Y-78796500D01*
X161772500Y-78796500D02*
X161081000Y-78105000D01*
X160782000Y-83820000D02*
X161772500Y-82829500D01*
X161081000Y-78105000D02*
X160621000Y-78105000D01*
%TD*%
%TA.AperFunction,Conductor*%
%TO.N,GND*%
G36*
X145998503Y-76614499D02*
G01*
X146036277Y-76673277D01*
X146039773Y-76688815D01*
X146043396Y-76711696D01*
X146043397Y-76711697D01*
X146043398Y-76711701D01*
X146096927Y-76876445D01*
X146175568Y-77030788D01*
X146277386Y-77170928D01*
X146399872Y-77293414D01*
X146540012Y-77395232D01*
X146694355Y-77473873D01*
X146859099Y-77527402D01*
X147030189Y-77554500D01*
X147030190Y-77554500D01*
X147203410Y-77554500D01*
X147203411Y-77554500D01*
X147374501Y-77527402D01*
X147539245Y-77473873D01*
X147693588Y-77395232D01*
X147833728Y-77293414D01*
X147956214Y-77170928D01*
X148058032Y-77030788D01*
X148061762Y-77023467D01*
X148067247Y-77012704D01*
X148115222Y-76961908D01*
X148177731Y-76945000D01*
X149351808Y-76945000D01*
X149418847Y-76964685D01*
X149464602Y-77017489D01*
X149474546Y-77086647D01*
X149445521Y-77150203D01*
X149424697Y-77169315D01*
X149397072Y-77189386D01*
X149397070Y-77189388D01*
X149397069Y-77189388D01*
X149274588Y-77311869D01*
X149274588Y-77311870D01*
X149274586Y-77311872D01*
X149230859Y-77372056D01*
X149172768Y-77452011D01*
X149094128Y-77606352D01*
X149040597Y-77771102D01*
X149013500Y-77942189D01*
X149013500Y-78115411D01*
X149040598Y-78286501D01*
X149094127Y-78451245D01*
X149172768Y-78605588D01*
X149274586Y-78745728D01*
X149397072Y-78868214D01*
X149537212Y-78970032D01*
X149691555Y-79048673D01*
X149856299Y-79102202D01*
X150027389Y-79129300D01*
X150027390Y-79129300D01*
X150200610Y-79129300D01*
X150200611Y-79129300D01*
X150371701Y-79102202D01*
X150536445Y-79048673D01*
X150690788Y-78970032D01*
X150830928Y-78868214D01*
X150953414Y-78745728D01*
X151055232Y-78605588D01*
X151061361Y-78593559D01*
X151064447Y-78587504D01*
X151112422Y-78536708D01*
X151174931Y-78519800D01*
X153983726Y-78519800D01*
X154050765Y-78539485D01*
X154073369Y-78558126D01*
X154085921Y-78571260D01*
X154088794Y-78577765D01*
X154164338Y-78653309D01*
X154165310Y-78654326D01*
X154180740Y-78684170D01*
X154196833Y-78713642D01*
X154196729Y-78715095D01*
X154197399Y-78716391D01*
X154194245Y-78749830D01*
X154191849Y-78783334D01*
X154190953Y-78784727D01*
X154190838Y-78785952D01*
X154187123Y-78790686D01*
X154163348Y-78827681D01*
X154088794Y-78902234D01*
X154043415Y-79005006D01*
X154043415Y-79005008D01*
X154043415Y-79005009D01*
X154040500Y-79030135D01*
X154040500Y-79297295D01*
X154037000Y-79310359D01*
X154037000Y-79439641D01*
X154040500Y-79452705D01*
X154040500Y-79719856D01*
X154040502Y-79719882D01*
X154043413Y-79744987D01*
X154043415Y-79744991D01*
X154088793Y-79847764D01*
X154088794Y-79847765D01*
X154168235Y-79927206D01*
X154271009Y-79972585D01*
X154296135Y-79975500D01*
X155528758Y-79975499D01*
X155595797Y-79995184D01*
X155616439Y-80011818D01*
X156647881Y-81043260D01*
X156681366Y-81104583D01*
X156684200Y-81130941D01*
X156684200Y-81844669D01*
X156664515Y-81911708D01*
X156616496Y-81955153D01*
X156598414Y-81964366D01*
X156528342Y-82015277D01*
X156458272Y-82066186D01*
X156458270Y-82066188D01*
X156458269Y-82066188D01*
X156335788Y-82188669D01*
X156335788Y-82188670D01*
X156335786Y-82188672D01*
X156300586Y-82237120D01*
X156233968Y-82328811D01*
X156155328Y-82483152D01*
X156101797Y-82647902D01*
X156074700Y-82818989D01*
X156074700Y-82992210D01*
X156097012Y-83133087D01*
X156101798Y-83163301D01*
X156155327Y-83328045D01*
X156233968Y-83482388D01*
X156335786Y-83622528D01*
X156458272Y-83745014D01*
X156598412Y-83846832D01*
X156605670Y-83850530D01*
X156605669Y-83850530D01*
X156730765Y-83914269D01*
X156730766Y-83914270D01*
X156752746Y-83925469D01*
X156752747Y-83925470D01*
X156752752Y-83925471D01*
X156752755Y-83925473D01*
X156917499Y-83979002D01*
X157088589Y-84006100D01*
X157088590Y-84006100D01*
X157261810Y-84006100D01*
X157261811Y-84006100D01*
X157432901Y-83979002D01*
X157597645Y-83925473D01*
X157751988Y-83846832D01*
X157892128Y-83745014D01*
X158014614Y-83622528D01*
X158034683Y-83594904D01*
X158090012Y-83552241D01*
X158159626Y-83546262D01*
X158221421Y-83578868D01*
X158255778Y-83639707D01*
X158259000Y-83667792D01*
X158259000Y-84263358D01*
X158259000Y-84392642D01*
X158276148Y-84456638D01*
X158292461Y-84517520D01*
X158292462Y-84517521D01*
X158357099Y-84629477D01*
X158357103Y-84629482D01*
X159400713Y-85673092D01*
X159434198Y-85734415D01*
X159429214Y-85804107D01*
X159423517Y-85817067D01*
X159362129Y-85937549D01*
X159308597Y-86102302D01*
X159285800Y-86246239D01*
X159281500Y-86273389D01*
X159281500Y-86446611D01*
X159308598Y-86617701D01*
X159362127Y-86782445D01*
X159440768Y-86936788D01*
X159542586Y-87076928D01*
X159665072Y-87199414D01*
X159805212Y-87301232D01*
X159959555Y-87379873D01*
X160124299Y-87433402D01*
X160295389Y-87460500D01*
X160295390Y-87460500D01*
X161268610Y-87460500D01*
X161268611Y-87460500D01*
X161439701Y-87433402D01*
X161604445Y-87379873D01*
X161758788Y-87301232D01*
X161898928Y-87199414D01*
X162021414Y-87076928D01*
X162123232Y-86936788D01*
X162201873Y-86782445D01*
X162255402Y-86617701D01*
X162282500Y-86446611D01*
X162282500Y-86273389D01*
X162255402Y-86102299D01*
X162201873Y-85937555D01*
X162123232Y-85783212D01*
X162021414Y-85643072D01*
X161898928Y-85520586D01*
X161758788Y-85418768D01*
X161604445Y-85340127D01*
X161439701Y-85286598D01*
X161439699Y-85286597D01*
X161439698Y-85286597D01*
X161308271Y-85265781D01*
X161268611Y-85259500D01*
X161268610Y-85259500D01*
X160427241Y-85259500D01*
X160397800Y-85250855D01*
X160367814Y-85244332D01*
X160362798Y-85240577D01*
X160360202Y-85239815D01*
X160339560Y-85223181D01*
X160248560Y-85132181D01*
X160215075Y-85070858D01*
X160220059Y-85001166D01*
X160261931Y-84945233D01*
X160327395Y-84920816D01*
X160336241Y-84920500D01*
X161268610Y-84920500D01*
X161268611Y-84920500D01*
X161439701Y-84893402D01*
X161604445Y-84839873D01*
X161758788Y-84761232D01*
X161898928Y-84659414D01*
X162021414Y-84536928D01*
X162123232Y-84396788D01*
X162201873Y-84242445D01*
X162255402Y-84077701D01*
X162279727Y-83924117D01*
X162309656Y-83860984D01*
X162368967Y-83824052D01*
X162438830Y-83825050D01*
X162497063Y-83863660D01*
X162525177Y-83927623D01*
X162526200Y-83943516D01*
X162526200Y-89864458D01*
X162506515Y-89931497D01*
X162489881Y-89952139D01*
X161940515Y-90501504D01*
X161879192Y-90534989D01*
X161809500Y-90530005D01*
X161779950Y-90514142D01*
X161758791Y-90498769D01*
X161604447Y-90420128D01*
X161604446Y-90420127D01*
X161604445Y-90420127D01*
X161439701Y-90366598D01*
X161439699Y-90366597D01*
X161439698Y-90366597D01*
X161308271Y-90345781D01*
X161268611Y-90339500D01*
X160295389Y-90339500D01*
X160255728Y-90345781D01*
X160124302Y-90366597D01*
X159959552Y-90420128D01*
X159805211Y-90498768D01*
X159762218Y-90530005D01*
X159665072Y-90600586D01*
X159665070Y-90600588D01*
X159665068Y-90600589D01*
X159645608Y-90620049D01*
X159584284Y-90653533D01*
X159514593Y-90648547D01*
X159458660Y-90606674D01*
X159434813Y-90547149D01*
X159434400Y-90543709D01*
X159434400Y-90543698D01*
X159423777Y-90455236D01*
X159368261Y-90314458D01*
X159368260Y-90314457D01*
X159368260Y-90314456D01*
X159276822Y-90193877D01*
X159156243Y-90102439D01*
X159015461Y-90046922D01*
X158969826Y-90041442D01*
X158927002Y-90036300D01*
X158015798Y-90036300D01*
X157976753Y-90040988D01*
X157927338Y-90046922D01*
X157786556Y-90102439D01*
X157665977Y-90193877D01*
X157574538Y-90314458D01*
X157552683Y-90369879D01*
X157509777Y-90425022D01*
X157443869Y-90448215D01*
X157375885Y-90432094D01*
X157349648Y-90412069D01*
X156308282Y-89370703D01*
X156308277Y-89370699D01*
X156196321Y-89306062D01*
X156196320Y-89306061D01*
X156148814Y-89293332D01*
X156071442Y-89272600D01*
X156071441Y-89272600D01*
X156071439Y-89272600D01*
X154762389Y-89272600D01*
X154695350Y-89252915D01*
X154649595Y-89200111D01*
X154639651Y-89130953D01*
X154639916Y-89129202D01*
X154662500Y-88986610D01*
X154662500Y-88813389D01*
X154636860Y-88651507D01*
X154635402Y-88642299D01*
X154581873Y-88477555D01*
X154503232Y-88323212D01*
X154401414Y-88183072D01*
X154278928Y-88060586D01*
X154138788Y-87958768D01*
X153984445Y-87880127D01*
X153819701Y-87826598D01*
X153819699Y-87826597D01*
X153819698Y-87826597D01*
X153688271Y-87805781D01*
X153648611Y-87799500D01*
X152716241Y-87799500D01*
X152694995Y-87793261D01*
X152672907Y-87791682D01*
X152662123Y-87783609D01*
X152649202Y-87779815D01*
X152634702Y-87763081D01*
X152616974Y-87749810D01*
X152612266Y-87737189D01*
X152603447Y-87727011D01*
X152600295Y-87705093D01*
X152592557Y-87684346D01*
X152595419Y-87671185D01*
X152593503Y-87657853D01*
X152602702Y-87637709D01*
X152607409Y-87616073D01*
X152620677Y-87598347D01*
X152622528Y-87594297D01*
X152628560Y-87587819D01*
X152719560Y-87496819D01*
X152780883Y-87463334D01*
X152807241Y-87460500D01*
X153648610Y-87460500D01*
X153648611Y-87460500D01*
X153819701Y-87433402D01*
X153984445Y-87379873D01*
X154138788Y-87301232D01*
X154278928Y-87199414D01*
X154401414Y-87076928D01*
X154503232Y-86936788D01*
X154539386Y-86865829D01*
X154587358Y-86815035D01*
X154587671Y-86814853D01*
X154694981Y-86752898D01*
X155447860Y-86000019D01*
X155509183Y-85966534D01*
X155535541Y-85963700D01*
X156344297Y-85963700D01*
X156344302Y-85963700D01*
X156432764Y-85953077D01*
X156573542Y-85897561D01*
X156694122Y-85806122D01*
X156785561Y-85685542D01*
X156841077Y-85544764D01*
X156851700Y-85456302D01*
X156851700Y-84545098D01*
X156841077Y-84456636D01*
X156785561Y-84315858D01*
X156785560Y-84315857D01*
X156785560Y-84315856D01*
X156694122Y-84195277D01*
X156608340Y-84130227D01*
X156608339Y-84130226D01*
X156573542Y-84103839D01*
X156432764Y-84048323D01*
X156432763Y-84048322D01*
X156432761Y-84048322D01*
X156387126Y-84042842D01*
X156344302Y-84037700D01*
X154958098Y-84037700D01*
X154919053Y-84042388D01*
X154869638Y-84048322D01*
X154728856Y-84103839D01*
X154608277Y-84195277D01*
X154516839Y-84315856D01*
X154461322Y-84456638D01*
X154455388Y-84506053D01*
X154450700Y-84545098D01*
X154450700Y-84545103D01*
X154450700Y-85402022D01*
X154431015Y-85469061D01*
X154378211Y-85514816D01*
X154309053Y-85524760D01*
X154253815Y-85502340D01*
X154138788Y-85418768D01*
X153984445Y-85340127D01*
X153819701Y-85286598D01*
X153819699Y-85286597D01*
X153819698Y-85286597D01*
X153688271Y-85265781D01*
X153648611Y-85259500D01*
X152675389Y-85259500D01*
X152635728Y-85265781D01*
X152504302Y-85286597D01*
X152339552Y-85340128D01*
X152185211Y-85418768D01*
X152133559Y-85456296D01*
X152045072Y-85520586D01*
X152045070Y-85520588D01*
X152045069Y-85520588D01*
X151922588Y-85643069D01*
X151922588Y-85643070D01*
X151922586Y-85643072D01*
X151916428Y-85651548D01*
X151820768Y-85783211D01*
X151742128Y-85937552D01*
X151688597Y-86102302D01*
X151665800Y-86246239D01*
X151661500Y-86273389D01*
X151661500Y-86446611D01*
X151688598Y-86617701D01*
X151742127Y-86782445D01*
X151784614Y-86865832D01*
X151803517Y-86902930D01*
X151816413Y-86971599D01*
X151790137Y-87036340D01*
X151780713Y-87046906D01*
X151225381Y-87602239D01*
X151164058Y-87635724D01*
X151094367Y-87630740D01*
X151038433Y-87588869D01*
X151037382Y-87587444D01*
X150953414Y-87471872D01*
X150830928Y-87349386D01*
X150690788Y-87247568D01*
X150536445Y-87168927D01*
X150371701Y-87115398D01*
X150371699Y-87115397D01*
X150371698Y-87115397D01*
X150240271Y-87094581D01*
X150200611Y-87088300D01*
X150027389Y-87088300D01*
X149987728Y-87094581D01*
X149856302Y-87115397D01*
X149691552Y-87168928D01*
X149537211Y-87247568D01*
X149463351Y-87301231D01*
X149397072Y-87349386D01*
X149397070Y-87349388D01*
X149397069Y-87349388D01*
X149274588Y-87471869D01*
X149274588Y-87471870D01*
X149274586Y-87471872D01*
X149256461Y-87496819D01*
X149172768Y-87612011D01*
X149094128Y-87766352D01*
X149040597Y-87931102D01*
X149020089Y-88060586D01*
X149013500Y-88102189D01*
X149013500Y-88275411D01*
X149040598Y-88446501D01*
X149094127Y-88611245D01*
X149172768Y-88765588D01*
X149274586Y-88905728D01*
X149397072Y-89028214D01*
X149537212Y-89130032D01*
X149691555Y-89208673D01*
X149856299Y-89262202D01*
X149863893Y-89263404D01*
X149927028Y-89293332D01*
X149963961Y-89352642D01*
X149962965Y-89422505D01*
X149924357Y-89480738D01*
X149919424Y-89484681D01*
X149855078Y-89533476D01*
X149763639Y-89654056D01*
X149708122Y-89794838D01*
X149702188Y-89844253D01*
X149697500Y-89883298D01*
X149697500Y-91269502D01*
X149703126Y-91316354D01*
X149708122Y-91357961D01*
X149763639Y-91498743D01*
X149855077Y-91619322D01*
X149975656Y-91710760D01*
X149975657Y-91710760D01*
X149975658Y-91710761D01*
X150116436Y-91766277D01*
X150204898Y-91776900D01*
X150204903Y-91776900D01*
X151116097Y-91776900D01*
X151116102Y-91776900D01*
X151204564Y-91766277D01*
X151345342Y-91710761D01*
X151465922Y-91619322D01*
X151557361Y-91498742D01*
X151612877Y-91357964D01*
X151623500Y-91269502D01*
X151623500Y-91135332D01*
X151643185Y-91068293D01*
X151685498Y-91027946D01*
X151787081Y-90969298D01*
X152719560Y-90036819D01*
X152780883Y-90003334D01*
X152807241Y-90000500D01*
X153516759Y-90000500D01*
X153583798Y-90020185D01*
X153604440Y-90036819D01*
X153724119Y-90156498D01*
X153836081Y-90221139D01*
X153960959Y-90254600D01*
X154090242Y-90254600D01*
X155752059Y-90254600D01*
X155819098Y-90274285D01*
X155839740Y-90290919D01*
X156647881Y-91099059D01*
X156681366Y-91160382D01*
X156684200Y-91186740D01*
X156684200Y-92004669D01*
X156664515Y-92071708D01*
X156616496Y-92115153D01*
X156598414Y-92124366D01*
X156532779Y-92172053D01*
X156458272Y-92226186D01*
X156458270Y-92226188D01*
X156458269Y-92226188D01*
X156335788Y-92348669D01*
X156335788Y-92348670D01*
X156335786Y-92348672D01*
X156312130Y-92381232D01*
X156233968Y-92488811D01*
X156155328Y-92643152D01*
X156101797Y-92807902D01*
X156074700Y-92978989D01*
X156074700Y-93152210D01*
X156090594Y-93252565D01*
X156101798Y-93323301D01*
X156155327Y-93488045D01*
X156233968Y-93642388D01*
X156330305Y-93774985D01*
X156353785Y-93840789D01*
X156337960Y-93908843D01*
X156287854Y-93957538D01*
X156229987Y-93971869D01*
X147121675Y-93971869D01*
X147111947Y-93971487D01*
X147079867Y-93968962D01*
X146919488Y-93956339D01*
X146900271Y-93953295D01*
X146717309Y-93909370D01*
X146698803Y-93903357D01*
X146524968Y-93831351D01*
X146507630Y-93822517D01*
X146347194Y-93724200D01*
X146331452Y-93712762D01*
X146188375Y-93590559D01*
X146174617Y-93576801D01*
X146098814Y-93488045D01*
X146052418Y-93433721D01*
X146040985Y-93417984D01*
X145942680Y-93257562D01*
X145942667Y-93257542D01*
X145933840Y-93240216D01*
X145861831Y-93066362D01*
X145855821Y-93047862D01*
X145848142Y-93015876D01*
X145811898Y-92864899D01*
X145808856Y-92845689D01*
X145793681Y-92652832D01*
X145793300Y-92643107D01*
X145793300Y-92632838D01*
X145793301Y-92608491D01*
X145793300Y-92608488D01*
X145793300Y-76708212D01*
X145812985Y-76641173D01*
X145865789Y-76595418D01*
X145934947Y-76585474D01*
X145998503Y-76614499D01*
G37*
%TD.AperFunction*%
%TD*%
M02*
