%TF.GenerationSoftware,KiCad,Pcbnew,9.0.7*%
%TF.CreationDate,2026-06-29T13:41:52+03:00*%
%TF.ProjectId,VR-Conditioner-NCV1124,56522d43-6f6e-4646-9974-696f6e65722d,rev?*%
%TF.SameCoordinates,Original*%
%TF.FileFunction,Legend,Bot*%
%TF.FilePolarity,Positive*%
%FSLAX46Y46*%
G04 Gerber Fmt 4.6, Leading zero omitted, Abs format (unit mm)*
G04 Created by KiCad (PCBNEW 9.0.7) date 2026-06-29 13:41:52*
%MOMM*%
%LPD*%
G01*
G04 APERTURE LIST*
%ADD10C,0.062500*%
%ADD11C,0.087500*%
G04 APERTURE END LIST*
D10*
X159511331Y-76049615D02*
X159511331Y-75549615D01*
X159511331Y-75549615D02*
X159392283Y-75549615D01*
X159392283Y-75549615D02*
X159320855Y-75573425D01*
X159320855Y-75573425D02*
X159273236Y-75621044D01*
X159273236Y-75621044D02*
X159249426Y-75668663D01*
X159249426Y-75668663D02*
X159225617Y-75763901D01*
X159225617Y-75763901D02*
X159225617Y-75835329D01*
X159225617Y-75835329D02*
X159249426Y-75930567D01*
X159249426Y-75930567D02*
X159273236Y-75978186D01*
X159273236Y-75978186D02*
X159320855Y-76025806D01*
X159320855Y-76025806D02*
X159392283Y-76049615D01*
X159392283Y-76049615D02*
X159511331Y-76049615D01*
X158820855Y-76025806D02*
X158868474Y-76049615D01*
X158868474Y-76049615D02*
X158963712Y-76049615D01*
X158963712Y-76049615D02*
X159011331Y-76025806D01*
X159011331Y-76025806D02*
X159035140Y-75978186D01*
X159035140Y-75978186D02*
X159035140Y-75787710D01*
X159035140Y-75787710D02*
X159011331Y-75740091D01*
X159011331Y-75740091D02*
X158963712Y-75716282D01*
X158963712Y-75716282D02*
X158868474Y-75716282D01*
X158868474Y-75716282D02*
X158820855Y-75740091D01*
X158820855Y-75740091D02*
X158797045Y-75787710D01*
X158797045Y-75787710D02*
X158797045Y-75835329D01*
X158797045Y-75835329D02*
X159035140Y-75882948D01*
X158606569Y-76025806D02*
X158558950Y-76049615D01*
X158558950Y-76049615D02*
X158463712Y-76049615D01*
X158463712Y-76049615D02*
X158416093Y-76025806D01*
X158416093Y-76025806D02*
X158392284Y-75978186D01*
X158392284Y-75978186D02*
X158392284Y-75954377D01*
X158392284Y-75954377D02*
X158416093Y-75906758D01*
X158416093Y-75906758D02*
X158463712Y-75882948D01*
X158463712Y-75882948D02*
X158535141Y-75882948D01*
X158535141Y-75882948D02*
X158582760Y-75859139D01*
X158582760Y-75859139D02*
X158606569Y-75811520D01*
X158606569Y-75811520D02*
X158606569Y-75787710D01*
X158606569Y-75787710D02*
X158582760Y-75740091D01*
X158582760Y-75740091D02*
X158535141Y-75716282D01*
X158535141Y-75716282D02*
X158463712Y-75716282D01*
X158463712Y-75716282D02*
X158416093Y-75740091D01*
X158177998Y-76049615D02*
X158177998Y-75716282D01*
X158177998Y-75549615D02*
X158201807Y-75573425D01*
X158201807Y-75573425D02*
X158177998Y-75597234D01*
X158177998Y-75597234D02*
X158154188Y-75573425D01*
X158154188Y-75573425D02*
X158177998Y-75549615D01*
X158177998Y-75549615D02*
X158177998Y-75597234D01*
X157725617Y-75716282D02*
X157725617Y-76121044D01*
X157725617Y-76121044D02*
X157749427Y-76168663D01*
X157749427Y-76168663D02*
X157773236Y-76192472D01*
X157773236Y-76192472D02*
X157820855Y-76216282D01*
X157820855Y-76216282D02*
X157892284Y-76216282D01*
X157892284Y-76216282D02*
X157939903Y-76192472D01*
X157725617Y-76025806D02*
X157773236Y-76049615D01*
X157773236Y-76049615D02*
X157868474Y-76049615D01*
X157868474Y-76049615D02*
X157916093Y-76025806D01*
X157916093Y-76025806D02*
X157939903Y-76001996D01*
X157939903Y-76001996D02*
X157963712Y-75954377D01*
X157963712Y-75954377D02*
X157963712Y-75811520D01*
X157963712Y-75811520D02*
X157939903Y-75763901D01*
X157939903Y-75763901D02*
X157916093Y-75740091D01*
X157916093Y-75740091D02*
X157868474Y-75716282D01*
X157868474Y-75716282D02*
X157773236Y-75716282D01*
X157773236Y-75716282D02*
X157725617Y-75740091D01*
X157487522Y-75716282D02*
X157487522Y-76049615D01*
X157487522Y-75763901D02*
X157463712Y-75740091D01*
X157463712Y-75740091D02*
X157416093Y-75716282D01*
X157416093Y-75716282D02*
X157344665Y-75716282D01*
X157344665Y-75716282D02*
X157297046Y-75740091D01*
X157297046Y-75740091D02*
X157273236Y-75787710D01*
X157273236Y-75787710D02*
X157273236Y-76049615D01*
X156844665Y-76025806D02*
X156892284Y-76049615D01*
X156892284Y-76049615D02*
X156987522Y-76049615D01*
X156987522Y-76049615D02*
X157035141Y-76025806D01*
X157035141Y-76025806D02*
X157058950Y-75978186D01*
X157058950Y-75978186D02*
X157058950Y-75787710D01*
X157058950Y-75787710D02*
X157035141Y-75740091D01*
X157035141Y-75740091D02*
X156987522Y-75716282D01*
X156987522Y-75716282D02*
X156892284Y-75716282D01*
X156892284Y-75716282D02*
X156844665Y-75740091D01*
X156844665Y-75740091D02*
X156820855Y-75787710D01*
X156820855Y-75787710D02*
X156820855Y-75835329D01*
X156820855Y-75835329D02*
X157058950Y-75882948D01*
X156392284Y-76049615D02*
X156392284Y-75549615D01*
X156392284Y-76025806D02*
X156439903Y-76049615D01*
X156439903Y-76049615D02*
X156535141Y-76049615D01*
X156535141Y-76049615D02*
X156582760Y-76025806D01*
X156582760Y-76025806D02*
X156606570Y-76001996D01*
X156606570Y-76001996D02*
X156630379Y-75954377D01*
X156630379Y-75954377D02*
X156630379Y-75811520D01*
X156630379Y-75811520D02*
X156606570Y-75763901D01*
X156606570Y-75763901D02*
X156582760Y-75740091D01*
X156582760Y-75740091D02*
X156535141Y-75716282D01*
X156535141Y-75716282D02*
X156439903Y-75716282D01*
X156439903Y-75716282D02*
X156392284Y-75740091D01*
X155773237Y-76049615D02*
X155773237Y-75549615D01*
X155773237Y-75740091D02*
X155725618Y-75716282D01*
X155725618Y-75716282D02*
X155630380Y-75716282D01*
X155630380Y-75716282D02*
X155582761Y-75740091D01*
X155582761Y-75740091D02*
X155558951Y-75763901D01*
X155558951Y-75763901D02*
X155535142Y-75811520D01*
X155535142Y-75811520D02*
X155535142Y-75954377D01*
X155535142Y-75954377D02*
X155558951Y-76001996D01*
X155558951Y-76001996D02*
X155582761Y-76025806D01*
X155582761Y-76025806D02*
X155630380Y-76049615D01*
X155630380Y-76049615D02*
X155725618Y-76049615D01*
X155725618Y-76049615D02*
X155773237Y-76025806D01*
X155368475Y-75716282D02*
X155249427Y-76049615D01*
X155130380Y-75716282D02*
X155249427Y-76049615D01*
X155249427Y-76049615D02*
X155297046Y-76168663D01*
X155297046Y-76168663D02*
X155320856Y-76192472D01*
X155320856Y-76192472D02*
X155368475Y-76216282D01*
X154558952Y-76049615D02*
X154558952Y-75549615D01*
X154558952Y-75787710D02*
X154273238Y-75787710D01*
X154273238Y-76049615D02*
X154273238Y-75549615D01*
X153844666Y-76025806D02*
X153892285Y-76049615D01*
X153892285Y-76049615D02*
X153987523Y-76049615D01*
X153987523Y-76049615D02*
X154035142Y-76025806D01*
X154035142Y-76025806D02*
X154058951Y-75978186D01*
X154058951Y-75978186D02*
X154058951Y-75787710D01*
X154058951Y-75787710D02*
X154035142Y-75740091D01*
X154035142Y-75740091D02*
X153987523Y-75716282D01*
X153987523Y-75716282D02*
X153892285Y-75716282D01*
X153892285Y-75716282D02*
X153844666Y-75740091D01*
X153844666Y-75740091D02*
X153820856Y-75787710D01*
X153820856Y-75787710D02*
X153820856Y-75835329D01*
X153820856Y-75835329D02*
X154058951Y-75882948D01*
X153606571Y-75716282D02*
X153606571Y-76049615D01*
X153606571Y-75763901D02*
X153582761Y-75740091D01*
X153582761Y-75740091D02*
X153535142Y-75716282D01*
X153535142Y-75716282D02*
X153463714Y-75716282D01*
X153463714Y-75716282D02*
X153416095Y-75740091D01*
X153416095Y-75740091D02*
X153392285Y-75787710D01*
X153392285Y-75787710D02*
X153392285Y-76049615D01*
X153154190Y-76049615D02*
X153154190Y-75716282D01*
X153154190Y-75811520D02*
X153130380Y-75763901D01*
X153130380Y-75763901D02*
X153106571Y-75740091D01*
X153106571Y-75740091D02*
X153058952Y-75716282D01*
X153058952Y-75716282D02*
X153011333Y-75716282D01*
X152844666Y-76049615D02*
X152844666Y-75716282D01*
X152844666Y-75549615D02*
X152868475Y-75573425D01*
X152868475Y-75573425D02*
X152844666Y-75597234D01*
X152844666Y-75597234D02*
X152820856Y-75573425D01*
X152820856Y-75573425D02*
X152844666Y-75549615D01*
X152844666Y-75549615D02*
X152844666Y-75597234D01*
X152606571Y-76049615D02*
X152606571Y-75549615D01*
X152558952Y-75859139D02*
X152416095Y-76049615D01*
X152416095Y-75716282D02*
X152606571Y-75906758D01*
X151820857Y-76049615D02*
X151820857Y-75549615D01*
X151820857Y-75787710D02*
X151535143Y-75787710D01*
X151535143Y-76049615D02*
X151535143Y-75549615D01*
X151106571Y-76025806D02*
X151154190Y-76049615D01*
X151154190Y-76049615D02*
X151249428Y-76049615D01*
X151249428Y-76049615D02*
X151297047Y-76025806D01*
X151297047Y-76025806D02*
X151320856Y-75978186D01*
X151320856Y-75978186D02*
X151320856Y-75787710D01*
X151320856Y-75787710D02*
X151297047Y-75740091D01*
X151297047Y-75740091D02*
X151249428Y-75716282D01*
X151249428Y-75716282D02*
X151154190Y-75716282D01*
X151154190Y-75716282D02*
X151106571Y-75740091D01*
X151106571Y-75740091D02*
X151082761Y-75787710D01*
X151082761Y-75787710D02*
X151082761Y-75835329D01*
X151082761Y-75835329D02*
X151320856Y-75882948D01*
X150868476Y-76049615D02*
X150868476Y-75716282D01*
X150868476Y-75549615D02*
X150892285Y-75573425D01*
X150892285Y-75573425D02*
X150868476Y-75597234D01*
X150868476Y-75597234D02*
X150844666Y-75573425D01*
X150844666Y-75573425D02*
X150868476Y-75549615D01*
X150868476Y-75549615D02*
X150868476Y-75597234D01*
X150630381Y-75716282D02*
X150630381Y-76049615D01*
X150630381Y-75763901D02*
X150606571Y-75740091D01*
X150606571Y-75740091D02*
X150558952Y-75716282D01*
X150558952Y-75716282D02*
X150487524Y-75716282D01*
X150487524Y-75716282D02*
X150439905Y-75740091D01*
X150439905Y-75740091D02*
X150416095Y-75787710D01*
X150416095Y-75787710D02*
X150416095Y-76049615D01*
X150178000Y-76049615D02*
X150178000Y-75716282D01*
X150178000Y-75549615D02*
X150201809Y-75573425D01*
X150201809Y-75573425D02*
X150178000Y-75597234D01*
X150178000Y-75597234D02*
X150154190Y-75573425D01*
X150154190Y-75573425D02*
X150178000Y-75549615D01*
X150178000Y-75549615D02*
X150178000Y-75597234D01*
X149939905Y-75716282D02*
X149939905Y-76049615D01*
X149939905Y-75763901D02*
X149916095Y-75740091D01*
X149916095Y-75740091D02*
X149868476Y-75716282D01*
X149868476Y-75716282D02*
X149797048Y-75716282D01*
X149797048Y-75716282D02*
X149749429Y-75740091D01*
X149749429Y-75740091D02*
X149725619Y-75787710D01*
X149725619Y-75787710D02*
X149725619Y-76049615D01*
X149297048Y-76025806D02*
X149344667Y-76049615D01*
X149344667Y-76049615D02*
X149439905Y-76049615D01*
X149439905Y-76049615D02*
X149487524Y-76025806D01*
X149487524Y-76025806D02*
X149511333Y-75978186D01*
X149511333Y-75978186D02*
X149511333Y-75787710D01*
X149511333Y-75787710D02*
X149487524Y-75740091D01*
X149487524Y-75740091D02*
X149439905Y-75716282D01*
X149439905Y-75716282D02*
X149344667Y-75716282D01*
X149344667Y-75716282D02*
X149297048Y-75740091D01*
X149297048Y-75740091D02*
X149273238Y-75787710D01*
X149273238Y-75787710D02*
X149273238Y-75835329D01*
X149273238Y-75835329D02*
X149511333Y-75882948D01*
X149058953Y-75716282D02*
X149058953Y-76049615D01*
X149058953Y-75763901D02*
X149035143Y-75740091D01*
X149035143Y-75740091D02*
X148987524Y-75716282D01*
X148987524Y-75716282D02*
X148916096Y-75716282D01*
X148916096Y-75716282D02*
X148868477Y-75740091D01*
X148868477Y-75740091D02*
X148844667Y-75787710D01*
X148844667Y-75787710D02*
X148844667Y-76049615D01*
X156154189Y-76854587D02*
X156154189Y-76354587D01*
X156154189Y-76592682D02*
X155868475Y-76592682D01*
X155868475Y-76854587D02*
X155868475Y-76354587D01*
X155630379Y-76592682D02*
X155463712Y-76592682D01*
X155392284Y-76854587D02*
X155630379Y-76854587D01*
X155630379Y-76854587D02*
X155630379Y-76354587D01*
X155630379Y-76354587D02*
X155392284Y-76354587D01*
X155177998Y-76854587D02*
X155177998Y-76354587D01*
X154939903Y-76854587D02*
X154939903Y-76354587D01*
X154939903Y-76354587D02*
X154654189Y-76854587D01*
X154654189Y-76854587D02*
X154654189Y-76354587D01*
X154416093Y-76854587D02*
X154416093Y-76354587D01*
X154201807Y-76830778D02*
X154130379Y-76854587D01*
X154130379Y-76854587D02*
X154011331Y-76854587D01*
X154011331Y-76854587D02*
X153963712Y-76830778D01*
X153963712Y-76830778D02*
X153939903Y-76806968D01*
X153939903Y-76806968D02*
X153916093Y-76759349D01*
X153916093Y-76759349D02*
X153916093Y-76711730D01*
X153916093Y-76711730D02*
X153939903Y-76664111D01*
X153939903Y-76664111D02*
X153963712Y-76640301D01*
X153963712Y-76640301D02*
X154011331Y-76616492D01*
X154011331Y-76616492D02*
X154106569Y-76592682D01*
X154106569Y-76592682D02*
X154154188Y-76568873D01*
X154154188Y-76568873D02*
X154177998Y-76545063D01*
X154177998Y-76545063D02*
X154201807Y-76497444D01*
X154201807Y-76497444D02*
X154201807Y-76449825D01*
X154201807Y-76449825D02*
X154177998Y-76402206D01*
X154177998Y-76402206D02*
X154154188Y-76378397D01*
X154154188Y-76378397D02*
X154106569Y-76354587D01*
X154106569Y-76354587D02*
X153987522Y-76354587D01*
X153987522Y-76354587D02*
X153916093Y-76378397D01*
X153701808Y-76592682D02*
X153535141Y-76592682D01*
X153463713Y-76854587D02*
X153701808Y-76854587D01*
X153701808Y-76854587D02*
X153701808Y-76354587D01*
X153701808Y-76354587D02*
X153463713Y-76354587D01*
X153320855Y-76354587D02*
X153035141Y-76354587D01*
X153177998Y-76854587D02*
X153177998Y-76354587D01*
X152868475Y-76806968D02*
X152844665Y-76830778D01*
X152844665Y-76830778D02*
X152868475Y-76854587D01*
X152868475Y-76854587D02*
X152892284Y-76830778D01*
X152892284Y-76830778D02*
X152868475Y-76806968D01*
X152868475Y-76806968D02*
X152868475Y-76854587D01*
X152463713Y-76592682D02*
X152630380Y-76592682D01*
X152630380Y-76854587D02*
X152630380Y-76354587D01*
X152630380Y-76354587D02*
X152392285Y-76354587D01*
X152201809Y-76854587D02*
X152201809Y-76354587D01*
X155606569Y-77850035D02*
X155630378Y-77826226D01*
X155630378Y-77826226D02*
X155677997Y-77754797D01*
X155677997Y-77754797D02*
X155701807Y-77707178D01*
X155701807Y-77707178D02*
X155725616Y-77635750D01*
X155725616Y-77635750D02*
X155749426Y-77516702D01*
X155749426Y-77516702D02*
X155749426Y-77421464D01*
X155749426Y-77421464D02*
X155725616Y-77302416D01*
X155725616Y-77302416D02*
X155701807Y-77230988D01*
X155701807Y-77230988D02*
X155677997Y-77183369D01*
X155677997Y-77183369D02*
X155630378Y-77111940D01*
X155630378Y-77111940D02*
X155606569Y-77088130D01*
X155201807Y-77635750D02*
X155249426Y-77659559D01*
X155249426Y-77659559D02*
X155344664Y-77659559D01*
X155344664Y-77659559D02*
X155392283Y-77635750D01*
X155392283Y-77635750D02*
X155416093Y-77611940D01*
X155416093Y-77611940D02*
X155439902Y-77564321D01*
X155439902Y-77564321D02*
X155439902Y-77421464D01*
X155439902Y-77421464D02*
X155416093Y-77373845D01*
X155416093Y-77373845D02*
X155392283Y-77350035D01*
X155392283Y-77350035D02*
X155344664Y-77326226D01*
X155344664Y-77326226D02*
X155249426Y-77326226D01*
X155249426Y-77326226D02*
X155201807Y-77350035D01*
X155035141Y-77850035D02*
X155011331Y-77826226D01*
X155011331Y-77826226D02*
X154963712Y-77754797D01*
X154963712Y-77754797D02*
X154939903Y-77707178D01*
X154939903Y-77707178D02*
X154916093Y-77635750D01*
X154916093Y-77635750D02*
X154892284Y-77516702D01*
X154892284Y-77516702D02*
X154892284Y-77421464D01*
X154892284Y-77421464D02*
X154916093Y-77302416D01*
X154916093Y-77302416D02*
X154939903Y-77230988D01*
X154939903Y-77230988D02*
X154963712Y-77183369D01*
X154963712Y-77183369D02*
X155011331Y-77111940D01*
X155011331Y-77111940D02*
X155035141Y-77088130D01*
X154297046Y-77207178D02*
X154273237Y-77183369D01*
X154273237Y-77183369D02*
X154225618Y-77159559D01*
X154225618Y-77159559D02*
X154106570Y-77159559D01*
X154106570Y-77159559D02*
X154058951Y-77183369D01*
X154058951Y-77183369D02*
X154035142Y-77207178D01*
X154035142Y-77207178D02*
X154011332Y-77254797D01*
X154011332Y-77254797D02*
X154011332Y-77302416D01*
X154011332Y-77302416D02*
X154035142Y-77373845D01*
X154035142Y-77373845D02*
X154320856Y-77659559D01*
X154320856Y-77659559D02*
X154011332Y-77659559D01*
X153701809Y-77159559D02*
X153654190Y-77159559D01*
X153654190Y-77159559D02*
X153606571Y-77183369D01*
X153606571Y-77183369D02*
X153582761Y-77207178D01*
X153582761Y-77207178D02*
X153558952Y-77254797D01*
X153558952Y-77254797D02*
X153535142Y-77350035D01*
X153535142Y-77350035D02*
X153535142Y-77469083D01*
X153535142Y-77469083D02*
X153558952Y-77564321D01*
X153558952Y-77564321D02*
X153582761Y-77611940D01*
X153582761Y-77611940D02*
X153606571Y-77635750D01*
X153606571Y-77635750D02*
X153654190Y-77659559D01*
X153654190Y-77659559D02*
X153701809Y-77659559D01*
X153701809Y-77659559D02*
X153749428Y-77635750D01*
X153749428Y-77635750D02*
X153773237Y-77611940D01*
X153773237Y-77611940D02*
X153797047Y-77564321D01*
X153797047Y-77564321D02*
X153820856Y-77469083D01*
X153820856Y-77469083D02*
X153820856Y-77350035D01*
X153820856Y-77350035D02*
X153797047Y-77254797D01*
X153797047Y-77254797D02*
X153773237Y-77207178D01*
X153773237Y-77207178D02*
X153749428Y-77183369D01*
X153749428Y-77183369D02*
X153701809Y-77159559D01*
X153344666Y-77207178D02*
X153320857Y-77183369D01*
X153320857Y-77183369D02*
X153273238Y-77159559D01*
X153273238Y-77159559D02*
X153154190Y-77159559D01*
X153154190Y-77159559D02*
X153106571Y-77183369D01*
X153106571Y-77183369D02*
X153082762Y-77207178D01*
X153082762Y-77207178D02*
X153058952Y-77254797D01*
X153058952Y-77254797D02*
X153058952Y-77302416D01*
X153058952Y-77302416D02*
X153082762Y-77373845D01*
X153082762Y-77373845D02*
X153368476Y-77659559D01*
X153368476Y-77659559D02*
X153058952Y-77659559D01*
X152630381Y-77159559D02*
X152725619Y-77159559D01*
X152725619Y-77159559D02*
X152773238Y-77183369D01*
X152773238Y-77183369D02*
X152797048Y-77207178D01*
X152797048Y-77207178D02*
X152844667Y-77278607D01*
X152844667Y-77278607D02*
X152868476Y-77373845D01*
X152868476Y-77373845D02*
X152868476Y-77564321D01*
X152868476Y-77564321D02*
X152844667Y-77611940D01*
X152844667Y-77611940D02*
X152820857Y-77635750D01*
X152820857Y-77635750D02*
X152773238Y-77659559D01*
X152773238Y-77659559D02*
X152678000Y-77659559D01*
X152678000Y-77659559D02*
X152630381Y-77635750D01*
X152630381Y-77635750D02*
X152606572Y-77611940D01*
X152606572Y-77611940D02*
X152582762Y-77564321D01*
X152582762Y-77564321D02*
X152582762Y-77445273D01*
X152582762Y-77445273D02*
X152606572Y-77397654D01*
X152606572Y-77397654D02*
X152630381Y-77373845D01*
X152630381Y-77373845D02*
X152678000Y-77350035D01*
X152678000Y-77350035D02*
X152773238Y-77350035D01*
X152773238Y-77350035D02*
X152820857Y-77373845D01*
X152820857Y-77373845D02*
X152844667Y-77397654D01*
X152844667Y-77397654D02*
X152868476Y-77445273D01*
D11*
X163678863Y-81460592D02*
X163721720Y-81503450D01*
X163721720Y-81503450D02*
X163850292Y-81546307D01*
X163850292Y-81546307D02*
X163936006Y-81546307D01*
X163936006Y-81546307D02*
X164064577Y-81503450D01*
X164064577Y-81503450D02*
X164150292Y-81417735D01*
X164150292Y-81417735D02*
X164193149Y-81332021D01*
X164193149Y-81332021D02*
X164236006Y-81160592D01*
X164236006Y-81160592D02*
X164236006Y-81032021D01*
X164236006Y-81032021D02*
X164193149Y-80860592D01*
X164193149Y-80860592D02*
X164150292Y-80774878D01*
X164150292Y-80774878D02*
X164064577Y-80689164D01*
X164064577Y-80689164D02*
X163936006Y-80646307D01*
X163936006Y-80646307D02*
X163850292Y-80646307D01*
X163850292Y-80646307D02*
X163721720Y-80689164D01*
X163721720Y-80689164D02*
X163678863Y-80732021D01*
X163164577Y-81546307D02*
X163250292Y-81503450D01*
X163250292Y-81503450D02*
X163293149Y-81460592D01*
X163293149Y-81460592D02*
X163336006Y-81374878D01*
X163336006Y-81374878D02*
X163336006Y-81117735D01*
X163336006Y-81117735D02*
X163293149Y-81032021D01*
X163293149Y-81032021D02*
X163250292Y-80989164D01*
X163250292Y-80989164D02*
X163164577Y-80946307D01*
X163164577Y-80946307D02*
X163036006Y-80946307D01*
X163036006Y-80946307D02*
X162950292Y-80989164D01*
X162950292Y-80989164D02*
X162907435Y-81032021D01*
X162907435Y-81032021D02*
X162864577Y-81117735D01*
X162864577Y-81117735D02*
X162864577Y-81374878D01*
X162864577Y-81374878D02*
X162907435Y-81460592D01*
X162907435Y-81460592D02*
X162950292Y-81503450D01*
X162950292Y-81503450D02*
X163036006Y-81546307D01*
X163036006Y-81546307D02*
X163164577Y-81546307D01*
X162478863Y-81546307D02*
X162478863Y-80946307D01*
X162478863Y-81032021D02*
X162436006Y-80989164D01*
X162436006Y-80989164D02*
X162350291Y-80946307D01*
X162350291Y-80946307D02*
X162221720Y-80946307D01*
X162221720Y-80946307D02*
X162136006Y-80989164D01*
X162136006Y-80989164D02*
X162093149Y-81074878D01*
X162093149Y-81074878D02*
X162093149Y-81546307D01*
X162093149Y-81074878D02*
X162050291Y-80989164D01*
X162050291Y-80989164D02*
X161964577Y-80946307D01*
X161964577Y-80946307D02*
X161836006Y-80946307D01*
X161836006Y-80946307D02*
X161750291Y-80989164D01*
X161750291Y-80989164D02*
X161707434Y-81074878D01*
X161707434Y-81074878D02*
X161707434Y-81546307D01*
X161278863Y-80946307D02*
X161278863Y-81846307D01*
X161278863Y-80989164D02*
X161193149Y-80946307D01*
X161193149Y-80946307D02*
X161021720Y-80946307D01*
X161021720Y-80946307D02*
X160936006Y-80989164D01*
X160936006Y-80989164D02*
X160893149Y-81032021D01*
X160893149Y-81032021D02*
X160850291Y-81117735D01*
X160850291Y-81117735D02*
X160850291Y-81374878D01*
X160850291Y-81374878D02*
X160893149Y-81460592D01*
X160893149Y-81460592D02*
X160936006Y-81503450D01*
X160936006Y-81503450D02*
X161021720Y-81546307D01*
X161021720Y-81546307D02*
X161193149Y-81546307D01*
X161193149Y-81546307D02*
X161278863Y-81503450D01*
X160078863Y-81546307D02*
X160078863Y-81074878D01*
X160078863Y-81074878D02*
X160121720Y-80989164D01*
X160121720Y-80989164D02*
X160207434Y-80946307D01*
X160207434Y-80946307D02*
X160378863Y-80946307D01*
X160378863Y-80946307D02*
X160464577Y-80989164D01*
X160078863Y-81503450D02*
X160164577Y-81546307D01*
X160164577Y-81546307D02*
X160378863Y-81546307D01*
X160378863Y-81546307D02*
X160464577Y-81503450D01*
X160464577Y-81503450D02*
X160507434Y-81417735D01*
X160507434Y-81417735D02*
X160507434Y-81332021D01*
X160507434Y-81332021D02*
X160464577Y-81246307D01*
X160464577Y-81246307D02*
X160378863Y-81203450D01*
X160378863Y-81203450D02*
X160164577Y-81203450D01*
X160164577Y-81203450D02*
X160078863Y-81160592D01*
X159778862Y-80946307D02*
X159436005Y-80946307D01*
X159650291Y-80646307D02*
X159650291Y-81417735D01*
X159650291Y-81417735D02*
X159607434Y-81503450D01*
X159607434Y-81503450D02*
X159521719Y-81546307D01*
X159521719Y-81546307D02*
X159436005Y-81546307D01*
X159136005Y-81546307D02*
X159136005Y-80946307D01*
X159136005Y-80646307D02*
X159178862Y-80689164D01*
X159178862Y-80689164D02*
X159136005Y-80732021D01*
X159136005Y-80732021D02*
X159093148Y-80689164D01*
X159093148Y-80689164D02*
X159136005Y-80646307D01*
X159136005Y-80646307D02*
X159136005Y-80732021D01*
X158707434Y-81546307D02*
X158707434Y-80646307D01*
X158707434Y-80989164D02*
X158621720Y-80946307D01*
X158621720Y-80946307D02*
X158450291Y-80946307D01*
X158450291Y-80946307D02*
X158364577Y-80989164D01*
X158364577Y-80989164D02*
X158321720Y-81032021D01*
X158321720Y-81032021D02*
X158278862Y-81117735D01*
X158278862Y-81117735D02*
X158278862Y-81374878D01*
X158278862Y-81374878D02*
X158321720Y-81460592D01*
X158321720Y-81460592D02*
X158364577Y-81503450D01*
X158364577Y-81503450D02*
X158450291Y-81546307D01*
X158450291Y-81546307D02*
X158621720Y-81546307D01*
X158621720Y-81546307D02*
X158707434Y-81503450D01*
X157764576Y-81546307D02*
X157850291Y-81503450D01*
X157850291Y-81503450D02*
X157893148Y-81417735D01*
X157893148Y-81417735D02*
X157893148Y-80646307D01*
X157078862Y-81503450D02*
X157164576Y-81546307D01*
X157164576Y-81546307D02*
X157336005Y-81546307D01*
X157336005Y-81546307D02*
X157421719Y-81503450D01*
X157421719Y-81503450D02*
X157464576Y-81417735D01*
X157464576Y-81417735D02*
X157464576Y-81074878D01*
X157464576Y-81074878D02*
X157421719Y-80989164D01*
X157421719Y-80989164D02*
X157336005Y-80946307D01*
X157336005Y-80946307D02*
X157164576Y-80946307D01*
X157164576Y-80946307D02*
X157078862Y-80989164D01*
X157078862Y-80989164D02*
X157036005Y-81074878D01*
X157036005Y-81074878D02*
X157036005Y-81160592D01*
X157036005Y-81160592D02*
X157464576Y-81246307D01*
X156050290Y-80946307D02*
X155878862Y-81546307D01*
X155878862Y-81546307D02*
X155707433Y-81117735D01*
X155707433Y-81117735D02*
X155536004Y-81546307D01*
X155536004Y-81546307D02*
X155364576Y-80946307D01*
X155021719Y-81546307D02*
X155021719Y-80946307D01*
X155021719Y-80646307D02*
X155064576Y-80689164D01*
X155064576Y-80689164D02*
X155021719Y-80732021D01*
X155021719Y-80732021D02*
X154978862Y-80689164D01*
X154978862Y-80689164D02*
X155021719Y-80646307D01*
X155021719Y-80646307D02*
X155021719Y-80732021D01*
X154721719Y-80946307D02*
X154378862Y-80946307D01*
X154593148Y-80646307D02*
X154593148Y-81417735D01*
X154593148Y-81417735D02*
X154550291Y-81503450D01*
X154550291Y-81503450D02*
X154464576Y-81546307D01*
X154464576Y-81546307D02*
X154378862Y-81546307D01*
X154078862Y-81546307D02*
X154078862Y-80646307D01*
X153693148Y-81546307D02*
X153693148Y-81074878D01*
X153693148Y-81074878D02*
X153736005Y-80989164D01*
X153736005Y-80989164D02*
X153821719Y-80946307D01*
X153821719Y-80946307D02*
X153950290Y-80946307D01*
X153950290Y-80946307D02*
X154036005Y-80989164D01*
X154036005Y-80989164D02*
X154078862Y-81032021D01*
X152621719Y-81503450D02*
X152493148Y-81546307D01*
X152493148Y-81546307D02*
X152278862Y-81546307D01*
X152278862Y-81546307D02*
X152193148Y-81503450D01*
X152193148Y-81503450D02*
X152150290Y-81460592D01*
X152150290Y-81460592D02*
X152107433Y-81374878D01*
X152107433Y-81374878D02*
X152107433Y-81289164D01*
X152107433Y-81289164D02*
X152150290Y-81203450D01*
X152150290Y-81203450D02*
X152193148Y-81160592D01*
X152193148Y-81160592D02*
X152278862Y-81117735D01*
X152278862Y-81117735D02*
X152450290Y-81074878D01*
X152450290Y-81074878D02*
X152536005Y-81032021D01*
X152536005Y-81032021D02*
X152578862Y-80989164D01*
X152578862Y-80989164D02*
X152621719Y-80903450D01*
X152621719Y-80903450D02*
X152621719Y-80817735D01*
X152621719Y-80817735D02*
X152578862Y-80732021D01*
X152578862Y-80732021D02*
X152536005Y-80689164D01*
X152536005Y-80689164D02*
X152450290Y-80646307D01*
X152450290Y-80646307D02*
X152236005Y-80646307D01*
X152236005Y-80646307D02*
X152107433Y-80689164D01*
X151721719Y-80946307D02*
X151721719Y-81846307D01*
X151721719Y-80989164D02*
X151636005Y-80946307D01*
X151636005Y-80946307D02*
X151464576Y-80946307D01*
X151464576Y-80946307D02*
X151378862Y-80989164D01*
X151378862Y-80989164D02*
X151336005Y-81032021D01*
X151336005Y-81032021D02*
X151293147Y-81117735D01*
X151293147Y-81117735D02*
X151293147Y-81374878D01*
X151293147Y-81374878D02*
X151336005Y-81460592D01*
X151336005Y-81460592D02*
X151378862Y-81503450D01*
X151378862Y-81503450D02*
X151464576Y-81546307D01*
X151464576Y-81546307D02*
X151636005Y-81546307D01*
X151636005Y-81546307D02*
X151721719Y-81503450D01*
X150564576Y-81503450D02*
X150650290Y-81546307D01*
X150650290Y-81546307D02*
X150821719Y-81546307D01*
X150821719Y-81546307D02*
X150907433Y-81503450D01*
X150907433Y-81503450D02*
X150950290Y-81417735D01*
X150950290Y-81417735D02*
X150950290Y-81074878D01*
X150950290Y-81074878D02*
X150907433Y-80989164D01*
X150907433Y-80989164D02*
X150821719Y-80946307D01*
X150821719Y-80946307D02*
X150650290Y-80946307D01*
X150650290Y-80946307D02*
X150564576Y-80989164D01*
X150564576Y-80989164D02*
X150521719Y-81074878D01*
X150521719Y-81074878D02*
X150521719Y-81160592D01*
X150521719Y-81160592D02*
X150950290Y-81246307D01*
X149793147Y-81503450D02*
X149878861Y-81546307D01*
X149878861Y-81546307D02*
X150050290Y-81546307D01*
X150050290Y-81546307D02*
X150136004Y-81503450D01*
X150136004Y-81503450D02*
X150178861Y-81417735D01*
X150178861Y-81417735D02*
X150178861Y-81074878D01*
X150178861Y-81074878D02*
X150136004Y-80989164D01*
X150136004Y-80989164D02*
X150050290Y-80946307D01*
X150050290Y-80946307D02*
X149878861Y-80946307D01*
X149878861Y-80946307D02*
X149793147Y-80989164D01*
X149793147Y-80989164D02*
X149750290Y-81074878D01*
X149750290Y-81074878D02*
X149750290Y-81160592D01*
X149750290Y-81160592D02*
X150178861Y-81246307D01*
X148978861Y-81546307D02*
X148978861Y-80646307D01*
X148978861Y-81503450D02*
X149064575Y-81546307D01*
X149064575Y-81546307D02*
X149236003Y-81546307D01*
X149236003Y-81546307D02*
X149321718Y-81503450D01*
X149321718Y-81503450D02*
X149364575Y-81460592D01*
X149364575Y-81460592D02*
X149407432Y-81374878D01*
X149407432Y-81374878D02*
X149407432Y-81117735D01*
X149407432Y-81117735D02*
X149364575Y-81032021D01*
X149364575Y-81032021D02*
X149321718Y-80989164D01*
X149321718Y-80989164D02*
X149236003Y-80946307D01*
X149236003Y-80946307D02*
X149064575Y-80946307D01*
X149064575Y-80946307D02*
X148978861Y-80989164D01*
X148164575Y-80946307D02*
X148164575Y-81546307D01*
X148550289Y-80946307D02*
X148550289Y-81417735D01*
X148550289Y-81417735D02*
X148507432Y-81503450D01*
X148507432Y-81503450D02*
X148421717Y-81546307D01*
X148421717Y-81546307D02*
X148293146Y-81546307D01*
X148293146Y-81546307D02*
X148207432Y-81503450D01*
X148207432Y-81503450D02*
X148164575Y-81460592D01*
X147736003Y-81546307D02*
X147736003Y-80946307D01*
X147736003Y-80646307D02*
X147778860Y-80689164D01*
X147778860Y-80689164D02*
X147736003Y-80732021D01*
X147736003Y-80732021D02*
X147693146Y-80689164D01*
X147693146Y-80689164D02*
X147736003Y-80646307D01*
X147736003Y-80646307D02*
X147736003Y-80732021D01*
X147307432Y-80946307D02*
X147307432Y-81546307D01*
X147307432Y-81032021D02*
X147264575Y-80989164D01*
X147264575Y-80989164D02*
X147178860Y-80946307D01*
X147178860Y-80946307D02*
X147050289Y-80946307D01*
X147050289Y-80946307D02*
X146964575Y-80989164D01*
X146964575Y-80989164D02*
X146921718Y-81074878D01*
X146921718Y-81074878D02*
X146921718Y-81546307D01*
X146364574Y-81546307D02*
X146450289Y-81503450D01*
X146450289Y-81503450D02*
X146493146Y-81460592D01*
X146493146Y-81460592D02*
X146536003Y-81374878D01*
X146536003Y-81374878D02*
X146536003Y-81117735D01*
X146536003Y-81117735D02*
X146493146Y-81032021D01*
X146493146Y-81032021D02*
X146450289Y-80989164D01*
X146450289Y-80989164D02*
X146364574Y-80946307D01*
X146364574Y-80946307D02*
X146236003Y-80946307D01*
X146236003Y-80946307D02*
X146150289Y-80989164D01*
X146150289Y-80989164D02*
X146107432Y-81032021D01*
X146107432Y-81032021D02*
X146064574Y-81117735D01*
X146064574Y-81117735D02*
X146064574Y-81374878D01*
X146064574Y-81374878D02*
X146107432Y-81460592D01*
X146107432Y-81460592D02*
X146150289Y-81503450D01*
X146150289Y-81503450D02*
X146236003Y-81546307D01*
X146236003Y-81546307D02*
X146364574Y-81546307D01*
M02*
