%TF.GenerationSoftware,KiCad,Pcbnew,9.0.7*%
%TF.CreationDate,2026-06-24T16:29:02+03:00*%
%TF.ProjectId,VR-Conditioner-NCV1124,56522d43-6f6e-4646-9974-696f6e65722d,rev?*%
%TF.SameCoordinates,Original*%
%TF.FileFunction,Copper,L2,Bot*%
%TF.FilePolarity,Positive*%
%FSLAX46Y46*%
G04 Gerber Fmt 4.6, Leading zero omitted, Abs format (unit mm)*
G04 Created by KiCad (PCBNEW 9.0.7) date 2026-06-24 16:29:02*
%MOMM*%
%LPD*%
G01*
G04 APERTURE LIST*
G04 Aperture macros list*
%AMRoundRect*
0 Rectangle with rounded corners*
0 $1 Rounding radius*
0 $2 $3 $4 $5 $6 $7 $8 $9 X,Y pos of 4 corners*
0 Add a 4 corners polygon primitive as box body*
4,1,4,$2,$3,$4,$5,$6,$7,$8,$9,$2,$3,0*
0 Add four circle primitives for the rounded corners*
1,1,$1+$1,$2,$3*
1,1,$1+$1,$4,$5*
1,1,$1+$1,$6,$7*
1,1,$1+$1,$8,$9*
0 Add four rect primitives between the rounded corners*
20,1,$1+$1,$2,$3,$4,$5,0*
20,1,$1+$1,$4,$5,$6,$7,0*
20,1,$1+$1,$6,$7,$8,$9,0*
20,1,$1+$1,$8,$9,$2,$3,0*%
G04 Aperture macros list end*
%TA.AperFunction,ComponentPad*%
%ADD10RoundRect,0.250000X-0.950000X-0.550000X0.950000X-0.550000X0.950000X0.550000X-0.950000X0.550000X0*%
%TD*%
%TA.AperFunction,ComponentPad*%
%ADD11O,2.400000X1.600000*%
%TD*%
G04 APERTURE END LIST*
D10*
%TO.P,J2,1,Pin_1*%
%TO.N,GND*%
X153162000Y-83820000D03*
D11*
%TO.P,J2,2,Pin_2*%
%TO.N,IN1+*%
X153162000Y-86360000D03*
%TO.P,J2,3,Pin_3*%
%TO.N,IN2+*%
X153162000Y-88900000D03*
%TO.P,J2,4,Pin_4*%
%TO.N,GND*%
X153162000Y-91440000D03*
%TO.P,J2,5,Pin_5*%
%TO.N,VCC*%
X160782000Y-91440000D03*
%TO.P,J2,6,Pin_6*%
%TO.N,GND*%
X160782000Y-88900000D03*
%TO.P,J2,7,Pin_7*%
%TO.N,OUT2*%
X160782000Y-86360000D03*
%TO.P,J2,8,Pin_8*%
%TO.N,OUT1*%
X160782000Y-83820000D03*
%TD*%
%TA.AperFunction,Conductor*%
%TO.N,GND*%
G36*
X163099153Y-75085233D02*
G01*
X163259512Y-75120117D01*
X163271459Y-75123349D01*
X163306497Y-75134733D01*
X163311490Y-75136475D01*
X163488639Y-75202548D01*
X163501588Y-75208239D01*
X163514445Y-75214790D01*
X163517442Y-75216371D01*
X163698545Y-75315261D01*
X163713428Y-75324826D01*
X163887748Y-75455320D01*
X163901119Y-75466906D01*
X164055093Y-75620880D01*
X164066679Y-75634251D01*
X164197173Y-75808571D01*
X164206738Y-75823454D01*
X164305589Y-76004485D01*
X164307244Y-76007622D01*
X164313755Y-76020402D01*
X164319450Y-76033359D01*
X164385523Y-76210508D01*
X164387272Y-76215523D01*
X164398647Y-76250532D01*
X164401882Y-76262492D01*
X164439959Y-76437530D01*
X164441266Y-76444488D01*
X164448432Y-76489727D01*
X164449643Y-76500281D01*
X164464184Y-76703581D01*
X164464500Y-76712427D01*
X164464500Y-91308572D01*
X164464184Y-91317417D01*
X164464184Y-91317419D01*
X164449643Y-91520718D01*
X164448432Y-91531271D01*
X164441266Y-91576510D01*
X164439959Y-91583468D01*
X164401882Y-91758506D01*
X164398647Y-91770466D01*
X164387272Y-91805475D01*
X164385523Y-91810490D01*
X164319450Y-91987639D01*
X164313755Y-92000596D01*
X164307244Y-92013376D01*
X164305589Y-92016513D01*
X164206738Y-92197545D01*
X164197173Y-92212428D01*
X164066679Y-92386748D01*
X164055093Y-92400119D01*
X163901119Y-92554093D01*
X163887748Y-92565679D01*
X163713428Y-92696173D01*
X163698545Y-92705738D01*
X163517513Y-92804589D01*
X163514376Y-92806244D01*
X163501596Y-92812755D01*
X163488639Y-92818450D01*
X163311490Y-92884523D01*
X163306475Y-92886272D01*
X163271466Y-92897647D01*
X163259506Y-92900882D01*
X163084468Y-92938959D01*
X163077510Y-92940266D01*
X163032271Y-92947432D01*
X163021718Y-92948643D01*
X162840289Y-92961619D01*
X162818417Y-92963184D01*
X162809572Y-92963500D01*
X161451951Y-92963500D01*
X161384912Y-92943815D01*
X161339157Y-92891011D01*
X161329213Y-92821853D01*
X161358238Y-92758297D01*
X161417016Y-92720523D01*
X161432553Y-92717027D01*
X161486534Y-92708477D01*
X161508041Y-92701489D01*
X161681219Y-92645220D01*
X161863610Y-92552287D01*
X161957916Y-92483770D01*
X162029213Y-92431971D01*
X162029215Y-92431968D01*
X162029219Y-92431966D01*
X162173966Y-92287219D01*
X162173968Y-92287215D01*
X162173971Y-92287213D01*
X162239117Y-92197545D01*
X162294287Y-92121610D01*
X162387220Y-91939219D01*
X162450477Y-91744534D01*
X162482500Y-91542352D01*
X162482500Y-91337648D01*
X162450477Y-91135466D01*
X162387220Y-90940781D01*
X162387218Y-90940778D01*
X162387218Y-90940776D01*
X162353503Y-90874607D01*
X162294287Y-90758390D01*
X162286556Y-90747749D01*
X162173971Y-90592786D01*
X162029213Y-90448028D01*
X161863613Y-90327715D01*
X161863612Y-90327714D01*
X161863610Y-90327713D01*
X161806653Y-90298691D01*
X161681223Y-90234781D01*
X161486534Y-90171522D01*
X161311995Y-90143878D01*
X161284352Y-90139500D01*
X160279648Y-90139500D01*
X160255329Y-90143351D01*
X160077465Y-90171522D01*
X159882776Y-90234781D01*
X159700386Y-90327715D01*
X159534786Y-90448028D01*
X159390028Y-90592786D01*
X159269715Y-90758386D01*
X159176781Y-90940776D01*
X159113522Y-91135465D01*
X159081500Y-91337648D01*
X159081500Y-91542351D01*
X159113522Y-91744534D01*
X159176781Y-91939223D01*
X159269715Y-92121613D01*
X159390028Y-92287213D01*
X159534786Y-92431971D01*
X159689749Y-92544556D01*
X159700390Y-92552287D01*
X159816607Y-92611503D01*
X159882776Y-92645218D01*
X159882778Y-92645218D01*
X159882781Y-92645220D01*
X159987137Y-92679127D01*
X160077465Y-92708477D01*
X160131447Y-92717027D01*
X160194582Y-92746956D01*
X160231513Y-92806268D01*
X160230515Y-92876130D01*
X160191905Y-92934363D01*
X160127941Y-92962477D01*
X160112049Y-92963500D01*
X147451428Y-92963500D01*
X147442582Y-92963184D01*
X147239281Y-92948643D01*
X147228727Y-92947432D01*
X147183488Y-92940266D01*
X147176530Y-92938959D01*
X147001492Y-92900882D01*
X146989532Y-92897647D01*
X146954523Y-92886272D01*
X146949508Y-92884523D01*
X146772359Y-92818450D01*
X146759402Y-92812755D01*
X146751458Y-92808708D01*
X146746606Y-92806235D01*
X146743505Y-92804599D01*
X146626115Y-92740500D01*
X146562454Y-92705738D01*
X146547571Y-92696173D01*
X146373251Y-92565679D01*
X146359880Y-92554093D01*
X146205906Y-92400119D01*
X146194320Y-92386748D01*
X146063826Y-92212428D01*
X146054261Y-92197545D01*
X146012799Y-92121613D01*
X145955371Y-92016442D01*
X145953790Y-92013445D01*
X145947239Y-92000588D01*
X145941548Y-91987639D01*
X145875475Y-91810490D01*
X145873733Y-91805497D01*
X145862349Y-91770459D01*
X145859116Y-91758506D01*
X145821039Y-91583468D01*
X145819736Y-91576532D01*
X145812562Y-91531238D01*
X145811358Y-91520750D01*
X145796816Y-91317417D01*
X145796500Y-91308572D01*
X145796500Y-86257648D01*
X151461500Y-86257648D01*
X151461500Y-86462351D01*
X151493522Y-86664534D01*
X151556781Y-86859223D01*
X151649715Y-87041613D01*
X151770028Y-87207213D01*
X151914786Y-87351971D01*
X152069749Y-87464556D01*
X152080390Y-87472287D01*
X152171840Y-87518883D01*
X152173080Y-87519515D01*
X152223876Y-87567490D01*
X152240671Y-87635311D01*
X152218134Y-87701446D01*
X152173080Y-87740485D01*
X152080386Y-87787715D01*
X151914786Y-87908028D01*
X151770028Y-88052786D01*
X151649715Y-88218386D01*
X151556781Y-88400776D01*
X151493522Y-88595465D01*
X151461500Y-88797648D01*
X151461500Y-89002351D01*
X151493522Y-89204534D01*
X151556781Y-89399223D01*
X151649715Y-89581613D01*
X151770028Y-89747213D01*
X151914786Y-89891971D01*
X152069749Y-90004556D01*
X152080390Y-90012287D01*
X152196607Y-90071503D01*
X152262776Y-90105218D01*
X152262778Y-90105218D01*
X152262781Y-90105220D01*
X152367137Y-90139127D01*
X152457465Y-90168477D01*
X152476697Y-90171523D01*
X152659648Y-90200500D01*
X152659649Y-90200500D01*
X153664351Y-90200500D01*
X153664352Y-90200500D01*
X153866534Y-90168477D01*
X154061219Y-90105220D01*
X154243610Y-90012287D01*
X154336590Y-89944732D01*
X154409213Y-89891971D01*
X154409215Y-89891968D01*
X154409219Y-89891966D01*
X154553966Y-89747219D01*
X154553968Y-89747215D01*
X154553971Y-89747213D01*
X154606732Y-89674590D01*
X154674287Y-89581610D01*
X154767220Y-89399219D01*
X154830477Y-89204534D01*
X154862500Y-89002352D01*
X154862500Y-88797648D01*
X154830477Y-88595466D01*
X154767220Y-88400781D01*
X154767218Y-88400778D01*
X154767218Y-88400776D01*
X154733503Y-88334607D01*
X154674287Y-88218390D01*
X154666556Y-88207749D01*
X154553971Y-88052786D01*
X154409213Y-87908028D01*
X154243614Y-87787715D01*
X154237006Y-87784348D01*
X154150917Y-87740483D01*
X154100123Y-87692511D01*
X154083328Y-87624690D01*
X154105865Y-87558555D01*
X154150917Y-87519516D01*
X154243610Y-87472287D01*
X154264770Y-87456913D01*
X154409213Y-87351971D01*
X154409215Y-87351968D01*
X154409219Y-87351966D01*
X154553966Y-87207219D01*
X154553968Y-87207215D01*
X154553971Y-87207213D01*
X154606732Y-87134590D01*
X154674287Y-87041610D01*
X154767220Y-86859219D01*
X154830477Y-86664534D01*
X154862500Y-86462352D01*
X154862500Y-86257648D01*
X154830477Y-86055466D01*
X154767220Y-85860781D01*
X154767218Y-85860778D01*
X154767218Y-85860776D01*
X154733503Y-85794607D01*
X154674287Y-85678390D01*
X154666556Y-85667749D01*
X154553971Y-85512786D01*
X154409213Y-85368028D01*
X154243613Y-85247715D01*
X154243612Y-85247714D01*
X154243610Y-85247713D01*
X154186653Y-85218691D01*
X154061223Y-85154781D01*
X153866534Y-85091522D01*
X153691995Y-85063878D01*
X153664352Y-85059500D01*
X152659648Y-85059500D01*
X152635329Y-85063351D01*
X152457465Y-85091522D01*
X152262776Y-85154781D01*
X152080386Y-85247715D01*
X151914786Y-85368028D01*
X151770028Y-85512786D01*
X151649715Y-85678386D01*
X151556781Y-85860776D01*
X151493522Y-86055465D01*
X151461500Y-86257648D01*
X145796500Y-86257648D01*
X145796500Y-83717648D01*
X159081500Y-83717648D01*
X159081500Y-83922351D01*
X159113522Y-84124534D01*
X159176781Y-84319223D01*
X159269715Y-84501613D01*
X159390028Y-84667213D01*
X159534786Y-84811971D01*
X159689749Y-84924556D01*
X159700390Y-84932287D01*
X159791840Y-84978883D01*
X159793080Y-84979515D01*
X159843876Y-85027490D01*
X159860671Y-85095311D01*
X159838134Y-85161446D01*
X159793080Y-85200485D01*
X159700386Y-85247715D01*
X159534786Y-85368028D01*
X159390028Y-85512786D01*
X159269715Y-85678386D01*
X159176781Y-85860776D01*
X159113522Y-86055465D01*
X159081500Y-86257648D01*
X159081500Y-86462351D01*
X159113522Y-86664534D01*
X159176781Y-86859223D01*
X159269715Y-87041613D01*
X159390028Y-87207213D01*
X159534786Y-87351971D01*
X159689749Y-87464556D01*
X159700390Y-87472287D01*
X159793080Y-87519515D01*
X159882776Y-87565218D01*
X159882778Y-87565218D01*
X159882781Y-87565220D01*
X159987137Y-87599127D01*
X160077465Y-87628477D01*
X160096697Y-87631523D01*
X160279648Y-87660500D01*
X160279649Y-87660500D01*
X161284351Y-87660500D01*
X161284352Y-87660500D01*
X161486534Y-87628477D01*
X161681219Y-87565220D01*
X161863610Y-87472287D01*
X161956590Y-87404732D01*
X162029213Y-87351971D01*
X162029215Y-87351968D01*
X162029219Y-87351966D01*
X162173966Y-87207219D01*
X162173968Y-87207215D01*
X162173971Y-87207213D01*
X162226732Y-87134590D01*
X162294287Y-87041610D01*
X162387220Y-86859219D01*
X162450477Y-86664534D01*
X162482500Y-86462352D01*
X162482500Y-86257648D01*
X162450477Y-86055466D01*
X162387220Y-85860781D01*
X162387218Y-85860778D01*
X162387218Y-85860776D01*
X162353503Y-85794607D01*
X162294287Y-85678390D01*
X162286556Y-85667749D01*
X162173971Y-85512786D01*
X162029213Y-85368028D01*
X161863614Y-85247715D01*
X161857006Y-85244348D01*
X161770917Y-85200483D01*
X161720123Y-85152511D01*
X161703328Y-85084690D01*
X161725865Y-85018555D01*
X161770917Y-84979516D01*
X161863610Y-84932287D01*
X161884770Y-84916913D01*
X162029213Y-84811971D01*
X162029215Y-84811968D01*
X162029219Y-84811966D01*
X162173966Y-84667219D01*
X162173968Y-84667215D01*
X162173971Y-84667213D01*
X162226732Y-84594590D01*
X162294287Y-84501610D01*
X162387220Y-84319219D01*
X162450477Y-84124534D01*
X162482500Y-83922352D01*
X162482500Y-83717648D01*
X162450477Y-83515466D01*
X162387220Y-83320781D01*
X162387218Y-83320778D01*
X162387218Y-83320776D01*
X162353503Y-83254607D01*
X162294287Y-83138390D01*
X162286556Y-83127749D01*
X162173971Y-82972786D01*
X162029213Y-82828028D01*
X161863613Y-82707715D01*
X161863612Y-82707714D01*
X161863610Y-82707713D01*
X161806653Y-82678691D01*
X161681223Y-82614781D01*
X161486534Y-82551522D01*
X161311995Y-82523878D01*
X161284352Y-82519500D01*
X160279648Y-82519500D01*
X160255329Y-82523351D01*
X160077465Y-82551522D01*
X159882776Y-82614781D01*
X159700386Y-82707715D01*
X159534786Y-82828028D01*
X159390028Y-82972786D01*
X159269715Y-83138386D01*
X159176781Y-83320776D01*
X159113522Y-83515465D01*
X159081500Y-83717648D01*
X145796500Y-83717648D01*
X145796500Y-76712427D01*
X145796816Y-76703582D01*
X145796937Y-76701878D01*
X145811359Y-76500244D01*
X145812560Y-76489771D01*
X145819738Y-76444454D01*
X145821034Y-76437554D01*
X145859120Y-76262477D01*
X145862346Y-76250550D01*
X145873743Y-76215473D01*
X145875462Y-76210543D01*
X145941553Y-76033346D01*
X145947233Y-76020424D01*
X145953821Y-76007494D01*
X145955325Y-76004642D01*
X146054269Y-75823440D01*
X146063821Y-75808577D01*
X146194325Y-75634244D01*
X146205899Y-75620887D01*
X146359887Y-75466899D01*
X146373244Y-75455325D01*
X146547577Y-75324821D01*
X146562440Y-75315269D01*
X146743642Y-75216325D01*
X146746494Y-75214821D01*
X146759424Y-75208233D01*
X146772346Y-75202553D01*
X146949543Y-75136462D01*
X146954473Y-75134743D01*
X146989550Y-75123346D01*
X147001482Y-75120118D01*
X147139390Y-75090119D01*
X147161847Y-75085234D01*
X147188204Y-75082400D01*
X163072796Y-75082400D01*
X163099153Y-75085233D01*
G37*
%TD.AperFunction*%
%TD*%
M02*
