%TF.GenerationSoftware,KiCad,Pcbnew,9.0.7*%
%TF.CreationDate,2026-08-25T10:29:44+03:00*%
%TF.ProjectId,toyota 4efe,746f796f-7461-4203-9465-66652e6b6963,rev?*%
%TF.SameCoordinates,Original*%
%TF.FileFunction,Soldermask,Top*%
%TF.FilePolarity,Negative*%
%FSLAX46Y46*%
G04 Gerber Fmt 4.6, Leading zero omitted, Abs format (unit mm)*
G04 Created by KiCad (PCBNEW 9.0.7) date 2026-08-25 10:29:44*
%MOMM*%
%LPD*%
G01*
G04 APERTURE LIST*
G04 Aperture macros list*
%AMRoundRect*
0 Rectangle with rounded corners*
0 $1 Rounding radius*
0 $2 $3 $4 $5 $6 $7 $8 $9 X,Y pos of 4 corners*
0 Add a 4 corners polygon primitive as box body*
4,1,4,$2,$3,$4,$5,$6,$7,$8,$9,$2,$3,0*
0 Add four circle primitives for the rounded corners*
1,1,$1+$1,$2,$3*
1,1,$1+$1,$4,$5*
1,1,$1+$1,$6,$7*
1,1,$1+$1,$8,$9*
0 Add four rect primitives between the rounded corners*
20,1,$1+$1,$2,$3,$4,$5,0*
20,1,$1+$1,$4,$5,$6,$7,0*
20,1,$1+$1,$6,$7,$8,$9,0*
20,1,$1+$1,$8,$9,$2,$3,0*%
%AMFreePoly0*
4,1,23,0.000000,0.745722,0.065263,0.745722,0.191342,0.711940,0.304381,0.646677,0.396677,0.554381,0.461940,0.441342,0.495722,0.315263,0.495722,0.250000,0.500000,0.250000,0.500000,-0.250000,0.495722,-0.250000,0.495722,-0.315263,0.461940,-0.441342,0.396677,-0.554381,0.304381,-0.646677,0.191342,-0.711940,0.065263,-0.745722,0.000000,-0.745722,0.000000,-0.750000,-0.550000,-0.750000,
-0.550000,0.750000,0.000000,0.750000,0.000000,0.745722,0.000000,0.745722,$1*%
%AMFreePoly1*
4,1,23,0.550000,-0.750000,0.000000,-0.750000,0.000000,-0.745722,-0.065263,-0.745722,-0.191342,-0.711940,-0.304381,-0.646677,-0.396677,-0.554381,-0.461940,-0.441342,-0.495722,-0.315263,-0.495722,-0.250000,-0.500000,-0.250000,-0.500000,0.250000,-0.495722,0.250000,-0.495722,0.315263,-0.461940,0.441342,-0.396677,0.554381,-0.304381,0.646677,-0.191342,0.711940,-0.065263,0.745722,0.000000,0.745722,
0.000000,0.750000,0.550000,0.750000,0.550000,-0.750000,0.550000,-0.750000,$1*%
G04 Aperture macros list end*
%ADD10RoundRect,0.250000X-0.475000X0.250000X-0.475000X-0.250000X0.475000X-0.250000X0.475000X0.250000X0*%
%ADD11R,1.700000X1.700000*%
%ADD12C,1.700000*%
%ADD13R,1.600000X1.600000*%
%ADD14O,1.600000X1.600000*%
%ADD15O,1.727200X1.727200*%
%ADD16RoundRect,0.150000X-0.825000X-0.150000X0.825000X-0.150000X0.825000X0.150000X-0.825000X0.150000X0*%
%ADD17RoundRect,0.250000X-0.300000X2.050000X-0.300000X-2.050000X0.300000X-2.050000X0.300000X2.050000X0*%
%ADD18RoundRect,0.250002X-5.149998X4.449998X-5.149998X-4.449998X5.149998X-4.449998X5.149998X4.449998X0*%
%ADD19RoundRect,0.150000X0.825000X0.150000X-0.825000X0.150000X-0.825000X-0.150000X0.825000X-0.150000X0*%
%ADD20C,1.575000*%
%ADD21R,1.575000X1.575000*%
%ADD22R,1.000000X1.150000*%
%ADD23RoundRect,0.250000X0.450000X-0.262500X0.450000X0.262500X-0.450000X0.262500X-0.450000X-0.262500X0*%
%ADD24RoundRect,0.250000X0.262500X0.450000X-0.262500X0.450000X-0.262500X-0.450000X0.262500X-0.450000X0*%
%ADD25RoundRect,0.250000X-0.262500X-0.450000X0.262500X-0.450000X0.262500X0.450000X-0.262500X0.450000X0*%
%ADD26RoundRect,0.250000X-0.450000X0.262500X-0.450000X-0.262500X0.450000X-0.262500X0.450000X0.262500X0*%
%ADD27RoundRect,0.250000X-0.312500X-0.625000X0.312500X-0.625000X0.312500X0.625000X-0.312500X0.625000X0*%
%ADD28RoundRect,0.150000X0.587500X0.150000X-0.587500X0.150000X-0.587500X-0.150000X0.587500X-0.150000X0*%
%ADD29R,1.500000X1.000000*%
%ADD30R,1.000000X1.500000*%
%ADD31FreePoly0,180.000000*%
%ADD32FreePoly1,180.000000*%
%ADD33R,1.650000X1.650000*%
%ADD34C,1.650000*%
%ADD35C,5.250000*%
%ADD36RoundRect,0.250000X-1.450000X0.312500X-1.450000X-0.312500X1.450000X-0.312500X1.450000X0.312500X0*%
%ADD37RoundRect,0.112500X-0.187500X-0.112500X0.187500X-0.112500X0.187500X0.112500X-0.187500X0.112500X0*%
%ADD38RoundRect,0.250000X-0.300000X-0.300000X0.300000X-0.300000X0.300000X0.300000X-0.300000X0.300000X0*%
%ADD39RoundRect,0.250000X0.900000X-1.000000X0.900000X1.000000X-0.900000X1.000000X-0.900000X-1.000000X0*%
%ADD40RoundRect,0.250000X0.650000X-1.000000X0.650000X1.000000X-0.650000X1.000000X-0.650000X-1.000000X0*%
%ADD41RoundRect,0.243750X-0.243750X-0.456250X0.243750X-0.456250X0.243750X0.456250X-0.243750X0.456250X0*%
%ADD42RoundRect,0.250000X-0.250000X-0.475000X0.250000X-0.475000X0.250000X0.475000X-0.250000X0.475000X0*%
%ADD43RoundRect,0.250000X0.945000X-0.420000X0.945000X0.420000X-0.945000X0.420000X-0.945000X-0.420000X0*%
%ADD44RoundRect,0.250000X0.475000X-0.250000X0.475000X0.250000X-0.475000X0.250000X-0.475000X-0.250000X0*%
%ADD45RoundRect,0.250000X1.045000X-0.785000X1.045000X0.785000X-1.045000X0.785000X-1.045000X-0.785000X0*%
%ADD46RoundRect,0.250000X0.250000X0.475000X-0.250000X0.475000X-0.250000X-0.475000X0.250000X-0.475000X0*%
%ADD47RoundRect,0.250000X-0.550000X-0.550000X0.550000X-0.550000X0.550000X0.550000X-0.550000X0.550000X0*%
%ADD48C,1.600000*%
G04 APERTURE END LIST*
%TO.C,JP13*%
G36*
X55650000Y-131450000D02*
G01*
X57150000Y-131450000D01*
X57150000Y-131150000D01*
X55650000Y-131150000D01*
X55650000Y-131450000D01*
G37*
%TO.C,JP12*%
G36*
X64950000Y-121650000D02*
G01*
X64650000Y-121650000D01*
X64650000Y-120150000D01*
X64950000Y-120150000D01*
X64950000Y-121650000D01*
G37*
%TO.C,JP11*%
G36*
X163630000Y-62000000D02*
G01*
X162130000Y-62000000D01*
X162130000Y-60500000D01*
X163630000Y-60500000D01*
X163630000Y-62000000D01*
G37*
%TD*%
D10*
%TO.C,C25*%
X140300000Y-48700000D03*
X140300000Y-50600000D03*
%TD*%
D11*
%TO.C,J2*%
X177610000Y-136545000D03*
D12*
X177610000Y-139085000D03*
%TD*%
D11*
%TO.C,J1*%
X177370000Y-122705000D03*
D12*
X177370000Y-125245000D03*
%TD*%
D13*
%TO.C,A1*%
X125360000Y-138440000D03*
D14*
X127900000Y-138440000D03*
X130440000Y-138440000D03*
X132980000Y-138440000D03*
X135520000Y-138440000D03*
X138060000Y-138440000D03*
X140600000Y-138440000D03*
X143140000Y-138440000D03*
X143140000Y-125740000D03*
X140600000Y-125740000D03*
X138060000Y-125740000D03*
X135520000Y-125740000D03*
X132980000Y-125740000D03*
X130440000Y-125740000D03*
X127900000Y-125740000D03*
X125360000Y-125740000D03*
%TD*%
D15*
%TO.C,XA1*%
X160475000Y-66740500D03*
X152855000Y-66740500D03*
X150315000Y-66740500D03*
X94435000Y-115000500D03*
X91895000Y-115000500D03*
X137615000Y-66740500D03*
X135075000Y-66740500D03*
X132535000Y-66740500D03*
X129995000Y-66740500D03*
X127455000Y-66740500D03*
X124915000Y-66740500D03*
X122375000Y-66740500D03*
X119835000Y-66740500D03*
X114755000Y-66740500D03*
X112215000Y-66740500D03*
X109675000Y-66740500D03*
X107135000Y-66740500D03*
X104595000Y-66740500D03*
X102055000Y-66740500D03*
X99515000Y-66740500D03*
X96975000Y-66740500D03*
X164539000Y-115000500D03*
X124915000Y-115000500D03*
X127455000Y-115000500D03*
X129995000Y-115000500D03*
X132535000Y-115000500D03*
X135075000Y-115000500D03*
X137615000Y-115000500D03*
X140155000Y-115000500D03*
X142695000Y-115000500D03*
X146759000Y-115000500D03*
X149299000Y-115000500D03*
X151839000Y-115000500D03*
X154379000Y-115000500D03*
X156919000Y-115000500D03*
X159459000Y-115000500D03*
X119835000Y-115000500D03*
X117295000Y-115000500D03*
X114755000Y-115000500D03*
X112215000Y-115000500D03*
X109675000Y-115000500D03*
X107135000Y-115000500D03*
X104595000Y-115000500D03*
X102055000Y-115000500D03*
X94435000Y-112460500D03*
X91895000Y-112460500D03*
X94435000Y-109920500D03*
X91895000Y-109920500D03*
X94435000Y-107380500D03*
X91895000Y-107380500D03*
X94435000Y-104840500D03*
X91895000Y-104840500D03*
X94435000Y-102300500D03*
X91895000Y-102300500D03*
X94435000Y-99760500D03*
X91895000Y-99760500D03*
X94435000Y-97220500D03*
X91895000Y-97220500D03*
X94435000Y-94680500D03*
X91895000Y-94680500D03*
X94435000Y-92140500D03*
X91895000Y-92140500D03*
X94435000Y-89600500D03*
X91895000Y-89600500D03*
X94435000Y-87060500D03*
X91895000Y-87060500D03*
X94435000Y-84520500D03*
X91895000Y-84520500D03*
X94435000Y-81980500D03*
X91895000Y-81980500D03*
X94435000Y-79440500D03*
X91895000Y-79440500D03*
X94435000Y-76900500D03*
X91895000Y-76900500D03*
X94435000Y-74360500D03*
X91895000Y-74360500D03*
X161999000Y-115000500D03*
X147775000Y-66740500D03*
X145235000Y-66740500D03*
X94435000Y-71820500D03*
X91895000Y-71820500D03*
X157935000Y-66740500D03*
X155395000Y-66740500D03*
X169619000Y-115000500D03*
X167079000Y-115000500D03*
X142695000Y-66740500D03*
%TD*%
D16*
%TO.C,U9*%
X162275000Y-135832500D03*
X162275000Y-137102500D03*
X162275000Y-138372500D03*
X162275000Y-139642500D03*
X167225000Y-139642500D03*
X167225000Y-138372500D03*
X167225000Y-137102500D03*
X167225000Y-135832500D03*
%TD*%
D17*
%TO.C,U8*%
X76140000Y-138750000D03*
X73600000Y-138750000D03*
D18*
X73600000Y-147900000D03*
D17*
X71060000Y-138750000D03*
%TD*%
D19*
%TO.C,U6*%
X103100000Y-90775000D03*
X103100000Y-89505000D03*
X103100000Y-88235000D03*
X103100000Y-86965000D03*
X103100000Y-85695000D03*
X103100000Y-84425000D03*
X103100000Y-83155000D03*
X103100000Y-81885000D03*
X108050000Y-81885000D03*
X108050000Y-83155000D03*
X108050000Y-84425000D03*
X108050000Y-85695000D03*
X108050000Y-86965000D03*
X108050000Y-88235000D03*
X108050000Y-89505000D03*
X108050000Y-90775000D03*
%TD*%
D20*
%TO.C,U5*%
X177210000Y-46350000D03*
X174670000Y-46350000D03*
X172130000Y-46350000D03*
X169590000Y-46350000D03*
X167050000Y-46350000D03*
D21*
X164510000Y-46350000D03*
%TD*%
D19*
%TO.C,U3*%
X77462500Y-50505000D03*
X77462500Y-49235000D03*
X77462500Y-47965000D03*
X77462500Y-46695000D03*
X72512500Y-46695000D03*
X72512500Y-47965000D03*
X72512500Y-49235000D03*
X72512500Y-50505000D03*
%TD*%
%TO.C,U2*%
X77407500Y-86635000D03*
X77407500Y-85365000D03*
X77407500Y-84095000D03*
X77407500Y-82825000D03*
X72457500Y-82825000D03*
X72457500Y-84095000D03*
X72457500Y-85365000D03*
X72457500Y-86635000D03*
%TD*%
%TO.C,U1*%
X77612500Y-67555000D03*
X77612500Y-66285000D03*
X77612500Y-65015000D03*
X77612500Y-63745000D03*
X72662500Y-63745000D03*
X72662500Y-65015000D03*
X72662500Y-66285000D03*
X72662500Y-67555000D03*
%TD*%
D22*
%TO.C,S1*%
X150954000Y-60775500D03*
X148454000Y-60775500D03*
X145954000Y-60775500D03*
X150954000Y-55125500D03*
X148454000Y-55125500D03*
X145954000Y-55125500D03*
%TD*%
D23*
%TO.C,R61*%
X155100000Y-141850000D03*
X155100000Y-140025000D03*
%TD*%
%TO.C,R60*%
X155300000Y-135900000D03*
X155300000Y-134075000D03*
%TD*%
D24*
%TO.C,R57*%
X159262500Y-139887500D03*
X157437500Y-139887500D03*
%TD*%
%TO.C,R56*%
X159262500Y-135837500D03*
X157437500Y-135837500D03*
%TD*%
D25*
%TO.C,R55*%
X162002500Y-70235000D03*
X160177500Y-70235000D03*
%TD*%
D26*
%TO.C,R46*%
X139154000Y-60738000D03*
X139154000Y-62563000D03*
%TD*%
%TO.C,R45*%
X142954000Y-60738000D03*
X142954000Y-62563000D03*
%TD*%
D25*
%TO.C,R40*%
X136787500Y-73375000D03*
X134962500Y-73375000D03*
%TD*%
%TO.C,R39*%
X147087500Y-73900000D03*
X145262500Y-73900000D03*
%TD*%
D26*
%TO.C,R38*%
X132500000Y-78987500D03*
X132500000Y-77162500D03*
%TD*%
D25*
%TO.C,R36*%
X140387500Y-73375000D03*
X138562500Y-73375000D03*
%TD*%
D24*
%TO.C,R35*%
X142912500Y-77950000D03*
X144737500Y-77950000D03*
%TD*%
D23*
%TO.C,R34*%
X167550000Y-61527500D03*
X167550000Y-63352500D03*
%TD*%
D25*
%TO.C,R32*%
X127687500Y-62350000D03*
X125862500Y-62350000D03*
%TD*%
D24*
%TO.C,R31*%
X112812500Y-73750000D03*
X114637500Y-73750000D03*
%TD*%
D25*
%TO.C,R30*%
X131312500Y-56625000D03*
X129487500Y-56625000D03*
%TD*%
D24*
%TO.C,R29*%
X129337500Y-62350000D03*
X131162500Y-62350000D03*
%TD*%
%TO.C,R23*%
X77587500Y-55900000D03*
X75762500Y-55900000D03*
%TD*%
D25*
%TO.C,R17*%
X81187500Y-50600000D03*
X83012500Y-50600000D03*
%TD*%
D24*
%TO.C,R15*%
X83100000Y-53800000D03*
X81275000Y-53800000D03*
%TD*%
D27*
%TO.C,R14*%
X65062500Y-81675000D03*
X67987500Y-81675000D03*
%TD*%
%TO.C,R13*%
X65162500Y-85650000D03*
X68087500Y-85650000D03*
%TD*%
D24*
%TO.C,R12*%
X77700000Y-79075000D03*
X75875000Y-79075000D03*
%TD*%
%TO.C,R11*%
X77775000Y-90405000D03*
X75950000Y-90405000D03*
%TD*%
%TO.C,R9*%
X77950000Y-73350000D03*
X76125000Y-73350000D03*
%TD*%
D25*
%TO.C,R8*%
X80987500Y-81900000D03*
X82812500Y-81900000D03*
%TD*%
%TO.C,R7*%
X80912500Y-87200000D03*
X82737500Y-87200000D03*
%TD*%
%TO.C,R5*%
X80325000Y-68650000D03*
X82150000Y-68650000D03*
%TD*%
D24*
%TO.C,R4*%
X86987500Y-81875000D03*
X85162500Y-81875000D03*
%TD*%
D25*
%TO.C,R3*%
X85187500Y-87200000D03*
X87012500Y-87200000D03*
%TD*%
D24*
%TO.C,R1*%
X82150000Y-71750000D03*
X80325000Y-71750000D03*
%TD*%
D28*
%TO.C,Q2*%
X87467500Y-76650000D03*
X87467500Y-74750000D03*
X85592500Y-75700000D03*
%TD*%
D29*
%TO.C,JP13*%
X56400000Y-131950000D03*
X56400000Y-130650000D03*
%TD*%
D30*
%TO.C,JP12*%
X65450000Y-120900000D03*
X64150000Y-120900000D03*
%TD*%
D31*
%TO.C,JP11*%
X161580000Y-61250000D03*
D30*
X162880000Y-61250000D03*
D32*
X164180000Y-61250000D03*
%TD*%
D11*
%TO.C,JP1*%
X136875000Y-53155000D03*
D12*
X136875000Y-50615000D03*
X136875000Y-48075000D03*
%TD*%
D33*
%TO.C,J9*%
X60700000Y-123850000D03*
D34*
X60700000Y-120850000D03*
X60700000Y-117850000D03*
X60700000Y-114850000D03*
X60700000Y-111850000D03*
X60700000Y-108850000D03*
X60700000Y-105850000D03*
X60700000Y-102850000D03*
X56200000Y-123850000D03*
X56200000Y-120850000D03*
X56200000Y-117850000D03*
X56200000Y-114850000D03*
X56200000Y-111850000D03*
X56200000Y-108850000D03*
X56200000Y-105850000D03*
X56200000Y-102850000D03*
X60700000Y-96850000D03*
X60700000Y-93400000D03*
X60700000Y-90300000D03*
X60700000Y-87300000D03*
X60700000Y-84300000D03*
X60700000Y-81300000D03*
X60700000Y-78300000D03*
X60700000Y-75300000D03*
X60700000Y-72300000D03*
X60700000Y-69300000D03*
X60700000Y-66200000D03*
X60700000Y-62700000D03*
X60700000Y-59200000D03*
X56200000Y-96900000D03*
X56200000Y-93400000D03*
X56200000Y-90300000D03*
X56200000Y-87300000D03*
X56200000Y-84300000D03*
X56200000Y-81300000D03*
X56200000Y-78300000D03*
X56200000Y-75300000D03*
X56200000Y-72300000D03*
X56200000Y-69300000D03*
X56200000Y-66200000D03*
X56200000Y-62700000D03*
X56200000Y-59200000D03*
D35*
X50500000Y-124250000D03*
X50500000Y-100000000D03*
X50500000Y-58550000D03*
%TD*%
D36*
%TO.C,F1*%
X100050000Y-107312500D03*
X100050000Y-111587500D03*
%TD*%
D37*
%TO.C,D20*%
X131725000Y-71675000D03*
X129625000Y-71675000D03*
%TD*%
D38*
%TO.C,D19*%
X165322500Y-132170000D03*
X168122500Y-132170000D03*
%TD*%
%TO.C,D16*%
X164582500Y-142840000D03*
X167382500Y-142840000D03*
%TD*%
D39*
%TO.C,D15*%
X77000000Y-131550000D03*
X77000000Y-127250000D03*
%TD*%
D40*
%TO.C,D14*%
X64600000Y-131700000D03*
X64600000Y-127700000D03*
%TD*%
D37*
%TO.C,D11*%
X71737500Y-52700000D03*
X73837500Y-52700000D03*
%TD*%
D41*
%TO.C,D7*%
X75750000Y-52700000D03*
X77625000Y-52700000D03*
%TD*%
D37*
%TO.C,D5*%
X72350000Y-70350000D03*
X74450000Y-70350000D03*
%TD*%
D41*
%TO.C,D3*%
X76162500Y-70350000D03*
X78037500Y-70350000D03*
%TD*%
%TO.C,D2*%
X71595000Y-79025000D03*
X73470000Y-79025000D03*
%TD*%
%TO.C,D1*%
X71725000Y-90375000D03*
X73600000Y-90375000D03*
%TD*%
D42*
%TO.C,C29*%
X160080000Y-73800000D03*
X161980000Y-73800000D03*
%TD*%
D10*
%TO.C,C24*%
X143730000Y-48730000D03*
X143730000Y-50630000D03*
%TD*%
D43*
%TO.C,C21*%
X63450000Y-139875000D03*
X63450000Y-136795000D03*
%TD*%
D44*
%TO.C,C20*%
X60050000Y-139785000D03*
X60050000Y-137885000D03*
%TD*%
%TO.C,C19*%
X136154000Y-60600500D03*
X136154000Y-58700500D03*
%TD*%
D10*
%TO.C,C18*%
X73700000Y-131800000D03*
X73700000Y-133700000D03*
%TD*%
D45*
%TO.C,C17*%
X70200000Y-131620000D03*
X70200000Y-125380000D03*
%TD*%
D46*
%TO.C,C16*%
X109675000Y-119450000D03*
X111575000Y-119450000D03*
%TD*%
D42*
%TO.C,C15*%
X107050000Y-119425000D03*
X105150000Y-119425000D03*
%TD*%
%TO.C,C14*%
X136875000Y-71300000D03*
X134975000Y-71300000D03*
%TD*%
%TO.C,C13*%
X147075000Y-70475000D03*
X145175000Y-70475000D03*
%TD*%
D10*
%TO.C,C12*%
X135800000Y-79050000D03*
X135800000Y-77150000D03*
%TD*%
D42*
%TO.C,C11*%
X140500000Y-71325000D03*
X138600000Y-71325000D03*
%TD*%
%TO.C,C10*%
X146775000Y-81450000D03*
X144875000Y-81450000D03*
%TD*%
D44*
%TO.C,C9*%
X130400000Y-77100000D03*
X130400000Y-79000000D03*
%TD*%
D42*
%TO.C,C8*%
X167310000Y-67330000D03*
X165410000Y-67330000D03*
%TD*%
D46*
%TO.C,C7*%
X125500000Y-71825000D03*
X127400000Y-71825000D03*
%TD*%
%TO.C,C6*%
X112725000Y-70300000D03*
X114625000Y-70300000D03*
%TD*%
D42*
%TO.C,C4*%
X131212500Y-60375000D03*
X129312500Y-60375000D03*
%TD*%
D10*
%TO.C,C3*%
X111025000Y-75775000D03*
X111025000Y-73875000D03*
%TD*%
D42*
%TO.C,C2*%
X167725000Y-53375000D03*
X165825000Y-53375000D03*
%TD*%
%TO.C,C1*%
X167700000Y-56800000D03*
X165800000Y-56800000D03*
%TD*%
D24*
%TO.C,R47*%
X159462500Y-121550000D03*
X157637500Y-121550000D03*
%TD*%
%TO.C,R48*%
X159462500Y-125550000D03*
X157637500Y-125550000D03*
%TD*%
D23*
%TO.C,R49*%
X154800000Y-121712500D03*
X154800000Y-119887500D03*
%TD*%
%TO.C,R50*%
X154750000Y-127712500D03*
X154750000Y-125887500D03*
%TD*%
D38*
%TO.C,D17*%
X167470000Y-119430000D03*
X170270000Y-119430000D03*
%TD*%
%TO.C,D18*%
X165170000Y-128630000D03*
X167970000Y-128630000D03*
%TD*%
D16*
%TO.C,U7*%
X162392500Y-121600000D03*
X162392500Y-122870000D03*
X162392500Y-124140000D03*
X162392500Y-125410000D03*
X167342500Y-125410000D03*
X167342500Y-124140000D03*
X167342500Y-122870000D03*
X167342500Y-121600000D03*
%TD*%
D47*
%TO.C,IC3*%
X96290000Y-127990000D03*
D48*
X96290000Y-130530000D03*
X96290000Y-133070000D03*
X96290000Y-135610000D03*
X103910000Y-135610000D03*
X103910000Y-133070000D03*
X103910000Y-130530000D03*
X103910000Y-127990000D03*
%TD*%
M02*
