M48
; DRILL file {KiCad 9.0.7} date 2026-08-25T10:29:44+0300
; FORMAT={-:-/ absolute / inch / decimal}
; #@! TF.CreationDate,2026-08-25T10:29:44+03:00
; #@! TF.GenerationSoftware,Kicad,Pcbnew,9.0.7
; #@! TF.FileFunction,Plated,1,4,PTH
FMAT,2
INCH
; #@! TA.AperFunction,Plated,PTH,ViaDrill
T1C0.0157
; #@! TA.AperFunction,Plated,PTH,ComponentDrill
T2C0.0315
; #@! TA.AperFunction,Plated,PTH,ComponentDrill
T3C0.0394
; #@! TA.AperFunction,Plated,PTH,ComponentDrill
T4C0.0400
; #@! TA.AperFunction,Plated,PTH,ComponentDrill
T5C0.0413
; #@! TA.AperFunction,Plated,PTH,ComponentDrill
T6C0.0433
; #@! TA.AperFunction,Plated,PTH,ComponentDrill
T7C0.1378
%
G90
G05
T1
X2.5768Y-2.8917
X2.5768Y-4.8386
X2.5768Y-4.8789
X2.5768Y-4.9242
X2.5886Y-5.5069
X2.6181Y-3.5335
X2.6181Y-3.6122
X2.6201Y-4.2953
X2.622Y-3.4744
X2.6319Y-5.5069
X2.6732Y-5.5069
X2.7008Y-2.7992
X2.7185Y-5.5069
X2.9208Y-2.1993
X2.9449Y-3.3031
X3.6161Y-2.5118
X4.0079Y-4.1585
X4.3425Y-3.374
X4.4606Y-3.4016
X4.5394Y-3.3937
X4.6809Y-2.9803
X5.1063Y-3.6161
X5.2392Y-2.9252
X5.3091Y-2.5079
X5.314Y-2.7441
X5.4587Y-2.8484
X5.7047Y-3.1378
X5.8406Y-3.5787
X6.3024Y-2.8346
X6.5315Y-2.4223
X6.587Y-2.5689
T2
X3.7909Y-5.039
X3.7909Y-5.139
X3.7909Y-5.239
X3.7909Y-5.339
X4.0909Y-5.039
X4.0909Y-5.139
X4.0909Y-5.239
X4.0909Y-5.339
X4.9354Y-4.9504
X4.9354Y-5.4504
X5.0354Y-4.9504
X5.0354Y-5.4504
X5.1354Y-4.9504
X5.1354Y-5.4504
X5.2354Y-4.9504
X5.2354Y-5.4504
X5.3354Y-4.9504
X5.3354Y-5.4504
X5.4354Y-4.9504
X5.4354Y-5.4504
X5.5354Y-4.9504
X5.5354Y-5.4504
X5.6354Y-4.9504
X5.6354Y-5.4504
T3
X5.3888Y-1.8927
X5.3888Y-1.9927
X5.3888Y-2.0927
X6.9831Y-4.8309
X6.9831Y-4.9309
X6.9925Y-5.3758
X6.9925Y-5.4758
T4
X3.6179Y-2.8276
X3.6179Y-2.9276
X3.6179Y-3.0276
X3.6179Y-3.1276
X3.6179Y-3.2276
X3.6179Y-3.3276
X3.6179Y-3.4276
X3.6179Y-3.5276
X3.6179Y-3.6276
X3.6179Y-3.7276
X3.6179Y-3.8276
X3.6179Y-3.9276
X3.6179Y-4.0276
X3.6179Y-4.1276
X3.6179Y-4.2276
X3.6179Y-4.3276
X3.6179Y-4.4276
X3.6179Y-4.5276
X3.7179Y-2.8276
X3.7179Y-2.9276
X3.7179Y-3.0276
X3.7179Y-3.1276
X3.7179Y-3.2276
X3.7179Y-3.3276
X3.7179Y-3.4276
X3.7179Y-3.5276
X3.7179Y-3.6276
X3.7179Y-3.7276
X3.7179Y-3.8276
X3.7179Y-3.9276
X3.7179Y-4.0276
X3.7179Y-4.1276
X3.7179Y-4.2276
X3.7179Y-4.3276
X3.7179Y-4.4276
X3.7179Y-4.5276
X3.8179Y-2.6276
X3.9179Y-2.6276
X4.0179Y-2.6276
X4.0179Y-4.5276
X4.1179Y-2.6276
X4.1179Y-4.5276
X4.2179Y-2.6276
X4.2179Y-4.5276
X4.3179Y-2.6276
X4.3179Y-4.5276
X4.4179Y-2.6276
X4.4179Y-4.5276
X4.5179Y-2.6276
X4.5179Y-4.5276
X4.6179Y-4.5276
X4.7179Y-2.6276
X4.7179Y-4.5276
X4.8179Y-2.6276
X4.9179Y-2.6276
X4.9179Y-4.5276
X5.0179Y-2.6276
X5.0179Y-4.5276
X5.1179Y-2.6276
X5.1179Y-4.5276
X5.2179Y-2.6276
X5.2179Y-4.5276
X5.3179Y-2.6276
X5.3179Y-4.5276
X5.4179Y-2.6276
X5.4179Y-4.5276
X5.5179Y-4.5276
X5.6179Y-2.6276
X5.6179Y-4.5276
X5.7179Y-2.6276
X5.7779Y-4.5276
X5.8179Y-2.6276
X5.8779Y-4.5276
X5.9179Y-2.6276
X5.9779Y-4.5276
X6.0179Y-2.6276
X6.0779Y-4.5276
X6.1179Y-2.6276
X6.1779Y-4.5276
X6.2179Y-2.6276
X6.2779Y-4.5276
X6.3179Y-2.6276
X6.3779Y-4.5276
X6.4779Y-4.5276
X6.5779Y-4.5276
X6.6779Y-4.5276
T5
X6.4768Y-1.8248
X6.5768Y-1.8248
X6.6768Y-1.8248
X6.7768Y-1.8248
X6.8768Y-1.8248
X6.9768Y-1.8248
T6
X2.2126Y-2.3307
X2.2126Y-2.4685
X2.2126Y-2.6063
X2.2126Y-2.7283
X2.2126Y-2.8465
X2.2126Y-2.9646
X2.2126Y-3.0827
X2.2126Y-3.2008
X2.2126Y-3.3189
X2.2126Y-3.437
X2.2126Y-3.5551
X2.2126Y-3.6772
X2.2126Y-3.815
X2.2126Y-4.0492
X2.2126Y-4.1673
X2.2126Y-4.2854
X2.2126Y-4.4035
X2.2126Y-4.5217
X2.2126Y-4.6398
X2.2126Y-4.7579
X2.2126Y-4.876
X2.3898Y-2.3307
X2.3898Y-2.4685
X2.3898Y-2.6063
X2.3898Y-2.7283
X2.3898Y-2.8465
X2.3898Y-2.9646
X2.3898Y-3.0827
X2.3898Y-3.2008
X2.3898Y-3.3189
X2.3898Y-3.437
X2.3898Y-3.5551
X2.3898Y-3.6772
X2.3898Y-3.813
X2.3898Y-4.0492
X2.3898Y-4.1673
X2.3898Y-4.2854
X2.3898Y-4.4035
X2.3898Y-4.5217
X2.3898Y-4.6398
X2.3898Y-4.7579
X2.3898Y-4.876
T7
X1.9882Y-2.3051
X1.9882Y-3.937
X1.9882Y-4.8917
M30
