%TF.GenerationSoftware,KiCad,Pcbnew,9.0.7*%
%TF.CreationDate,2026-07-21T09:51:18+03:00*%
%TF.ProjectId,42 Pin 3rd gen 4E-FE,34322050-696e-4203-9372-642067656e20,rev?*%
%TF.SameCoordinates,Original*%
%TF.FileFunction,Copper,L1,Top*%
%TF.FilePolarity,Positive*%
%FSLAX46Y46*%
G04 Gerber Fmt 4.6, Leading zero omitted, Abs format (unit mm)*
G04 Created by KiCad (PCBNEW 9.0.7) date 2026-07-21 09:51:18*
%MOMM*%
%LPD*%
G01*
G04 APERTURE LIST*
G04 Aperture macros list*
%AMRoundRect*
0 Rectangle with rounded corners*
0 $1 Rounding radius*
0 $2 $3 $4 $5 $6 $7 $8 $9 X,Y pos of 4 corners*
0 Add a 4 corners polygon primitive as box body*
4,1,4,$2,$3,$4,$5,$6,$7,$8,$9,$2,$3,0*
0 Add four circle primitives for the rounded corners*
1,1,$1+$1,$2,$3*
1,1,$1+$1,$4,$5*
1,1,$1+$1,$6,$7*
1,1,$1+$1,$8,$9*
0 Add four rect primitives between the rounded corners*
20,1,$1+$1,$2,$3,$4,$5,0*
20,1,$1+$1,$4,$5,$6,$7,0*
20,1,$1+$1,$6,$7,$8,$9,0*
20,1,$1+$1,$8,$9,$2,$3,0*%
G04 Aperture macros list end*
%TA.AperFunction,ComponentPad*%
%ADD10RoundRect,0.250000X-0.600000X-0.600000X0.600000X-0.600000X0.600000X0.600000X-0.600000X0.600000X0*%
%TD*%
%TA.AperFunction,ComponentPad*%
%ADD11C,1.700000*%
%TD*%
%TA.AperFunction,ComponentPad*%
%ADD12C,1.650000*%
%TD*%
%TA.AperFunction,ComponentPad*%
%ADD13R,1.650000X1.650000*%
%TD*%
%TA.AperFunction,ComponentPad*%
%ADD14C,5.250000*%
%TD*%
%TA.AperFunction,ComponentPad*%
%ADD15R,1.700000X1.700000*%
%TD*%
%TA.AperFunction,ComponentPad*%
%ADD16RoundRect,0.250000X1.050000X-1.050000X1.050000X1.050000X-1.050000X1.050000X-1.050000X-1.050000X0*%
%TD*%
%TA.AperFunction,ComponentPad*%
%ADD17C,2.600000*%
%TD*%
G04 APERTURE END LIST*
D10*
%TO.P,J3,1,Pin_1*%
%TO.N,#10*%
X131250000Y-78970000D03*
D11*
%TO.P,J3,2,Pin_2*%
X133790000Y-78970000D03*
%TO.P,J3,3,Pin_3*%
%TO.N,#20*%
X131250000Y-81510000D03*
%TO.P,J3,4,Pin_4*%
X133790000Y-81510000D03*
%TO.P,J3,5,Pin_5*%
%TO.N,unconnected-(J3-Pin_5-Pad5)*%
X131250000Y-84050000D03*
%TO.P,J3,6,Pin_6*%
%TO.N,unconnected-(J3-Pin_6-Pad6)*%
X133790000Y-84050000D03*
%TO.P,J3,7,Pin_7*%
%TO.N,unconnected-(J3-Pin_7-Pad7)*%
X131250000Y-86590000D03*
%TO.P,J3,8,Pin_8*%
%TO.N,unconnected-(J3-Pin_8-Pad8)*%
X133790000Y-86590000D03*
%TO.P,J3,9,Pin_9*%
%TO.N,unconnected-(J3-Pin_9-Pad9)*%
X131250000Y-89130000D03*
%TO.P,J3,10,Pin_10*%
%TO.N,unconnected-(J3-Pin_10-Pad10)*%
X133790000Y-89130000D03*
%TO.P,J3,11,Pin_11*%
%TO.N,unconnected-(J3-Pin_11-Pad11)*%
X131250000Y-91670000D03*
%TO.P,J3,12,Pin_12*%
%TO.N,unconnected-(J3-Pin_12-Pad12)*%
X133790000Y-91670000D03*
%TO.P,J3,13,Pin_13*%
%TO.N,IGT1*%
X131250000Y-94210000D03*
%TO.P,J3,14,Pin_14*%
%TO.N,IGT2*%
X133790000Y-94210000D03*
%TO.P,J3,15,Pin_15*%
%TO.N,unconnected-(J3-Pin_15-Pad15)*%
X131250000Y-96750000D03*
%TO.P,J3,16,Pin_16*%
%TO.N,unconnected-(J3-Pin_16-Pad16)*%
X133790000Y-96750000D03*
%TO.P,J3,17,Pin_17*%
%TO.N,E1*%
X131250000Y-99290000D03*
%TO.P,J3,18,Pin_18*%
%TO.N,unconnected-(J3-Pin_18-Pad18)*%
X133790000Y-99290000D03*
%TO.P,J3,19,Pin_19*%
%TO.N,E1*%
X131250000Y-101830000D03*
%TO.P,J3,20,Pin_20*%
%TO.N,unconnected-(J3-Pin_20-Pad20)*%
X133790000Y-101830000D03*
%TO.P,J3,21,Pin_21*%
%TO.N,unconnected-(J3-Pin_21-Pad21)*%
X131250000Y-104370000D03*
%TO.P,J3,22,Pin_22*%
%TO.N,unconnected-(J3-Pin_22-Pad22)*%
X133790000Y-104370000D03*
%TO.P,J3,23,Pin_23*%
%TO.N,E1*%
X131250000Y-106910000D03*
%TO.P,J3,24,Pin_24*%
%TO.N,unconnected-(J3-Pin_24-Pad24)*%
X133790000Y-106910000D03*
%TO.P,J3,25,Pin_25*%
%TO.N,VCC*%
X131250000Y-109450000D03*
%TO.P,J3,26,Pin_26*%
%TO.N,unconnected-(J3-Pin_26-Pad26)*%
X133790000Y-109450000D03*
%TO.P,J3,27,Pin_27*%
%TO.N,unconnected-(J3-Pin_27-Pad27)*%
X131250000Y-111990000D03*
%TO.P,J3,28,Pin_28*%
%TO.N,NE-*%
X133790000Y-111990000D03*
%TO.P,J3,29,Pin_29*%
%TO.N,FAN CF*%
X131250000Y-114530000D03*
%TO.P,J3,30,Pin_30*%
%TO.N,unconnected-(J3-Pin_30-Pad30)*%
X133790000Y-114530000D03*
%TO.P,J3,31,Pin_31*%
%TO.N,unconnected-(J3-Pin_31-Pad31)*%
X131250000Y-117070000D03*
%TO.P,J3,32,Pin_32*%
%TO.N,NE*%
X133790000Y-117070000D03*
%TO.P,J3,33,Pin_33*%
%TO.N,unconnected-(J3-Pin_33-Pad33)*%
X131250000Y-119610000D03*
%TO.P,J3,34,Pin_34*%
%TO.N,unconnected-(J3-Pin_34-Pad34)*%
X133790000Y-119610000D03*
%TO.P,J3,35,Pin_35*%
%TO.N,unconnected-(J3-Pin_35-Pad35)*%
X131250000Y-122150000D03*
%TO.P,J3,36,Pin_36*%
%TO.N,E1*%
X133790000Y-122150000D03*
%TO.P,J3,37,Pin_37*%
%TO.N,THW*%
X131250000Y-124690000D03*
%TO.P,J3,38,Pin_38*%
%TO.N,VTA*%
X133790000Y-124690000D03*
%TO.P,J3,39,Pin_39*%
%TO.N,unconnected-(J3-Pin_39-Pad39)*%
X131250000Y-127230000D03*
%TO.P,J3,40,Pin_40*%
%TO.N,unconnected-(J3-Pin_40-Pad40)*%
X133790000Y-127230000D03*
%TD*%
D12*
%TO.P,J1,122,122*%
%TO.N,IPV*%
X106575000Y-84900000D03*
D13*
%TO.P,J1,1,1*%
%TO.N,TAC*%
X111075000Y-136450000D03*
D12*
%TO.P,J1,2,2*%
%TO.N,BATT*%
X111075000Y-133450000D03*
%TO.P,J1,3,3*%
%TO.N,IMI CCO*%
X111075000Y-130450000D03*
%TO.P,J1,4,4*%
%TO.N,FC*%
X111075000Y-127450000D03*
%TO.P,J1,5,5*%
%TO.N,ELS3*%
X111075000Y-124450000D03*
%TO.P,J1,6,6*%
%TO.N,ELS2*%
X111075000Y-121450000D03*
%TO.P,J1,7,7*%
%TO.N,SEL*%
X111075000Y-118450000D03*
%TO.P,J1,8,8*%
%TO.N,NSW*%
X111075000Y-115450000D03*
%TO.P,J1,9,9*%
%TO.N,+B*%
X106575000Y-136450000D03*
%TO.P,J1,10,10*%
%TO.N,?*%
X106575000Y-133450000D03*
%TO.P,J1,11,11*%
%TO.N,IMO EGW*%
X106575000Y-130450000D03*
%TO.P,J1,12,12*%
%TO.N,AC1*%
X106575000Y-127450000D03*
%TO.P,J1,13,13*%
%TO.N,SPD*%
X106575000Y-124450000D03*
%TO.P,J1,14,14*%
%TO.N,ACT*%
X106575000Y-121450000D03*
%TO.P,J1,15,15*%
%TO.N,ELS1*%
X106575000Y-118450000D03*
%TO.P,J1,16,16*%
%TO.N,VF*%
X106575000Y-115450000D03*
%TO.P,J1,101,101*%
%TO.N,ODT THAO*%
X111075000Y-109450000D03*
%TO.P,J1,102,102*%
%TO.N,TE1*%
X111075000Y-106000000D03*
%TO.P,J1,103,103*%
%TO.N,THW*%
X111075000Y-102900000D03*
%TO.P,J1,104,104*%
%TO.N,PIM*%
X111075000Y-99900000D03*
%TO.P,J1,105,105*%
%TO.N,THA*%
X111075000Y-96900000D03*
%TO.P,J1,106,106*%
%TO.N,IGT1*%
X111075000Y-93900000D03*
%TO.P,J1,107,107*%
%TO.N,NC*%
X111075000Y-90900000D03*
%TO.P,J1,108,108*%
%TO.N,IQF*%
X111075000Y-87900000D03*
%TO.P,J1,109,109*%
%TO.N,NE-*%
X111075000Y-84900000D03*
%TO.P,J1,110,110*%
%TO.N,OX*%
X111075000Y-81900000D03*
%TO.P,J1,111,111*%
%TO.N,STA*%
X111075000Y-78800000D03*
%TO.P,J1,112,112*%
%TO.N,#10*%
X111075000Y-75300000D03*
%TO.P,J1,113,113*%
%TO.N,EO1*%
X111075000Y-71800000D03*
%TO.P,J1,114,114*%
%TO.N,RSD*%
X106575000Y-109500000D03*
%TO.P,J1,115,115*%
%TO.N,TE2*%
X106575000Y-106000000D03*
%TO.P,J1,116,116*%
%TO.N,E1*%
X106575000Y-102900000D03*
%TO.P,J1,117,117*%
%TO.N,VTA*%
X106575000Y-99900000D03*
%TO.P,J1,118,118*%
%TO.N,VCC*%
X106575000Y-96900000D03*
%TO.P,J1,119,119*%
%TO.N,IGT2*%
X106575000Y-93900000D03*
%TO.P,J1,120,120*%
%TO.N,FAN CF*%
X106575000Y-90900000D03*
%TO.P,J1,121,121*%
%TO.N,NE*%
X106575000Y-87900000D03*
%TO.P,J1,123,123*%
%TO.N,KNK*%
X106575000Y-81900000D03*
%TO.P,J1,124,124*%
%TO.N,E1*%
X106575000Y-78800000D03*
%TO.P,J1,125,125*%
%TO.N,#20*%
X106575000Y-75300000D03*
%TO.P,J1,126,126*%
%TO.N,HT*%
X106575000Y-71800000D03*
D14*
%TO.P,J1,MH1,MH1*%
%TO.N,E1*%
X100875000Y-136850000D03*
%TO.P,J1,MH2,MH2*%
X100875000Y-112600000D03*
%TO.P,J1,MH3,MH3*%
X100875000Y-71150000D03*
%TD*%
D15*
%TO.P,J2,1,Pin_1*%
%TO.N,KNK*%
X126290000Y-69420000D03*
%TD*%
%TO.P,J6,1,Pin_1*%
%TO.N,STA*%
X118800000Y-69420000D03*
%TD*%
D16*
%TO.P,J5,1,Pin_1*%
%TO.N,E1*%
X118367500Y-136600000D03*
D17*
%TO.P,J5,2,Pin_2*%
%TO.N,+B*%
X118367500Y-131600000D03*
%TD*%
%TA.AperFunction,Conductor*%
%TO.N,E1*%
G36*
X133324075Y-122342993D02*
G01*
X133389901Y-122457007D01*
X133482993Y-122550099D01*
X133597007Y-122615925D01*
X133660590Y-122632962D01*
X133028282Y-123265269D01*
X133028282Y-123265270D01*
X133082452Y-123304626D01*
X133082451Y-123304626D01*
X133091495Y-123309234D01*
X133142292Y-123357208D01*
X133159087Y-123425029D01*
X133136550Y-123491164D01*
X133091499Y-123530202D01*
X133082182Y-123534949D01*
X132910213Y-123659890D01*
X132759890Y-123810213D01*
X132634949Y-123982182D01*
X132630484Y-123990946D01*
X132582509Y-124041742D01*
X132514688Y-124058536D01*
X132448553Y-124035998D01*
X132409516Y-123990946D01*
X132405050Y-123982182D01*
X132280109Y-123810213D01*
X132129786Y-123659890D01*
X131957820Y-123534951D01*
X131957115Y-123534591D01*
X131949054Y-123530485D01*
X131898259Y-123482512D01*
X131881463Y-123414692D01*
X131903999Y-123348556D01*
X131949054Y-123309515D01*
X131957816Y-123305051D01*
X132072661Y-123221612D01*
X132129786Y-123180109D01*
X132129788Y-123180106D01*
X132129792Y-123180104D01*
X132280104Y-123029792D01*
X132280106Y-123029788D01*
X132280109Y-123029786D01*
X132365890Y-122911717D01*
X132405051Y-122857816D01*
X132409793Y-122848508D01*
X132457763Y-122797711D01*
X132525583Y-122780911D01*
X132591719Y-122803445D01*
X132630763Y-122848500D01*
X132635373Y-122857547D01*
X132674728Y-122911716D01*
X133307037Y-122279408D01*
X133324075Y-122342993D01*
G37*
%TD.AperFunction*%
%TA.AperFunction,Conductor*%
G36*
X132591444Y-120263999D02*
G01*
X132630486Y-120309056D01*
X132634951Y-120317820D01*
X132759890Y-120489786D01*
X132910213Y-120640109D01*
X133082179Y-120765048D01*
X133082181Y-120765049D01*
X133082184Y-120765051D01*
X133091493Y-120769794D01*
X133142290Y-120817766D01*
X133159087Y-120885587D01*
X133136552Y-120951722D01*
X133091505Y-120990760D01*
X133082446Y-120995376D01*
X133082440Y-120995380D01*
X133028282Y-121034727D01*
X133028282Y-121034728D01*
X133660591Y-121667037D01*
X133597007Y-121684075D01*
X133482993Y-121749901D01*
X133389901Y-121842993D01*
X133324075Y-121957007D01*
X133307037Y-122020591D01*
X132674728Y-121388282D01*
X132674727Y-121388282D01*
X132635380Y-121442440D01*
X132635376Y-121442446D01*
X132630760Y-121451505D01*
X132582781Y-121502297D01*
X132514959Y-121519087D01*
X132448826Y-121496543D01*
X132409794Y-121451493D01*
X132405051Y-121442184D01*
X132405049Y-121442181D01*
X132405048Y-121442179D01*
X132280109Y-121270213D01*
X132129786Y-121119890D01*
X131957820Y-120994951D01*
X131949600Y-120990763D01*
X131949054Y-120990485D01*
X131898259Y-120942512D01*
X131881463Y-120874692D01*
X131903999Y-120808556D01*
X131949054Y-120769515D01*
X131957816Y-120765051D01*
X131979789Y-120749086D01*
X132129786Y-120640109D01*
X132129788Y-120640106D01*
X132129792Y-120640104D01*
X132280104Y-120489792D01*
X132280106Y-120489788D01*
X132280109Y-120489786D01*
X132405048Y-120317820D01*
X132405047Y-120317820D01*
X132405051Y-120317816D01*
X132409514Y-120309054D01*
X132457488Y-120258259D01*
X132525308Y-120241463D01*
X132591444Y-120263999D01*
G37*
%TD.AperFunction*%
%TA.AperFunction,Conductor*%
G36*
X132365270Y-107671717D02*
G01*
X132365270Y-107671716D01*
X132404622Y-107617555D01*
X132409232Y-107608507D01*
X132457205Y-107557709D01*
X132525025Y-107540912D01*
X132591161Y-107563447D01*
X132630204Y-107608504D01*
X132634949Y-107617817D01*
X132759890Y-107789786D01*
X132910213Y-107940109D01*
X133082182Y-108065050D01*
X133090946Y-108069516D01*
X133141742Y-108117491D01*
X133158536Y-108185312D01*
X133135998Y-108251447D01*
X133090946Y-108290484D01*
X133082182Y-108294949D01*
X132910213Y-108419890D01*
X132759890Y-108570213D01*
X132634949Y-108742182D01*
X132630484Y-108750946D01*
X132582509Y-108801742D01*
X132514688Y-108818536D01*
X132448553Y-108795998D01*
X132409516Y-108750946D01*
X132405050Y-108742182D01*
X132280109Y-108570213D01*
X132129786Y-108419890D01*
X131957817Y-108294949D01*
X131948504Y-108290204D01*
X131897707Y-108242230D01*
X131880912Y-108174409D01*
X131903449Y-108108274D01*
X131948507Y-108069232D01*
X131957555Y-108064622D01*
X132011716Y-108025270D01*
X132011717Y-108025270D01*
X131379408Y-107392962D01*
X131442993Y-107375925D01*
X131557007Y-107310099D01*
X131650099Y-107217007D01*
X131715925Y-107102993D01*
X131732962Y-107039408D01*
X132365270Y-107671717D01*
G37*
%TD.AperFunction*%
%TA.AperFunction,Conductor*%
G36*
X132591444Y-105023999D02*
G01*
X132630486Y-105069056D01*
X132634951Y-105077820D01*
X132759890Y-105249786D01*
X132910213Y-105400109D01*
X133082182Y-105525050D01*
X133090946Y-105529516D01*
X133141742Y-105577491D01*
X133158536Y-105645312D01*
X133135998Y-105711447D01*
X133090946Y-105750484D01*
X133082182Y-105754949D01*
X132910213Y-105879890D01*
X132759890Y-106030213D01*
X132634949Y-106202182D01*
X132630202Y-106211499D01*
X132582227Y-106262293D01*
X132514405Y-106279087D01*
X132448271Y-106256548D01*
X132409234Y-106211495D01*
X132404626Y-106202452D01*
X132365270Y-106148282D01*
X132365269Y-106148282D01*
X131732962Y-106780590D01*
X131715925Y-106717007D01*
X131650099Y-106602993D01*
X131557007Y-106509901D01*
X131442993Y-106444075D01*
X131379409Y-106427037D01*
X132011716Y-105794728D01*
X131957547Y-105755373D01*
X131957547Y-105755372D01*
X131948500Y-105750763D01*
X131897706Y-105702788D01*
X131880912Y-105634966D01*
X131903451Y-105568832D01*
X131948508Y-105529793D01*
X131957816Y-105525051D01*
X132037007Y-105467515D01*
X132129786Y-105400109D01*
X132129788Y-105400106D01*
X132129792Y-105400104D01*
X132280104Y-105249792D01*
X132280106Y-105249788D01*
X132280109Y-105249786D01*
X132405048Y-105077820D01*
X132405047Y-105077820D01*
X132405051Y-105077816D01*
X132409514Y-105069054D01*
X132457488Y-105018259D01*
X132525308Y-105001463D01*
X132591444Y-105023999D01*
G37*
%TD.AperFunction*%
%TA.AperFunction,Conductor*%
G36*
X132365270Y-102591717D02*
G01*
X132365270Y-102591716D01*
X132404622Y-102537555D01*
X132409232Y-102528507D01*
X132457205Y-102477709D01*
X132525025Y-102460912D01*
X132591161Y-102483447D01*
X132630204Y-102528504D01*
X132634949Y-102537817D01*
X132759890Y-102709786D01*
X132910213Y-102860109D01*
X133082182Y-102985050D01*
X133090946Y-102989516D01*
X133141742Y-103037491D01*
X133158536Y-103105312D01*
X133135998Y-103171447D01*
X133090946Y-103210484D01*
X133082182Y-103214949D01*
X132910213Y-103339890D01*
X132759890Y-103490213D01*
X132634949Y-103662182D01*
X132630484Y-103670946D01*
X132582509Y-103721742D01*
X132514688Y-103738536D01*
X132448553Y-103715998D01*
X132409516Y-103670946D01*
X132405050Y-103662182D01*
X132280109Y-103490213D01*
X132129786Y-103339890D01*
X131957817Y-103214949D01*
X131948504Y-103210204D01*
X131897707Y-103162230D01*
X131880912Y-103094409D01*
X131903449Y-103028274D01*
X131948507Y-102989232D01*
X131957555Y-102984622D01*
X132011716Y-102945270D01*
X132011717Y-102945270D01*
X131379408Y-102312962D01*
X131442993Y-102295925D01*
X131557007Y-102230099D01*
X131650099Y-102137007D01*
X131715925Y-102022993D01*
X131732962Y-101959408D01*
X132365270Y-102591717D01*
G37*
%TD.AperFunction*%
%TA.AperFunction,Conductor*%
G36*
X132365270Y-100051717D02*
G01*
X132365270Y-100051716D01*
X132404622Y-99997555D01*
X132409232Y-99988507D01*
X132457205Y-99937709D01*
X132525025Y-99920912D01*
X132591161Y-99943447D01*
X132630204Y-99988504D01*
X132634949Y-99997817D01*
X132759890Y-100169786D01*
X132910213Y-100320109D01*
X133082182Y-100445050D01*
X133090946Y-100449516D01*
X133141742Y-100497491D01*
X133158536Y-100565312D01*
X133135998Y-100631447D01*
X133090946Y-100670484D01*
X133082182Y-100674949D01*
X132910213Y-100799890D01*
X132759890Y-100950213D01*
X132634949Y-101122182D01*
X132630202Y-101131499D01*
X132582227Y-101182293D01*
X132514405Y-101199087D01*
X132448271Y-101176548D01*
X132409234Y-101131495D01*
X132404626Y-101122452D01*
X132365270Y-101068282D01*
X132365269Y-101068282D01*
X131732962Y-101700590D01*
X131715925Y-101637007D01*
X131650099Y-101522993D01*
X131557007Y-101429901D01*
X131442993Y-101364075D01*
X131379409Y-101347037D01*
X132011716Y-100714728D01*
X131957550Y-100675375D01*
X131947954Y-100670486D01*
X131897157Y-100622512D01*
X131880361Y-100554692D01*
X131902897Y-100488556D01*
X131947954Y-100449514D01*
X131957554Y-100444622D01*
X132011716Y-100405270D01*
X132011717Y-100405270D01*
X131379408Y-99772962D01*
X131442993Y-99755925D01*
X131557007Y-99690099D01*
X131650099Y-99597007D01*
X131715925Y-99482993D01*
X131732962Y-99419408D01*
X132365270Y-100051717D01*
G37*
%TD.AperFunction*%
%TA.AperFunction,Conductor*%
G36*
X132591444Y-97403999D02*
G01*
X132630486Y-97449056D01*
X132634951Y-97457820D01*
X132759890Y-97629786D01*
X132910213Y-97780109D01*
X133082182Y-97905050D01*
X133090946Y-97909516D01*
X133141742Y-97957491D01*
X133158536Y-98025312D01*
X133135998Y-98091447D01*
X133090946Y-98130484D01*
X133082182Y-98134949D01*
X132910213Y-98259890D01*
X132759890Y-98410213D01*
X132634949Y-98582182D01*
X132630202Y-98591499D01*
X132582227Y-98642293D01*
X132514405Y-98659087D01*
X132448271Y-98636548D01*
X132409234Y-98591495D01*
X132404626Y-98582452D01*
X132365270Y-98528282D01*
X132365269Y-98528282D01*
X131732962Y-99160590D01*
X131715925Y-99097007D01*
X131650099Y-98982993D01*
X131557007Y-98889901D01*
X131442993Y-98824075D01*
X131379409Y-98807037D01*
X132011716Y-98174728D01*
X131957547Y-98135373D01*
X131957547Y-98135372D01*
X131948500Y-98130763D01*
X131897706Y-98082788D01*
X131880912Y-98014966D01*
X131903451Y-97948832D01*
X131948508Y-97909793D01*
X131957816Y-97905051D01*
X132037007Y-97847515D01*
X132129786Y-97780109D01*
X132129788Y-97780106D01*
X132129792Y-97780104D01*
X132280104Y-97629792D01*
X132280106Y-97629788D01*
X132280109Y-97629786D01*
X132405048Y-97457820D01*
X132405047Y-97457820D01*
X132405051Y-97457816D01*
X132409514Y-97449054D01*
X132457488Y-97398259D01*
X132525308Y-97381463D01*
X132591444Y-97403999D01*
G37*
%TD.AperFunction*%
%TA.AperFunction,Conductor*%
G36*
X144502539Y-63640185D02*
G01*
X144548294Y-63692989D01*
X144559500Y-63744500D01*
X144559500Y-141925500D01*
X144539815Y-141992539D01*
X144487011Y-142038294D01*
X144435500Y-142049500D01*
X95024500Y-142049500D01*
X94957461Y-142029815D01*
X94911706Y-141977011D01*
X94900500Y-141925500D01*
X94900500Y-136674499D01*
X97750000Y-136674499D01*
X97750000Y-137025500D01*
X97789297Y-137374269D01*
X97789299Y-137374281D01*
X97867402Y-137716477D01*
X97867405Y-137716485D01*
X97983328Y-138047773D01*
X98135615Y-138364000D01*
X98322355Y-138661195D01*
X98494449Y-138876996D01*
X99473381Y-137898064D01*
X99556457Y-138006331D01*
X99718669Y-138168543D01*
X99826934Y-138251617D01*
X98848002Y-139230549D01*
X99063804Y-139402644D01*
X99360999Y-139589384D01*
X99677226Y-139741671D01*
X100008514Y-139857594D01*
X100008522Y-139857597D01*
X100350718Y-139935700D01*
X100350730Y-139935702D01*
X100699499Y-139974999D01*
X100699501Y-139975000D01*
X101050499Y-139975000D01*
X101050500Y-139974999D01*
X101399269Y-139935702D01*
X101399281Y-139935700D01*
X101741477Y-139857597D01*
X101741485Y-139857594D01*
X102072773Y-139741671D01*
X102389000Y-139589384D01*
X102686195Y-139402644D01*
X102901996Y-139230549D01*
X101923065Y-138251618D01*
X102031331Y-138168543D01*
X102193543Y-138006331D01*
X102276618Y-137898065D01*
X103255549Y-138876996D01*
X103427644Y-138661195D01*
X103540243Y-138481995D01*
X130599500Y-138481995D01*
X130599500Y-138718004D01*
X130599501Y-138718020D01*
X130630306Y-138952010D01*
X130691394Y-139179993D01*
X130781714Y-139398045D01*
X130781719Y-139398056D01*
X130852677Y-139520957D01*
X130899727Y-139602450D01*
X130899729Y-139602453D01*
X130899730Y-139602454D01*
X131043406Y-139789697D01*
X131043412Y-139789704D01*
X131210295Y-139956587D01*
X131210302Y-139956593D01*
X131234291Y-139975000D01*
X131397550Y-140100273D01*
X131528918Y-140176118D01*
X131601943Y-140218280D01*
X131601948Y-140218282D01*
X131601951Y-140218284D01*
X131820007Y-140308606D01*
X132047986Y-140369693D01*
X132281989Y-140400500D01*
X132281996Y-140400500D01*
X132518004Y-140400500D01*
X132518011Y-140400500D01*
X132752014Y-140369693D01*
X132979993Y-140308606D01*
X133198049Y-140218284D01*
X133402450Y-140100273D01*
X133589699Y-139956592D01*
X133756592Y-139789699D01*
X133900273Y-139602450D01*
X134018284Y-139398049D01*
X134108606Y-139179993D01*
X134169693Y-138952014D01*
X134200500Y-138718011D01*
X134200500Y-138481989D01*
X134169693Y-138247986D01*
X134108606Y-138020007D01*
X134018284Y-137801951D01*
X134018282Y-137801948D01*
X134018280Y-137801943D01*
X133968940Y-137716485D01*
X133900273Y-137597550D01*
X133756592Y-137410301D01*
X133756587Y-137410295D01*
X133589704Y-137243412D01*
X133589697Y-137243406D01*
X133402454Y-137099730D01*
X133402453Y-137099729D01*
X133402450Y-137099727D01*
X133320957Y-137052677D01*
X133198056Y-136981719D01*
X133198045Y-136981714D01*
X132979993Y-136891394D01*
X132752010Y-136830306D01*
X132518020Y-136799501D01*
X132518017Y-136799500D01*
X132518011Y-136799500D01*
X132281989Y-136799500D01*
X132281983Y-136799500D01*
X132281979Y-136799501D01*
X132047989Y-136830306D01*
X131820006Y-136891394D01*
X131601954Y-136981714D01*
X131601943Y-136981719D01*
X131397545Y-137099730D01*
X131210302Y-137243406D01*
X131210295Y-137243412D01*
X131043412Y-137410295D01*
X131043406Y-137410302D01*
X130899730Y-137597545D01*
X130781719Y-137801943D01*
X130781714Y-137801954D01*
X130691394Y-138020006D01*
X130630306Y-138247989D01*
X130599501Y-138481979D01*
X130599500Y-138481995D01*
X103540243Y-138481995D01*
X103614384Y-138364000D01*
X103766671Y-138047773D01*
X103882594Y-137716485D01*
X103882597Y-137716477D01*
X103960700Y-137374281D01*
X103960702Y-137374269D01*
X103999999Y-137025500D01*
X104000000Y-137025498D01*
X104000000Y-136674501D01*
X103999999Y-136674499D01*
X103963966Y-136354693D01*
X103963966Y-136354692D01*
X103962950Y-136345675D01*
X105249500Y-136345675D01*
X105249500Y-136554324D01*
X105282137Y-136760389D01*
X105346612Y-136958820D01*
X105421038Y-137104888D01*
X105441330Y-137144714D01*
X105563965Y-137313505D01*
X105711495Y-137461035D01*
X105880286Y-137583670D01*
X105968116Y-137628421D01*
X106066179Y-137678387D01*
X106066181Y-137678387D01*
X106066184Y-137678389D01*
X106132613Y-137699973D01*
X106264610Y-137742862D01*
X106470676Y-137775500D01*
X106470681Y-137775500D01*
X106679324Y-137775500D01*
X106885389Y-137742862D01*
X107083816Y-137678389D01*
X107269714Y-137583670D01*
X107438505Y-137461035D01*
X107586035Y-137313505D01*
X107708670Y-137144714D01*
X107803389Y-136958816D01*
X107867862Y-136760389D01*
X107871836Y-136735299D01*
X107900500Y-136554324D01*
X107900500Y-136345675D01*
X107867862Y-136139610D01*
X107817143Y-135983514D01*
X107803389Y-135941184D01*
X107803387Y-135941181D01*
X107803387Y-135941179D01*
X107708669Y-135755285D01*
X107629771Y-135646692D01*
X107629770Y-135646689D01*
X107586039Y-135586501D01*
X107586035Y-135586495D01*
X107576675Y-135577135D01*
X109749500Y-135577135D01*
X109749500Y-137322870D01*
X109749501Y-137322876D01*
X109755908Y-137382483D01*
X109806202Y-137517328D01*
X109806206Y-137517335D01*
X109892452Y-137632544D01*
X109892455Y-137632547D01*
X110007664Y-137718793D01*
X110007671Y-137718797D01*
X110142517Y-137769091D01*
X110142516Y-137769091D01*
X110149444Y-137769835D01*
X110202127Y-137775500D01*
X111947872Y-137775499D01*
X112007483Y-137769091D01*
X112142331Y-137718796D01*
X112257546Y-137632546D01*
X112343796Y-137517331D01*
X112394091Y-137382483D01*
X112400500Y-137322873D01*
X112400499Y-136410402D01*
X112400499Y-135577129D01*
X112400498Y-135577123D01*
X112400497Y-135577116D01*
X112394091Y-135517517D01*
X112387562Y-135500013D01*
X116567500Y-135500013D01*
X116567500Y-136350000D01*
X117767499Y-136350000D01*
X117742479Y-136410402D01*
X117717500Y-136535981D01*
X117717500Y-136664019D01*
X117742479Y-136789598D01*
X117767499Y-136850000D01*
X116567501Y-136850000D01*
X116567501Y-137699986D01*
X116577994Y-137802697D01*
X116633141Y-137969119D01*
X116633143Y-137969124D01*
X116725184Y-138118345D01*
X116849154Y-138242315D01*
X116998375Y-138334356D01*
X116998380Y-138334358D01*
X117164802Y-138389505D01*
X117164809Y-138389506D01*
X117267519Y-138399999D01*
X118117499Y-138399999D01*
X118117500Y-138399998D01*
X118117500Y-137200001D01*
X118177902Y-137225021D01*
X118303481Y-137250000D01*
X118431519Y-137250000D01*
X118557098Y-137225021D01*
X118617500Y-137200001D01*
X118617500Y-138399999D01*
X119467472Y-138399999D01*
X119467486Y-138399998D01*
X119570197Y-138389505D01*
X119658563Y-138360224D01*
X119736619Y-138334358D01*
X119736624Y-138334356D01*
X119885845Y-138242315D01*
X120009815Y-138118345D01*
X120101856Y-137969124D01*
X120101858Y-137969119D01*
X120157005Y-137802697D01*
X120157006Y-137802690D01*
X120167499Y-137699986D01*
X120167500Y-137699973D01*
X120167500Y-136850000D01*
X118967501Y-136850000D01*
X118992521Y-136789598D01*
X119017500Y-136664019D01*
X119017500Y-136535981D01*
X118992521Y-136410402D01*
X118967501Y-136350000D01*
X120167499Y-136350000D01*
X120167499Y-135500028D01*
X120167498Y-135500013D01*
X120157005Y-135397302D01*
X120101858Y-135230880D01*
X120101856Y-135230875D01*
X120009815Y-135081654D01*
X119885845Y-134957684D01*
X119736624Y-134865643D01*
X119736619Y-134865641D01*
X119570197Y-134810494D01*
X119570190Y-134810493D01*
X119467486Y-134800000D01*
X118617500Y-134800000D01*
X118617500Y-135999998D01*
X118557098Y-135974979D01*
X118431519Y-135950000D01*
X118303481Y-135950000D01*
X118177902Y-135974979D01*
X118117500Y-135999998D01*
X118117500Y-134800000D01*
X117267528Y-134800000D01*
X117267512Y-134800001D01*
X117164802Y-134810494D01*
X116998380Y-134865641D01*
X116998375Y-134865643D01*
X116849154Y-134957684D01*
X116725184Y-135081654D01*
X116633143Y-135230875D01*
X116633141Y-135230880D01*
X116577994Y-135397302D01*
X116577993Y-135397309D01*
X116567500Y-135500013D01*
X112387562Y-135500013D01*
X112343797Y-135382671D01*
X112343793Y-135382664D01*
X112257547Y-135267455D01*
X112257544Y-135267452D01*
X112142335Y-135181206D01*
X112142328Y-135181202D01*
X112007482Y-135130908D01*
X112007483Y-135130908D01*
X111947883Y-135124501D01*
X111947881Y-135124500D01*
X111947873Y-135124500D01*
X111947864Y-135124500D01*
X110202129Y-135124500D01*
X110202123Y-135124501D01*
X110142516Y-135130908D01*
X110007671Y-135181202D01*
X110007664Y-135181206D01*
X109892455Y-135267452D01*
X109892452Y-135267455D01*
X109806206Y-135382664D01*
X109806202Y-135382671D01*
X109755908Y-135517517D01*
X109749501Y-135577116D01*
X109749501Y-135577123D01*
X109749500Y-135577135D01*
X107576675Y-135577135D01*
X107438505Y-135438965D01*
X107269714Y-135316330D01*
X107083820Y-135221612D01*
X106885389Y-135157137D01*
X106679324Y-135124500D01*
X106679319Y-135124500D01*
X106470681Y-135124500D01*
X106470676Y-135124500D01*
X106264610Y-135157137D01*
X106066179Y-135221612D01*
X105880285Y-135316330D01*
X105711493Y-135438966D01*
X105563966Y-135586493D01*
X105441330Y-135755285D01*
X105346612Y-135941179D01*
X105282137Y-136139610D01*
X105249500Y-136345675D01*
X103962950Y-136345675D01*
X103960703Y-136325731D01*
X103960700Y-136325718D01*
X103882597Y-135983522D01*
X103882594Y-135983514D01*
X103766671Y-135652226D01*
X103614384Y-135335999D01*
X103427644Y-135038804D01*
X103255549Y-134823002D01*
X102276617Y-135801933D01*
X102193543Y-135693669D01*
X102031331Y-135531457D01*
X101923064Y-135448380D01*
X102901996Y-134469449D01*
X102686195Y-134297355D01*
X102389000Y-134110615D01*
X102072773Y-133958328D01*
X101741485Y-133842405D01*
X101741477Y-133842402D01*
X101399281Y-133764299D01*
X101399269Y-133764297D01*
X101050500Y-133725000D01*
X100699499Y-133725000D01*
X100350730Y-133764297D01*
X100350718Y-133764299D01*
X100008522Y-133842402D01*
X100008514Y-133842405D01*
X99677226Y-133958328D01*
X99360999Y-134110615D01*
X99063804Y-134297355D01*
X98848002Y-134469449D01*
X99826934Y-135448381D01*
X99718669Y-135531457D01*
X99556457Y-135693669D01*
X99473381Y-135801934D01*
X98494449Y-134823002D01*
X98322355Y-135038804D01*
X98135615Y-135335999D01*
X97983328Y-135652226D01*
X97867405Y-135983514D01*
X97867402Y-135983522D01*
X97789299Y-136325718D01*
X97789297Y-136325730D01*
X97750000Y-136674499D01*
X94900500Y-136674499D01*
X94900500Y-133345675D01*
X105249500Y-133345675D01*
X105249500Y-133554324D01*
X105282137Y-133760389D01*
X105346612Y-133958820D01*
X105423956Y-134110615D01*
X105441330Y-134144714D01*
X105563965Y-134313505D01*
X105711495Y-134461035D01*
X105880286Y-134583670D01*
X105968116Y-134628421D01*
X106066179Y-134678387D01*
X106066181Y-134678387D01*
X106066184Y-134678389D01*
X106172545Y-134712948D01*
X106264610Y-134742862D01*
X106470676Y-134775500D01*
X106470681Y-134775500D01*
X106679324Y-134775500D01*
X106885389Y-134742862D01*
X107083816Y-134678389D01*
X107269714Y-134583670D01*
X107438505Y-134461035D01*
X107586035Y-134313505D01*
X107708670Y-134144714D01*
X107803389Y-133958816D01*
X107867862Y-133760389D01*
X107873467Y-133725000D01*
X107900500Y-133554324D01*
X107900500Y-133345675D01*
X109749500Y-133345675D01*
X109749500Y-133554324D01*
X109782137Y-133760389D01*
X109846612Y-133958820D01*
X109923956Y-134110615D01*
X109941330Y-134144714D01*
X110063965Y-134313505D01*
X110211495Y-134461035D01*
X110380286Y-134583670D01*
X110468116Y-134628421D01*
X110566179Y-134678387D01*
X110566181Y-134678387D01*
X110566184Y-134678389D01*
X110672545Y-134712948D01*
X110764610Y-134742862D01*
X110970676Y-134775500D01*
X110970681Y-134775500D01*
X111179324Y-134775500D01*
X111385389Y-134742862D01*
X111583816Y-134678389D01*
X111769714Y-134583670D01*
X111938505Y-134461035D01*
X112086035Y-134313505D01*
X112208670Y-134144714D01*
X112303389Y-133958816D01*
X112367862Y-133760389D01*
X112373467Y-133725000D01*
X112400500Y-133554324D01*
X112400500Y-133345675D01*
X112367862Y-133139610D01*
X112337948Y-133047545D01*
X112303389Y-132941184D01*
X112303387Y-132941181D01*
X112303387Y-132941179D01*
X112253421Y-132843116D01*
X112208670Y-132755286D01*
X112086035Y-132586495D01*
X111938505Y-132438965D01*
X111769714Y-132316330D01*
X111583820Y-132221612D01*
X111385389Y-132157137D01*
X111179324Y-132124500D01*
X111179319Y-132124500D01*
X110970681Y-132124500D01*
X110970676Y-132124500D01*
X110764610Y-132157137D01*
X110566179Y-132221612D01*
X110380285Y-132316330D01*
X110211493Y-132438966D01*
X110063966Y-132586493D01*
X109941330Y-132755285D01*
X109846612Y-132941179D01*
X109782137Y-133139610D01*
X109749500Y-133345675D01*
X107900500Y-133345675D01*
X107867862Y-133139610D01*
X107837948Y-133047545D01*
X107803389Y-132941184D01*
X107803387Y-132941181D01*
X107803387Y-132941179D01*
X107753421Y-132843116D01*
X107708670Y-132755286D01*
X107586035Y-132586495D01*
X107438505Y-132438965D01*
X107269714Y-132316330D01*
X107083820Y-132221612D01*
X106885389Y-132157137D01*
X106679324Y-132124500D01*
X106679319Y-132124500D01*
X106470681Y-132124500D01*
X106470676Y-132124500D01*
X106264610Y-132157137D01*
X106066179Y-132221612D01*
X105880285Y-132316330D01*
X105711493Y-132438966D01*
X105563966Y-132586493D01*
X105441330Y-132755285D01*
X105346612Y-132941179D01*
X105282137Y-133139610D01*
X105249500Y-133345675D01*
X94900500Y-133345675D01*
X94900500Y-130345675D01*
X105249500Y-130345675D01*
X105249500Y-130554324D01*
X105282137Y-130760389D01*
X105346612Y-130958820D01*
X105441330Y-131144714D01*
X105563965Y-131313505D01*
X105711495Y-131461035D01*
X105880286Y-131583670D01*
X105968116Y-131628421D01*
X106066179Y-131678387D01*
X106066181Y-131678387D01*
X106066184Y-131678389D01*
X106172545Y-131712948D01*
X106264610Y-131742862D01*
X106470676Y-131775500D01*
X106470681Y-131775500D01*
X106679324Y-131775500D01*
X106885389Y-131742862D01*
X107083816Y-131678389D01*
X107269714Y-131583670D01*
X107438505Y-131461035D01*
X107586035Y-131313505D01*
X107708670Y-131144714D01*
X107803389Y-130958816D01*
X107867862Y-130760389D01*
X107900500Y-130554324D01*
X107900500Y-130345675D01*
X109749500Y-130345675D01*
X109749500Y-130554324D01*
X109782137Y-130760389D01*
X109846612Y-130958820D01*
X109941330Y-131144714D01*
X110063965Y-131313505D01*
X110211495Y-131461035D01*
X110380286Y-131583670D01*
X110468116Y-131628421D01*
X110566179Y-131678387D01*
X110566181Y-131678387D01*
X110566184Y-131678389D01*
X110672545Y-131712948D01*
X110764610Y-131742862D01*
X110970676Y-131775500D01*
X110970681Y-131775500D01*
X111179324Y-131775500D01*
X111385389Y-131742862D01*
X111583816Y-131678389D01*
X111769714Y-131583670D01*
X111909656Y-131481995D01*
X116567000Y-131481995D01*
X116567000Y-131718004D01*
X116567001Y-131718020D01*
X116597806Y-131952010D01*
X116658894Y-132179993D01*
X116749214Y-132398045D01*
X116749219Y-132398056D01*
X116772839Y-132438966D01*
X116867227Y-132602450D01*
X116867229Y-132602453D01*
X116867230Y-132602454D01*
X117010906Y-132789697D01*
X117010912Y-132789704D01*
X117177795Y-132956587D01*
X117177801Y-132956592D01*
X117365050Y-133100273D01*
X117496418Y-133176118D01*
X117569443Y-133218280D01*
X117569448Y-133218282D01*
X117569451Y-133218284D01*
X117787507Y-133308606D01*
X118015486Y-133369693D01*
X118249489Y-133400500D01*
X118249496Y-133400500D01*
X118485504Y-133400500D01*
X118485511Y-133400500D01*
X118719514Y-133369693D01*
X118947493Y-133308606D01*
X119165549Y-133218284D01*
X119369950Y-133100273D01*
X119557199Y-132956592D01*
X119724092Y-132789699D01*
X119867773Y-132602450D01*
X119985784Y-132398049D01*
X120076106Y-132179993D01*
X120137193Y-131952014D01*
X120168000Y-131718011D01*
X120168000Y-131481989D01*
X120137193Y-131247986D01*
X120076106Y-131020007D01*
X119985784Y-130801951D01*
X119985782Y-130801948D01*
X119985780Y-130801943D01*
X119943618Y-130728918D01*
X119867773Y-130597550D01*
X119724092Y-130410301D01*
X119724087Y-130410295D01*
X119557204Y-130243412D01*
X119557197Y-130243406D01*
X119369954Y-130099730D01*
X119369953Y-130099729D01*
X119369950Y-130099727D01*
X119288457Y-130052677D01*
X119165556Y-129981719D01*
X119165545Y-129981714D01*
X118947493Y-129891394D01*
X118719510Y-129830306D01*
X118485520Y-129799501D01*
X118485517Y-129799500D01*
X118485511Y-129799500D01*
X118249489Y-129799500D01*
X118249483Y-129799500D01*
X118249479Y-129799501D01*
X118015489Y-129830306D01*
X117787506Y-129891394D01*
X117569454Y-129981714D01*
X117569443Y-129981719D01*
X117365045Y-130099730D01*
X117177802Y-130243406D01*
X117177795Y-130243412D01*
X117010912Y-130410295D01*
X117010906Y-130410302D01*
X116867230Y-130597545D01*
X116749219Y-130801943D01*
X116749214Y-130801954D01*
X116658894Y-131020006D01*
X116597806Y-131247989D01*
X116567001Y-131481979D01*
X116567000Y-131481995D01*
X111909656Y-131481995D01*
X111938505Y-131461035D01*
X112086035Y-131313505D01*
X112208670Y-131144714D01*
X112303389Y-130958816D01*
X112367862Y-130760389D01*
X112400500Y-130554324D01*
X112400500Y-130345675D01*
X112367862Y-130139610D01*
X112337948Y-130047545D01*
X112303389Y-129941184D01*
X112303387Y-129941181D01*
X112303387Y-129941179D01*
X112208669Y-129755285D01*
X112086035Y-129586495D01*
X111938505Y-129438965D01*
X111769714Y-129316330D01*
X111583820Y-129221612D01*
X111385389Y-129157137D01*
X111179324Y-129124500D01*
X111179319Y-129124500D01*
X110970681Y-129124500D01*
X110970676Y-129124500D01*
X110764610Y-129157137D01*
X110566179Y-129221612D01*
X110380285Y-129316330D01*
X110211493Y-129438966D01*
X110063966Y-129586493D01*
X109941330Y-129755285D01*
X109846612Y-129941179D01*
X109782137Y-130139610D01*
X109749500Y-130345675D01*
X107900500Y-130345675D01*
X107867862Y-130139610D01*
X107837948Y-130047545D01*
X107803389Y-129941184D01*
X107803387Y-129941181D01*
X107803387Y-129941179D01*
X107708669Y-129755285D01*
X107586035Y-129586495D01*
X107438505Y-129438965D01*
X107269714Y-129316330D01*
X107083820Y-129221612D01*
X106885389Y-129157137D01*
X106679324Y-129124500D01*
X106679319Y-129124500D01*
X106470681Y-129124500D01*
X106470676Y-129124500D01*
X106264610Y-129157137D01*
X106066179Y-129221612D01*
X105880285Y-129316330D01*
X105711493Y-129438966D01*
X105563966Y-129586493D01*
X105441330Y-129755285D01*
X105346612Y-129941179D01*
X105282137Y-130139610D01*
X105249500Y-130345675D01*
X94900500Y-130345675D01*
X94900500Y-127345675D01*
X105249500Y-127345675D01*
X105249500Y-127554324D01*
X105282137Y-127760389D01*
X105346612Y-127958820D01*
X105423533Y-128109786D01*
X105441330Y-128144714D01*
X105563965Y-128313505D01*
X105711495Y-128461035D01*
X105880286Y-128583670D01*
X105968116Y-128628421D01*
X106066179Y-128678387D01*
X106066181Y-128678387D01*
X106066184Y-128678389D01*
X106172545Y-128712948D01*
X106264610Y-128742862D01*
X106470676Y-128775500D01*
X106470681Y-128775500D01*
X106679324Y-128775500D01*
X106885389Y-128742862D01*
X107083816Y-128678389D01*
X107269714Y-128583670D01*
X107438505Y-128461035D01*
X107586035Y-128313505D01*
X107708670Y-128144714D01*
X107803389Y-127958816D01*
X107867862Y-127760389D01*
X107878749Y-127691650D01*
X107900500Y-127554324D01*
X107900500Y-127345675D01*
X109749500Y-127345675D01*
X109749500Y-127554324D01*
X109782137Y-127760389D01*
X109846612Y-127958820D01*
X109923533Y-128109786D01*
X109941330Y-128144714D01*
X110063965Y-128313505D01*
X110211495Y-128461035D01*
X110380286Y-128583670D01*
X110468116Y-128628421D01*
X110566179Y-128678387D01*
X110566181Y-128678387D01*
X110566184Y-128678389D01*
X110672545Y-128712948D01*
X110764610Y-128742862D01*
X110970676Y-128775500D01*
X110970681Y-128775500D01*
X111179324Y-128775500D01*
X111385389Y-128742862D01*
X111583816Y-128678389D01*
X111769714Y-128583670D01*
X111938505Y-128461035D01*
X112086035Y-128313505D01*
X112208670Y-128144714D01*
X112303389Y-127958816D01*
X112367862Y-127760389D01*
X112378749Y-127691650D01*
X112400500Y-127554324D01*
X112400500Y-127345675D01*
X112367862Y-127139610D01*
X112303387Y-126941179D01*
X112253421Y-126843116D01*
X112208670Y-126755286D01*
X112086035Y-126586495D01*
X111938505Y-126438965D01*
X111769714Y-126316330D01*
X111583820Y-126221612D01*
X111385389Y-126157137D01*
X111179324Y-126124500D01*
X111179319Y-126124500D01*
X110970681Y-126124500D01*
X110970676Y-126124500D01*
X110764610Y-126157137D01*
X110566179Y-126221612D01*
X110380285Y-126316330D01*
X110211493Y-126438966D01*
X110063966Y-126586493D01*
X109941330Y-126755285D01*
X109846612Y-126941179D01*
X109782137Y-127139610D01*
X109749500Y-127345675D01*
X107900500Y-127345675D01*
X107867862Y-127139610D01*
X107803387Y-126941179D01*
X107753421Y-126843116D01*
X107708670Y-126755286D01*
X107586035Y-126586495D01*
X107438505Y-126438965D01*
X107269714Y-126316330D01*
X107083820Y-126221612D01*
X106885389Y-126157137D01*
X106679324Y-126124500D01*
X106679319Y-126124500D01*
X106470681Y-126124500D01*
X106470676Y-126124500D01*
X106264610Y-126157137D01*
X106066179Y-126221612D01*
X105880285Y-126316330D01*
X105711493Y-126438966D01*
X105563966Y-126586493D01*
X105441330Y-126755285D01*
X105346612Y-126941179D01*
X105282137Y-127139610D01*
X105249500Y-127345675D01*
X94900500Y-127345675D01*
X94900500Y-124345675D01*
X105249500Y-124345675D01*
X105249500Y-124554324D01*
X105282137Y-124760389D01*
X105346612Y-124958820D01*
X105441330Y-125144714D01*
X105563965Y-125313505D01*
X105711495Y-125461035D01*
X105880286Y-125583670D01*
X105968116Y-125628421D01*
X106066179Y-125678387D01*
X106066181Y-125678387D01*
X106066184Y-125678389D01*
X106172545Y-125712948D01*
X106264610Y-125742862D01*
X106470676Y-125775500D01*
X106470681Y-125775500D01*
X106679324Y-125775500D01*
X106885389Y-125742862D01*
X106955415Y-125720109D01*
X107083816Y-125678389D01*
X107269714Y-125583670D01*
X107438505Y-125461035D01*
X107586035Y-125313505D01*
X107708670Y-125144714D01*
X107803389Y-124958816D01*
X107867862Y-124760389D01*
X107900500Y-124554324D01*
X107900500Y-124345675D01*
X109749500Y-124345675D01*
X109749500Y-124554324D01*
X109782137Y-124760389D01*
X109846612Y-124958820D01*
X109941330Y-125144714D01*
X110063965Y-125313505D01*
X110211495Y-125461035D01*
X110380286Y-125583670D01*
X110468116Y-125628421D01*
X110566179Y-125678387D01*
X110566181Y-125678387D01*
X110566184Y-125678389D01*
X110672545Y-125712948D01*
X110764610Y-125742862D01*
X110970676Y-125775500D01*
X110970681Y-125775500D01*
X111179324Y-125775500D01*
X111385389Y-125742862D01*
X111455415Y-125720109D01*
X111583816Y-125678389D01*
X111769714Y-125583670D01*
X111938505Y-125461035D01*
X112086035Y-125313505D01*
X112208670Y-125144714D01*
X112303389Y-124958816D01*
X112367862Y-124760389D01*
X112400500Y-124554324D01*
X112400500Y-124345675D01*
X112367862Y-124139610D01*
X112334196Y-124035998D01*
X112303389Y-123941184D01*
X112303387Y-123941181D01*
X112303387Y-123941179D01*
X112208669Y-123755285D01*
X112139360Y-123659890D01*
X112086035Y-123586495D01*
X111938505Y-123438965D01*
X111769714Y-123316330D01*
X111747572Y-123305048D01*
X111583820Y-123221612D01*
X111385389Y-123157137D01*
X111179324Y-123124500D01*
X111179319Y-123124500D01*
X110970681Y-123124500D01*
X110970676Y-123124500D01*
X110764610Y-123157137D01*
X110566179Y-123221612D01*
X110380285Y-123316330D01*
X110211493Y-123438966D01*
X110063966Y-123586493D01*
X109941330Y-123755285D01*
X109846612Y-123941179D01*
X109782137Y-124139610D01*
X109749500Y-124345675D01*
X107900500Y-124345675D01*
X107867862Y-124139610D01*
X107834196Y-124035998D01*
X107803389Y-123941184D01*
X107803387Y-123941181D01*
X107803387Y-123941179D01*
X107708669Y-123755285D01*
X107639360Y-123659890D01*
X107586035Y-123586495D01*
X107438505Y-123438965D01*
X107269714Y-123316330D01*
X107247572Y-123305048D01*
X107083820Y-123221612D01*
X106885389Y-123157137D01*
X106679324Y-123124500D01*
X106679319Y-123124500D01*
X106470681Y-123124500D01*
X106470676Y-123124500D01*
X106264610Y-123157137D01*
X106066179Y-123221612D01*
X105880285Y-123316330D01*
X105711493Y-123438966D01*
X105563966Y-123586493D01*
X105441330Y-123755285D01*
X105346612Y-123941179D01*
X105282137Y-124139610D01*
X105249500Y-124345675D01*
X94900500Y-124345675D01*
X94900500Y-121345675D01*
X105249500Y-121345675D01*
X105249500Y-121554324D01*
X105282137Y-121760389D01*
X105346612Y-121958820D01*
X105441330Y-122144714D01*
X105563965Y-122313505D01*
X105711495Y-122461035D01*
X105880286Y-122583670D01*
X105943591Y-122615925D01*
X106066179Y-122678387D01*
X106066181Y-122678387D01*
X106066184Y-122678389D01*
X106172545Y-122712948D01*
X106264610Y-122742862D01*
X106470676Y-122775500D01*
X106470681Y-122775500D01*
X106679324Y-122775500D01*
X106885389Y-122742862D01*
X107083816Y-122678389D01*
X107269714Y-122583670D01*
X107438505Y-122461035D01*
X107586035Y-122313505D01*
X107708670Y-122144714D01*
X107803389Y-121958816D01*
X107867862Y-121760389D01*
X107885346Y-121650000D01*
X107900500Y-121554324D01*
X107900500Y-121345675D01*
X109749500Y-121345675D01*
X109749500Y-121554324D01*
X109782137Y-121760389D01*
X109846612Y-121958820D01*
X109941330Y-122144714D01*
X110063965Y-122313505D01*
X110211495Y-122461035D01*
X110380286Y-122583670D01*
X110443591Y-122615925D01*
X110566179Y-122678387D01*
X110566181Y-122678387D01*
X110566184Y-122678389D01*
X110672545Y-122712948D01*
X110764610Y-122742862D01*
X110970676Y-122775500D01*
X110970681Y-122775500D01*
X111179324Y-122775500D01*
X111385389Y-122742862D01*
X111583816Y-122678389D01*
X111769714Y-122583670D01*
X111938505Y-122461035D01*
X112086035Y-122313505D01*
X112208670Y-122144714D01*
X112303389Y-121958816D01*
X112367862Y-121760389D01*
X112385346Y-121650000D01*
X112400500Y-121554324D01*
X112400500Y-121345675D01*
X112367862Y-121139610D01*
X112319408Y-120990486D01*
X112303389Y-120941184D01*
X112303387Y-120941181D01*
X112303387Y-120941179D01*
X112235812Y-120808556D01*
X112208670Y-120755286D01*
X112086035Y-120586495D01*
X111938505Y-120438965D01*
X111769714Y-120316330D01*
X111755438Y-120309056D01*
X111583820Y-120221612D01*
X111385389Y-120157137D01*
X111179324Y-120124500D01*
X111179319Y-120124500D01*
X110970681Y-120124500D01*
X110970676Y-120124500D01*
X110764610Y-120157137D01*
X110566179Y-120221612D01*
X110380285Y-120316330D01*
X110211493Y-120438966D01*
X110063966Y-120586493D01*
X109941330Y-120755285D01*
X109846612Y-120941179D01*
X109782137Y-121139610D01*
X109749500Y-121345675D01*
X107900500Y-121345675D01*
X107867862Y-121139610D01*
X107819408Y-120990486D01*
X107803389Y-120941184D01*
X107803387Y-120941181D01*
X107803387Y-120941179D01*
X107735812Y-120808556D01*
X107708670Y-120755286D01*
X107586035Y-120586495D01*
X107438505Y-120438965D01*
X107269714Y-120316330D01*
X107255438Y-120309056D01*
X107083820Y-120221612D01*
X106885389Y-120157137D01*
X106679324Y-120124500D01*
X106679319Y-120124500D01*
X106470681Y-120124500D01*
X106470676Y-120124500D01*
X106264610Y-120157137D01*
X106066179Y-120221612D01*
X105880285Y-120316330D01*
X105711493Y-120438966D01*
X105563966Y-120586493D01*
X105441330Y-120755285D01*
X105346612Y-120941179D01*
X105282137Y-121139610D01*
X105249500Y-121345675D01*
X94900500Y-121345675D01*
X94900500Y-118345675D01*
X105249500Y-118345675D01*
X105249500Y-118554324D01*
X105282137Y-118760389D01*
X105346612Y-118958820D01*
X105414261Y-119091588D01*
X105441330Y-119144714D01*
X105563965Y-119313505D01*
X105711495Y-119461035D01*
X105880286Y-119583670D01*
X105968116Y-119628421D01*
X106066179Y-119678387D01*
X106066181Y-119678387D01*
X106066184Y-119678389D01*
X106172545Y-119712948D01*
X106264610Y-119742862D01*
X106470676Y-119775500D01*
X106470681Y-119775500D01*
X106679324Y-119775500D01*
X106885389Y-119742862D01*
X107083816Y-119678389D01*
X107269714Y-119583670D01*
X107438505Y-119461035D01*
X107586035Y-119313505D01*
X107708670Y-119144714D01*
X107803389Y-118958816D01*
X107867862Y-118760389D01*
X107872642Y-118730208D01*
X107900500Y-118554324D01*
X107900500Y-118345675D01*
X109749500Y-118345675D01*
X109749500Y-118554324D01*
X109782137Y-118760389D01*
X109846612Y-118958820D01*
X109914261Y-119091588D01*
X109941330Y-119144714D01*
X110063965Y-119313505D01*
X110211495Y-119461035D01*
X110380286Y-119583670D01*
X110468116Y-119628421D01*
X110566179Y-119678387D01*
X110566181Y-119678387D01*
X110566184Y-119678389D01*
X110672545Y-119712948D01*
X110764610Y-119742862D01*
X110970676Y-119775500D01*
X110970681Y-119775500D01*
X111179324Y-119775500D01*
X111385389Y-119742862D01*
X111583816Y-119678389D01*
X111769714Y-119583670D01*
X111938505Y-119461035D01*
X112086035Y-119313505D01*
X112208670Y-119144714D01*
X112303389Y-118958816D01*
X112367862Y-118760389D01*
X112372642Y-118730208D01*
X112400500Y-118554324D01*
X112400500Y-118345675D01*
X112367862Y-118139610D01*
X112303387Y-117941179D01*
X112253421Y-117843116D01*
X112208670Y-117755286D01*
X112086035Y-117586495D01*
X111938505Y-117438965D01*
X111769714Y-117316330D01*
X111583820Y-117221612D01*
X111385389Y-117157137D01*
X111179324Y-117124500D01*
X111179319Y-117124500D01*
X110970681Y-117124500D01*
X110970676Y-117124500D01*
X110764610Y-117157137D01*
X110566179Y-117221612D01*
X110380285Y-117316330D01*
X110211493Y-117438966D01*
X110063966Y-117586493D01*
X109941330Y-117755285D01*
X109846612Y-117941179D01*
X109782137Y-118139610D01*
X109749500Y-118345675D01*
X107900500Y-118345675D01*
X107867862Y-118139610D01*
X107803387Y-117941179D01*
X107753421Y-117843116D01*
X107708670Y-117755286D01*
X107586035Y-117586495D01*
X107438505Y-117438965D01*
X107269714Y-117316330D01*
X107083820Y-117221612D01*
X106885389Y-117157137D01*
X106679324Y-117124500D01*
X106679319Y-117124500D01*
X106470681Y-117124500D01*
X106470676Y-117124500D01*
X106264610Y-117157137D01*
X106066179Y-117221612D01*
X105880285Y-117316330D01*
X105711493Y-117438966D01*
X105563966Y-117586493D01*
X105441330Y-117755285D01*
X105346612Y-117941179D01*
X105282137Y-118139610D01*
X105249500Y-118345675D01*
X94900500Y-118345675D01*
X94900500Y-112424499D01*
X97750000Y-112424499D01*
X97750000Y-112775500D01*
X97789297Y-113124269D01*
X97789299Y-113124281D01*
X97867402Y-113466477D01*
X97867405Y-113466485D01*
X97983328Y-113797773D01*
X98135615Y-114114000D01*
X98322355Y-114411195D01*
X98494449Y-114626996D01*
X99473381Y-113648064D01*
X99556457Y-113756331D01*
X99718669Y-113918543D01*
X99826934Y-114001617D01*
X98848002Y-114980549D01*
X99063804Y-115152644D01*
X99360999Y-115339384D01*
X99677226Y-115491671D01*
X100008514Y-115607594D01*
X100008522Y-115607597D01*
X100350718Y-115685700D01*
X100350730Y-115685702D01*
X100699499Y-115724999D01*
X100699501Y-115725000D01*
X101050499Y-115725000D01*
X101050500Y-115724999D01*
X101399269Y-115685702D01*
X101399281Y-115685700D01*
X101741477Y-115607597D01*
X101741485Y-115607594D01*
X102072773Y-115491671D01*
X102375937Y-115345675D01*
X105249500Y-115345675D01*
X105249500Y-115554324D01*
X105282137Y-115760389D01*
X105346612Y-115958820D01*
X105441330Y-116144714D01*
X105563965Y-116313505D01*
X105711495Y-116461035D01*
X105880286Y-116583670D01*
X105928722Y-116608349D01*
X106066179Y-116678387D01*
X106066181Y-116678387D01*
X106066184Y-116678389D01*
X106172545Y-116712948D01*
X106264610Y-116742862D01*
X106470676Y-116775500D01*
X106470681Y-116775500D01*
X106679324Y-116775500D01*
X106885389Y-116742862D01*
X107083816Y-116678389D01*
X107269714Y-116583670D01*
X107438505Y-116461035D01*
X107586035Y-116313505D01*
X107708670Y-116144714D01*
X107803389Y-115958816D01*
X107867862Y-115760389D01*
X107879087Y-115689516D01*
X107900500Y-115554324D01*
X107900500Y-115345675D01*
X109749500Y-115345675D01*
X109749500Y-115554324D01*
X109782137Y-115760389D01*
X109846612Y-115958820D01*
X109941330Y-116144714D01*
X110063965Y-116313505D01*
X110211495Y-116461035D01*
X110380286Y-116583670D01*
X110428722Y-116608349D01*
X110566179Y-116678387D01*
X110566181Y-116678387D01*
X110566184Y-116678389D01*
X110672545Y-116712948D01*
X110764610Y-116742862D01*
X110970676Y-116775500D01*
X110970681Y-116775500D01*
X111179324Y-116775500D01*
X111385389Y-116742862D01*
X111583816Y-116678389D01*
X111769714Y-116583670D01*
X111938505Y-116461035D01*
X112086035Y-116313505D01*
X112208670Y-116144714D01*
X112303389Y-115958816D01*
X112367862Y-115760389D01*
X112379087Y-115689516D01*
X112400500Y-115554324D01*
X112400500Y-115345675D01*
X112367862Y-115139610D01*
X112303387Y-114941179D01*
X112208669Y-114755285D01*
X112122211Y-114636287D01*
X112086035Y-114586495D01*
X111938505Y-114438965D01*
X111769714Y-114316330D01*
X111583820Y-114221612D01*
X111385389Y-114157137D01*
X111179324Y-114124500D01*
X111179319Y-114124500D01*
X110970681Y-114124500D01*
X110970676Y-114124500D01*
X110764610Y-114157137D01*
X110566179Y-114221612D01*
X110380285Y-114316330D01*
X110211493Y-114438966D01*
X110063966Y-114586493D01*
X109941330Y-114755285D01*
X109846612Y-114941179D01*
X109782137Y-115139610D01*
X109749500Y-115345675D01*
X107900500Y-115345675D01*
X107867862Y-115139610D01*
X107803387Y-114941179D01*
X107708669Y-114755285D01*
X107622211Y-114636287D01*
X107586035Y-114586495D01*
X107438505Y-114438965D01*
X107269714Y-114316330D01*
X107083820Y-114221612D01*
X106885389Y-114157137D01*
X106679324Y-114124500D01*
X106679319Y-114124500D01*
X106470681Y-114124500D01*
X106470676Y-114124500D01*
X106264610Y-114157137D01*
X106066179Y-114221612D01*
X105880285Y-114316330D01*
X105711493Y-114438966D01*
X105563966Y-114586493D01*
X105441330Y-114755285D01*
X105346612Y-114941179D01*
X105282137Y-115139610D01*
X105249500Y-115345675D01*
X102375937Y-115345675D01*
X102389000Y-115339384D01*
X102553831Y-115235815D01*
X102686195Y-115152644D01*
X102901996Y-114980549D01*
X101923065Y-114001618D01*
X102031331Y-113918543D01*
X102193543Y-113756331D01*
X102276618Y-113648065D01*
X103255549Y-114626996D01*
X103427644Y-114411195D01*
X103614384Y-114114000D01*
X103766671Y-113797773D01*
X103882594Y-113466485D01*
X103882597Y-113466477D01*
X103960700Y-113124281D01*
X103960702Y-113124269D01*
X103999999Y-112775500D01*
X104000000Y-112775498D01*
X104000000Y-112424501D01*
X103999999Y-112424499D01*
X103960702Y-112075730D01*
X103960700Y-112075718D01*
X103882597Y-111733522D01*
X103882594Y-111733514D01*
X103766671Y-111402226D01*
X103614384Y-111085999D01*
X103427644Y-110788804D01*
X103255549Y-110573002D01*
X102276617Y-111551933D01*
X102193543Y-111443669D01*
X102031331Y-111281457D01*
X101923064Y-111198380D01*
X102901996Y-110219449D01*
X102686195Y-110047355D01*
X102389000Y-109860615D01*
X102072773Y-109708328D01*
X101741485Y-109592405D01*
X101741477Y-109592402D01*
X101399281Y-109514299D01*
X101399268Y-109514296D01*
X101396891Y-109514029D01*
X101396890Y-109514029D01*
X101050500Y-109475000D01*
X100699499Y-109475000D01*
X100350730Y-109514297D01*
X100350718Y-109514299D01*
X100008522Y-109592402D01*
X100008514Y-109592405D01*
X99677226Y-109708328D01*
X99360999Y-109860615D01*
X99063804Y-110047355D01*
X98848002Y-110219449D01*
X99826934Y-111198381D01*
X99718669Y-111281457D01*
X99556457Y-111443669D01*
X99473381Y-111551934D01*
X98494449Y-110573002D01*
X98322355Y-110788804D01*
X98135615Y-111085999D01*
X97983328Y-111402226D01*
X97867405Y-111733514D01*
X97867402Y-111733522D01*
X97789299Y-112075718D01*
X97789297Y-112075730D01*
X97750000Y-112424499D01*
X94900500Y-112424499D01*
X94900500Y-109395675D01*
X105249500Y-109395675D01*
X105249500Y-109604324D01*
X105282137Y-109810389D01*
X105346612Y-110008820D01*
X105422532Y-110157820D01*
X105441330Y-110194714D01*
X105563965Y-110363505D01*
X105711495Y-110511035D01*
X105880286Y-110633670D01*
X105909502Y-110648556D01*
X106066179Y-110728387D01*
X106066181Y-110728387D01*
X106066184Y-110728389D01*
X106172545Y-110762948D01*
X106264610Y-110792862D01*
X106470676Y-110825500D01*
X106470681Y-110825500D01*
X106679324Y-110825500D01*
X106885389Y-110792862D01*
X106917243Y-110782512D01*
X107083816Y-110728389D01*
X107269714Y-110633670D01*
X107438505Y-110511035D01*
X107586035Y-110363505D01*
X107708670Y-110194714D01*
X107803389Y-110008816D01*
X107867862Y-109810389D01*
X107884027Y-109708328D01*
X107900500Y-109604324D01*
X107900500Y-109395676D01*
X107894882Y-109360208D01*
X107894882Y-109360207D01*
X107892580Y-109345675D01*
X109749500Y-109345675D01*
X109749500Y-109554324D01*
X109782137Y-109760389D01*
X109846612Y-109958820D01*
X109909102Y-110081463D01*
X109941330Y-110144714D01*
X110063965Y-110313505D01*
X110211495Y-110461035D01*
X110380286Y-110583670D01*
X110431012Y-110609516D01*
X110566179Y-110678387D01*
X110566181Y-110678387D01*
X110566184Y-110678389D01*
X110637488Y-110701557D01*
X110764610Y-110742862D01*
X110970676Y-110775500D01*
X110970681Y-110775500D01*
X111179324Y-110775500D01*
X111385389Y-110742862D01*
X111439402Y-110725312D01*
X111583816Y-110678389D01*
X111769714Y-110583670D01*
X111938505Y-110461035D01*
X112086035Y-110313505D01*
X112208670Y-110144714D01*
X112303389Y-109958816D01*
X112367862Y-109760389D01*
X112376108Y-109708328D01*
X112400500Y-109554324D01*
X112400500Y-109345675D01*
X112367862Y-109139610D01*
X112303387Y-108941179D01*
X112234146Y-108805286D01*
X112208670Y-108755286D01*
X112086035Y-108586495D01*
X111938505Y-108438965D01*
X111769714Y-108316330D01*
X111727755Y-108294951D01*
X111583820Y-108221612D01*
X111385389Y-108157137D01*
X111179324Y-108124500D01*
X111179319Y-108124500D01*
X110970681Y-108124500D01*
X110970676Y-108124500D01*
X110764610Y-108157137D01*
X110566179Y-108221612D01*
X110380285Y-108316330D01*
X110211493Y-108438966D01*
X110063966Y-108586493D01*
X109941330Y-108755285D01*
X109846612Y-108941179D01*
X109782137Y-109139610D01*
X109749500Y-109345675D01*
X107892580Y-109345675D01*
X107867862Y-109189610D01*
X107803387Y-108991179D01*
X107708669Y-108805285D01*
X107701922Y-108795998D01*
X107586035Y-108636495D01*
X107438505Y-108488965D01*
X107269714Y-108366330D01*
X107083820Y-108271612D01*
X106885389Y-108207137D01*
X106679324Y-108174500D01*
X106679319Y-108174500D01*
X106470681Y-108174500D01*
X106470676Y-108174500D01*
X106264610Y-108207137D01*
X106066179Y-108271612D01*
X105880285Y-108366330D01*
X105711493Y-108488966D01*
X105563966Y-108636493D01*
X105441330Y-108805285D01*
X105346612Y-108991179D01*
X105282137Y-109189610D01*
X105249500Y-109395675D01*
X94900500Y-109395675D01*
X94900500Y-105895675D01*
X105249500Y-105895675D01*
X105249500Y-106104324D01*
X105282137Y-106310389D01*
X105346612Y-106508820D01*
X105394596Y-106602993D01*
X105441330Y-106694714D01*
X105563965Y-106863505D01*
X105711495Y-107011035D01*
X105880286Y-107133670D01*
X105968116Y-107178421D01*
X106066179Y-107228387D01*
X106066181Y-107228387D01*
X106066184Y-107228389D01*
X106172545Y-107262948D01*
X106264610Y-107292862D01*
X106470676Y-107325500D01*
X106470681Y-107325500D01*
X106679324Y-107325500D01*
X106885389Y-107292862D01*
X107083816Y-107228389D01*
X107269714Y-107133670D01*
X107438505Y-107011035D01*
X107586035Y-106863505D01*
X107708670Y-106694714D01*
X107803389Y-106508816D01*
X107867862Y-106310389D01*
X107883525Y-106211499D01*
X107900500Y-106104324D01*
X107900500Y-105895675D01*
X109749500Y-105895675D01*
X109749500Y-106104324D01*
X109782137Y-106310389D01*
X109846612Y-106508820D01*
X109894596Y-106602993D01*
X109941330Y-106694714D01*
X110063965Y-106863505D01*
X110211495Y-107011035D01*
X110380286Y-107133670D01*
X110468116Y-107178421D01*
X110566179Y-107228387D01*
X110566181Y-107228387D01*
X110566184Y-107228389D01*
X110672545Y-107262948D01*
X110764610Y-107292862D01*
X110970676Y-107325500D01*
X110970681Y-107325500D01*
X111179324Y-107325500D01*
X111385389Y-107292862D01*
X111583816Y-107228389D01*
X111769714Y-107133670D01*
X111938505Y-107011035D01*
X112086035Y-106863505D01*
X112133667Y-106797945D01*
X112185944Y-106725995D01*
X112199402Y-106707468D01*
X112208670Y-106694714D01*
X112303389Y-106508816D01*
X112367862Y-106310389D01*
X112383525Y-106211499D01*
X112400500Y-106104324D01*
X112400500Y-105895675D01*
X112367862Y-105689610D01*
X112315934Y-105529793D01*
X112303389Y-105491184D01*
X112303387Y-105491181D01*
X112303387Y-105491179D01*
X112208669Y-105305285D01*
X112168351Y-105249792D01*
X112086035Y-105136495D01*
X111938505Y-104988965D01*
X111769714Y-104866330D01*
X111583820Y-104771612D01*
X111385389Y-104707137D01*
X111179324Y-104674500D01*
X111179319Y-104674500D01*
X110970681Y-104674500D01*
X110970676Y-104674500D01*
X110764610Y-104707137D01*
X110566179Y-104771612D01*
X110380285Y-104866330D01*
X110211493Y-104988966D01*
X110063966Y-105136493D01*
X109941330Y-105305285D01*
X109846612Y-105491179D01*
X109782137Y-105689610D01*
X109749500Y-105895675D01*
X107900500Y-105895675D01*
X107867862Y-105689610D01*
X107815934Y-105529793D01*
X107803389Y-105491184D01*
X107803387Y-105491181D01*
X107803387Y-105491179D01*
X107708669Y-105305285D01*
X107668351Y-105249792D01*
X107586035Y-105136495D01*
X107438505Y-104988965D01*
X107269714Y-104866330D01*
X107083820Y-104771612D01*
X106885389Y-104707137D01*
X106679324Y-104674500D01*
X106679319Y-104674500D01*
X106470681Y-104674500D01*
X106470676Y-104674500D01*
X106264610Y-104707137D01*
X106066179Y-104771612D01*
X105880285Y-104866330D01*
X105711493Y-104988966D01*
X105563966Y-105136493D01*
X105441330Y-105305285D01*
X105346612Y-105491179D01*
X105282137Y-105689610D01*
X105249500Y-105895675D01*
X94900500Y-105895675D01*
X94900500Y-102795720D01*
X105250000Y-102795720D01*
X105250000Y-103004279D01*
X105282626Y-103210272D01*
X105347075Y-103408627D01*
X105441759Y-103594451D01*
X105477627Y-103643818D01*
X105477627Y-103643819D01*
X106051212Y-103070234D01*
X106062482Y-103112292D01*
X106134890Y-103237708D01*
X106237292Y-103340110D01*
X106362708Y-103412518D01*
X106404765Y-103423787D01*
X105831179Y-103997371D01*
X105831180Y-103997372D01*
X105880543Y-104033236D01*
X105880556Y-104033244D01*
X106066372Y-104127924D01*
X106264727Y-104192373D01*
X106470721Y-104225000D01*
X106679279Y-104225000D01*
X106885272Y-104192373D01*
X107083627Y-104127924D01*
X107269451Y-104033240D01*
X107318818Y-103997372D01*
X107318818Y-103997371D01*
X106745234Y-103423787D01*
X106787292Y-103412518D01*
X106912708Y-103340110D01*
X107015110Y-103237708D01*
X107087518Y-103112292D01*
X107098787Y-103070234D01*
X107672371Y-103643818D01*
X107672372Y-103643818D01*
X107708240Y-103594451D01*
X107802924Y-103408627D01*
X107867373Y-103210272D01*
X107900000Y-103004279D01*
X107900000Y-102795720D01*
X107899993Y-102795675D01*
X109749500Y-102795675D01*
X109749500Y-103004324D01*
X109782137Y-103210389D01*
X109846612Y-103408820D01*
X109941196Y-103594451D01*
X109941330Y-103594714D01*
X110063965Y-103763505D01*
X110211495Y-103911035D01*
X110380286Y-104033670D01*
X110468116Y-104078421D01*
X110566179Y-104128387D01*
X110566181Y-104128387D01*
X110566184Y-104128389D01*
X110672545Y-104162948D01*
X110764610Y-104192862D01*
X110970676Y-104225500D01*
X110970681Y-104225500D01*
X111179324Y-104225500D01*
X111385389Y-104192862D01*
X111386894Y-104192373D01*
X111583816Y-104128389D01*
X111769714Y-104033670D01*
X111938505Y-103911035D01*
X112086035Y-103763505D01*
X112208670Y-103594714D01*
X112303389Y-103408816D01*
X112367862Y-103210389D01*
X112383399Y-103112292D01*
X112400500Y-103004324D01*
X112400500Y-102795675D01*
X112367862Y-102589610D01*
X112303387Y-102391179D01*
X112253421Y-102293116D01*
X112208670Y-102205286D01*
X112086035Y-102036495D01*
X111938505Y-101888965D01*
X111769714Y-101766330D01*
X111765483Y-101764174D01*
X111583820Y-101671612D01*
X111385389Y-101607137D01*
X111179324Y-101574500D01*
X111179319Y-101574500D01*
X110970681Y-101574500D01*
X110970676Y-101574500D01*
X110764610Y-101607137D01*
X110566179Y-101671612D01*
X110380285Y-101766330D01*
X110211493Y-101888966D01*
X110063966Y-102036493D01*
X109941330Y-102205285D01*
X109846612Y-102391179D01*
X109782137Y-102589610D01*
X109749500Y-102795675D01*
X107899993Y-102795675D01*
X107867373Y-102589727D01*
X107802924Y-102391372D01*
X107708244Y-102205556D01*
X107708236Y-102205543D01*
X107672372Y-102156180D01*
X107672371Y-102156179D01*
X107098787Y-102729764D01*
X107087518Y-102687708D01*
X107015110Y-102562292D01*
X106912708Y-102459890D01*
X106787292Y-102387482D01*
X106745233Y-102376212D01*
X107318819Y-101802627D01*
X107269451Y-101766759D01*
X107083627Y-101672075D01*
X106885272Y-101607626D01*
X106679279Y-101575000D01*
X106470721Y-101575000D01*
X106264727Y-101607626D01*
X106066372Y-101672075D01*
X105880552Y-101766757D01*
X105831180Y-101802627D01*
X106404766Y-102376212D01*
X106362708Y-102387482D01*
X106237292Y-102459890D01*
X106134890Y-102562292D01*
X106062482Y-102687708D01*
X106051212Y-102729765D01*
X105477627Y-102156180D01*
X105441757Y-102205552D01*
X105347075Y-102391372D01*
X105282626Y-102589727D01*
X105250000Y-102795720D01*
X94900500Y-102795720D01*
X94900500Y-99795675D01*
X105249500Y-99795675D01*
X105249500Y-100004324D01*
X105282137Y-100210389D01*
X105346612Y-100408820D01*
X105441330Y-100594714D01*
X105563965Y-100763505D01*
X105711495Y-100911035D01*
X105880286Y-101033670D01*
X105968116Y-101078421D01*
X106066179Y-101128387D01*
X106066181Y-101128387D01*
X106066184Y-101128389D01*
X106172545Y-101162948D01*
X106264610Y-101192862D01*
X106470676Y-101225500D01*
X106470681Y-101225500D01*
X106679324Y-101225500D01*
X106885389Y-101192862D01*
X106935598Y-101176548D01*
X107083816Y-101128389D01*
X107269714Y-101033670D01*
X107438505Y-100911035D01*
X107586035Y-100763505D01*
X107708670Y-100594714D01*
X107803389Y-100408816D01*
X107867862Y-100210389D01*
X107874293Y-100169786D01*
X107900500Y-100004324D01*
X107900500Y-99795675D01*
X109749500Y-99795675D01*
X109749500Y-100004324D01*
X109782137Y-100210389D01*
X109846612Y-100408820D01*
X109941330Y-100594714D01*
X110063965Y-100763505D01*
X110211495Y-100911035D01*
X110380286Y-101033670D01*
X110468116Y-101078421D01*
X110566179Y-101128387D01*
X110566181Y-101128387D01*
X110566184Y-101128389D01*
X110672545Y-101162948D01*
X110764610Y-101192862D01*
X110970676Y-101225500D01*
X110970681Y-101225500D01*
X111179324Y-101225500D01*
X111385389Y-101192862D01*
X111435598Y-101176548D01*
X111583816Y-101128389D01*
X111769714Y-101033670D01*
X111938505Y-100911035D01*
X112086035Y-100763505D01*
X112208670Y-100594714D01*
X112303389Y-100408816D01*
X112367862Y-100210389D01*
X112374293Y-100169786D01*
X112400500Y-100004324D01*
X112400500Y-99795675D01*
X112367862Y-99589610D01*
X112305047Y-99396287D01*
X112303389Y-99391184D01*
X112303387Y-99391181D01*
X112303387Y-99391179D01*
X112265230Y-99316292D01*
X112208670Y-99205286D01*
X112086035Y-99036495D01*
X111938505Y-98888965D01*
X111769714Y-98766330D01*
X111583820Y-98671612D01*
X111385389Y-98607137D01*
X111179324Y-98574500D01*
X111179319Y-98574500D01*
X110970681Y-98574500D01*
X110970676Y-98574500D01*
X110764610Y-98607137D01*
X110566179Y-98671612D01*
X110380285Y-98766330D01*
X110211493Y-98888966D01*
X110063966Y-99036493D01*
X109941330Y-99205285D01*
X109846612Y-99391179D01*
X109782137Y-99589610D01*
X109749500Y-99795675D01*
X107900500Y-99795675D01*
X107867862Y-99589610D01*
X107805047Y-99396287D01*
X107803389Y-99391184D01*
X107803387Y-99391181D01*
X107803387Y-99391179D01*
X107751833Y-99289999D01*
X107708670Y-99205286D01*
X107586035Y-99036495D01*
X107438505Y-98888965D01*
X107269714Y-98766330D01*
X107083820Y-98671612D01*
X106885389Y-98607137D01*
X106679324Y-98574500D01*
X106679319Y-98574500D01*
X106470681Y-98574500D01*
X106470676Y-98574500D01*
X106264610Y-98607137D01*
X106066179Y-98671612D01*
X105880285Y-98766330D01*
X105711493Y-98888966D01*
X105563966Y-99036493D01*
X105441330Y-99205285D01*
X105346612Y-99391179D01*
X105282137Y-99589610D01*
X105249500Y-99795675D01*
X94900500Y-99795675D01*
X94900500Y-96795675D01*
X105249500Y-96795675D01*
X105249500Y-97004324D01*
X105282137Y-97210389D01*
X105346612Y-97408820D01*
X105441330Y-97594714D01*
X105563965Y-97763505D01*
X105711495Y-97911035D01*
X105880286Y-98033670D01*
X105889654Y-98038443D01*
X106066179Y-98128387D01*
X106066181Y-98128387D01*
X106066184Y-98128389D01*
X106172545Y-98162948D01*
X106264610Y-98192862D01*
X106470676Y-98225500D01*
X106470681Y-98225500D01*
X106679324Y-98225500D01*
X106885389Y-98192862D01*
X107083816Y-98128389D01*
X107269714Y-98033670D01*
X107438505Y-97911035D01*
X107586035Y-97763505D01*
X107708670Y-97594714D01*
X107803389Y-97408816D01*
X107867862Y-97210389D01*
X107900500Y-97004324D01*
X107900500Y-96795675D01*
X109749500Y-96795675D01*
X109749500Y-97004324D01*
X109782137Y-97210389D01*
X109846612Y-97408820D01*
X109941330Y-97594714D01*
X110063965Y-97763505D01*
X110211495Y-97911035D01*
X110380286Y-98033670D01*
X110389654Y-98038443D01*
X110566179Y-98128387D01*
X110566181Y-98128387D01*
X110566184Y-98128389D01*
X110672545Y-98162948D01*
X110764610Y-98192862D01*
X110970676Y-98225500D01*
X110970681Y-98225500D01*
X111179324Y-98225500D01*
X111385389Y-98192862D01*
X111583816Y-98128389D01*
X111769714Y-98033670D01*
X111938505Y-97911035D01*
X112086035Y-97763505D01*
X112208670Y-97594714D01*
X112303389Y-97408816D01*
X112367862Y-97210389D01*
X112400500Y-97004324D01*
X112400500Y-96795675D01*
X112367862Y-96589610D01*
X112303387Y-96391179D01*
X112208669Y-96205285D01*
X112086035Y-96036495D01*
X111938505Y-95888965D01*
X111769714Y-95766330D01*
X111583820Y-95671612D01*
X111385389Y-95607137D01*
X111179324Y-95574500D01*
X111179319Y-95574500D01*
X110970681Y-95574500D01*
X110970676Y-95574500D01*
X110764610Y-95607137D01*
X110566179Y-95671612D01*
X110380285Y-95766330D01*
X110211493Y-95888966D01*
X110063966Y-96036493D01*
X109941330Y-96205285D01*
X109846612Y-96391179D01*
X109782137Y-96589610D01*
X109749500Y-96795675D01*
X107900500Y-96795675D01*
X107867862Y-96589610D01*
X107803387Y-96391179D01*
X107708669Y-96205285D01*
X107586035Y-96036495D01*
X107438505Y-95888965D01*
X107269714Y-95766330D01*
X107083820Y-95671612D01*
X106885389Y-95607137D01*
X106679324Y-95574500D01*
X106679319Y-95574500D01*
X106470681Y-95574500D01*
X106470676Y-95574500D01*
X106264610Y-95607137D01*
X106066179Y-95671612D01*
X105880285Y-95766330D01*
X105711493Y-95888966D01*
X105563966Y-96036493D01*
X105441330Y-96205285D01*
X105346612Y-96391179D01*
X105282137Y-96589610D01*
X105249500Y-96795675D01*
X94900500Y-96795675D01*
X94900500Y-93795675D01*
X105249500Y-93795675D01*
X105249500Y-94004324D01*
X105282137Y-94210389D01*
X105346612Y-94408820D01*
X105441330Y-94594714D01*
X105563965Y-94763505D01*
X105711495Y-94911035D01*
X105880286Y-95033670D01*
X105968116Y-95078421D01*
X106066179Y-95128387D01*
X106066181Y-95128387D01*
X106066184Y-95128389D01*
X106172545Y-95162948D01*
X106264610Y-95192862D01*
X106470676Y-95225500D01*
X106470681Y-95225500D01*
X106679324Y-95225500D01*
X106885389Y-95192862D01*
X107083816Y-95128389D01*
X107269714Y-95033670D01*
X107438505Y-94911035D01*
X107586035Y-94763505D01*
X107708670Y-94594714D01*
X107803389Y-94408816D01*
X107867862Y-94210389D01*
X107884758Y-94103713D01*
X107900500Y-94004324D01*
X107900500Y-93795675D01*
X109749500Y-93795675D01*
X109749500Y-94004324D01*
X109782137Y-94210389D01*
X109846612Y-94408820D01*
X109941330Y-94594714D01*
X110063965Y-94763505D01*
X110211495Y-94911035D01*
X110380286Y-95033670D01*
X110468116Y-95078421D01*
X110566179Y-95128387D01*
X110566181Y-95128387D01*
X110566184Y-95128389D01*
X110672545Y-95162948D01*
X110764610Y-95192862D01*
X110970676Y-95225500D01*
X110970681Y-95225500D01*
X111179324Y-95225500D01*
X111385389Y-95192862D01*
X111583816Y-95128389D01*
X111769714Y-95033670D01*
X111938505Y-94911035D01*
X112086035Y-94763505D01*
X112208670Y-94594714D01*
X112303389Y-94408816D01*
X112367862Y-94210389D01*
X112384758Y-94103713D01*
X112400500Y-94004324D01*
X112400500Y-93795675D01*
X112367862Y-93589610D01*
X112303387Y-93391179D01*
X112208669Y-93205285D01*
X112190223Y-93179896D01*
X112086035Y-93036495D01*
X111938505Y-92888965D01*
X111769714Y-92766330D01*
X111583820Y-92671612D01*
X111385389Y-92607137D01*
X111179324Y-92574500D01*
X111179319Y-92574500D01*
X110970681Y-92574500D01*
X110970676Y-92574500D01*
X110764610Y-92607137D01*
X110566179Y-92671612D01*
X110380285Y-92766330D01*
X110211493Y-92888966D01*
X110063966Y-93036493D01*
X109941330Y-93205285D01*
X109846612Y-93391179D01*
X109782137Y-93589610D01*
X109749500Y-93795675D01*
X107900500Y-93795675D01*
X107867862Y-93589610D01*
X107803387Y-93391179D01*
X107708669Y-93205285D01*
X107690223Y-93179896D01*
X107586035Y-93036495D01*
X107438505Y-92888965D01*
X107269714Y-92766330D01*
X107083820Y-92671612D01*
X106885389Y-92607137D01*
X106679324Y-92574500D01*
X106679319Y-92574500D01*
X106470681Y-92574500D01*
X106470676Y-92574500D01*
X106264610Y-92607137D01*
X106066179Y-92671612D01*
X105880285Y-92766330D01*
X105711493Y-92888966D01*
X105563966Y-93036493D01*
X105441330Y-93205285D01*
X105346612Y-93391179D01*
X105282137Y-93589610D01*
X105249500Y-93795675D01*
X94900500Y-93795675D01*
X94900500Y-90795675D01*
X105249500Y-90795675D01*
X105249500Y-91004324D01*
X105282137Y-91210389D01*
X105346612Y-91408820D01*
X105425534Y-91563713D01*
X105441330Y-91594714D01*
X105563965Y-91763505D01*
X105711495Y-91911035D01*
X105880286Y-92033670D01*
X105968116Y-92078421D01*
X106066179Y-92128387D01*
X106066181Y-92128387D01*
X106066184Y-92128389D01*
X106172545Y-92162948D01*
X106264610Y-92192862D01*
X106470676Y-92225500D01*
X106470681Y-92225500D01*
X106679324Y-92225500D01*
X106885389Y-92192862D01*
X107083816Y-92128389D01*
X107269714Y-92033670D01*
X107438505Y-91911035D01*
X107586035Y-91763505D01*
X107708670Y-91594714D01*
X107803389Y-91408816D01*
X107867862Y-91210389D01*
X107895081Y-91038536D01*
X107900500Y-91004324D01*
X107900500Y-90795675D01*
X109749500Y-90795675D01*
X109749500Y-91004324D01*
X109782137Y-91210389D01*
X109846612Y-91408820D01*
X109925534Y-91563713D01*
X109941330Y-91594714D01*
X110063965Y-91763505D01*
X110211495Y-91911035D01*
X110380286Y-92033670D01*
X110468116Y-92078421D01*
X110566179Y-92128387D01*
X110566181Y-92128387D01*
X110566184Y-92128389D01*
X110672545Y-92162948D01*
X110764610Y-92192862D01*
X110970676Y-92225500D01*
X110970681Y-92225500D01*
X111179324Y-92225500D01*
X111385389Y-92192862D01*
X111583816Y-92128389D01*
X111769714Y-92033670D01*
X111938505Y-91911035D01*
X112086035Y-91763505D01*
X112208670Y-91594714D01*
X112303389Y-91408816D01*
X112367862Y-91210389D01*
X112395081Y-91038536D01*
X112400500Y-91004324D01*
X112400500Y-90795675D01*
X112367862Y-90589610D01*
X112306253Y-90400000D01*
X112303389Y-90391184D01*
X112303387Y-90391181D01*
X112303387Y-90391179D01*
X112208669Y-90205285D01*
X112086035Y-90036495D01*
X111938505Y-89888965D01*
X111769714Y-89766330D01*
X111760162Y-89761463D01*
X111583820Y-89671612D01*
X111385389Y-89607137D01*
X111179324Y-89574500D01*
X111179319Y-89574500D01*
X110970681Y-89574500D01*
X110970676Y-89574500D01*
X110764610Y-89607137D01*
X110566179Y-89671612D01*
X110380285Y-89766330D01*
X110211493Y-89888966D01*
X110063966Y-90036493D01*
X109941330Y-90205285D01*
X109846612Y-90391179D01*
X109782137Y-90589610D01*
X109749500Y-90795675D01*
X107900500Y-90795675D01*
X107867862Y-90589610D01*
X107806253Y-90400000D01*
X107803389Y-90391184D01*
X107803387Y-90391181D01*
X107803387Y-90391179D01*
X107708669Y-90205285D01*
X107586035Y-90036495D01*
X107438505Y-89888965D01*
X107269714Y-89766330D01*
X107260162Y-89761463D01*
X107083820Y-89671612D01*
X106885389Y-89607137D01*
X106679324Y-89574500D01*
X106679319Y-89574500D01*
X106470681Y-89574500D01*
X106470676Y-89574500D01*
X106264610Y-89607137D01*
X106066179Y-89671612D01*
X105880285Y-89766330D01*
X105711493Y-89888966D01*
X105563966Y-90036493D01*
X105441330Y-90205285D01*
X105346612Y-90391179D01*
X105282137Y-90589610D01*
X105249500Y-90795675D01*
X94900500Y-90795675D01*
X94900500Y-87795675D01*
X105249500Y-87795675D01*
X105249500Y-88004324D01*
X105282137Y-88210389D01*
X105346612Y-88408820D01*
X105383768Y-88481742D01*
X105441330Y-88594714D01*
X105563965Y-88763505D01*
X105711495Y-88911035D01*
X105880286Y-89033670D01*
X105968116Y-89078421D01*
X106066179Y-89128387D01*
X106066181Y-89128387D01*
X106066184Y-89128389D01*
X106172545Y-89162948D01*
X106264610Y-89192862D01*
X106470676Y-89225500D01*
X106470681Y-89225500D01*
X106679324Y-89225500D01*
X106885389Y-89192862D01*
X107083816Y-89128389D01*
X107269714Y-89033670D01*
X107438505Y-88911035D01*
X107586035Y-88763505D01*
X107708670Y-88594714D01*
X107803389Y-88408816D01*
X107867862Y-88210389D01*
X107900500Y-88004324D01*
X107900500Y-87795675D01*
X109749500Y-87795675D01*
X109749500Y-88004324D01*
X109782137Y-88210389D01*
X109846612Y-88408820D01*
X109883768Y-88481742D01*
X109941330Y-88594714D01*
X110063965Y-88763505D01*
X110211495Y-88911035D01*
X110380286Y-89033670D01*
X110468116Y-89078421D01*
X110566179Y-89128387D01*
X110566181Y-89128387D01*
X110566184Y-89128389D01*
X110672545Y-89162948D01*
X110764610Y-89192862D01*
X110970676Y-89225500D01*
X110970681Y-89225500D01*
X111179324Y-89225500D01*
X111385389Y-89192862D01*
X111583816Y-89128389D01*
X111769714Y-89033670D01*
X111938505Y-88911035D01*
X112086035Y-88763505D01*
X112208670Y-88594714D01*
X112303389Y-88408816D01*
X112367862Y-88210389D01*
X112400500Y-88004324D01*
X112400500Y-87795675D01*
X112367862Y-87589610D01*
X112303387Y-87391179D01*
X112225470Y-87238259D01*
X112208670Y-87205286D01*
X112086035Y-87036495D01*
X111938505Y-86888965D01*
X111769714Y-86766330D01*
X111583820Y-86671612D01*
X111385389Y-86607137D01*
X111179324Y-86574500D01*
X111179319Y-86574500D01*
X110970681Y-86574500D01*
X110970676Y-86574500D01*
X110764610Y-86607137D01*
X110566179Y-86671612D01*
X110380285Y-86766330D01*
X110211493Y-86888966D01*
X110063966Y-87036493D01*
X109941330Y-87205285D01*
X109846612Y-87391179D01*
X109782137Y-87589610D01*
X109749500Y-87795675D01*
X107900500Y-87795675D01*
X107867862Y-87589610D01*
X107803387Y-87391179D01*
X107725470Y-87238259D01*
X107708670Y-87205286D01*
X107586035Y-87036495D01*
X107438505Y-86888965D01*
X107269714Y-86766330D01*
X107083820Y-86671612D01*
X106885389Y-86607137D01*
X106679324Y-86574500D01*
X106679319Y-86574500D01*
X106470681Y-86574500D01*
X106470676Y-86574500D01*
X106264610Y-86607137D01*
X106066179Y-86671612D01*
X105880285Y-86766330D01*
X105711493Y-86888966D01*
X105563966Y-87036493D01*
X105441330Y-87205285D01*
X105346612Y-87391179D01*
X105282137Y-87589610D01*
X105249500Y-87795675D01*
X94900500Y-87795675D01*
X94900500Y-84795675D01*
X105249500Y-84795675D01*
X105249500Y-85004324D01*
X105282137Y-85210389D01*
X105346612Y-85408820D01*
X105423586Y-85559890D01*
X105441330Y-85594714D01*
X105563965Y-85763505D01*
X105711495Y-85911035D01*
X105880286Y-86033670D01*
X105954699Y-86071585D01*
X106066179Y-86128387D01*
X106066181Y-86128387D01*
X106066184Y-86128389D01*
X106172545Y-86162948D01*
X106264610Y-86192862D01*
X106470676Y-86225500D01*
X106470681Y-86225500D01*
X106679324Y-86225500D01*
X106885389Y-86192862D01*
X107083816Y-86128389D01*
X107269714Y-86033670D01*
X107438505Y-85911035D01*
X107586035Y-85763505D01*
X107708670Y-85594714D01*
X107803389Y-85408816D01*
X107867862Y-85210389D01*
X107868708Y-85205048D01*
X107900500Y-85004324D01*
X107900500Y-84795675D01*
X109749500Y-84795675D01*
X109749500Y-85004324D01*
X109782137Y-85210389D01*
X109846612Y-85408820D01*
X109923586Y-85559890D01*
X109941330Y-85594714D01*
X110063965Y-85763505D01*
X110211495Y-85911035D01*
X110380286Y-86033670D01*
X110454699Y-86071585D01*
X110566179Y-86128387D01*
X110566181Y-86128387D01*
X110566184Y-86128389D01*
X110672545Y-86162948D01*
X110764610Y-86192862D01*
X110970676Y-86225500D01*
X110970681Y-86225500D01*
X111179324Y-86225500D01*
X111385389Y-86192862D01*
X111583816Y-86128389D01*
X111769714Y-86033670D01*
X111938505Y-85911035D01*
X112086035Y-85763505D01*
X112208670Y-85594714D01*
X112303389Y-85408816D01*
X112367862Y-85210389D01*
X112368708Y-85205048D01*
X112400500Y-85004324D01*
X112400500Y-84795675D01*
X112367862Y-84589610D01*
X112303387Y-84391179D01*
X112208669Y-84205285D01*
X112086035Y-84036495D01*
X111938505Y-83888965D01*
X111769714Y-83766330D01*
X111583820Y-83671612D01*
X111385389Y-83607137D01*
X111179324Y-83574500D01*
X111179319Y-83574500D01*
X110970681Y-83574500D01*
X110970676Y-83574500D01*
X110764610Y-83607137D01*
X110566179Y-83671612D01*
X110380285Y-83766330D01*
X110211493Y-83888966D01*
X110063966Y-84036493D01*
X109941330Y-84205285D01*
X109846612Y-84391179D01*
X109782137Y-84589610D01*
X109749500Y-84795675D01*
X107900500Y-84795675D01*
X107867862Y-84589610D01*
X107803387Y-84391179D01*
X107708669Y-84205285D01*
X107586035Y-84036495D01*
X107438505Y-83888965D01*
X107269714Y-83766330D01*
X107083820Y-83671612D01*
X106885389Y-83607137D01*
X106679324Y-83574500D01*
X106679319Y-83574500D01*
X106470681Y-83574500D01*
X106470676Y-83574500D01*
X106264610Y-83607137D01*
X106066179Y-83671612D01*
X105880285Y-83766330D01*
X105711493Y-83888966D01*
X105563966Y-84036493D01*
X105441330Y-84205285D01*
X105346612Y-84391179D01*
X105282137Y-84589610D01*
X105249500Y-84795675D01*
X94900500Y-84795675D01*
X94900500Y-81795675D01*
X105249500Y-81795675D01*
X105249500Y-82004324D01*
X105282137Y-82210389D01*
X105346612Y-82408820D01*
X105441330Y-82594714D01*
X105563965Y-82763505D01*
X105711495Y-82911035D01*
X105880286Y-83033670D01*
X105968116Y-83078421D01*
X106066179Y-83128387D01*
X106066181Y-83128387D01*
X106066184Y-83128389D01*
X106172545Y-83162948D01*
X106264610Y-83192862D01*
X106470676Y-83225500D01*
X106470681Y-83225500D01*
X106679324Y-83225500D01*
X106885389Y-83192862D01*
X106955095Y-83170213D01*
X107083816Y-83128389D01*
X107269714Y-83033670D01*
X107438505Y-82911035D01*
X107586035Y-82763505D01*
X107708670Y-82594714D01*
X107803389Y-82408816D01*
X107867862Y-82210389D01*
X107868073Y-82209056D01*
X107900500Y-82004324D01*
X107900500Y-81795675D01*
X109749500Y-81795675D01*
X109749500Y-82004324D01*
X109782137Y-82210389D01*
X109846612Y-82408820D01*
X109941330Y-82594714D01*
X110063965Y-82763505D01*
X110211495Y-82911035D01*
X110380286Y-83033670D01*
X110468116Y-83078421D01*
X110566179Y-83128387D01*
X110566181Y-83128387D01*
X110566184Y-83128389D01*
X110672545Y-83162948D01*
X110764610Y-83192862D01*
X110970676Y-83225500D01*
X110970681Y-83225500D01*
X111179324Y-83225500D01*
X111385389Y-83192862D01*
X111455095Y-83170213D01*
X111583816Y-83128389D01*
X111769714Y-83033670D01*
X111938505Y-82911035D01*
X112086035Y-82763505D01*
X112208670Y-82594714D01*
X112303389Y-82408816D01*
X112367862Y-82210389D01*
X112368073Y-82209056D01*
X112400500Y-82004324D01*
X112400500Y-81795675D01*
X112367862Y-81589610D01*
X112303387Y-81391179D01*
X112208669Y-81205285D01*
X112086035Y-81036495D01*
X111938505Y-80888965D01*
X111769714Y-80766330D01*
X111583820Y-80671612D01*
X111385389Y-80607137D01*
X111179324Y-80574500D01*
X111179319Y-80574500D01*
X110970681Y-80574500D01*
X110970676Y-80574500D01*
X110764610Y-80607137D01*
X110566179Y-80671612D01*
X110380285Y-80766330D01*
X110211493Y-80888966D01*
X110063966Y-81036493D01*
X109941330Y-81205285D01*
X109846612Y-81391179D01*
X109782137Y-81589610D01*
X109749500Y-81795675D01*
X107900500Y-81795675D01*
X107867862Y-81589610D01*
X107803387Y-81391179D01*
X107708669Y-81205285D01*
X107586035Y-81036495D01*
X107438505Y-80888965D01*
X107269714Y-80766330D01*
X107083820Y-80671612D01*
X106885389Y-80607137D01*
X106679324Y-80574500D01*
X106679319Y-80574500D01*
X106470681Y-80574500D01*
X106470676Y-80574500D01*
X106264610Y-80607137D01*
X106066179Y-80671612D01*
X105880285Y-80766330D01*
X105711493Y-80888966D01*
X105563966Y-81036493D01*
X105441330Y-81205285D01*
X105346612Y-81391179D01*
X105282137Y-81589610D01*
X105249500Y-81795675D01*
X94900500Y-81795675D01*
X94900500Y-78695720D01*
X105250000Y-78695720D01*
X105250000Y-78904279D01*
X105282626Y-79110272D01*
X105347075Y-79308627D01*
X105441759Y-79494451D01*
X105477627Y-79543818D01*
X105477627Y-79543819D01*
X106051212Y-78970234D01*
X106062482Y-79012292D01*
X106134890Y-79137708D01*
X106237292Y-79240110D01*
X106362708Y-79312518D01*
X106404765Y-79323787D01*
X105831179Y-79897371D01*
X105831180Y-79897372D01*
X105880543Y-79933236D01*
X105880556Y-79933244D01*
X106066372Y-80027924D01*
X106264727Y-80092373D01*
X106470721Y-80125000D01*
X106679279Y-80125000D01*
X106885272Y-80092373D01*
X107083627Y-80027924D01*
X107269451Y-79933240D01*
X107318818Y-79897372D01*
X107318818Y-79897371D01*
X106745234Y-79323787D01*
X106787292Y-79312518D01*
X106912708Y-79240110D01*
X107015110Y-79137708D01*
X107087518Y-79012292D01*
X107098787Y-78970234D01*
X107672371Y-79543818D01*
X107672372Y-79543818D01*
X107708240Y-79494451D01*
X107802924Y-79308627D01*
X107867373Y-79110272D01*
X107900000Y-78904279D01*
X107900000Y-78695720D01*
X107899993Y-78695675D01*
X109749500Y-78695675D01*
X109749500Y-78904324D01*
X109782137Y-79110389D01*
X109846612Y-79308820D01*
X109938119Y-79488412D01*
X109941330Y-79494714D01*
X110063965Y-79663505D01*
X110211495Y-79811035D01*
X110380286Y-79933670D01*
X110468116Y-79978421D01*
X110566179Y-80028387D01*
X110566181Y-80028387D01*
X110566184Y-80028389D01*
X110597786Y-80038657D01*
X110764610Y-80092862D01*
X110970676Y-80125500D01*
X110970681Y-80125500D01*
X111179324Y-80125500D01*
X111385389Y-80092862D01*
X111386894Y-80092373D01*
X111583816Y-80028389D01*
X111769714Y-79933670D01*
X111938505Y-79811035D01*
X112086035Y-79663505D01*
X112208670Y-79494714D01*
X112303389Y-79308816D01*
X112367862Y-79110389D01*
X112383399Y-79012292D01*
X112400500Y-78904324D01*
X112400500Y-78695675D01*
X112367880Y-78489727D01*
X112367862Y-78489611D01*
X112367861Y-78489607D01*
X112367861Y-78489606D01*
X112324174Y-78355152D01*
X112312746Y-78319983D01*
X129899500Y-78319983D01*
X129899500Y-79620001D01*
X129899501Y-79620018D01*
X129910000Y-79722796D01*
X129910001Y-79722799D01*
X129965185Y-79889331D01*
X129965187Y-79889336D01*
X130000069Y-79945888D01*
X130057288Y-80038656D01*
X130181344Y-80162712D01*
X130330666Y-80254814D01*
X130341223Y-80258312D01*
X130398668Y-80298084D01*
X130425492Y-80362600D01*
X130413177Y-80431376D01*
X130375113Y-80476330D01*
X130370219Y-80479885D01*
X130370209Y-80479894D01*
X130219890Y-80630213D01*
X130094951Y-80802179D01*
X129998444Y-80991585D01*
X129932753Y-81193760D01*
X129901485Y-81391179D01*
X129899500Y-81403713D01*
X129899500Y-81616287D01*
X129932754Y-81826243D01*
X129990616Y-82004324D01*
X129998444Y-82028414D01*
X130094951Y-82217820D01*
X130219890Y-82389786D01*
X130370213Y-82540109D01*
X130542182Y-82665050D01*
X130550946Y-82669516D01*
X130601742Y-82717491D01*
X130618536Y-82785312D01*
X130595998Y-82851447D01*
X130550946Y-82890484D01*
X130542182Y-82894949D01*
X130370213Y-83019890D01*
X130219890Y-83170213D01*
X130094951Y-83342179D01*
X129998444Y-83531585D01*
X129932753Y-83733760D01*
X129908171Y-83888965D01*
X129899500Y-83943713D01*
X129899500Y-84156287D01*
X129932754Y-84366243D01*
X129940856Y-84391179D01*
X129998444Y-84568414D01*
X130094951Y-84757820D01*
X130219890Y-84929786D01*
X130370213Y-85080109D01*
X130542182Y-85205050D01*
X130550946Y-85209516D01*
X130601742Y-85257491D01*
X130618536Y-85325312D01*
X130595998Y-85391447D01*
X130550946Y-85430484D01*
X130542182Y-85434949D01*
X130370213Y-85559890D01*
X130219890Y-85710213D01*
X130094951Y-85882179D01*
X129998444Y-86071585D01*
X129932753Y-86273760D01*
X129899500Y-86483713D01*
X129899500Y-86696286D01*
X129932753Y-86906239D01*
X129998444Y-87108414D01*
X130094951Y-87297820D01*
X130219890Y-87469786D01*
X130370213Y-87620109D01*
X130542182Y-87745050D01*
X130550946Y-87749516D01*
X130601742Y-87797491D01*
X130618536Y-87865312D01*
X130595998Y-87931447D01*
X130550946Y-87970484D01*
X130542182Y-87974949D01*
X130370213Y-88099890D01*
X130219890Y-88250213D01*
X130094951Y-88422179D01*
X129998444Y-88611585D01*
X129932753Y-88813760D01*
X129899500Y-89023713D01*
X129899500Y-89236287D01*
X129932754Y-89446243D01*
X129985032Y-89607138D01*
X129998444Y-89648414D01*
X130094951Y-89837820D01*
X130219890Y-90009786D01*
X130370213Y-90160109D01*
X130542182Y-90285050D01*
X130550946Y-90289516D01*
X130601742Y-90337491D01*
X130618536Y-90405312D01*
X130595998Y-90471447D01*
X130550946Y-90510484D01*
X130542182Y-90514949D01*
X130370213Y-90639890D01*
X130219890Y-90790213D01*
X130094951Y-90962179D01*
X129998444Y-91151585D01*
X129932753Y-91353760D01*
X129899500Y-91563713D01*
X129899500Y-91776287D01*
X129932754Y-91986243D01*
X129978940Y-92128389D01*
X129998444Y-92188414D01*
X130094951Y-92377820D01*
X130219890Y-92549786D01*
X130370213Y-92700109D01*
X130542182Y-92825050D01*
X130550946Y-92829516D01*
X130601742Y-92877491D01*
X130618536Y-92945312D01*
X130595998Y-93011447D01*
X130550946Y-93050484D01*
X130542182Y-93054949D01*
X130370213Y-93179890D01*
X130219890Y-93330213D01*
X130094951Y-93502179D01*
X129998444Y-93691585D01*
X129932753Y-93893760D01*
X129899500Y-94103713D01*
X129899500Y-94316286D01*
X129932753Y-94526239D01*
X129998444Y-94728414D01*
X130094951Y-94917820D01*
X130219890Y-95089786D01*
X130370213Y-95240109D01*
X130542182Y-95365050D01*
X130550946Y-95369516D01*
X130601742Y-95417491D01*
X130618536Y-95485312D01*
X130595998Y-95551447D01*
X130550946Y-95590484D01*
X130542182Y-95594949D01*
X130370213Y-95719890D01*
X130219890Y-95870213D01*
X130094951Y-96042179D01*
X129998444Y-96231585D01*
X129932753Y-96433760D01*
X129899500Y-96643713D01*
X129899500Y-96856286D01*
X129932753Y-97066239D01*
X129998444Y-97268414D01*
X130094951Y-97457820D01*
X130219890Y-97629786D01*
X130370213Y-97780109D01*
X130542179Y-97905048D01*
X130542181Y-97905049D01*
X130542184Y-97905051D01*
X130551493Y-97909794D01*
X130602290Y-97957766D01*
X130619087Y-98025587D01*
X130596552Y-98091722D01*
X130551505Y-98130760D01*
X130542446Y-98135376D01*
X130542440Y-98135380D01*
X130488282Y-98174727D01*
X130488282Y-98174728D01*
X131120591Y-98807037D01*
X131057007Y-98824075D01*
X130942993Y-98889901D01*
X130849901Y-98982993D01*
X130784075Y-99097007D01*
X130767037Y-99160591D01*
X130134728Y-98528282D01*
X130134727Y-98528282D01*
X130095380Y-98582439D01*
X129998904Y-98771782D01*
X129933242Y-98973869D01*
X129933242Y-98973872D01*
X129900000Y-99183753D01*
X129900000Y-99396246D01*
X129933242Y-99606127D01*
X129933242Y-99606130D01*
X129998904Y-99808217D01*
X130095375Y-99997550D01*
X130134728Y-100051716D01*
X130767037Y-99419408D01*
X130784075Y-99482993D01*
X130849901Y-99597007D01*
X130942993Y-99690099D01*
X131057007Y-99755925D01*
X131120591Y-99772962D01*
X130519971Y-100373581D01*
X130598711Y-100490895D01*
X130599920Y-100494729D01*
X130602844Y-100497491D01*
X130610343Y-100527778D01*
X130619727Y-100557529D01*
X130618671Y-100561408D01*
X130619638Y-100565312D01*
X130609573Y-100594844D01*
X130601383Y-100624947D01*
X130598397Y-100627640D01*
X130597100Y-100631447D01*
X130552051Y-100670483D01*
X130542440Y-100675380D01*
X130488282Y-100714727D01*
X130488282Y-100714728D01*
X131120591Y-101347037D01*
X131057007Y-101364075D01*
X130942993Y-101429901D01*
X130849901Y-101522993D01*
X130784075Y-101637007D01*
X130767037Y-101700591D01*
X130134728Y-101068282D01*
X130134727Y-101068282D01*
X130095380Y-101122439D01*
X129998904Y-101311782D01*
X129933242Y-101513869D01*
X129933242Y-101513872D01*
X129900000Y-101723753D01*
X129900000Y-101936246D01*
X129933242Y-102146127D01*
X129933242Y-102146130D01*
X129998904Y-102348217D01*
X130095375Y-102537550D01*
X130134728Y-102591716D01*
X130767037Y-101959408D01*
X130784075Y-102022993D01*
X130849901Y-102137007D01*
X130942993Y-102230099D01*
X131057007Y-102295925D01*
X131120590Y-102312962D01*
X130488282Y-102945269D01*
X130488282Y-102945270D01*
X130542452Y-102984626D01*
X130542451Y-102984626D01*
X130551495Y-102989234D01*
X130602292Y-103037208D01*
X130619087Y-103105029D01*
X130596550Y-103171164D01*
X130551499Y-103210202D01*
X130542182Y-103214949D01*
X130370213Y-103339890D01*
X130219890Y-103490213D01*
X130094951Y-103662179D01*
X129998444Y-103851585D01*
X129932753Y-104053760D01*
X129905552Y-104225500D01*
X129899500Y-104263713D01*
X129899500Y-104476287D01*
X129932754Y-104686243D01*
X129960492Y-104771612D01*
X129998444Y-104888414D01*
X130094951Y-105077820D01*
X130219890Y-105249786D01*
X130370213Y-105400109D01*
X130542179Y-105525048D01*
X130542181Y-105525049D01*
X130542184Y-105525051D01*
X130551493Y-105529794D01*
X130602290Y-105577766D01*
X130619087Y-105645587D01*
X130596552Y-105711722D01*
X130551505Y-105750760D01*
X130542446Y-105755376D01*
X130542440Y-105755380D01*
X130488282Y-105794727D01*
X130488282Y-105794728D01*
X131120591Y-106427037D01*
X131057007Y-106444075D01*
X130942993Y-106509901D01*
X130849901Y-106602993D01*
X130784075Y-106717007D01*
X130767037Y-106780591D01*
X130134728Y-106148282D01*
X130134727Y-106148282D01*
X130095380Y-106202439D01*
X129998904Y-106391782D01*
X129933242Y-106593869D01*
X129933242Y-106593872D01*
X129900000Y-106803753D01*
X129900000Y-107016246D01*
X129933242Y-107226127D01*
X129933242Y-107226130D01*
X129998904Y-107428217D01*
X130095375Y-107617550D01*
X130134728Y-107671716D01*
X130767037Y-107039408D01*
X130784075Y-107102993D01*
X130849901Y-107217007D01*
X130942993Y-107310099D01*
X131057007Y-107375925D01*
X131120590Y-107392962D01*
X130488282Y-108025269D01*
X130488282Y-108025270D01*
X130542452Y-108064626D01*
X130542451Y-108064626D01*
X130551495Y-108069234D01*
X130602292Y-108117208D01*
X130619087Y-108185029D01*
X130596550Y-108251164D01*
X130551499Y-108290202D01*
X130542182Y-108294949D01*
X130370213Y-108419890D01*
X130219890Y-108570213D01*
X130094951Y-108742179D01*
X129998444Y-108931585D01*
X129932753Y-109133760D01*
X129899500Y-109343713D01*
X129899500Y-109556286D01*
X129931826Y-109760389D01*
X129932754Y-109766243D01*
X129995326Y-109958820D01*
X129998444Y-109968414D01*
X130094951Y-110157820D01*
X130219890Y-110329786D01*
X130370213Y-110480109D01*
X130542182Y-110605050D01*
X130550946Y-110609516D01*
X130601742Y-110657491D01*
X130618536Y-110725312D01*
X130595998Y-110791447D01*
X130550946Y-110830484D01*
X130542182Y-110834949D01*
X130370213Y-110959890D01*
X130219890Y-111110213D01*
X130094951Y-111282179D01*
X129998444Y-111471585D01*
X129932753Y-111673760D01*
X129899500Y-111883713D01*
X129899500Y-112096286D01*
X129932753Y-112306239D01*
X129998444Y-112508414D01*
X130094951Y-112697820D01*
X130219890Y-112869786D01*
X130370213Y-113020109D01*
X130542182Y-113145050D01*
X130550946Y-113149516D01*
X130601742Y-113197491D01*
X130618536Y-113265312D01*
X130595998Y-113331447D01*
X130550946Y-113370484D01*
X130542182Y-113374949D01*
X130370213Y-113499890D01*
X130219890Y-113650213D01*
X130094951Y-113822179D01*
X129998444Y-114011585D01*
X129932753Y-114213760D01*
X129899500Y-114423713D01*
X129899500Y-114636286D01*
X129918347Y-114755285D01*
X129932754Y-114846243D01*
X129963602Y-114941184D01*
X129998444Y-115048414D01*
X130094951Y-115237820D01*
X130219890Y-115409786D01*
X130370213Y-115560109D01*
X130542182Y-115685050D01*
X130550946Y-115689516D01*
X130601742Y-115737491D01*
X130618536Y-115805312D01*
X130595998Y-115871447D01*
X130550946Y-115910484D01*
X130542182Y-115914949D01*
X130370213Y-116039890D01*
X130219890Y-116190213D01*
X130094951Y-116362179D01*
X129998444Y-116551585D01*
X129932753Y-116753760D01*
X129929310Y-116775500D01*
X129899500Y-116963713D01*
X129899500Y-117176287D01*
X129932754Y-117386243D01*
X129997819Y-117586493D01*
X129998444Y-117588414D01*
X130094951Y-117777820D01*
X130219890Y-117949786D01*
X130370213Y-118100109D01*
X130542182Y-118225050D01*
X130550946Y-118229516D01*
X130601742Y-118277491D01*
X130618536Y-118345312D01*
X130595998Y-118411447D01*
X130550946Y-118450484D01*
X130542182Y-118454949D01*
X130370213Y-118579890D01*
X130219890Y-118730213D01*
X130094951Y-118902179D01*
X129998444Y-119091585D01*
X129932753Y-119293760D01*
X129899500Y-119503713D01*
X129899500Y-119716286D01*
X129932753Y-119926239D01*
X129998444Y-120128414D01*
X130094951Y-120317820D01*
X130219890Y-120489786D01*
X130370213Y-120640109D01*
X130542182Y-120765050D01*
X130550946Y-120769516D01*
X130601742Y-120817491D01*
X130618536Y-120885312D01*
X130595998Y-120951447D01*
X130550946Y-120990484D01*
X130542182Y-120994949D01*
X130370213Y-121119890D01*
X130219890Y-121270213D01*
X130094951Y-121442179D01*
X129998444Y-121631585D01*
X129932753Y-121833760D01*
X129899500Y-122043713D01*
X129899500Y-122256286D01*
X129932735Y-122466127D01*
X129932754Y-122466243D01*
X129970908Y-122583669D01*
X129998444Y-122668414D01*
X130094951Y-122857820D01*
X130219890Y-123029786D01*
X130370213Y-123180109D01*
X130542182Y-123305050D01*
X130550946Y-123309516D01*
X130601742Y-123357491D01*
X130618536Y-123425312D01*
X130595998Y-123491447D01*
X130550946Y-123530484D01*
X130542182Y-123534949D01*
X130370213Y-123659890D01*
X130219890Y-123810213D01*
X130094951Y-123982179D01*
X129998444Y-124171585D01*
X129932753Y-124373760D01*
X129904156Y-124554319D01*
X129899500Y-124583713D01*
X129899500Y-124796287D01*
X129932754Y-125006243D01*
X129977746Y-125144714D01*
X129998444Y-125208414D01*
X130094951Y-125397820D01*
X130219890Y-125569786D01*
X130370213Y-125720109D01*
X130542182Y-125845050D01*
X130550946Y-125849516D01*
X130601742Y-125897491D01*
X130618536Y-125965312D01*
X130595998Y-126031447D01*
X130550946Y-126070484D01*
X130542182Y-126074949D01*
X130370213Y-126199890D01*
X130219890Y-126350213D01*
X130094951Y-126522179D01*
X129998444Y-126711585D01*
X129932753Y-126913760D01*
X129899500Y-127123713D01*
X129899500Y-127336286D01*
X129932753Y-127546239D01*
X129998444Y-127748414D01*
X130094951Y-127937820D01*
X130219890Y-128109786D01*
X130370213Y-128260109D01*
X130542179Y-128385048D01*
X130542181Y-128385049D01*
X130542184Y-128385051D01*
X130731588Y-128481557D01*
X130933757Y-128547246D01*
X131143713Y-128580500D01*
X131143714Y-128580500D01*
X131356286Y-128580500D01*
X131356287Y-128580500D01*
X131566243Y-128547246D01*
X131768412Y-128481557D01*
X131957816Y-128385051D01*
X132056290Y-128313506D01*
X132129786Y-128260109D01*
X132129788Y-128260106D01*
X132129792Y-128260104D01*
X132280104Y-128109792D01*
X132280106Y-128109788D01*
X132280109Y-128109786D01*
X132405048Y-127937820D01*
X132405047Y-127937820D01*
X132405051Y-127937816D01*
X132409514Y-127929054D01*
X132457488Y-127878259D01*
X132525308Y-127861463D01*
X132591444Y-127883999D01*
X132630486Y-127929056D01*
X132634951Y-127937820D01*
X132759890Y-128109786D01*
X132910213Y-128260109D01*
X133082179Y-128385048D01*
X133082181Y-128385049D01*
X133082184Y-128385051D01*
X133271588Y-128481557D01*
X133473757Y-128547246D01*
X133683713Y-128580500D01*
X133683714Y-128580500D01*
X133896286Y-128580500D01*
X133896287Y-128580500D01*
X134106243Y-128547246D01*
X134308412Y-128481557D01*
X134497816Y-128385051D01*
X134596290Y-128313506D01*
X134669786Y-128260109D01*
X134669788Y-128260106D01*
X134669792Y-128260104D01*
X134820104Y-128109792D01*
X134820106Y-128109788D01*
X134820109Y-128109786D01*
X134945048Y-127937820D01*
X134945047Y-127937820D01*
X134945051Y-127937816D01*
X135041557Y-127748412D01*
X135107246Y-127546243D01*
X135140500Y-127336287D01*
X135140500Y-127123713D01*
X135107246Y-126913757D01*
X135041557Y-126711588D01*
X134945051Y-126522184D01*
X134945049Y-126522181D01*
X134945048Y-126522179D01*
X134820109Y-126350213D01*
X134669786Y-126199890D01*
X134497820Y-126074951D01*
X134497115Y-126074591D01*
X134489054Y-126070485D01*
X134438259Y-126022512D01*
X134421463Y-125954692D01*
X134443999Y-125888556D01*
X134489054Y-125849515D01*
X134497816Y-125845051D01*
X134519789Y-125829086D01*
X134669786Y-125720109D01*
X134669788Y-125720106D01*
X134669792Y-125720104D01*
X134820104Y-125569792D01*
X134820106Y-125569788D01*
X134820109Y-125569786D01*
X134945048Y-125397820D01*
X134945047Y-125397820D01*
X134945051Y-125397816D01*
X135041557Y-125208412D01*
X135107246Y-125006243D01*
X135140500Y-124796287D01*
X135140500Y-124583713D01*
X135107246Y-124373757D01*
X135041557Y-124171588D01*
X134945051Y-123982184D01*
X134945049Y-123982181D01*
X134945048Y-123982179D01*
X134820109Y-123810213D01*
X134669786Y-123659890D01*
X134497817Y-123534949D01*
X134488504Y-123530204D01*
X134437707Y-123482230D01*
X134420912Y-123414409D01*
X134443449Y-123348274D01*
X134488507Y-123309232D01*
X134497555Y-123304622D01*
X134551716Y-123265270D01*
X134551717Y-123265270D01*
X133919408Y-122632962D01*
X133982993Y-122615925D01*
X134097007Y-122550099D01*
X134190099Y-122457007D01*
X134255925Y-122342993D01*
X134272962Y-122279408D01*
X134905270Y-122911717D01*
X134905270Y-122911716D01*
X134944622Y-122857554D01*
X135041095Y-122668217D01*
X135106757Y-122466130D01*
X135106757Y-122466127D01*
X135140000Y-122256246D01*
X135140000Y-122043753D01*
X135106757Y-121833872D01*
X135106757Y-121833869D01*
X135041095Y-121631782D01*
X134944624Y-121442449D01*
X134905270Y-121388282D01*
X134905269Y-121388282D01*
X134272962Y-122020590D01*
X134255925Y-121957007D01*
X134190099Y-121842993D01*
X134097007Y-121749901D01*
X133982993Y-121684075D01*
X133919409Y-121667037D01*
X134551716Y-121034728D01*
X134497547Y-120995373D01*
X134497547Y-120995372D01*
X134488500Y-120990763D01*
X134437706Y-120942788D01*
X134420912Y-120874966D01*
X134443451Y-120808832D01*
X134488508Y-120769793D01*
X134497816Y-120765051D01*
X134577007Y-120707515D01*
X134669786Y-120640109D01*
X134669788Y-120640106D01*
X134669792Y-120640104D01*
X134820104Y-120489792D01*
X134820106Y-120489788D01*
X134820109Y-120489786D01*
X134945048Y-120317820D01*
X134945047Y-120317820D01*
X134945051Y-120317816D01*
X135041557Y-120128412D01*
X135107246Y-119926243D01*
X135140500Y-119716287D01*
X135140500Y-119503713D01*
X135107246Y-119293757D01*
X135041557Y-119091588D01*
X134945051Y-118902184D01*
X134945049Y-118902181D01*
X134945048Y-118902179D01*
X134820109Y-118730213D01*
X134669786Y-118579890D01*
X134497820Y-118454951D01*
X134497115Y-118454591D01*
X134489054Y-118450485D01*
X134438259Y-118402512D01*
X134421463Y-118334692D01*
X134443999Y-118268556D01*
X134489054Y-118229515D01*
X134497816Y-118225051D01*
X134615415Y-118139611D01*
X134669786Y-118100109D01*
X134669788Y-118100106D01*
X134669792Y-118100104D01*
X134820104Y-117949792D01*
X134820106Y-117949788D01*
X134820109Y-117949786D01*
X134945048Y-117777820D01*
X134945047Y-117777820D01*
X134945051Y-117777816D01*
X135041557Y-117588412D01*
X135107246Y-117386243D01*
X135140500Y-117176287D01*
X135140500Y-116963713D01*
X135107246Y-116753757D01*
X135041557Y-116551588D01*
X134945051Y-116362184D01*
X134945049Y-116362181D01*
X134945048Y-116362179D01*
X134820109Y-116190213D01*
X134669786Y-116039890D01*
X134497820Y-115914951D01*
X134497115Y-115914591D01*
X134489054Y-115910485D01*
X134438259Y-115862512D01*
X134421463Y-115794692D01*
X134443999Y-115728556D01*
X134489054Y-115689515D01*
X134497816Y-115685051D01*
X134519789Y-115669086D01*
X134669786Y-115560109D01*
X134669788Y-115560106D01*
X134669792Y-115560104D01*
X134820104Y-115409792D01*
X134820106Y-115409788D01*
X134820109Y-115409786D01*
X134945048Y-115237820D01*
X134945047Y-115237820D01*
X134945051Y-115237816D01*
X135041557Y-115048412D01*
X135107246Y-114846243D01*
X135140500Y-114636287D01*
X135140500Y-114423713D01*
X135107246Y-114213757D01*
X135041557Y-114011588D01*
X134945051Y-113822184D01*
X134945049Y-113822181D01*
X134945048Y-113822179D01*
X134820109Y-113650213D01*
X134669786Y-113499890D01*
X134497820Y-113374951D01*
X134497115Y-113374591D01*
X134489054Y-113370485D01*
X134438259Y-113322512D01*
X134421463Y-113254692D01*
X134443999Y-113188556D01*
X134489054Y-113149515D01*
X134497816Y-113145051D01*
X134526420Y-113124269D01*
X134669786Y-113020109D01*
X134669788Y-113020106D01*
X134669792Y-113020104D01*
X134820104Y-112869792D01*
X134820106Y-112869788D01*
X134820109Y-112869786D01*
X134945048Y-112697820D01*
X134945047Y-112697820D01*
X134945051Y-112697816D01*
X135041557Y-112508412D01*
X135107246Y-112306243D01*
X135140500Y-112096287D01*
X135140500Y-111883713D01*
X135107246Y-111673757D01*
X135041557Y-111471588D01*
X134945051Y-111282184D01*
X134945049Y-111282181D01*
X134945048Y-111282179D01*
X134820109Y-111110213D01*
X134669786Y-110959890D01*
X134497820Y-110834951D01*
X134497115Y-110834591D01*
X134489054Y-110830485D01*
X134438259Y-110782512D01*
X134421463Y-110714692D01*
X134443999Y-110648556D01*
X134489054Y-110609515D01*
X134497816Y-110605051D01*
X134627222Y-110511033D01*
X134669786Y-110480109D01*
X134669788Y-110480106D01*
X134669792Y-110480104D01*
X134820104Y-110329792D01*
X134820106Y-110329788D01*
X134820109Y-110329786D01*
X134945048Y-110157820D01*
X134945047Y-110157820D01*
X134945051Y-110157816D01*
X135041557Y-109968412D01*
X135107246Y-109766243D01*
X135140500Y-109556287D01*
X135140500Y-109343713D01*
X135107246Y-109133757D01*
X135041557Y-108931588D01*
X134945051Y-108742184D01*
X134945049Y-108742181D01*
X134945048Y-108742179D01*
X134820109Y-108570213D01*
X134669786Y-108419890D01*
X134497820Y-108294951D01*
X134497115Y-108294591D01*
X134489054Y-108290485D01*
X134438259Y-108242512D01*
X134421463Y-108174692D01*
X134443999Y-108108556D01*
X134489054Y-108069515D01*
X134497816Y-108065051D01*
X134552572Y-108025269D01*
X134669786Y-107940109D01*
X134669788Y-107940106D01*
X134669792Y-107940104D01*
X134820104Y-107789792D01*
X134820106Y-107789788D01*
X134820109Y-107789786D01*
X134945048Y-107617820D01*
X134945050Y-107617817D01*
X134945051Y-107617816D01*
X135041557Y-107428412D01*
X135107246Y-107226243D01*
X135140500Y-107016287D01*
X135140500Y-106803713D01*
X135107246Y-106593757D01*
X135041557Y-106391588D01*
X134945051Y-106202184D01*
X134945049Y-106202181D01*
X134945048Y-106202179D01*
X134820109Y-106030213D01*
X134669786Y-105879890D01*
X134497820Y-105754951D01*
X134489600Y-105750763D01*
X134489054Y-105750485D01*
X134438259Y-105702512D01*
X134421463Y-105634692D01*
X134443999Y-105568556D01*
X134489054Y-105529515D01*
X134497816Y-105525051D01*
X134544437Y-105491179D01*
X134669786Y-105400109D01*
X134669788Y-105400106D01*
X134669792Y-105400104D01*
X134820104Y-105249792D01*
X134820106Y-105249788D01*
X134820109Y-105249786D01*
X134945048Y-105077820D01*
X134945047Y-105077820D01*
X134945051Y-105077816D01*
X135041557Y-104888412D01*
X135107246Y-104686243D01*
X135140500Y-104476287D01*
X135140500Y-104263713D01*
X135107246Y-104053757D01*
X135041557Y-103851588D01*
X134945051Y-103662184D01*
X134945049Y-103662181D01*
X134945048Y-103662179D01*
X134820109Y-103490213D01*
X134669786Y-103339890D01*
X134497820Y-103214951D01*
X134497115Y-103214591D01*
X134489054Y-103210485D01*
X134438259Y-103162512D01*
X134421463Y-103094692D01*
X134443999Y-103028556D01*
X134489054Y-102989515D01*
X134497816Y-102985051D01*
X134552572Y-102945269D01*
X134669786Y-102860109D01*
X134669788Y-102860106D01*
X134669792Y-102860104D01*
X134820104Y-102709792D01*
X134820106Y-102709788D01*
X134820109Y-102709786D01*
X134945048Y-102537820D01*
X134945050Y-102537817D01*
X134945051Y-102537816D01*
X135041557Y-102348412D01*
X135107246Y-102146243D01*
X135140500Y-101936287D01*
X135140500Y-101723713D01*
X135107246Y-101513757D01*
X135041557Y-101311588D01*
X134945051Y-101122184D01*
X134945049Y-101122181D01*
X134945048Y-101122179D01*
X134820109Y-100950213D01*
X134669786Y-100799890D01*
X134497820Y-100674951D01*
X134497115Y-100674591D01*
X134489054Y-100670485D01*
X134438259Y-100622512D01*
X134421463Y-100554692D01*
X134443999Y-100488556D01*
X134489054Y-100449515D01*
X134497816Y-100445051D01*
X134596187Y-100373581D01*
X134669786Y-100320109D01*
X134669788Y-100320106D01*
X134669792Y-100320104D01*
X134820104Y-100169792D01*
X134820106Y-100169788D01*
X134820109Y-100169786D01*
X134945048Y-99997820D01*
X134945050Y-99997817D01*
X134945051Y-99997816D01*
X135041557Y-99808412D01*
X135107246Y-99606243D01*
X135140500Y-99396287D01*
X135140500Y-99183713D01*
X135107246Y-98973757D01*
X135041557Y-98771588D01*
X134945051Y-98582184D01*
X134945049Y-98582181D01*
X134945048Y-98582179D01*
X134820109Y-98410213D01*
X134669786Y-98259890D01*
X134497820Y-98134951D01*
X134489600Y-98130763D01*
X134489054Y-98130485D01*
X134438259Y-98082512D01*
X134421463Y-98014692D01*
X134443999Y-97948556D01*
X134489054Y-97909515D01*
X134497816Y-97905051D01*
X134519789Y-97889086D01*
X134669786Y-97780109D01*
X134669788Y-97780106D01*
X134669792Y-97780104D01*
X134820104Y-97629792D01*
X134820106Y-97629788D01*
X134820109Y-97629786D01*
X134945048Y-97457820D01*
X134945047Y-97457820D01*
X134945051Y-97457816D01*
X135041557Y-97268412D01*
X135107246Y-97066243D01*
X135140500Y-96856287D01*
X135140500Y-96643713D01*
X135107246Y-96433757D01*
X135041557Y-96231588D01*
X134945051Y-96042184D01*
X134945049Y-96042181D01*
X134945048Y-96042179D01*
X134820109Y-95870213D01*
X134669786Y-95719890D01*
X134497820Y-95594951D01*
X134497115Y-95594591D01*
X134489054Y-95590485D01*
X134438259Y-95542512D01*
X134421463Y-95474692D01*
X134443999Y-95408556D01*
X134489054Y-95369515D01*
X134497816Y-95365051D01*
X134519789Y-95349086D01*
X134669786Y-95240109D01*
X134669788Y-95240106D01*
X134669792Y-95240104D01*
X134820104Y-95089792D01*
X134820106Y-95089788D01*
X134820109Y-95089786D01*
X134945048Y-94917820D01*
X134945047Y-94917820D01*
X134945051Y-94917816D01*
X135041557Y-94728412D01*
X135107246Y-94526243D01*
X135140500Y-94316287D01*
X135140500Y-94103713D01*
X135107246Y-93893757D01*
X135041557Y-93691588D01*
X134945051Y-93502184D01*
X134945049Y-93502181D01*
X134945048Y-93502179D01*
X134820109Y-93330213D01*
X134669786Y-93179890D01*
X134497820Y-93054951D01*
X134497115Y-93054591D01*
X134489054Y-93050485D01*
X134438259Y-93002512D01*
X134421463Y-92934692D01*
X134443999Y-92868556D01*
X134489054Y-92829515D01*
X134497816Y-92825051D01*
X134578639Y-92766330D01*
X134669786Y-92700109D01*
X134669788Y-92700106D01*
X134669792Y-92700104D01*
X134820104Y-92549792D01*
X134820106Y-92549788D01*
X134820109Y-92549786D01*
X134945048Y-92377820D01*
X134945047Y-92377820D01*
X134945051Y-92377816D01*
X135041557Y-92188412D01*
X135107246Y-91986243D01*
X135140500Y-91776287D01*
X135140500Y-91563713D01*
X135107246Y-91353757D01*
X135041557Y-91151588D01*
X134945051Y-90962184D01*
X134945049Y-90962181D01*
X134945048Y-90962179D01*
X134820109Y-90790213D01*
X134669786Y-90639890D01*
X134497820Y-90514951D01*
X134497115Y-90514591D01*
X134489054Y-90510485D01*
X134438259Y-90462512D01*
X134421463Y-90394692D01*
X134443999Y-90328556D01*
X134489054Y-90289515D01*
X134497816Y-90285051D01*
X134607604Y-90205286D01*
X134669786Y-90160109D01*
X134669788Y-90160106D01*
X134669792Y-90160104D01*
X134820104Y-90009792D01*
X134820106Y-90009788D01*
X134820109Y-90009786D01*
X134945048Y-89837820D01*
X134945047Y-89837820D01*
X134945051Y-89837816D01*
X135041557Y-89648412D01*
X135107246Y-89446243D01*
X135140500Y-89236287D01*
X135140500Y-89023713D01*
X135107246Y-88813757D01*
X135041557Y-88611588D01*
X134945051Y-88422184D01*
X134945049Y-88422181D01*
X134945048Y-88422179D01*
X134820109Y-88250213D01*
X134669786Y-88099890D01*
X134497820Y-87974951D01*
X134497115Y-87974591D01*
X134489054Y-87970485D01*
X134438259Y-87922512D01*
X134421463Y-87854692D01*
X134443999Y-87788556D01*
X134489054Y-87749515D01*
X134497816Y-87745051D01*
X134519789Y-87729086D01*
X134669786Y-87620109D01*
X134669788Y-87620106D01*
X134669792Y-87620104D01*
X134820104Y-87469792D01*
X134820106Y-87469788D01*
X134820109Y-87469786D01*
X134945048Y-87297820D01*
X134945047Y-87297820D01*
X134945051Y-87297816D01*
X135041557Y-87108412D01*
X135107246Y-86906243D01*
X135140500Y-86696287D01*
X135140500Y-86483713D01*
X135107246Y-86273757D01*
X135041557Y-86071588D01*
X134945051Y-85882184D01*
X134945049Y-85882181D01*
X134945048Y-85882179D01*
X134820109Y-85710213D01*
X134669786Y-85559890D01*
X134497820Y-85434951D01*
X134497115Y-85434591D01*
X134489054Y-85430485D01*
X134438259Y-85382512D01*
X134421463Y-85314692D01*
X134443999Y-85248556D01*
X134489054Y-85209515D01*
X134497816Y-85205051D01*
X134519789Y-85189086D01*
X134669786Y-85080109D01*
X134669788Y-85080106D01*
X134669792Y-85080104D01*
X134820104Y-84929792D01*
X134820106Y-84929788D01*
X134820109Y-84929786D01*
X134945048Y-84757820D01*
X134945047Y-84757820D01*
X134945051Y-84757816D01*
X135041557Y-84568412D01*
X135107246Y-84366243D01*
X135140500Y-84156287D01*
X135140500Y-83943713D01*
X135107246Y-83733757D01*
X135041557Y-83531588D01*
X134945051Y-83342184D01*
X134945049Y-83342181D01*
X134945048Y-83342179D01*
X134820109Y-83170213D01*
X134669786Y-83019890D01*
X134497820Y-82894951D01*
X134497115Y-82894591D01*
X134489054Y-82890485D01*
X134438259Y-82842512D01*
X134421463Y-82774692D01*
X134443999Y-82708556D01*
X134489054Y-82669515D01*
X134497816Y-82665051D01*
X134519789Y-82649086D01*
X134669786Y-82540109D01*
X134669788Y-82540106D01*
X134669792Y-82540104D01*
X134820104Y-82389792D01*
X134820106Y-82389788D01*
X134820109Y-82389786D01*
X134945048Y-82217820D01*
X134945047Y-82217820D01*
X134945051Y-82217816D01*
X135041557Y-82028412D01*
X135107246Y-81826243D01*
X135140500Y-81616287D01*
X135140500Y-81403713D01*
X135107246Y-81193757D01*
X135041557Y-80991588D01*
X134945051Y-80802184D01*
X134945049Y-80802181D01*
X134945048Y-80802179D01*
X134820109Y-80630213D01*
X134669786Y-80479890D01*
X134497820Y-80354951D01*
X134497115Y-80354591D01*
X134489054Y-80350485D01*
X134438259Y-80302512D01*
X134421463Y-80234692D01*
X134443999Y-80168556D01*
X134489054Y-80129515D01*
X134497816Y-80125051D01*
X134542794Y-80092373D01*
X134669786Y-80000109D01*
X134669788Y-80000106D01*
X134669792Y-80000104D01*
X134820104Y-79849792D01*
X134820106Y-79849788D01*
X134820109Y-79849786D01*
X134945048Y-79677820D01*
X134945047Y-79677820D01*
X134945051Y-79677816D01*
X135041557Y-79488412D01*
X135107246Y-79286243D01*
X135140500Y-79076287D01*
X135140500Y-78863713D01*
X135107246Y-78653757D01*
X135041557Y-78451588D01*
X134945051Y-78262184D01*
X134945049Y-78262181D01*
X134945048Y-78262179D01*
X134820109Y-78090213D01*
X134669786Y-77939890D01*
X134497820Y-77814951D01*
X134308414Y-77718444D01*
X134308413Y-77718443D01*
X134308412Y-77718443D01*
X134106243Y-77652754D01*
X134106241Y-77652753D01*
X134106240Y-77652753D01*
X133944957Y-77627208D01*
X133896287Y-77619500D01*
X133683713Y-77619500D01*
X133635042Y-77627208D01*
X133473760Y-77652753D01*
X133271585Y-77718444D01*
X133082179Y-77814951D01*
X132910213Y-77939890D01*
X132759894Y-78090209D01*
X132759885Y-78090219D01*
X132756330Y-78095113D01*
X132700997Y-78137775D01*
X132631383Y-78143748D01*
X132569591Y-78111137D01*
X132538312Y-78061223D01*
X132534815Y-78050670D01*
X132534814Y-78050666D01*
X132442712Y-77901344D01*
X132318656Y-77777288D01*
X132169334Y-77685186D01*
X132002797Y-77630001D01*
X132002795Y-77630000D01*
X131900010Y-77619500D01*
X130599998Y-77619500D01*
X130599981Y-77619501D01*
X130497203Y-77630000D01*
X130497200Y-77630001D01*
X130330668Y-77685185D01*
X130330663Y-77685187D01*
X130181342Y-77777289D01*
X130057289Y-77901342D01*
X129965187Y-78050663D01*
X129965185Y-78050668D01*
X129946997Y-78105556D01*
X129910001Y-78217203D01*
X129910001Y-78217204D01*
X129910000Y-78217204D01*
X129899500Y-78319983D01*
X112312746Y-78319983D01*
X112303387Y-78291179D01*
X112211651Y-78111137D01*
X112208670Y-78105286D01*
X112086035Y-77936495D01*
X111938505Y-77788965D01*
X111769714Y-77666330D01*
X111583820Y-77571612D01*
X111385389Y-77507137D01*
X111179324Y-77474500D01*
X111179319Y-77474500D01*
X110970681Y-77474500D01*
X110970676Y-77474500D01*
X110764610Y-77507137D01*
X110566179Y-77571612D01*
X110380285Y-77666330D01*
X110211493Y-77788966D01*
X110063966Y-77936493D01*
X109941330Y-78105285D01*
X109846612Y-78291179D01*
X109782137Y-78489610D01*
X109749500Y-78695675D01*
X107899993Y-78695675D01*
X107867373Y-78489727D01*
X107802924Y-78291372D01*
X107708244Y-78105556D01*
X107708236Y-78105543D01*
X107672372Y-78056180D01*
X107672371Y-78056179D01*
X107098787Y-78629764D01*
X107087518Y-78587708D01*
X107015110Y-78462292D01*
X106912708Y-78359890D01*
X106787292Y-78287482D01*
X106745233Y-78276212D01*
X107318819Y-77702627D01*
X107269451Y-77666759D01*
X107083627Y-77572075D01*
X106885272Y-77507626D01*
X106679279Y-77475000D01*
X106470721Y-77475000D01*
X106264727Y-77507626D01*
X106066372Y-77572075D01*
X105880552Y-77666757D01*
X105831180Y-77702627D01*
X106404766Y-78276212D01*
X106362708Y-78287482D01*
X106237292Y-78359890D01*
X106134890Y-78462292D01*
X106062482Y-78587708D01*
X106051212Y-78629765D01*
X105477627Y-78056180D01*
X105441757Y-78105552D01*
X105347075Y-78291372D01*
X105282626Y-78489727D01*
X105250000Y-78695720D01*
X94900500Y-78695720D01*
X94900500Y-75195675D01*
X105249500Y-75195675D01*
X105249500Y-75404324D01*
X105282137Y-75610389D01*
X105346612Y-75808820D01*
X105441330Y-75994714D01*
X105563965Y-76163505D01*
X105711495Y-76311035D01*
X105880286Y-76433670D01*
X105968116Y-76478421D01*
X106066179Y-76528387D01*
X106066181Y-76528387D01*
X106066184Y-76528389D01*
X106172545Y-76562948D01*
X106264610Y-76592862D01*
X106470676Y-76625500D01*
X106470681Y-76625500D01*
X106679324Y-76625500D01*
X106885389Y-76592862D01*
X107083816Y-76528389D01*
X107269714Y-76433670D01*
X107438505Y-76311035D01*
X107586035Y-76163505D01*
X107708670Y-75994714D01*
X107803389Y-75808816D01*
X107867862Y-75610389D01*
X107900500Y-75404324D01*
X107900500Y-75195675D01*
X109749500Y-75195675D01*
X109749500Y-75404324D01*
X109782137Y-75610389D01*
X109846612Y-75808820D01*
X109941330Y-75994714D01*
X110063965Y-76163505D01*
X110211495Y-76311035D01*
X110380286Y-76433670D01*
X110468116Y-76478421D01*
X110566179Y-76528387D01*
X110566181Y-76528387D01*
X110566184Y-76528389D01*
X110672545Y-76562948D01*
X110764610Y-76592862D01*
X110970676Y-76625500D01*
X110970681Y-76625500D01*
X111179324Y-76625500D01*
X111385389Y-76592862D01*
X111583816Y-76528389D01*
X111769714Y-76433670D01*
X111938505Y-76311035D01*
X112086035Y-76163505D01*
X112208670Y-75994714D01*
X112303389Y-75808816D01*
X112367862Y-75610389D01*
X112400500Y-75404324D01*
X112400500Y-75195675D01*
X112367862Y-74989610D01*
X112303387Y-74791179D01*
X112208669Y-74605285D01*
X112086035Y-74436495D01*
X111938505Y-74288965D01*
X111769714Y-74166330D01*
X111583820Y-74071612D01*
X111385389Y-74007137D01*
X111179324Y-73974500D01*
X111179319Y-73974500D01*
X110970681Y-73974500D01*
X110970676Y-73974500D01*
X110764610Y-74007137D01*
X110566179Y-74071612D01*
X110380285Y-74166330D01*
X110211493Y-74288966D01*
X110063966Y-74436493D01*
X109941330Y-74605285D01*
X109846612Y-74791179D01*
X109782137Y-74989610D01*
X109749500Y-75195675D01*
X107900500Y-75195675D01*
X107867862Y-74989610D01*
X107803387Y-74791179D01*
X107708669Y-74605285D01*
X107586035Y-74436495D01*
X107438505Y-74288965D01*
X107269714Y-74166330D01*
X107083820Y-74071612D01*
X106885389Y-74007137D01*
X106679324Y-73974500D01*
X106679319Y-73974500D01*
X106470681Y-73974500D01*
X106470676Y-73974500D01*
X106264610Y-74007137D01*
X106066179Y-74071612D01*
X105880285Y-74166330D01*
X105711493Y-74288966D01*
X105563966Y-74436493D01*
X105441330Y-74605285D01*
X105346612Y-74791179D01*
X105282137Y-74989610D01*
X105249500Y-75195675D01*
X94900500Y-75195675D01*
X94900500Y-70974499D01*
X97750000Y-70974499D01*
X97750000Y-71325500D01*
X97789297Y-71674269D01*
X97789299Y-71674281D01*
X97867402Y-72016477D01*
X97867405Y-72016485D01*
X97983328Y-72347773D01*
X98135615Y-72664000D01*
X98322355Y-72961195D01*
X98494449Y-73176996D01*
X99473381Y-72198064D01*
X99556457Y-72306331D01*
X99718669Y-72468543D01*
X99826934Y-72551617D01*
X98848002Y-73530549D01*
X99063804Y-73702644D01*
X99360999Y-73889384D01*
X99677226Y-74041671D01*
X100008514Y-74157594D01*
X100008522Y-74157597D01*
X100350718Y-74235700D01*
X100350730Y-74235702D01*
X100699499Y-74274999D01*
X100699501Y-74275000D01*
X101050499Y-74275000D01*
X101050500Y-74274999D01*
X101399269Y-74235702D01*
X101399281Y-74235700D01*
X101741477Y-74157597D01*
X101741485Y-74157594D01*
X102072773Y-74041671D01*
X102389000Y-73889384D01*
X102686195Y-73702644D01*
X102901996Y-73530549D01*
X101923065Y-72551618D01*
X102031331Y-72468543D01*
X102193543Y-72306331D01*
X102276618Y-72198065D01*
X103255549Y-73176996D01*
X103427644Y-72961195D01*
X103614384Y-72664000D01*
X103766671Y-72347773D01*
X103882594Y-72016485D01*
X103882597Y-72016477D01*
X103955817Y-71695675D01*
X105249500Y-71695675D01*
X105249500Y-71904324D01*
X105282137Y-72110389D01*
X105346612Y-72308820D01*
X105366460Y-72347773D01*
X105441330Y-72494714D01*
X105563965Y-72663505D01*
X105711495Y-72811035D01*
X105880286Y-72933670D01*
X105968116Y-72978421D01*
X106066179Y-73028387D01*
X106066181Y-73028387D01*
X106066184Y-73028389D01*
X106172545Y-73062948D01*
X106264610Y-73092862D01*
X106470676Y-73125500D01*
X106470681Y-73125500D01*
X106679324Y-73125500D01*
X106885389Y-73092862D01*
X107083816Y-73028389D01*
X107269714Y-72933670D01*
X107438505Y-72811035D01*
X107586035Y-72663505D01*
X107708670Y-72494714D01*
X107803389Y-72308816D01*
X107867862Y-72110389D01*
X107882736Y-72016477D01*
X107900500Y-71904324D01*
X107900500Y-71695675D01*
X109749500Y-71695675D01*
X109749500Y-71904324D01*
X109782137Y-72110389D01*
X109846612Y-72308820D01*
X109866460Y-72347773D01*
X109941330Y-72494714D01*
X110063965Y-72663505D01*
X110211495Y-72811035D01*
X110380286Y-72933670D01*
X110468116Y-72978421D01*
X110566179Y-73028387D01*
X110566181Y-73028387D01*
X110566184Y-73028389D01*
X110672545Y-73062948D01*
X110764610Y-73092862D01*
X110970676Y-73125500D01*
X110970681Y-73125500D01*
X111179324Y-73125500D01*
X111385389Y-73092862D01*
X111583816Y-73028389D01*
X111769714Y-72933670D01*
X111938505Y-72811035D01*
X112086035Y-72663505D01*
X112208670Y-72494714D01*
X112303389Y-72308816D01*
X112367862Y-72110389D01*
X112382736Y-72016477D01*
X112400500Y-71904324D01*
X112400500Y-71695675D01*
X112367862Y-71489610D01*
X112303387Y-71291179D01*
X112253421Y-71193116D01*
X112208670Y-71105286D01*
X112086035Y-70936495D01*
X111938505Y-70788965D01*
X111769714Y-70666330D01*
X111583820Y-70571612D01*
X111385389Y-70507137D01*
X111179324Y-70474500D01*
X111179319Y-70474500D01*
X110970681Y-70474500D01*
X110970676Y-70474500D01*
X110764610Y-70507137D01*
X110566179Y-70571612D01*
X110380285Y-70666330D01*
X110211493Y-70788966D01*
X110063966Y-70936493D01*
X109941330Y-71105285D01*
X109846612Y-71291179D01*
X109782137Y-71489610D01*
X109749500Y-71695675D01*
X107900500Y-71695675D01*
X107867862Y-71489610D01*
X107803387Y-71291179D01*
X107753421Y-71193116D01*
X107708670Y-71105286D01*
X107586035Y-70936495D01*
X107438505Y-70788965D01*
X107269714Y-70666330D01*
X107083820Y-70571612D01*
X106885389Y-70507137D01*
X106679324Y-70474500D01*
X106679319Y-70474500D01*
X106470681Y-70474500D01*
X106470676Y-70474500D01*
X106264610Y-70507137D01*
X106066179Y-70571612D01*
X105880285Y-70666330D01*
X105711493Y-70788966D01*
X105563966Y-70936493D01*
X105441330Y-71105285D01*
X105346612Y-71291179D01*
X105282137Y-71489610D01*
X105249500Y-71695675D01*
X103955817Y-71695675D01*
X103960700Y-71674281D01*
X103960703Y-71674264D01*
X103999999Y-71325500D01*
X104000000Y-71325498D01*
X104000000Y-70974501D01*
X103999999Y-70974499D01*
X103960702Y-70625730D01*
X103960700Y-70625718D01*
X103882597Y-70283522D01*
X103882594Y-70283514D01*
X103766671Y-69952226D01*
X103614384Y-69635999D01*
X103427644Y-69338804D01*
X103255549Y-69123002D01*
X102276617Y-70101933D01*
X102193543Y-69993669D01*
X102031331Y-69831457D01*
X101923064Y-69748380D01*
X102901996Y-68769449D01*
X102709266Y-68615753D01*
X102686195Y-68597355D01*
X102566483Y-68522135D01*
X117449500Y-68522135D01*
X117449500Y-70317870D01*
X117449501Y-70317876D01*
X117455908Y-70377483D01*
X117506202Y-70512328D01*
X117506206Y-70512335D01*
X117592452Y-70627544D01*
X117592455Y-70627547D01*
X117707664Y-70713793D01*
X117707671Y-70713797D01*
X117842517Y-70764091D01*
X117842516Y-70764091D01*
X117849444Y-70764835D01*
X117902127Y-70770500D01*
X119697872Y-70770499D01*
X119757483Y-70764091D01*
X119892331Y-70713796D01*
X120007546Y-70627546D01*
X120093796Y-70512331D01*
X120144091Y-70377483D01*
X120150500Y-70317873D01*
X120150499Y-68522135D01*
X124939500Y-68522135D01*
X124939500Y-70317870D01*
X124939501Y-70317876D01*
X124945908Y-70377483D01*
X124996202Y-70512328D01*
X124996206Y-70512335D01*
X125082452Y-70627544D01*
X125082455Y-70627547D01*
X125197664Y-70713793D01*
X125197671Y-70713797D01*
X125332517Y-70764091D01*
X125332516Y-70764091D01*
X125339444Y-70764835D01*
X125392127Y-70770500D01*
X127187872Y-70770499D01*
X127247483Y-70764091D01*
X127382331Y-70713796D01*
X127497546Y-70627546D01*
X127583796Y-70512331D01*
X127634091Y-70377483D01*
X127640500Y-70317873D01*
X127640499Y-69781995D01*
X130799500Y-69781995D01*
X130799500Y-70018004D01*
X130799501Y-70018020D01*
X130830306Y-70252010D01*
X130891394Y-70479993D01*
X130981714Y-70698045D01*
X130981719Y-70698056D01*
X131045115Y-70807859D01*
X131099727Y-70902450D01*
X131099729Y-70902453D01*
X131099730Y-70902454D01*
X131243406Y-71089697D01*
X131243412Y-71089704D01*
X131410295Y-71256587D01*
X131410301Y-71256592D01*
X131597550Y-71400273D01*
X131728918Y-71476118D01*
X131801943Y-71518280D01*
X131801948Y-71518282D01*
X131801951Y-71518284D01*
X132020007Y-71608606D01*
X132247986Y-71669693D01*
X132481989Y-71700500D01*
X132481996Y-71700500D01*
X132718004Y-71700500D01*
X132718011Y-71700500D01*
X132952014Y-71669693D01*
X133179993Y-71608606D01*
X133398049Y-71518284D01*
X133602450Y-71400273D01*
X133789699Y-71256592D01*
X133956592Y-71089699D01*
X134100273Y-70902450D01*
X134218284Y-70698049D01*
X134308606Y-70479993D01*
X134369693Y-70252014D01*
X134400500Y-70018011D01*
X134400500Y-69781989D01*
X134369693Y-69547986D01*
X134308606Y-69320007D01*
X134218284Y-69101951D01*
X134218282Y-69101948D01*
X134218280Y-69101943D01*
X134176118Y-69028918D01*
X134100273Y-68897550D01*
X133956592Y-68710301D01*
X133956587Y-68710295D01*
X133789704Y-68543412D01*
X133789697Y-68543406D01*
X133602454Y-68399730D01*
X133602453Y-68399729D01*
X133602450Y-68399727D01*
X133520957Y-68352677D01*
X133398056Y-68281719D01*
X133398045Y-68281714D01*
X133179993Y-68191394D01*
X132952010Y-68130306D01*
X132718020Y-68099501D01*
X132718017Y-68099500D01*
X132718011Y-68099500D01*
X132481989Y-68099500D01*
X132481983Y-68099500D01*
X132481979Y-68099501D01*
X132247989Y-68130306D01*
X132020006Y-68191394D01*
X131801954Y-68281714D01*
X131801943Y-68281719D01*
X131597545Y-68399730D01*
X131410302Y-68543406D01*
X131410295Y-68543412D01*
X131243412Y-68710295D01*
X131243406Y-68710302D01*
X131099730Y-68897545D01*
X130981719Y-69101943D01*
X130981714Y-69101954D01*
X130891394Y-69320006D01*
X130830306Y-69547989D01*
X130799501Y-69781979D01*
X130799500Y-69781995D01*
X127640499Y-69781995D01*
X127640499Y-69400000D01*
X127640499Y-68522129D01*
X127640498Y-68522123D01*
X127640497Y-68522116D01*
X127634091Y-68462517D01*
X127583796Y-68327669D01*
X127583795Y-68327668D01*
X127583793Y-68327664D01*
X127497547Y-68212455D01*
X127497544Y-68212452D01*
X127382335Y-68126206D01*
X127382328Y-68126202D01*
X127247482Y-68075908D01*
X127247483Y-68075908D01*
X127187883Y-68069501D01*
X127187881Y-68069500D01*
X127187873Y-68069500D01*
X127187864Y-68069500D01*
X125392129Y-68069500D01*
X125392123Y-68069501D01*
X125332516Y-68075908D01*
X125197671Y-68126202D01*
X125197664Y-68126206D01*
X125082455Y-68212452D01*
X125082452Y-68212455D01*
X124996206Y-68327664D01*
X124996202Y-68327671D01*
X124945908Y-68462517D01*
X124939501Y-68522116D01*
X124939501Y-68522123D01*
X124939500Y-68522135D01*
X120150499Y-68522135D01*
X120150499Y-68522128D01*
X120144091Y-68462517D01*
X120093796Y-68327669D01*
X120093795Y-68327668D01*
X120093793Y-68327664D01*
X120007547Y-68212455D01*
X120007544Y-68212452D01*
X119892335Y-68126206D01*
X119892328Y-68126202D01*
X119757482Y-68075908D01*
X119757483Y-68075908D01*
X119697883Y-68069501D01*
X119697881Y-68069500D01*
X119697873Y-68069500D01*
X119697864Y-68069500D01*
X117902129Y-68069500D01*
X117902123Y-68069501D01*
X117842516Y-68075908D01*
X117707671Y-68126202D01*
X117707664Y-68126206D01*
X117592455Y-68212452D01*
X117592452Y-68212455D01*
X117506206Y-68327664D01*
X117506202Y-68327671D01*
X117455908Y-68462517D01*
X117449501Y-68522116D01*
X117449501Y-68522123D01*
X117449500Y-68522135D01*
X102566483Y-68522135D01*
X102389000Y-68410615D01*
X102072773Y-68258328D01*
X101741485Y-68142405D01*
X101741477Y-68142402D01*
X101399281Y-68064299D01*
X101399269Y-68064297D01*
X101050500Y-68025000D01*
X100699499Y-68025000D01*
X100350730Y-68064297D01*
X100350718Y-68064299D01*
X100008522Y-68142402D01*
X100008514Y-68142405D01*
X99677226Y-68258328D01*
X99360999Y-68410615D01*
X99063804Y-68597355D01*
X98848002Y-68769449D01*
X99826934Y-69748381D01*
X99718669Y-69831457D01*
X99556457Y-69993669D01*
X99473381Y-70101934D01*
X98494449Y-69123002D01*
X98322355Y-69338804D01*
X98135615Y-69635999D01*
X97983328Y-69952226D01*
X97867405Y-70283514D01*
X97867402Y-70283522D01*
X97789299Y-70625718D01*
X97789297Y-70625730D01*
X97750000Y-70974499D01*
X94900500Y-70974499D01*
X94900500Y-63744500D01*
X94920185Y-63677461D01*
X94972989Y-63631706D01*
X95024500Y-63620500D01*
X144435500Y-63620500D01*
X144502539Y-63640185D01*
G37*
%TD.AperFunction*%
%TD*%
M02*
