%TF.GenerationSoftware,KiCad,Pcbnew,9.0.7*%
%TF.CreationDate,2026-07-21T09:51:19+03:00*%
%TF.ProjectId,42 Pin 3rd gen 4E-FE,34322050-696e-4203-9372-642067656e20,rev?*%
%TF.SameCoordinates,Original*%
%TF.FileFunction,Legend,Top*%
%TF.FilePolarity,Positive*%
%FSLAX46Y46*%
G04 Gerber Fmt 4.6, Leading zero omitted, Abs format (unit mm)*
G04 Created by KiCad (PCBNEW 9.0.7) date 2026-07-21 09:51:19*
%MOMM*%
%LPD*%
G01*
G04 APERTURE LIST*
%ADD10C,0.100000*%
%ADD11C,0.300000*%
%ADD12C,0.150000*%
%ADD13C,0.254000*%
%ADD14C,0.120000*%
%ADD15C,0.200000*%
%ADD16C,1.650000*%
%ADD17R,1.650000X1.650000*%
%ADD18C,5.250000*%
G04 APERTURE END LIST*
D10*
X134600000Y-69900000D02*
G75*
G02*
X130580050Y-69900000I-2009975J0D01*
G01*
X130580050Y-69900000D02*
G75*
G02*
X134600000Y-69900000I2009975J0D01*
G01*
X134409975Y-138600000D02*
G75*
G02*
X130390025Y-138600000I-2009975J0D01*
G01*
X130390025Y-138600000D02*
G75*
G02*
X134409975Y-138600000I2009975J0D01*
G01*
D11*
X131364510Y-136071828D02*
X131364510Y-134571828D01*
X131364510Y-134571828D02*
X131864510Y-135643257D01*
X131864510Y-135643257D02*
X132364510Y-134571828D01*
X132364510Y-134571828D02*
X132364510Y-136071828D01*
X132935939Y-134571828D02*
X133864511Y-134571828D01*
X133864511Y-134571828D02*
X133364511Y-135143257D01*
X133364511Y-135143257D02*
X133578796Y-135143257D01*
X133578796Y-135143257D02*
X133721654Y-135214685D01*
X133721654Y-135214685D02*
X133793082Y-135286114D01*
X133793082Y-135286114D02*
X133864511Y-135428971D01*
X133864511Y-135428971D02*
X133864511Y-135786114D01*
X133864511Y-135786114D02*
X133793082Y-135928971D01*
X133793082Y-135928971D02*
X133721654Y-136000400D01*
X133721654Y-136000400D02*
X133578796Y-136071828D01*
X133578796Y-136071828D02*
X133150225Y-136071828D01*
X133150225Y-136071828D02*
X133007368Y-136000400D01*
X133007368Y-136000400D02*
X132935939Y-135928971D01*
X120524510Y-126609400D02*
X121667368Y-126609400D01*
X121095939Y-127180828D02*
X121095939Y-126037971D01*
X123167368Y-127180828D02*
X122310225Y-127180828D01*
X122738796Y-127180828D02*
X122738796Y-125680828D01*
X122738796Y-125680828D02*
X122595939Y-125895114D01*
X122595939Y-125895114D02*
X122453082Y-126037971D01*
X122453082Y-126037971D02*
X122310225Y-126109400D01*
X123738796Y-125823685D02*
X123810224Y-125752257D01*
X123810224Y-125752257D02*
X123953082Y-125680828D01*
X123953082Y-125680828D02*
X124310224Y-125680828D01*
X124310224Y-125680828D02*
X124453082Y-125752257D01*
X124453082Y-125752257D02*
X124524510Y-125823685D01*
X124524510Y-125823685D02*
X124595939Y-125966542D01*
X124595939Y-125966542D02*
X124595939Y-126109400D01*
X124595939Y-126109400D02*
X124524510Y-126323685D01*
X124524510Y-126323685D02*
X123667367Y-127180828D01*
X123667367Y-127180828D02*
X124595939Y-127180828D01*
X125024510Y-125680828D02*
X125524510Y-127180828D01*
X125524510Y-127180828D02*
X126024510Y-125680828D01*
X131364510Y-66475828D02*
X131364510Y-64975828D01*
X131364510Y-64975828D02*
X131864510Y-66047257D01*
X131864510Y-66047257D02*
X132364510Y-64975828D01*
X132364510Y-64975828D02*
X132364510Y-66475828D01*
X132935939Y-64975828D02*
X133864511Y-64975828D01*
X133864511Y-64975828D02*
X133364511Y-65547257D01*
X133364511Y-65547257D02*
X133578796Y-65547257D01*
X133578796Y-65547257D02*
X133721654Y-65618685D01*
X133721654Y-65618685D02*
X133793082Y-65690114D01*
X133793082Y-65690114D02*
X133864511Y-65832971D01*
X133864511Y-65832971D02*
X133864511Y-66190114D01*
X133864511Y-66190114D02*
X133793082Y-66332971D01*
X133793082Y-66332971D02*
X133721654Y-66404400D01*
X133721654Y-66404400D02*
X133578796Y-66475828D01*
X133578796Y-66475828D02*
X133150225Y-66475828D01*
X133150225Y-66475828D02*
X133007368Y-66404400D01*
X133007368Y-66404400D02*
X132935939Y-66332971D01*
X122820225Y-139792257D02*
X122677368Y-139720828D01*
X122677368Y-139720828D02*
X122463082Y-139720828D01*
X122463082Y-139720828D02*
X122248796Y-139792257D01*
X122248796Y-139792257D02*
X122105939Y-139935114D01*
X122105939Y-139935114D02*
X122034510Y-140077971D01*
X122034510Y-140077971D02*
X121963082Y-140363685D01*
X121963082Y-140363685D02*
X121963082Y-140577971D01*
X121963082Y-140577971D02*
X122034510Y-140863685D01*
X122034510Y-140863685D02*
X122105939Y-141006542D01*
X122105939Y-141006542D02*
X122248796Y-141149400D01*
X122248796Y-141149400D02*
X122463082Y-141220828D01*
X122463082Y-141220828D02*
X122605939Y-141220828D01*
X122605939Y-141220828D02*
X122820225Y-141149400D01*
X122820225Y-141149400D02*
X122891653Y-141077971D01*
X122891653Y-141077971D02*
X122891653Y-140577971D01*
X122891653Y-140577971D02*
X122605939Y-140577971D01*
X123534510Y-141220828D02*
X123534510Y-139720828D01*
X123534510Y-139720828D02*
X124391653Y-141220828D01*
X124391653Y-141220828D02*
X124391653Y-139720828D01*
X125105939Y-141220828D02*
X125105939Y-139720828D01*
X125105939Y-139720828D02*
X125463082Y-139720828D01*
X125463082Y-139720828D02*
X125677368Y-139792257D01*
X125677368Y-139792257D02*
X125820225Y-139935114D01*
X125820225Y-139935114D02*
X125891654Y-140077971D01*
X125891654Y-140077971D02*
X125963082Y-140363685D01*
X125963082Y-140363685D02*
X125963082Y-140577971D01*
X125963082Y-140577971D02*
X125891654Y-140863685D01*
X125891654Y-140863685D02*
X125820225Y-141006542D01*
X125820225Y-141006542D02*
X125677368Y-141149400D01*
X125677368Y-141149400D02*
X125463082Y-141220828D01*
X125463082Y-141220828D02*
X125105939Y-141220828D01*
D12*
X132186666Y-72324819D02*
X132186666Y-73039104D01*
X132186666Y-73039104D02*
X132139047Y-73181961D01*
X132139047Y-73181961D02*
X132043809Y-73277200D01*
X132043809Y-73277200D02*
X131900952Y-73324819D01*
X131900952Y-73324819D02*
X131805714Y-73324819D01*
X132567619Y-72324819D02*
X133186666Y-72324819D01*
X133186666Y-72324819D02*
X132853333Y-72705771D01*
X132853333Y-72705771D02*
X132996190Y-72705771D01*
X132996190Y-72705771D02*
X133091428Y-72753390D01*
X133091428Y-72753390D02*
X133139047Y-72801009D01*
X133139047Y-72801009D02*
X133186666Y-72896247D01*
X133186666Y-72896247D02*
X133186666Y-73134342D01*
X133186666Y-73134342D02*
X133139047Y-73229580D01*
X133139047Y-73229580D02*
X133091428Y-73277200D01*
X133091428Y-73277200D02*
X132996190Y-73324819D01*
X132996190Y-73324819D02*
X132710476Y-73324819D01*
X132710476Y-73324819D02*
X132615238Y-73277200D01*
X132615238Y-73277200D02*
X132567619Y-73229580D01*
D13*
X98314667Y-103304318D02*
X98314667Y-104211461D01*
X98314667Y-104211461D02*
X98254190Y-104392889D01*
X98254190Y-104392889D02*
X98133238Y-104513842D01*
X98133238Y-104513842D02*
X97951809Y-104574318D01*
X97951809Y-104574318D02*
X97830857Y-104574318D01*
X99584667Y-104574318D02*
X98858952Y-104574318D01*
X99221809Y-104574318D02*
X99221809Y-103304318D01*
X99221809Y-103304318D02*
X99100857Y-103485746D01*
X99100857Y-103485746D02*
X98979905Y-103606699D01*
X98979905Y-103606699D02*
X98858952Y-103667175D01*
D12*
X128124819Y-69753333D02*
X128839104Y-69753333D01*
X128839104Y-69753333D02*
X128981961Y-69800952D01*
X128981961Y-69800952D02*
X129077200Y-69896190D01*
X129077200Y-69896190D02*
X129124819Y-70039047D01*
X129124819Y-70039047D02*
X129124819Y-70134285D01*
X128220057Y-69324761D02*
X128172438Y-69277142D01*
X128172438Y-69277142D02*
X128124819Y-69181904D01*
X128124819Y-69181904D02*
X128124819Y-68943809D01*
X128124819Y-68943809D02*
X128172438Y-68848571D01*
X128172438Y-68848571D02*
X128220057Y-68800952D01*
X128220057Y-68800952D02*
X128315295Y-68753333D01*
X128315295Y-68753333D02*
X128410533Y-68753333D01*
X128410533Y-68753333D02*
X128553390Y-68800952D01*
X128553390Y-68800952D02*
X129124819Y-69372380D01*
X129124819Y-69372380D02*
X129124819Y-68753333D01*
X123950476Y-67324819D02*
X123950476Y-66324819D01*
X124521904Y-67324819D02*
X124093333Y-66753390D01*
X124521904Y-66324819D02*
X123950476Y-66896247D01*
X124950476Y-67324819D02*
X124950476Y-66324819D01*
X124950476Y-66324819D02*
X125521904Y-67324819D01*
X125521904Y-67324819D02*
X125521904Y-66324819D01*
X126188571Y-66324819D02*
X126379047Y-66324819D01*
X126379047Y-66324819D02*
X126474285Y-66372438D01*
X126474285Y-66372438D02*
X126569523Y-66467676D01*
X126569523Y-66467676D02*
X126617142Y-66658152D01*
X126617142Y-66658152D02*
X126617142Y-66991485D01*
X126617142Y-66991485D02*
X126569523Y-67181961D01*
X126569523Y-67181961D02*
X126474285Y-67277200D01*
X126474285Y-67277200D02*
X126379047Y-67324819D01*
X126379047Y-67324819D02*
X126188571Y-67324819D01*
X126188571Y-67324819D02*
X126093333Y-67277200D01*
X126093333Y-67277200D02*
X125998095Y-67181961D01*
X125998095Y-67181961D02*
X125950476Y-66991485D01*
X125950476Y-66991485D02*
X125950476Y-66658152D01*
X125950476Y-66658152D02*
X125998095Y-66467676D01*
X125998095Y-66467676D02*
X126093333Y-66372438D01*
X126093333Y-66372438D02*
X126188571Y-66324819D01*
X127617142Y-67229580D02*
X127569523Y-67277200D01*
X127569523Y-67277200D02*
X127426666Y-67324819D01*
X127426666Y-67324819D02*
X127331428Y-67324819D01*
X127331428Y-67324819D02*
X127188571Y-67277200D01*
X127188571Y-67277200D02*
X127093333Y-67181961D01*
X127093333Y-67181961D02*
X127045714Y-67086723D01*
X127045714Y-67086723D02*
X126998095Y-66896247D01*
X126998095Y-66896247D02*
X126998095Y-66753390D01*
X126998095Y-66753390D02*
X127045714Y-66562914D01*
X127045714Y-66562914D02*
X127093333Y-66467676D01*
X127093333Y-66467676D02*
X127188571Y-66372438D01*
X127188571Y-66372438D02*
X127331428Y-66324819D01*
X127331428Y-66324819D02*
X127426666Y-66324819D01*
X127426666Y-66324819D02*
X127569523Y-66372438D01*
X127569523Y-66372438D02*
X127617142Y-66420057D01*
X128045714Y-67324819D02*
X128045714Y-66324819D01*
X128617142Y-67324819D02*
X128188571Y-66753390D01*
X128617142Y-66324819D02*
X128045714Y-66896247D01*
X120634819Y-69753333D02*
X121349104Y-69753333D01*
X121349104Y-69753333D02*
X121491961Y-69800952D01*
X121491961Y-69800952D02*
X121587200Y-69896190D01*
X121587200Y-69896190D02*
X121634819Y-70039047D01*
X121634819Y-70039047D02*
X121634819Y-70134285D01*
X120634819Y-68848571D02*
X120634819Y-69039047D01*
X120634819Y-69039047D02*
X120682438Y-69134285D01*
X120682438Y-69134285D02*
X120730057Y-69181904D01*
X120730057Y-69181904D02*
X120872914Y-69277142D01*
X120872914Y-69277142D02*
X121063390Y-69324761D01*
X121063390Y-69324761D02*
X121444342Y-69324761D01*
X121444342Y-69324761D02*
X121539580Y-69277142D01*
X121539580Y-69277142D02*
X121587200Y-69229523D01*
X121587200Y-69229523D02*
X121634819Y-69134285D01*
X121634819Y-69134285D02*
X121634819Y-68943809D01*
X121634819Y-68943809D02*
X121587200Y-68848571D01*
X121587200Y-68848571D02*
X121539580Y-68800952D01*
X121539580Y-68800952D02*
X121444342Y-68753333D01*
X121444342Y-68753333D02*
X121206247Y-68753333D01*
X121206247Y-68753333D02*
X121111009Y-68800952D01*
X121111009Y-68800952D02*
X121063390Y-68848571D01*
X121063390Y-68848571D02*
X121015771Y-68943809D01*
X121015771Y-68943809D02*
X121015771Y-69134285D01*
X121015771Y-69134285D02*
X121063390Y-69229523D01*
X121063390Y-69229523D02*
X121111009Y-69277142D01*
X121111009Y-69277142D02*
X121206247Y-69324761D01*
X115841428Y-67307200D02*
X115984285Y-67354819D01*
X115984285Y-67354819D02*
X116222380Y-67354819D01*
X116222380Y-67354819D02*
X116317618Y-67307200D01*
X116317618Y-67307200D02*
X116365237Y-67259580D01*
X116365237Y-67259580D02*
X116412856Y-67164342D01*
X116412856Y-67164342D02*
X116412856Y-67069104D01*
X116412856Y-67069104D02*
X116365237Y-66973866D01*
X116365237Y-66973866D02*
X116317618Y-66926247D01*
X116317618Y-66926247D02*
X116222380Y-66878628D01*
X116222380Y-66878628D02*
X116031904Y-66831009D01*
X116031904Y-66831009D02*
X115936666Y-66783390D01*
X115936666Y-66783390D02*
X115889047Y-66735771D01*
X115889047Y-66735771D02*
X115841428Y-66640533D01*
X115841428Y-66640533D02*
X115841428Y-66545295D01*
X115841428Y-66545295D02*
X115889047Y-66450057D01*
X115889047Y-66450057D02*
X115936666Y-66402438D01*
X115936666Y-66402438D02*
X116031904Y-66354819D01*
X116031904Y-66354819D02*
X116269999Y-66354819D01*
X116269999Y-66354819D02*
X116412856Y-66402438D01*
X116698571Y-66354819D02*
X117269999Y-66354819D01*
X116984285Y-67354819D02*
X116984285Y-66354819D01*
X117555714Y-67069104D02*
X118031904Y-67069104D01*
X117460476Y-67354819D02*
X117793809Y-66354819D01*
X117793809Y-66354819D02*
X118127142Y-67354819D01*
X119031904Y-67354819D02*
X118698571Y-66878628D01*
X118460476Y-67354819D02*
X118460476Y-66354819D01*
X118460476Y-66354819D02*
X118841428Y-66354819D01*
X118841428Y-66354819D02*
X118936666Y-66402438D01*
X118936666Y-66402438D02*
X118984285Y-66450057D01*
X118984285Y-66450057D02*
X119031904Y-66545295D01*
X119031904Y-66545295D02*
X119031904Y-66688152D01*
X119031904Y-66688152D02*
X118984285Y-66783390D01*
X118984285Y-66783390D02*
X118936666Y-66831009D01*
X118936666Y-66831009D02*
X118841428Y-66878628D01*
X118841428Y-66878628D02*
X118460476Y-66878628D01*
X119317619Y-66354819D02*
X119889047Y-66354819D01*
X119603333Y-67354819D02*
X119603333Y-66354819D01*
X120222381Y-66831009D02*
X120555714Y-66831009D01*
X120698571Y-67354819D02*
X120222381Y-67354819D01*
X120222381Y-67354819D02*
X120222381Y-66354819D01*
X120222381Y-66354819D02*
X120698571Y-66354819D01*
X121698571Y-67354819D02*
X121365238Y-66878628D01*
X121127143Y-67354819D02*
X121127143Y-66354819D01*
X121127143Y-66354819D02*
X121508095Y-66354819D01*
X121508095Y-66354819D02*
X121603333Y-66402438D01*
X121603333Y-66402438D02*
X121650952Y-66450057D01*
X121650952Y-66450057D02*
X121698571Y-66545295D01*
X121698571Y-66545295D02*
X121698571Y-66688152D01*
X121698571Y-66688152D02*
X121650952Y-66783390D01*
X121650952Y-66783390D02*
X121603333Y-66831009D01*
X121603333Y-66831009D02*
X121508095Y-66878628D01*
X121508095Y-66878628D02*
X121127143Y-66878628D01*
X112702319Y-134433333D02*
X113416604Y-134433333D01*
X113416604Y-134433333D02*
X113559461Y-134480952D01*
X113559461Y-134480952D02*
X113654700Y-134576190D01*
X113654700Y-134576190D02*
X113702319Y-134719047D01*
X113702319Y-134719047D02*
X113702319Y-134814285D01*
X112702319Y-133480952D02*
X112702319Y-133957142D01*
X112702319Y-133957142D02*
X113178509Y-134004761D01*
X113178509Y-134004761D02*
X113130890Y-133957142D01*
X113130890Y-133957142D02*
X113083271Y-133861904D01*
X113083271Y-133861904D02*
X113083271Y-133623809D01*
X113083271Y-133623809D02*
X113130890Y-133528571D01*
X113130890Y-133528571D02*
X113178509Y-133480952D01*
X113178509Y-133480952D02*
X113273747Y-133433333D01*
X113273747Y-133433333D02*
X113511842Y-133433333D01*
X113511842Y-133433333D02*
X113607080Y-133480952D01*
X113607080Y-133480952D02*
X113654700Y-133528571D01*
X113654700Y-133528571D02*
X113702319Y-133623809D01*
X113702319Y-133623809D02*
X113702319Y-133861904D01*
X113702319Y-133861904D02*
X113654700Y-133957142D01*
X113654700Y-133957142D02*
X113607080Y-134004761D01*
D14*
%TO.C,J3*%
X126570000Y-78470000D02*
X126570000Y-79470000D01*
X126570000Y-79470000D02*
X127570000Y-78970000D01*
X127570000Y-78970000D02*
X126570000Y-78470000D01*
X127960000Y-73760000D02*
X137080000Y-73760000D01*
X127960000Y-101050000D02*
X129270000Y-101050000D01*
X127960000Y-132440000D02*
X127960000Y-73760000D01*
X129270000Y-75060000D02*
X135770000Y-75060000D01*
X129270000Y-101050000D02*
X129270000Y-75060000D01*
X129270000Y-105150000D02*
X127960000Y-105150000D01*
X129270000Y-131140000D02*
X129270000Y-105150000D01*
X135770000Y-75060000D02*
X135770000Y-131140000D01*
X135770000Y-131140000D02*
X129270000Y-131140000D01*
X137080000Y-73760000D02*
X137080000Y-132440000D01*
X137080000Y-132440000D02*
X127960000Y-132440000D01*
D15*
%TO.C,J1*%
X85575000Y-67950000D02*
X104075000Y-67950000D01*
X85575000Y-140050000D02*
X85575000Y-67950000D01*
X104075000Y-67950000D02*
X104075000Y-140050000D01*
X104075000Y-140050000D02*
X85575000Y-140050000D01*
D10*
X112375000Y-136450000D02*
X112375000Y-136450000D01*
X112475000Y-136450000D02*
X112475000Y-136450000D01*
X112375000Y-136450000D02*
G75*
G02*
X112475000Y-136450000I50000J0D01*
G01*
X112475000Y-136450000D02*
G75*
G02*
X112375000Y-136450000I-50000J0D01*
G01*
D14*
%TO.C,J2*%
X124910000Y-68040000D02*
X124910000Y-70800000D01*
X125020000Y-68040000D02*
X124910000Y-68040000D01*
X125020000Y-68040000D02*
X125020000Y-70800000D01*
X125020000Y-70800000D02*
X124910000Y-70800000D01*
X126290000Y-68040000D02*
X127670000Y-68040000D01*
X127670000Y-68040000D02*
X127670000Y-69420000D01*
%TO.C,J6*%
X117420000Y-68040000D02*
X117420000Y-70800000D01*
X117530000Y-68040000D02*
X117420000Y-68040000D01*
X117530000Y-68040000D02*
X117530000Y-70800000D01*
X117530000Y-70800000D02*
X117420000Y-70800000D01*
X118800000Y-68040000D02*
X120180000Y-68040000D01*
X120180000Y-68040000D02*
X120180000Y-69420000D01*
%TO.C,J5*%
X114247500Y-128980000D02*
X123487500Y-128980000D01*
X114247500Y-139220000D02*
X114247500Y-128980000D01*
X121867500Y-139220000D02*
X121867500Y-128980000D01*
X122967500Y-139220000D02*
X122967500Y-128980000D01*
X123487500Y-128980000D02*
X123487500Y-136300000D01*
X123487500Y-136900000D02*
X123487500Y-139220000D01*
X123487500Y-139220000D02*
X114247500Y-139220000D01*
X124097500Y-137040000D02*
X123487500Y-136600000D01*
X124097500Y-136160000D01*
X124097500Y-137040000D01*
G36*
X124097500Y-137040000D02*
G01*
X123487500Y-136600000D01*
X124097500Y-136160000D01*
X124097500Y-137040000D01*
G37*
%TD*%
D16*
%TO.C,J1*%
X106575000Y-84900000D03*
D17*
X111075000Y-136450000D03*
D16*
X111075000Y-133450000D03*
X111075000Y-130450000D03*
X111075000Y-127450000D03*
X111075000Y-124450000D03*
X111075000Y-121450000D03*
X111075000Y-118450000D03*
X111075000Y-115450000D03*
X106575000Y-136450000D03*
X106575000Y-133450000D03*
X106575000Y-130450000D03*
X106575000Y-127450000D03*
X106575000Y-124450000D03*
X106575000Y-121450000D03*
X106575000Y-118450000D03*
X106575000Y-115450000D03*
X111075000Y-109450000D03*
X111075000Y-106000000D03*
X111075000Y-102900000D03*
X111075000Y-99900000D03*
X111075000Y-96900000D03*
X111075000Y-93900000D03*
X111075000Y-90900000D03*
X111075000Y-87900000D03*
X111075000Y-84900000D03*
X111075000Y-81900000D03*
X111075000Y-78800000D03*
X111075000Y-75300000D03*
X111075000Y-71800000D03*
X106575000Y-109500000D03*
X106575000Y-106000000D03*
X106575000Y-102900000D03*
X106575000Y-99900000D03*
X106575000Y-96900000D03*
X106575000Y-93900000D03*
X106575000Y-90900000D03*
X106575000Y-87900000D03*
X106575000Y-81900000D03*
X106575000Y-78800000D03*
X106575000Y-75300000D03*
X106575000Y-71800000D03*
D18*
X100875000Y-136850000D03*
X100875000Y-112600000D03*
X100875000Y-71150000D03*
%TD*%
M02*
