M48
; DRILL file {KiCad 9.0.7} date 2026-07-21T09:51:16+0300
; FORMAT={-:-/ absolute / metric / decimal}
; #@! TF.CreationDate,2026-07-21T09:51:16+03:00
; #@! TF.GenerationSoftware,Kicad,Pcbnew,9.0.7
; #@! TF.FileFunction,Plated,1,2,PTH
FMAT,2
METRIC
; #@! TA.AperFunction,Plated,PTH,ComponentDrill
T1C1.000
; #@! TA.AperFunction,Plated,PTH,ComponentDrill
T2C1.100
; #@! TA.AperFunction,Plated,PTH,ComponentDrill
T3C1.300
; #@! TA.AperFunction,Plated,PTH,ComponentDrill
T4C3.500
%
G90
G05
T1
X118.8Y-69.42
X126.29Y-69.42
X131.25Y-78.97
X131.25Y-81.51
X131.25Y-84.05
X131.25Y-86.59
X131.25Y-89.13
X131.25Y-91.67
X131.25Y-94.21
X131.25Y-96.75
X131.25Y-99.29
X131.25Y-101.83
X131.25Y-104.37
X131.25Y-106.91
X131.25Y-109.45
X131.25Y-111.99
X131.25Y-114.53
X131.25Y-117.07
X131.25Y-119.61
X131.25Y-122.15
X131.25Y-124.69
X131.25Y-127.23
X133.79Y-78.97
X133.79Y-81.51
X133.79Y-84.05
X133.79Y-86.59
X133.79Y-89.13
X133.79Y-91.67
X133.79Y-94.21
X133.79Y-96.75
X133.79Y-99.29
X133.79Y-101.83
X133.79Y-104.37
X133.79Y-106.91
X133.79Y-109.45
X133.79Y-111.99
X133.79Y-114.53
X133.79Y-117.07
X133.79Y-119.61
X133.79Y-122.15
X133.79Y-124.69
X133.79Y-127.23
T2
X106.575Y-71.8
X106.575Y-75.3
X106.575Y-78.8
X106.575Y-81.9
X106.575Y-84.9
X106.575Y-87.9
X106.575Y-90.9
X106.575Y-93.9
X106.575Y-96.9
X106.575Y-99.9
X106.575Y-102.9
X106.575Y-106.0
X106.575Y-109.5
X106.575Y-115.45
X106.575Y-118.45
X106.575Y-121.45
X106.575Y-124.45
X106.575Y-127.45
X106.575Y-130.45
X106.575Y-133.45
X106.575Y-136.45
X111.075Y-71.8
X111.075Y-75.3
X111.075Y-78.8
X111.075Y-81.9
X111.075Y-84.9
X111.075Y-87.9
X111.075Y-90.9
X111.075Y-93.9
X111.075Y-96.9
X111.075Y-99.9
X111.075Y-102.9
X111.075Y-106.0
X111.075Y-109.45
X111.075Y-115.45
X111.075Y-118.45
X111.075Y-121.45
X111.075Y-124.45
X111.075Y-127.45
X111.075Y-130.45
X111.075Y-133.45
X111.075Y-136.45
T3
X118.367Y-131.6
X118.367Y-136.6
T4
X100.875Y-71.15
X100.875Y-112.6
X100.875Y-136.85
M30
