%TF.GenerationSoftware,KiCad,Pcbnew,9.0.7*%
%TF.CreationDate,2026-06-23T14:14:44+03:00*%
%TF.ProjectId,VR-Conditioner-NCV1124,56522d43-6f6e-4646-9974-696f6e65722d,rev?*%
%TF.SameCoordinates,Original*%
%TF.FileFunction,Legend,Top*%
%TF.FilePolarity,Positive*%
%FSLAX46Y46*%
G04 Gerber Fmt 4.6, Leading zero omitted, Abs format (unit mm)*
G04 Created by KiCad (PCBNEW 9.0.7) date 2026-06-23 14:14:44*
%MOMM*%
%LPD*%
G01*
G04 APERTURE LIST*
G04 Aperture macros list*
%AMRoundRect*
0 Rectangle with rounded corners*
0 $1 Rounding radius*
0 $2 $3 $4 $5 $6 $7 $8 $9 X,Y pos of 4 corners*
0 Add a 4 corners polygon primitive as box body*
4,1,4,$2,$3,$4,$5,$6,$7,$8,$9,$2,$3,0*
0 Add four circle primitives for the rounded corners*
1,1,$1+$1,$2,$3*
1,1,$1+$1,$4,$5*
1,1,$1+$1,$6,$7*
1,1,$1+$1,$8,$9*
0 Add four rect primitives between the rounded corners*
20,1,$1+$1,$2,$3,$4,$5,0*
20,1,$1+$1,$4,$5,$6,$7,0*
20,1,$1+$1,$6,$7,$8,$9,0*
20,1,$1+$1,$8,$9,$2,$3,0*%
%AMFreePoly0*
4,1,23,0.500000,-0.750000,0.000000,-0.750000,0.000000,-0.745722,-0.065263,-0.745722,-0.191342,-0.711940,-0.304381,-0.646677,-0.396677,-0.554381,-0.461940,-0.441342,-0.495722,-0.315263,-0.495722,-0.250000,-0.500000,-0.250000,-0.500000,0.250000,-0.495722,0.250000,-0.495722,0.315263,-0.461940,0.441342,-0.396677,0.554381,-0.304381,0.646677,-0.191342,0.711940,-0.065263,0.745722,0.000000,0.745722,
0.000000,0.750000,0.500000,0.750000,0.500000,-0.750000,0.500000,-0.750000,$1*%
%AMFreePoly1*
4,1,23,0.000000,0.745722,0.065263,0.745722,0.191342,0.711940,0.304381,0.646677,0.396677,0.554381,0.461940,0.441342,0.495722,0.315263,0.495722,0.250000,0.500000,0.250000,0.500000,-0.250000,0.495722,-0.250000,0.495722,-0.315263,0.461940,-0.441342,0.396677,-0.554381,0.304381,-0.646677,0.191342,-0.711940,0.065263,-0.745722,0.000000,-0.745722,0.000000,-0.750000,-0.500000,-0.750000,
-0.500000,0.750000,0.000000,0.750000,0.000000,0.745722,0.000000,0.745722,$1*%
G04 Aperture macros list end*
%ADD10C,0.150000*%
%ADD11C,0.254000*%
%ADD12C,0.120000*%
%ADD13C,0.200000*%
%ADD14FreePoly0,90.000000*%
%ADD15FreePoly1,90.000000*%
%ADD16RoundRect,0.250000X0.475000X-0.337500X0.475000X0.337500X-0.475000X0.337500X-0.475000X-0.337500X0*%
%ADD17RoundRect,0.250000X-0.475000X0.337500X-0.475000X-0.337500X0.475000X-0.337500X0.475000X0.337500X0*%
%ADD18RoundRect,0.250000X-0.950000X-0.550000X0.950000X-0.550000X0.950000X0.550000X-0.950000X0.550000X0*%
%ADD19O,2.400000X1.600000*%
%ADD20R,1.520000X0.600000*%
G04 APERTURE END LIST*
D10*
X147314019Y-83783466D02*
X146837828Y-84116799D01*
X147314019Y-84354894D02*
X146314019Y-84354894D01*
X146314019Y-84354894D02*
X146314019Y-83973942D01*
X146314019Y-83973942D02*
X146361638Y-83878704D01*
X146361638Y-83878704D02*
X146409257Y-83831085D01*
X146409257Y-83831085D02*
X146504495Y-83783466D01*
X146504495Y-83783466D02*
X146647352Y-83783466D01*
X146647352Y-83783466D02*
X146742590Y-83831085D01*
X146742590Y-83831085D02*
X146790209Y-83878704D01*
X146790209Y-83878704D02*
X146837828Y-83973942D01*
X146837828Y-83973942D02*
X146837828Y-84354894D01*
X146409257Y-83402513D02*
X146361638Y-83354894D01*
X146361638Y-83354894D02*
X146314019Y-83259656D01*
X146314019Y-83259656D02*
X146314019Y-83021561D01*
X146314019Y-83021561D02*
X146361638Y-82926323D01*
X146361638Y-82926323D02*
X146409257Y-82878704D01*
X146409257Y-82878704D02*
X146504495Y-82831085D01*
X146504495Y-82831085D02*
X146599733Y-82831085D01*
X146599733Y-82831085D02*
X146742590Y-82878704D01*
X146742590Y-82878704D02*
X147314019Y-83450132D01*
X147314019Y-83450132D02*
X147314019Y-82831085D01*
X163155333Y-87862580D02*
X163107714Y-87910200D01*
X163107714Y-87910200D02*
X162964857Y-87957819D01*
X162964857Y-87957819D02*
X162869619Y-87957819D01*
X162869619Y-87957819D02*
X162726762Y-87910200D01*
X162726762Y-87910200D02*
X162631524Y-87814961D01*
X162631524Y-87814961D02*
X162583905Y-87719723D01*
X162583905Y-87719723D02*
X162536286Y-87529247D01*
X162536286Y-87529247D02*
X162536286Y-87386390D01*
X162536286Y-87386390D02*
X162583905Y-87195914D01*
X162583905Y-87195914D02*
X162631524Y-87100676D01*
X162631524Y-87100676D02*
X162726762Y-87005438D01*
X162726762Y-87005438D02*
X162869619Y-86957819D01*
X162869619Y-86957819D02*
X162964857Y-86957819D01*
X162964857Y-86957819D02*
X163107714Y-87005438D01*
X163107714Y-87005438D02*
X163155333Y-87053057D01*
X164107714Y-87957819D02*
X163536286Y-87957819D01*
X163822000Y-87957819D02*
X163822000Y-86957819D01*
X163822000Y-86957819D02*
X163726762Y-87100676D01*
X163726762Y-87100676D02*
X163631524Y-87195914D01*
X163631524Y-87195914D02*
X163536286Y-87243533D01*
X150455333Y-84147819D02*
X150122000Y-83671628D01*
X149883905Y-84147819D02*
X149883905Y-83147819D01*
X149883905Y-83147819D02*
X150264857Y-83147819D01*
X150264857Y-83147819D02*
X150360095Y-83195438D01*
X150360095Y-83195438D02*
X150407714Y-83243057D01*
X150407714Y-83243057D02*
X150455333Y-83338295D01*
X150455333Y-83338295D02*
X150455333Y-83481152D01*
X150455333Y-83481152D02*
X150407714Y-83576390D01*
X150407714Y-83576390D02*
X150360095Y-83624009D01*
X150360095Y-83624009D02*
X150264857Y-83671628D01*
X150264857Y-83671628D02*
X149883905Y-83671628D01*
X150788667Y-83147819D02*
X151407714Y-83147819D01*
X151407714Y-83147819D02*
X151074381Y-83528771D01*
X151074381Y-83528771D02*
X151217238Y-83528771D01*
X151217238Y-83528771D02*
X151312476Y-83576390D01*
X151312476Y-83576390D02*
X151360095Y-83624009D01*
X151360095Y-83624009D02*
X151407714Y-83719247D01*
X151407714Y-83719247D02*
X151407714Y-83957342D01*
X151407714Y-83957342D02*
X151360095Y-84052580D01*
X151360095Y-84052580D02*
X151312476Y-84100200D01*
X151312476Y-84100200D02*
X151217238Y-84147819D01*
X151217238Y-84147819D02*
X150931524Y-84147819D01*
X150931524Y-84147819D02*
X150836286Y-84100200D01*
X150836286Y-84100200D02*
X150788667Y-84052580D01*
X156638666Y-86703819D02*
X156638666Y-87418104D01*
X156638666Y-87418104D02*
X156591047Y-87560961D01*
X156591047Y-87560961D02*
X156495809Y-87656200D01*
X156495809Y-87656200D02*
X156352952Y-87703819D01*
X156352952Y-87703819D02*
X156257714Y-87703819D01*
X157067238Y-86799057D02*
X157114857Y-86751438D01*
X157114857Y-86751438D02*
X157210095Y-86703819D01*
X157210095Y-86703819D02*
X157448190Y-86703819D01*
X157448190Y-86703819D02*
X157543428Y-86751438D01*
X157543428Y-86751438D02*
X157591047Y-86799057D01*
X157591047Y-86799057D02*
X157638666Y-86894295D01*
X157638666Y-86894295D02*
X157638666Y-86989533D01*
X157638666Y-86989533D02*
X157591047Y-87132390D01*
X157591047Y-87132390D02*
X157019619Y-87703819D01*
X157019619Y-87703819D02*
X157638666Y-87703819D01*
X147269580Y-87593466D02*
X147317200Y-87641085D01*
X147317200Y-87641085D02*
X147364819Y-87783942D01*
X147364819Y-87783942D02*
X147364819Y-87879180D01*
X147364819Y-87879180D02*
X147317200Y-88022037D01*
X147317200Y-88022037D02*
X147221961Y-88117275D01*
X147221961Y-88117275D02*
X147126723Y-88164894D01*
X147126723Y-88164894D02*
X146936247Y-88212513D01*
X146936247Y-88212513D02*
X146793390Y-88212513D01*
X146793390Y-88212513D02*
X146602914Y-88164894D01*
X146602914Y-88164894D02*
X146507676Y-88117275D01*
X146507676Y-88117275D02*
X146412438Y-88022037D01*
X146412438Y-88022037D02*
X146364819Y-87879180D01*
X146364819Y-87879180D02*
X146364819Y-87783942D01*
X146364819Y-87783942D02*
X146412438Y-87641085D01*
X146412438Y-87641085D02*
X146460057Y-87593466D01*
X146364819Y-87260132D02*
X146364819Y-86641085D01*
X146364819Y-86641085D02*
X146745771Y-86974418D01*
X146745771Y-86974418D02*
X146745771Y-86831561D01*
X146745771Y-86831561D02*
X146793390Y-86736323D01*
X146793390Y-86736323D02*
X146841009Y-86688704D01*
X146841009Y-86688704D02*
X146936247Y-86641085D01*
X146936247Y-86641085D02*
X147174342Y-86641085D01*
X147174342Y-86641085D02*
X147269580Y-86688704D01*
X147269580Y-86688704D02*
X147317200Y-86736323D01*
X147317200Y-86736323D02*
X147364819Y-86831561D01*
X147364819Y-86831561D02*
X147364819Y-87117275D01*
X147364819Y-87117275D02*
X147317200Y-87212513D01*
X147317200Y-87212513D02*
X147269580Y-87260132D01*
X149203580Y-90971666D02*
X149251200Y-91019285D01*
X149251200Y-91019285D02*
X149298819Y-91162142D01*
X149298819Y-91162142D02*
X149298819Y-91257380D01*
X149298819Y-91257380D02*
X149251200Y-91400237D01*
X149251200Y-91400237D02*
X149155961Y-91495475D01*
X149155961Y-91495475D02*
X149060723Y-91543094D01*
X149060723Y-91543094D02*
X148870247Y-91590713D01*
X148870247Y-91590713D02*
X148727390Y-91590713D01*
X148727390Y-91590713D02*
X148536914Y-91543094D01*
X148536914Y-91543094D02*
X148441676Y-91495475D01*
X148441676Y-91495475D02*
X148346438Y-91400237D01*
X148346438Y-91400237D02*
X148298819Y-91257380D01*
X148298819Y-91257380D02*
X148298819Y-91162142D01*
X148298819Y-91162142D02*
X148346438Y-91019285D01*
X148346438Y-91019285D02*
X148394057Y-90971666D01*
X148394057Y-90590713D02*
X148346438Y-90543094D01*
X148346438Y-90543094D02*
X148298819Y-90447856D01*
X148298819Y-90447856D02*
X148298819Y-90209761D01*
X148298819Y-90209761D02*
X148346438Y-90114523D01*
X148346438Y-90114523D02*
X148394057Y-90066904D01*
X148394057Y-90066904D02*
X148489295Y-90019285D01*
X148489295Y-90019285D02*
X148584533Y-90019285D01*
X148584533Y-90019285D02*
X148727390Y-90066904D01*
X148727390Y-90066904D02*
X149298819Y-90638332D01*
X149298819Y-90638332D02*
X149298819Y-90019285D01*
X147534333Y-77289819D02*
X147201000Y-76813628D01*
X146962905Y-77289819D02*
X146962905Y-76289819D01*
X146962905Y-76289819D02*
X147343857Y-76289819D01*
X147343857Y-76289819D02*
X147439095Y-76337438D01*
X147439095Y-76337438D02*
X147486714Y-76385057D01*
X147486714Y-76385057D02*
X147534333Y-76480295D01*
X147534333Y-76480295D02*
X147534333Y-76623152D01*
X147534333Y-76623152D02*
X147486714Y-76718390D01*
X147486714Y-76718390D02*
X147439095Y-76766009D01*
X147439095Y-76766009D02*
X147343857Y-76813628D01*
X147343857Y-76813628D02*
X146962905Y-76813628D01*
X148486714Y-77289819D02*
X147915286Y-77289819D01*
X148201000Y-77289819D02*
X148201000Y-76289819D01*
X148201000Y-76289819D02*
X148105762Y-76432676D01*
X148105762Y-76432676D02*
X148010524Y-76527914D01*
X148010524Y-76527914D02*
X147915286Y-76575533D01*
D11*
X157437667Y-77967318D02*
X157437667Y-78874461D01*
X157437667Y-78874461D02*
X157377190Y-79055889D01*
X157377190Y-79055889D02*
X157256238Y-79176842D01*
X157256238Y-79176842D02*
X157074809Y-79237318D01*
X157074809Y-79237318D02*
X156953857Y-79237318D01*
X158707667Y-79237318D02*
X157981952Y-79237318D01*
X158344809Y-79237318D02*
X158344809Y-77967318D01*
X158344809Y-77967318D02*
X158223857Y-78148746D01*
X158223857Y-78148746D02*
X158102905Y-78269699D01*
X158102905Y-78269699D02*
X157981952Y-78330175D01*
D12*
%TO.C,JP1*%
X150892000Y-77408000D02*
X150892000Y-76008000D01*
X151592000Y-75308000D02*
X152192000Y-75308000D01*
X152192000Y-78108000D02*
X151592000Y-78108000D01*
X152892000Y-76008000D02*
X152892000Y-77408000D01*
X150892000Y-76008000D02*
G75*
G02*
X151592000Y-75308000I700000J0D01*
G01*
X151592000Y-78108000D02*
G75*
G02*
X150892000Y-77408000I-1J699999D01*
G01*
X152192000Y-75308000D02*
G75*
G02*
X152892000Y-76008000I0J-700000D01*
G01*
X152892000Y-77408000D02*
G75*
G02*
X152192000Y-78108000I-699999J-1D01*
G01*
%TO.C,R2*%
X147804200Y-83878052D02*
X147804200Y-83355548D01*
X149274200Y-83878052D02*
X149274200Y-83355548D01*
%TO.C,C1*%
X162587000Y-89908748D02*
X162587000Y-90431252D01*
X164057000Y-89908748D02*
X164057000Y-90431252D01*
%TO.C,R3*%
X149836200Y-86672052D02*
X149836200Y-86149548D01*
X151306200Y-86672052D02*
X151306200Y-86149548D01*
%TO.C,J2*%
X154722000Y-82490000D02*
X154722000Y-92770000D01*
X154722000Y-92770000D02*
X159222000Y-92770000D01*
X155972000Y-82490000D02*
X154722000Y-82490000D01*
X159222000Y-82490000D02*
X157972000Y-82490000D01*
X159222000Y-92770000D02*
X159222000Y-82490000D01*
X151722000Y-82430000D02*
X162222000Y-82430000D01*
X162222000Y-92830000D01*
X151722000Y-92830000D01*
X151722000Y-82430000D01*
X157972000Y-82490000D02*
G75*
G02*
X155972000Y-82490000I-1000000J0D01*
G01*
%TO.C,C3*%
X147855000Y-87688052D02*
X147855000Y-87165548D01*
X149325000Y-87688052D02*
X149325000Y-87165548D01*
%TO.C,C2*%
X149887000Y-89959548D02*
X149887000Y-90482052D01*
X151357000Y-89959548D02*
X151357000Y-90482052D01*
%TO.C,R1*%
X148744000Y-76700748D02*
X148744000Y-77223252D01*
X150214000Y-76700748D02*
X150214000Y-77223252D01*
D13*
%TO.C,J1*%
X154386000Y-76135000D02*
X155911000Y-76135000D01*
X156261000Y-76290000D02*
X159461000Y-76290000D01*
X156261000Y-81190000D02*
X156261000Y-76290000D01*
X159461000Y-76290000D02*
X159461000Y-81190000D01*
X159461000Y-81190000D02*
X156261000Y-81190000D01*
%TD*%
%LPC*%
%TO.C,JP1*%
G36*
X151142000Y-76858000D02*
G01*
X152642000Y-76858000D01*
X152642000Y-76558000D01*
X151142000Y-76558000D01*
X151142000Y-76858000D01*
G37*
%TD*%
D14*
%TO.C,JP1*%
X151892000Y-77358000D03*
D15*
X151892000Y-76058000D03*
%TD*%
D16*
%TO.C,R2*%
X148539200Y-84654300D03*
X148539200Y-82579300D03*
%TD*%
D17*
%TO.C,C1*%
X163322000Y-89132500D03*
X163322000Y-91207500D03*
%TD*%
D16*
%TO.C,R3*%
X150571200Y-87448300D03*
X150571200Y-85373300D03*
%TD*%
D18*
%TO.C,J2*%
X153162000Y-83820000D03*
D19*
X153162000Y-86360000D03*
X153162000Y-88900000D03*
X153162000Y-91440000D03*
X160782000Y-91440000D03*
X160782000Y-88900000D03*
X160782000Y-86360000D03*
X160782000Y-83820000D03*
%TD*%
D16*
%TO.C,C3*%
X148590000Y-88464300D03*
X148590000Y-86389300D03*
%TD*%
D17*
%TO.C,C2*%
X150622000Y-89183300D03*
X150622000Y-91258300D03*
%TD*%
%TO.C,R1*%
X149479000Y-75924500D03*
X149479000Y-77999500D03*
%TD*%
D20*
%TO.C,J1*%
X155101000Y-76835000D03*
X155101000Y-78105000D03*
X155101000Y-79375000D03*
X155101000Y-80645000D03*
X160621000Y-80645000D03*
X160621000Y-79375000D03*
X160621000Y-78105000D03*
X160621000Y-76835000D03*
%TD*%
%LPD*%
M02*
