%TF.GenerationSoftware,KiCad,Pcbnew,9.0.7*%
%TF.CreationDate,2026-06-23T14:14:44+03:00*%
%TF.ProjectId,VR-Conditioner-NCV1124,56522d43-6f6e-4646-9974-696f6e65722d,rev?*%
%TF.SameCoordinates,Original*%
%TF.FileFunction,Legend,Bot*%
%TF.FilePolarity,Positive*%
%FSLAX46Y46*%
G04 Gerber Fmt 4.6, Leading zero omitted, Abs format (unit mm)*
G04 Created by KiCad (PCBNEW 9.0.7) date 2026-06-23 14:14:44*
%MOMM*%
%LPD*%
G01*
G04 APERTURE LIST*
G04 Aperture macros list*
%AMRoundRect*
0 Rectangle with rounded corners*
0 $1 Rounding radius*
0 $2 $3 $4 $5 $6 $7 $8 $9 X,Y pos of 4 corners*
0 Add a 4 corners polygon primitive as box body*
4,1,4,$2,$3,$4,$5,$6,$7,$8,$9,$2,$3,0*
0 Add four circle primitives for the rounded corners*
1,1,$1+$1,$2,$3*
1,1,$1+$1,$4,$5*
1,1,$1+$1,$6,$7*
1,1,$1+$1,$8,$9*
0 Add four rect primitives between the rounded corners*
20,1,$1+$1,$2,$3,$4,$5,0*
20,1,$1+$1,$4,$5,$6,$7,0*
20,1,$1+$1,$6,$7,$8,$9,0*
20,1,$1+$1,$8,$9,$2,$3,0*%
G04 Aperture macros list end*
%ADD10C,0.062500*%
%ADD11C,0.087500*%
%ADD12RoundRect,0.250000X-0.950000X-0.550000X0.950000X-0.550000X0.950000X0.550000X-0.950000X0.550000X0*%
%ADD13O,2.400000X1.600000*%
G04 APERTURE END LIST*
D10*
X160578131Y-76862415D02*
X160578131Y-76362415D01*
X160578131Y-76362415D02*
X160459083Y-76362415D01*
X160459083Y-76362415D02*
X160387655Y-76386225D01*
X160387655Y-76386225D02*
X160340036Y-76433844D01*
X160340036Y-76433844D02*
X160316226Y-76481463D01*
X160316226Y-76481463D02*
X160292417Y-76576701D01*
X160292417Y-76576701D02*
X160292417Y-76648129D01*
X160292417Y-76648129D02*
X160316226Y-76743367D01*
X160316226Y-76743367D02*
X160340036Y-76790986D01*
X160340036Y-76790986D02*
X160387655Y-76838606D01*
X160387655Y-76838606D02*
X160459083Y-76862415D01*
X160459083Y-76862415D02*
X160578131Y-76862415D01*
X159887655Y-76838606D02*
X159935274Y-76862415D01*
X159935274Y-76862415D02*
X160030512Y-76862415D01*
X160030512Y-76862415D02*
X160078131Y-76838606D01*
X160078131Y-76838606D02*
X160101940Y-76790986D01*
X160101940Y-76790986D02*
X160101940Y-76600510D01*
X160101940Y-76600510D02*
X160078131Y-76552891D01*
X160078131Y-76552891D02*
X160030512Y-76529082D01*
X160030512Y-76529082D02*
X159935274Y-76529082D01*
X159935274Y-76529082D02*
X159887655Y-76552891D01*
X159887655Y-76552891D02*
X159863845Y-76600510D01*
X159863845Y-76600510D02*
X159863845Y-76648129D01*
X159863845Y-76648129D02*
X160101940Y-76695748D01*
X159673369Y-76838606D02*
X159625750Y-76862415D01*
X159625750Y-76862415D02*
X159530512Y-76862415D01*
X159530512Y-76862415D02*
X159482893Y-76838606D01*
X159482893Y-76838606D02*
X159459084Y-76790986D01*
X159459084Y-76790986D02*
X159459084Y-76767177D01*
X159459084Y-76767177D02*
X159482893Y-76719558D01*
X159482893Y-76719558D02*
X159530512Y-76695748D01*
X159530512Y-76695748D02*
X159601941Y-76695748D01*
X159601941Y-76695748D02*
X159649560Y-76671939D01*
X159649560Y-76671939D02*
X159673369Y-76624320D01*
X159673369Y-76624320D02*
X159673369Y-76600510D01*
X159673369Y-76600510D02*
X159649560Y-76552891D01*
X159649560Y-76552891D02*
X159601941Y-76529082D01*
X159601941Y-76529082D02*
X159530512Y-76529082D01*
X159530512Y-76529082D02*
X159482893Y-76552891D01*
X159244798Y-76862415D02*
X159244798Y-76529082D01*
X159244798Y-76362415D02*
X159268607Y-76386225D01*
X159268607Y-76386225D02*
X159244798Y-76410034D01*
X159244798Y-76410034D02*
X159220988Y-76386225D01*
X159220988Y-76386225D02*
X159244798Y-76362415D01*
X159244798Y-76362415D02*
X159244798Y-76410034D01*
X158792417Y-76529082D02*
X158792417Y-76933844D01*
X158792417Y-76933844D02*
X158816227Y-76981463D01*
X158816227Y-76981463D02*
X158840036Y-77005272D01*
X158840036Y-77005272D02*
X158887655Y-77029082D01*
X158887655Y-77029082D02*
X158959084Y-77029082D01*
X158959084Y-77029082D02*
X159006703Y-77005272D01*
X158792417Y-76838606D02*
X158840036Y-76862415D01*
X158840036Y-76862415D02*
X158935274Y-76862415D01*
X158935274Y-76862415D02*
X158982893Y-76838606D01*
X158982893Y-76838606D02*
X159006703Y-76814796D01*
X159006703Y-76814796D02*
X159030512Y-76767177D01*
X159030512Y-76767177D02*
X159030512Y-76624320D01*
X159030512Y-76624320D02*
X159006703Y-76576701D01*
X159006703Y-76576701D02*
X158982893Y-76552891D01*
X158982893Y-76552891D02*
X158935274Y-76529082D01*
X158935274Y-76529082D02*
X158840036Y-76529082D01*
X158840036Y-76529082D02*
X158792417Y-76552891D01*
X158554322Y-76529082D02*
X158554322Y-76862415D01*
X158554322Y-76576701D02*
X158530512Y-76552891D01*
X158530512Y-76552891D02*
X158482893Y-76529082D01*
X158482893Y-76529082D02*
X158411465Y-76529082D01*
X158411465Y-76529082D02*
X158363846Y-76552891D01*
X158363846Y-76552891D02*
X158340036Y-76600510D01*
X158340036Y-76600510D02*
X158340036Y-76862415D01*
X157911465Y-76838606D02*
X157959084Y-76862415D01*
X157959084Y-76862415D02*
X158054322Y-76862415D01*
X158054322Y-76862415D02*
X158101941Y-76838606D01*
X158101941Y-76838606D02*
X158125750Y-76790986D01*
X158125750Y-76790986D02*
X158125750Y-76600510D01*
X158125750Y-76600510D02*
X158101941Y-76552891D01*
X158101941Y-76552891D02*
X158054322Y-76529082D01*
X158054322Y-76529082D02*
X157959084Y-76529082D01*
X157959084Y-76529082D02*
X157911465Y-76552891D01*
X157911465Y-76552891D02*
X157887655Y-76600510D01*
X157887655Y-76600510D02*
X157887655Y-76648129D01*
X157887655Y-76648129D02*
X158125750Y-76695748D01*
X157459084Y-76862415D02*
X157459084Y-76362415D01*
X157459084Y-76838606D02*
X157506703Y-76862415D01*
X157506703Y-76862415D02*
X157601941Y-76862415D01*
X157601941Y-76862415D02*
X157649560Y-76838606D01*
X157649560Y-76838606D02*
X157673370Y-76814796D01*
X157673370Y-76814796D02*
X157697179Y-76767177D01*
X157697179Y-76767177D02*
X157697179Y-76624320D01*
X157697179Y-76624320D02*
X157673370Y-76576701D01*
X157673370Y-76576701D02*
X157649560Y-76552891D01*
X157649560Y-76552891D02*
X157601941Y-76529082D01*
X157601941Y-76529082D02*
X157506703Y-76529082D01*
X157506703Y-76529082D02*
X157459084Y-76552891D01*
X156840037Y-76862415D02*
X156840037Y-76362415D01*
X156840037Y-76552891D02*
X156792418Y-76529082D01*
X156792418Y-76529082D02*
X156697180Y-76529082D01*
X156697180Y-76529082D02*
X156649561Y-76552891D01*
X156649561Y-76552891D02*
X156625751Y-76576701D01*
X156625751Y-76576701D02*
X156601942Y-76624320D01*
X156601942Y-76624320D02*
X156601942Y-76767177D01*
X156601942Y-76767177D02*
X156625751Y-76814796D01*
X156625751Y-76814796D02*
X156649561Y-76838606D01*
X156649561Y-76838606D02*
X156697180Y-76862415D01*
X156697180Y-76862415D02*
X156792418Y-76862415D01*
X156792418Y-76862415D02*
X156840037Y-76838606D01*
X156435275Y-76529082D02*
X156316227Y-76862415D01*
X156197180Y-76529082D02*
X156316227Y-76862415D01*
X156316227Y-76862415D02*
X156363846Y-76981463D01*
X156363846Y-76981463D02*
X156387656Y-77005272D01*
X156387656Y-77005272D02*
X156435275Y-77029082D01*
X155625752Y-76862415D02*
X155625752Y-76362415D01*
X155625752Y-76600510D02*
X155340038Y-76600510D01*
X155340038Y-76862415D02*
X155340038Y-76362415D01*
X154911466Y-76838606D02*
X154959085Y-76862415D01*
X154959085Y-76862415D02*
X155054323Y-76862415D01*
X155054323Y-76862415D02*
X155101942Y-76838606D01*
X155101942Y-76838606D02*
X155125751Y-76790986D01*
X155125751Y-76790986D02*
X155125751Y-76600510D01*
X155125751Y-76600510D02*
X155101942Y-76552891D01*
X155101942Y-76552891D02*
X155054323Y-76529082D01*
X155054323Y-76529082D02*
X154959085Y-76529082D01*
X154959085Y-76529082D02*
X154911466Y-76552891D01*
X154911466Y-76552891D02*
X154887656Y-76600510D01*
X154887656Y-76600510D02*
X154887656Y-76648129D01*
X154887656Y-76648129D02*
X155125751Y-76695748D01*
X154673371Y-76529082D02*
X154673371Y-76862415D01*
X154673371Y-76576701D02*
X154649561Y-76552891D01*
X154649561Y-76552891D02*
X154601942Y-76529082D01*
X154601942Y-76529082D02*
X154530514Y-76529082D01*
X154530514Y-76529082D02*
X154482895Y-76552891D01*
X154482895Y-76552891D02*
X154459085Y-76600510D01*
X154459085Y-76600510D02*
X154459085Y-76862415D01*
X154220990Y-76862415D02*
X154220990Y-76529082D01*
X154220990Y-76624320D02*
X154197180Y-76576701D01*
X154197180Y-76576701D02*
X154173371Y-76552891D01*
X154173371Y-76552891D02*
X154125752Y-76529082D01*
X154125752Y-76529082D02*
X154078133Y-76529082D01*
X153911466Y-76862415D02*
X153911466Y-76529082D01*
X153911466Y-76362415D02*
X153935275Y-76386225D01*
X153935275Y-76386225D02*
X153911466Y-76410034D01*
X153911466Y-76410034D02*
X153887656Y-76386225D01*
X153887656Y-76386225D02*
X153911466Y-76362415D01*
X153911466Y-76362415D02*
X153911466Y-76410034D01*
X153673371Y-76862415D02*
X153673371Y-76362415D01*
X153625752Y-76671939D02*
X153482895Y-76862415D01*
X153482895Y-76529082D02*
X153673371Y-76719558D01*
X152887657Y-76862415D02*
X152887657Y-76362415D01*
X152887657Y-76600510D02*
X152601943Y-76600510D01*
X152601943Y-76862415D02*
X152601943Y-76362415D01*
X152173371Y-76838606D02*
X152220990Y-76862415D01*
X152220990Y-76862415D02*
X152316228Y-76862415D01*
X152316228Y-76862415D02*
X152363847Y-76838606D01*
X152363847Y-76838606D02*
X152387656Y-76790986D01*
X152387656Y-76790986D02*
X152387656Y-76600510D01*
X152387656Y-76600510D02*
X152363847Y-76552891D01*
X152363847Y-76552891D02*
X152316228Y-76529082D01*
X152316228Y-76529082D02*
X152220990Y-76529082D01*
X152220990Y-76529082D02*
X152173371Y-76552891D01*
X152173371Y-76552891D02*
X152149561Y-76600510D01*
X152149561Y-76600510D02*
X152149561Y-76648129D01*
X152149561Y-76648129D02*
X152387656Y-76695748D01*
X151935276Y-76862415D02*
X151935276Y-76529082D01*
X151935276Y-76362415D02*
X151959085Y-76386225D01*
X151959085Y-76386225D02*
X151935276Y-76410034D01*
X151935276Y-76410034D02*
X151911466Y-76386225D01*
X151911466Y-76386225D02*
X151935276Y-76362415D01*
X151935276Y-76362415D02*
X151935276Y-76410034D01*
X151697181Y-76529082D02*
X151697181Y-76862415D01*
X151697181Y-76576701D02*
X151673371Y-76552891D01*
X151673371Y-76552891D02*
X151625752Y-76529082D01*
X151625752Y-76529082D02*
X151554324Y-76529082D01*
X151554324Y-76529082D02*
X151506705Y-76552891D01*
X151506705Y-76552891D02*
X151482895Y-76600510D01*
X151482895Y-76600510D02*
X151482895Y-76862415D01*
X151244800Y-76862415D02*
X151244800Y-76529082D01*
X151244800Y-76362415D02*
X151268609Y-76386225D01*
X151268609Y-76386225D02*
X151244800Y-76410034D01*
X151244800Y-76410034D02*
X151220990Y-76386225D01*
X151220990Y-76386225D02*
X151244800Y-76362415D01*
X151244800Y-76362415D02*
X151244800Y-76410034D01*
X151006705Y-76529082D02*
X151006705Y-76862415D01*
X151006705Y-76576701D02*
X150982895Y-76552891D01*
X150982895Y-76552891D02*
X150935276Y-76529082D01*
X150935276Y-76529082D02*
X150863848Y-76529082D01*
X150863848Y-76529082D02*
X150816229Y-76552891D01*
X150816229Y-76552891D02*
X150792419Y-76600510D01*
X150792419Y-76600510D02*
X150792419Y-76862415D01*
X150363848Y-76838606D02*
X150411467Y-76862415D01*
X150411467Y-76862415D02*
X150506705Y-76862415D01*
X150506705Y-76862415D02*
X150554324Y-76838606D01*
X150554324Y-76838606D02*
X150578133Y-76790986D01*
X150578133Y-76790986D02*
X150578133Y-76600510D01*
X150578133Y-76600510D02*
X150554324Y-76552891D01*
X150554324Y-76552891D02*
X150506705Y-76529082D01*
X150506705Y-76529082D02*
X150411467Y-76529082D01*
X150411467Y-76529082D02*
X150363848Y-76552891D01*
X150363848Y-76552891D02*
X150340038Y-76600510D01*
X150340038Y-76600510D02*
X150340038Y-76648129D01*
X150340038Y-76648129D02*
X150578133Y-76695748D01*
X150125753Y-76529082D02*
X150125753Y-76862415D01*
X150125753Y-76576701D02*
X150101943Y-76552891D01*
X150101943Y-76552891D02*
X150054324Y-76529082D01*
X150054324Y-76529082D02*
X149982896Y-76529082D01*
X149982896Y-76529082D02*
X149935277Y-76552891D01*
X149935277Y-76552891D02*
X149911467Y-76600510D01*
X149911467Y-76600510D02*
X149911467Y-76862415D01*
X157220989Y-77667387D02*
X157220989Y-77167387D01*
X157220989Y-77405482D02*
X156935275Y-77405482D01*
X156935275Y-77667387D02*
X156935275Y-77167387D01*
X156697179Y-77405482D02*
X156530512Y-77405482D01*
X156459084Y-77667387D02*
X156697179Y-77667387D01*
X156697179Y-77667387D02*
X156697179Y-77167387D01*
X156697179Y-77167387D02*
X156459084Y-77167387D01*
X156244798Y-77667387D02*
X156244798Y-77167387D01*
X156006703Y-77667387D02*
X156006703Y-77167387D01*
X156006703Y-77167387D02*
X155720989Y-77667387D01*
X155720989Y-77667387D02*
X155720989Y-77167387D01*
X155482893Y-77667387D02*
X155482893Y-77167387D01*
X155268607Y-77643578D02*
X155197179Y-77667387D01*
X155197179Y-77667387D02*
X155078131Y-77667387D01*
X155078131Y-77667387D02*
X155030512Y-77643578D01*
X155030512Y-77643578D02*
X155006703Y-77619768D01*
X155006703Y-77619768D02*
X154982893Y-77572149D01*
X154982893Y-77572149D02*
X154982893Y-77524530D01*
X154982893Y-77524530D02*
X155006703Y-77476911D01*
X155006703Y-77476911D02*
X155030512Y-77453101D01*
X155030512Y-77453101D02*
X155078131Y-77429292D01*
X155078131Y-77429292D02*
X155173369Y-77405482D01*
X155173369Y-77405482D02*
X155220988Y-77381673D01*
X155220988Y-77381673D02*
X155244798Y-77357863D01*
X155244798Y-77357863D02*
X155268607Y-77310244D01*
X155268607Y-77310244D02*
X155268607Y-77262625D01*
X155268607Y-77262625D02*
X155244798Y-77215006D01*
X155244798Y-77215006D02*
X155220988Y-77191197D01*
X155220988Y-77191197D02*
X155173369Y-77167387D01*
X155173369Y-77167387D02*
X155054322Y-77167387D01*
X155054322Y-77167387D02*
X154982893Y-77191197D01*
X154768608Y-77405482D02*
X154601941Y-77405482D01*
X154530513Y-77667387D02*
X154768608Y-77667387D01*
X154768608Y-77667387D02*
X154768608Y-77167387D01*
X154768608Y-77167387D02*
X154530513Y-77167387D01*
X154387655Y-77167387D02*
X154101941Y-77167387D01*
X154244798Y-77667387D02*
X154244798Y-77167387D01*
X153935275Y-77619768D02*
X153911465Y-77643578D01*
X153911465Y-77643578D02*
X153935275Y-77667387D01*
X153935275Y-77667387D02*
X153959084Y-77643578D01*
X153959084Y-77643578D02*
X153935275Y-77619768D01*
X153935275Y-77619768D02*
X153935275Y-77667387D01*
X153530513Y-77405482D02*
X153697180Y-77405482D01*
X153697180Y-77667387D02*
X153697180Y-77167387D01*
X153697180Y-77167387D02*
X153459085Y-77167387D01*
X153268609Y-77667387D02*
X153268609Y-77167387D01*
X156673369Y-78662835D02*
X156697178Y-78639026D01*
X156697178Y-78639026D02*
X156744797Y-78567597D01*
X156744797Y-78567597D02*
X156768607Y-78519978D01*
X156768607Y-78519978D02*
X156792416Y-78448550D01*
X156792416Y-78448550D02*
X156816226Y-78329502D01*
X156816226Y-78329502D02*
X156816226Y-78234264D01*
X156816226Y-78234264D02*
X156792416Y-78115216D01*
X156792416Y-78115216D02*
X156768607Y-78043788D01*
X156768607Y-78043788D02*
X156744797Y-77996169D01*
X156744797Y-77996169D02*
X156697178Y-77924740D01*
X156697178Y-77924740D02*
X156673369Y-77900930D01*
X156268607Y-78448550D02*
X156316226Y-78472359D01*
X156316226Y-78472359D02*
X156411464Y-78472359D01*
X156411464Y-78472359D02*
X156459083Y-78448550D01*
X156459083Y-78448550D02*
X156482893Y-78424740D01*
X156482893Y-78424740D02*
X156506702Y-78377121D01*
X156506702Y-78377121D02*
X156506702Y-78234264D01*
X156506702Y-78234264D02*
X156482893Y-78186645D01*
X156482893Y-78186645D02*
X156459083Y-78162835D01*
X156459083Y-78162835D02*
X156411464Y-78139026D01*
X156411464Y-78139026D02*
X156316226Y-78139026D01*
X156316226Y-78139026D02*
X156268607Y-78162835D01*
X156101941Y-78662835D02*
X156078131Y-78639026D01*
X156078131Y-78639026D02*
X156030512Y-78567597D01*
X156030512Y-78567597D02*
X156006703Y-78519978D01*
X156006703Y-78519978D02*
X155982893Y-78448550D01*
X155982893Y-78448550D02*
X155959084Y-78329502D01*
X155959084Y-78329502D02*
X155959084Y-78234264D01*
X155959084Y-78234264D02*
X155982893Y-78115216D01*
X155982893Y-78115216D02*
X156006703Y-78043788D01*
X156006703Y-78043788D02*
X156030512Y-77996169D01*
X156030512Y-77996169D02*
X156078131Y-77924740D01*
X156078131Y-77924740D02*
X156101941Y-77900930D01*
X155363846Y-78019978D02*
X155340037Y-77996169D01*
X155340037Y-77996169D02*
X155292418Y-77972359D01*
X155292418Y-77972359D02*
X155173370Y-77972359D01*
X155173370Y-77972359D02*
X155125751Y-77996169D01*
X155125751Y-77996169D02*
X155101942Y-78019978D01*
X155101942Y-78019978D02*
X155078132Y-78067597D01*
X155078132Y-78067597D02*
X155078132Y-78115216D01*
X155078132Y-78115216D02*
X155101942Y-78186645D01*
X155101942Y-78186645D02*
X155387656Y-78472359D01*
X155387656Y-78472359D02*
X155078132Y-78472359D01*
X154768609Y-77972359D02*
X154720990Y-77972359D01*
X154720990Y-77972359D02*
X154673371Y-77996169D01*
X154673371Y-77996169D02*
X154649561Y-78019978D01*
X154649561Y-78019978D02*
X154625752Y-78067597D01*
X154625752Y-78067597D02*
X154601942Y-78162835D01*
X154601942Y-78162835D02*
X154601942Y-78281883D01*
X154601942Y-78281883D02*
X154625752Y-78377121D01*
X154625752Y-78377121D02*
X154649561Y-78424740D01*
X154649561Y-78424740D02*
X154673371Y-78448550D01*
X154673371Y-78448550D02*
X154720990Y-78472359D01*
X154720990Y-78472359D02*
X154768609Y-78472359D01*
X154768609Y-78472359D02*
X154816228Y-78448550D01*
X154816228Y-78448550D02*
X154840037Y-78424740D01*
X154840037Y-78424740D02*
X154863847Y-78377121D01*
X154863847Y-78377121D02*
X154887656Y-78281883D01*
X154887656Y-78281883D02*
X154887656Y-78162835D01*
X154887656Y-78162835D02*
X154863847Y-78067597D01*
X154863847Y-78067597D02*
X154840037Y-78019978D01*
X154840037Y-78019978D02*
X154816228Y-77996169D01*
X154816228Y-77996169D02*
X154768609Y-77972359D01*
X154411466Y-78019978D02*
X154387657Y-77996169D01*
X154387657Y-77996169D02*
X154340038Y-77972359D01*
X154340038Y-77972359D02*
X154220990Y-77972359D01*
X154220990Y-77972359D02*
X154173371Y-77996169D01*
X154173371Y-77996169D02*
X154149562Y-78019978D01*
X154149562Y-78019978D02*
X154125752Y-78067597D01*
X154125752Y-78067597D02*
X154125752Y-78115216D01*
X154125752Y-78115216D02*
X154149562Y-78186645D01*
X154149562Y-78186645D02*
X154435276Y-78472359D01*
X154435276Y-78472359D02*
X154125752Y-78472359D01*
X153697181Y-77972359D02*
X153792419Y-77972359D01*
X153792419Y-77972359D02*
X153840038Y-77996169D01*
X153840038Y-77996169D02*
X153863848Y-78019978D01*
X153863848Y-78019978D02*
X153911467Y-78091407D01*
X153911467Y-78091407D02*
X153935276Y-78186645D01*
X153935276Y-78186645D02*
X153935276Y-78377121D01*
X153935276Y-78377121D02*
X153911467Y-78424740D01*
X153911467Y-78424740D02*
X153887657Y-78448550D01*
X153887657Y-78448550D02*
X153840038Y-78472359D01*
X153840038Y-78472359D02*
X153744800Y-78472359D01*
X153744800Y-78472359D02*
X153697181Y-78448550D01*
X153697181Y-78448550D02*
X153673372Y-78424740D01*
X153673372Y-78424740D02*
X153649562Y-78377121D01*
X153649562Y-78377121D02*
X153649562Y-78258073D01*
X153649562Y-78258073D02*
X153673372Y-78210454D01*
X153673372Y-78210454D02*
X153697181Y-78186645D01*
X153697181Y-78186645D02*
X153744800Y-78162835D01*
X153744800Y-78162835D02*
X153840038Y-78162835D01*
X153840038Y-78162835D02*
X153887657Y-78186645D01*
X153887657Y-78186645D02*
X153911467Y-78210454D01*
X153911467Y-78210454D02*
X153935276Y-78258073D01*
D11*
X163678863Y-81460592D02*
X163721720Y-81503450D01*
X163721720Y-81503450D02*
X163850292Y-81546307D01*
X163850292Y-81546307D02*
X163936006Y-81546307D01*
X163936006Y-81546307D02*
X164064577Y-81503450D01*
X164064577Y-81503450D02*
X164150292Y-81417735D01*
X164150292Y-81417735D02*
X164193149Y-81332021D01*
X164193149Y-81332021D02*
X164236006Y-81160592D01*
X164236006Y-81160592D02*
X164236006Y-81032021D01*
X164236006Y-81032021D02*
X164193149Y-80860592D01*
X164193149Y-80860592D02*
X164150292Y-80774878D01*
X164150292Y-80774878D02*
X164064577Y-80689164D01*
X164064577Y-80689164D02*
X163936006Y-80646307D01*
X163936006Y-80646307D02*
X163850292Y-80646307D01*
X163850292Y-80646307D02*
X163721720Y-80689164D01*
X163721720Y-80689164D02*
X163678863Y-80732021D01*
X163164577Y-81546307D02*
X163250292Y-81503450D01*
X163250292Y-81503450D02*
X163293149Y-81460592D01*
X163293149Y-81460592D02*
X163336006Y-81374878D01*
X163336006Y-81374878D02*
X163336006Y-81117735D01*
X163336006Y-81117735D02*
X163293149Y-81032021D01*
X163293149Y-81032021D02*
X163250292Y-80989164D01*
X163250292Y-80989164D02*
X163164577Y-80946307D01*
X163164577Y-80946307D02*
X163036006Y-80946307D01*
X163036006Y-80946307D02*
X162950292Y-80989164D01*
X162950292Y-80989164D02*
X162907435Y-81032021D01*
X162907435Y-81032021D02*
X162864577Y-81117735D01*
X162864577Y-81117735D02*
X162864577Y-81374878D01*
X162864577Y-81374878D02*
X162907435Y-81460592D01*
X162907435Y-81460592D02*
X162950292Y-81503450D01*
X162950292Y-81503450D02*
X163036006Y-81546307D01*
X163036006Y-81546307D02*
X163164577Y-81546307D01*
X162478863Y-81546307D02*
X162478863Y-80946307D01*
X162478863Y-81032021D02*
X162436006Y-80989164D01*
X162436006Y-80989164D02*
X162350291Y-80946307D01*
X162350291Y-80946307D02*
X162221720Y-80946307D01*
X162221720Y-80946307D02*
X162136006Y-80989164D01*
X162136006Y-80989164D02*
X162093149Y-81074878D01*
X162093149Y-81074878D02*
X162093149Y-81546307D01*
X162093149Y-81074878D02*
X162050291Y-80989164D01*
X162050291Y-80989164D02*
X161964577Y-80946307D01*
X161964577Y-80946307D02*
X161836006Y-80946307D01*
X161836006Y-80946307D02*
X161750291Y-80989164D01*
X161750291Y-80989164D02*
X161707434Y-81074878D01*
X161707434Y-81074878D02*
X161707434Y-81546307D01*
X161278863Y-80946307D02*
X161278863Y-81846307D01*
X161278863Y-80989164D02*
X161193149Y-80946307D01*
X161193149Y-80946307D02*
X161021720Y-80946307D01*
X161021720Y-80946307D02*
X160936006Y-80989164D01*
X160936006Y-80989164D02*
X160893149Y-81032021D01*
X160893149Y-81032021D02*
X160850291Y-81117735D01*
X160850291Y-81117735D02*
X160850291Y-81374878D01*
X160850291Y-81374878D02*
X160893149Y-81460592D01*
X160893149Y-81460592D02*
X160936006Y-81503450D01*
X160936006Y-81503450D02*
X161021720Y-81546307D01*
X161021720Y-81546307D02*
X161193149Y-81546307D01*
X161193149Y-81546307D02*
X161278863Y-81503450D01*
X160078863Y-81546307D02*
X160078863Y-81074878D01*
X160078863Y-81074878D02*
X160121720Y-80989164D01*
X160121720Y-80989164D02*
X160207434Y-80946307D01*
X160207434Y-80946307D02*
X160378863Y-80946307D01*
X160378863Y-80946307D02*
X160464577Y-80989164D01*
X160078863Y-81503450D02*
X160164577Y-81546307D01*
X160164577Y-81546307D02*
X160378863Y-81546307D01*
X160378863Y-81546307D02*
X160464577Y-81503450D01*
X160464577Y-81503450D02*
X160507434Y-81417735D01*
X160507434Y-81417735D02*
X160507434Y-81332021D01*
X160507434Y-81332021D02*
X160464577Y-81246307D01*
X160464577Y-81246307D02*
X160378863Y-81203450D01*
X160378863Y-81203450D02*
X160164577Y-81203450D01*
X160164577Y-81203450D02*
X160078863Y-81160592D01*
X159778862Y-80946307D02*
X159436005Y-80946307D01*
X159650291Y-80646307D02*
X159650291Y-81417735D01*
X159650291Y-81417735D02*
X159607434Y-81503450D01*
X159607434Y-81503450D02*
X159521719Y-81546307D01*
X159521719Y-81546307D02*
X159436005Y-81546307D01*
X159136005Y-81546307D02*
X159136005Y-80946307D01*
X159136005Y-80646307D02*
X159178862Y-80689164D01*
X159178862Y-80689164D02*
X159136005Y-80732021D01*
X159136005Y-80732021D02*
X159093148Y-80689164D01*
X159093148Y-80689164D02*
X159136005Y-80646307D01*
X159136005Y-80646307D02*
X159136005Y-80732021D01*
X158707434Y-81546307D02*
X158707434Y-80646307D01*
X158707434Y-80989164D02*
X158621720Y-80946307D01*
X158621720Y-80946307D02*
X158450291Y-80946307D01*
X158450291Y-80946307D02*
X158364577Y-80989164D01*
X158364577Y-80989164D02*
X158321720Y-81032021D01*
X158321720Y-81032021D02*
X158278862Y-81117735D01*
X158278862Y-81117735D02*
X158278862Y-81374878D01*
X158278862Y-81374878D02*
X158321720Y-81460592D01*
X158321720Y-81460592D02*
X158364577Y-81503450D01*
X158364577Y-81503450D02*
X158450291Y-81546307D01*
X158450291Y-81546307D02*
X158621720Y-81546307D01*
X158621720Y-81546307D02*
X158707434Y-81503450D01*
X157764576Y-81546307D02*
X157850291Y-81503450D01*
X157850291Y-81503450D02*
X157893148Y-81417735D01*
X157893148Y-81417735D02*
X157893148Y-80646307D01*
X157078862Y-81503450D02*
X157164576Y-81546307D01*
X157164576Y-81546307D02*
X157336005Y-81546307D01*
X157336005Y-81546307D02*
X157421719Y-81503450D01*
X157421719Y-81503450D02*
X157464576Y-81417735D01*
X157464576Y-81417735D02*
X157464576Y-81074878D01*
X157464576Y-81074878D02*
X157421719Y-80989164D01*
X157421719Y-80989164D02*
X157336005Y-80946307D01*
X157336005Y-80946307D02*
X157164576Y-80946307D01*
X157164576Y-80946307D02*
X157078862Y-80989164D01*
X157078862Y-80989164D02*
X157036005Y-81074878D01*
X157036005Y-81074878D02*
X157036005Y-81160592D01*
X157036005Y-81160592D02*
X157464576Y-81246307D01*
X156050290Y-80946307D02*
X155878862Y-81546307D01*
X155878862Y-81546307D02*
X155707433Y-81117735D01*
X155707433Y-81117735D02*
X155536004Y-81546307D01*
X155536004Y-81546307D02*
X155364576Y-80946307D01*
X155021719Y-81546307D02*
X155021719Y-80946307D01*
X155021719Y-80646307D02*
X155064576Y-80689164D01*
X155064576Y-80689164D02*
X155021719Y-80732021D01*
X155021719Y-80732021D02*
X154978862Y-80689164D01*
X154978862Y-80689164D02*
X155021719Y-80646307D01*
X155021719Y-80646307D02*
X155021719Y-80732021D01*
X154721719Y-80946307D02*
X154378862Y-80946307D01*
X154593148Y-80646307D02*
X154593148Y-81417735D01*
X154593148Y-81417735D02*
X154550291Y-81503450D01*
X154550291Y-81503450D02*
X154464576Y-81546307D01*
X154464576Y-81546307D02*
X154378862Y-81546307D01*
X154078862Y-81546307D02*
X154078862Y-80646307D01*
X153693148Y-81546307D02*
X153693148Y-81074878D01*
X153693148Y-81074878D02*
X153736005Y-80989164D01*
X153736005Y-80989164D02*
X153821719Y-80946307D01*
X153821719Y-80946307D02*
X153950290Y-80946307D01*
X153950290Y-80946307D02*
X154036005Y-80989164D01*
X154036005Y-80989164D02*
X154078862Y-81032021D01*
X152621719Y-81503450D02*
X152493148Y-81546307D01*
X152493148Y-81546307D02*
X152278862Y-81546307D01*
X152278862Y-81546307D02*
X152193148Y-81503450D01*
X152193148Y-81503450D02*
X152150290Y-81460592D01*
X152150290Y-81460592D02*
X152107433Y-81374878D01*
X152107433Y-81374878D02*
X152107433Y-81289164D01*
X152107433Y-81289164D02*
X152150290Y-81203450D01*
X152150290Y-81203450D02*
X152193148Y-81160592D01*
X152193148Y-81160592D02*
X152278862Y-81117735D01*
X152278862Y-81117735D02*
X152450290Y-81074878D01*
X152450290Y-81074878D02*
X152536005Y-81032021D01*
X152536005Y-81032021D02*
X152578862Y-80989164D01*
X152578862Y-80989164D02*
X152621719Y-80903450D01*
X152621719Y-80903450D02*
X152621719Y-80817735D01*
X152621719Y-80817735D02*
X152578862Y-80732021D01*
X152578862Y-80732021D02*
X152536005Y-80689164D01*
X152536005Y-80689164D02*
X152450290Y-80646307D01*
X152450290Y-80646307D02*
X152236005Y-80646307D01*
X152236005Y-80646307D02*
X152107433Y-80689164D01*
X151721719Y-80946307D02*
X151721719Y-81846307D01*
X151721719Y-80989164D02*
X151636005Y-80946307D01*
X151636005Y-80946307D02*
X151464576Y-80946307D01*
X151464576Y-80946307D02*
X151378862Y-80989164D01*
X151378862Y-80989164D02*
X151336005Y-81032021D01*
X151336005Y-81032021D02*
X151293147Y-81117735D01*
X151293147Y-81117735D02*
X151293147Y-81374878D01*
X151293147Y-81374878D02*
X151336005Y-81460592D01*
X151336005Y-81460592D02*
X151378862Y-81503450D01*
X151378862Y-81503450D02*
X151464576Y-81546307D01*
X151464576Y-81546307D02*
X151636005Y-81546307D01*
X151636005Y-81546307D02*
X151721719Y-81503450D01*
X150564576Y-81503450D02*
X150650290Y-81546307D01*
X150650290Y-81546307D02*
X150821719Y-81546307D01*
X150821719Y-81546307D02*
X150907433Y-81503450D01*
X150907433Y-81503450D02*
X150950290Y-81417735D01*
X150950290Y-81417735D02*
X150950290Y-81074878D01*
X150950290Y-81074878D02*
X150907433Y-80989164D01*
X150907433Y-80989164D02*
X150821719Y-80946307D01*
X150821719Y-80946307D02*
X150650290Y-80946307D01*
X150650290Y-80946307D02*
X150564576Y-80989164D01*
X150564576Y-80989164D02*
X150521719Y-81074878D01*
X150521719Y-81074878D02*
X150521719Y-81160592D01*
X150521719Y-81160592D02*
X150950290Y-81246307D01*
X149793147Y-81503450D02*
X149878861Y-81546307D01*
X149878861Y-81546307D02*
X150050290Y-81546307D01*
X150050290Y-81546307D02*
X150136004Y-81503450D01*
X150136004Y-81503450D02*
X150178861Y-81417735D01*
X150178861Y-81417735D02*
X150178861Y-81074878D01*
X150178861Y-81074878D02*
X150136004Y-80989164D01*
X150136004Y-80989164D02*
X150050290Y-80946307D01*
X150050290Y-80946307D02*
X149878861Y-80946307D01*
X149878861Y-80946307D02*
X149793147Y-80989164D01*
X149793147Y-80989164D02*
X149750290Y-81074878D01*
X149750290Y-81074878D02*
X149750290Y-81160592D01*
X149750290Y-81160592D02*
X150178861Y-81246307D01*
X148978861Y-81546307D02*
X148978861Y-80646307D01*
X148978861Y-81503450D02*
X149064575Y-81546307D01*
X149064575Y-81546307D02*
X149236003Y-81546307D01*
X149236003Y-81546307D02*
X149321718Y-81503450D01*
X149321718Y-81503450D02*
X149364575Y-81460592D01*
X149364575Y-81460592D02*
X149407432Y-81374878D01*
X149407432Y-81374878D02*
X149407432Y-81117735D01*
X149407432Y-81117735D02*
X149364575Y-81032021D01*
X149364575Y-81032021D02*
X149321718Y-80989164D01*
X149321718Y-80989164D02*
X149236003Y-80946307D01*
X149236003Y-80946307D02*
X149064575Y-80946307D01*
X149064575Y-80946307D02*
X148978861Y-80989164D01*
X148164575Y-80946307D02*
X148164575Y-81546307D01*
X148550289Y-80946307D02*
X148550289Y-81417735D01*
X148550289Y-81417735D02*
X148507432Y-81503450D01*
X148507432Y-81503450D02*
X148421717Y-81546307D01*
X148421717Y-81546307D02*
X148293146Y-81546307D01*
X148293146Y-81546307D02*
X148207432Y-81503450D01*
X148207432Y-81503450D02*
X148164575Y-81460592D01*
X147736003Y-81546307D02*
X147736003Y-80946307D01*
X147736003Y-80646307D02*
X147778860Y-80689164D01*
X147778860Y-80689164D02*
X147736003Y-80732021D01*
X147736003Y-80732021D02*
X147693146Y-80689164D01*
X147693146Y-80689164D02*
X147736003Y-80646307D01*
X147736003Y-80646307D02*
X147736003Y-80732021D01*
X147307432Y-80946307D02*
X147307432Y-81546307D01*
X147307432Y-81032021D02*
X147264575Y-80989164D01*
X147264575Y-80989164D02*
X147178860Y-80946307D01*
X147178860Y-80946307D02*
X147050289Y-80946307D01*
X147050289Y-80946307D02*
X146964575Y-80989164D01*
X146964575Y-80989164D02*
X146921718Y-81074878D01*
X146921718Y-81074878D02*
X146921718Y-81546307D01*
X146364574Y-81546307D02*
X146450289Y-81503450D01*
X146450289Y-81503450D02*
X146493146Y-81460592D01*
X146493146Y-81460592D02*
X146536003Y-81374878D01*
X146536003Y-81374878D02*
X146536003Y-81117735D01*
X146536003Y-81117735D02*
X146493146Y-81032021D01*
X146493146Y-81032021D02*
X146450289Y-80989164D01*
X146450289Y-80989164D02*
X146364574Y-80946307D01*
X146364574Y-80946307D02*
X146236003Y-80946307D01*
X146236003Y-80946307D02*
X146150289Y-80989164D01*
X146150289Y-80989164D02*
X146107432Y-81032021D01*
X146107432Y-81032021D02*
X146064574Y-81117735D01*
X146064574Y-81117735D02*
X146064574Y-81374878D01*
X146064574Y-81374878D02*
X146107432Y-81460592D01*
X146107432Y-81460592D02*
X146150289Y-81503450D01*
X146150289Y-81503450D02*
X146236003Y-81546307D01*
X146236003Y-81546307D02*
X146364574Y-81546307D01*
%LPC*%
D12*
%TO.C,J2*%
X153162000Y-83820000D03*
D13*
X153162000Y-86360000D03*
X153162000Y-88900000D03*
X153162000Y-91440000D03*
X160782000Y-91440000D03*
X160782000Y-88900000D03*
X160782000Y-86360000D03*
X160782000Y-83820000D03*
%TD*%
%LPD*%
M02*
