%TF.GenerationSoftware,KiCad,Pcbnew,9.0.7*%
%TF.CreationDate,2026-06-24T16:27:47+03:00*%
%TF.ProjectId,VR-Conditioner-MAX9926+reg,56522d43-6f6e-4646-9974-696f6e65722d,3.7*%
%TF.SameCoordinates,PX68c4118PY713e7a8*%
%TF.FileFunction,Copper,L1,Top*%
%TF.FilePolarity,Positive*%
%FSLAX46Y46*%
G04 Gerber Fmt 4.6, Leading zero omitted, Abs format (unit mm)*
G04 Created by KiCad (PCBNEW 9.0.7) date 2026-06-24 16:27:47*
%MOMM*%
%LPD*%
G01*
G04 APERTURE LIST*
G04 Aperture macros list*
%AMRoundRect*
0 Rectangle with rounded corners*
0 $1 Rounding radius*
0 $2 $3 $4 $5 $6 $7 $8 $9 X,Y pos of 4 corners*
0 Add a 4 corners polygon primitive as box body*
4,1,4,$2,$3,$4,$5,$6,$7,$8,$9,$2,$3,0*
0 Add four circle primitives for the rounded corners*
1,1,$1+$1,$2,$3*
1,1,$1+$1,$4,$5*
1,1,$1+$1,$6,$7*
1,1,$1+$1,$8,$9*
0 Add four rect primitives between the rounded corners*
20,1,$1+$1,$2,$3,$4,$5,0*
20,1,$1+$1,$4,$5,$6,$7,0*
20,1,$1+$1,$6,$7,$8,$9,0*
20,1,$1+$1,$8,$9,$2,$3,0*%
G04 Aperture macros list end*
%TA.AperFunction,SMDPad,CuDef*%
%ADD10RoundRect,0.218750X0.218750X0.256250X-0.218750X0.256250X-0.218750X-0.256250X0.218750X-0.256250X0*%
%TD*%
%TA.AperFunction,SMDPad,CuDef*%
%ADD11RoundRect,0.243750X-0.243750X-0.456250X0.243750X-0.456250X0.243750X0.456250X-0.243750X0.456250X0*%
%TD*%
%TA.AperFunction,SMDPad,CuDef*%
%ADD12RoundRect,0.218750X-0.218750X-0.256250X0.218750X-0.256250X0.218750X0.256250X-0.218750X0.256250X0*%
%TD*%
%TA.AperFunction,SMDPad,CuDef*%
%ADD13RoundRect,0.250000X-0.312500X-0.625000X0.312500X-0.625000X0.312500X0.625000X-0.312500X0.625000X0*%
%TD*%
%TA.AperFunction,SMDPad,CuDef*%
%ADD14C,0.500000*%
%TD*%
%TA.AperFunction,ComponentPad*%
%ADD15R,1.600000X1.600000*%
%TD*%
%TA.AperFunction,ComponentPad*%
%ADD16O,1.600000X1.600000*%
%TD*%
%TA.AperFunction,SMDPad,CuDef*%
%ADD17RoundRect,0.237500X0.287500X0.237500X-0.287500X0.237500X-0.287500X-0.237500X0.287500X-0.237500X0*%
%TD*%
%TA.AperFunction,SMDPad,CuDef*%
%ADD18R,0.354800X1.454899*%
%TD*%
%TA.AperFunction,ComponentPad*%
%ADD19C,1.600000*%
%TD*%
%TA.AperFunction,ComponentPad*%
%ADD20R,1.700000X1.700000*%
%TD*%
%TA.AperFunction,ComponentPad*%
%ADD21O,1.700000X1.700000*%
%TD*%
%TA.AperFunction,ComponentPad*%
%ADD22R,1.500000X1.500000*%
%TD*%
%TA.AperFunction,ComponentPad*%
%ADD23C,1.500000*%
%TD*%
%TA.AperFunction,ViaPad*%
%ADD24C,0.600000*%
%TD*%
%TA.AperFunction,Conductor*%
%ADD25C,0.300000*%
%TD*%
%TA.AperFunction,Conductor*%
%ADD26C,0.400000*%
%TD*%
%TA.AperFunction,Conductor*%
%ADD27C,0.160000*%
%TD*%
%TA.AperFunction,Conductor*%
%ADD28C,0.200000*%
%TD*%
G04 APERTURE END LIST*
D10*
%TO.P,C1,1*%
%TO.N,VCC*%
X20790000Y8890000D03*
%TO.P,C1,2*%
%TO.N,GND*%
X19215000Y8890000D03*
%TD*%
%TO.P,C2,1*%
%TO.N,VCC*%
X20790000Y10795000D03*
%TO.P,C2,2*%
%TO.N,GND*%
X19215000Y10795000D03*
%TD*%
%TO.P,C3,1*%
%TO.N,VCC*%
X20790000Y12700000D03*
%TO.P,C3,2*%
%TO.N,GND*%
X19215000Y12700000D03*
%TD*%
D11*
%TO.P,C4,1*%
%TO.N,+12V*%
X11127500Y8509000D03*
%TO.P,C4,2*%
%TO.N,GND*%
X13002500Y8509000D03*
%TD*%
D12*
%TO.P,C10,1*%
%TO.N,Net-(C10-Pad1)*%
X4483000Y14287500D03*
%TO.P,C10,2*%
%TO.N,Net-(C10-Pad2)*%
X6058000Y14287500D03*
%TD*%
D10*
%TO.P,C20,1*%
%TO.N,Net-(C20-Pad1)*%
X6058000Y8001000D03*
%TO.P,C20,2*%
%TO.N,Net-(C20-Pad2)*%
X4483000Y8001000D03*
%TD*%
D13*
%TO.P,R3,1*%
%TO.N,Net-(C20-Pad2)*%
X3935000Y9969500D03*
%TO.P,R3,2*%
%TO.N,Net-(J1-Pad3)*%
X6860000Y9969500D03*
%TD*%
%TO.P,R2,1*%
%TO.N,Net-(C20-Pad1)*%
X3935000Y6032500D03*
%TO.P,R2,2*%
%TO.N,Net-(J1-Pad4)*%
X6860000Y6032500D03*
%TD*%
%TO.P,R1,1*%
%TO.N,Net-(C10-Pad2)*%
X3935000Y12319000D03*
%TO.P,R1,2*%
%TO.N,Net-(J1-Pad2)*%
X6860000Y12319000D03*
%TD*%
D14*
%TO.P,FID1,*%
%TO.N,*%
X3810000Y3810000D03*
%TD*%
%TO.P,FID2,*%
%TO.N,*%
X20955000Y20955000D03*
%TD*%
D15*
%TO.P,J1,1*%
%TO.N,Net-(J1-Pad1)*%
X9207500Y16510000D03*
D16*
%TO.P,J1,2*%
%TO.N,Net-(J1-Pad2)*%
X9207500Y13970000D03*
%TO.P,J1,3*%
%TO.N,Net-(J1-Pad3)*%
X9207500Y11430000D03*
%TO.P,J1,4*%
%TO.N,Net-(J1-Pad4)*%
X9207500Y8890000D03*
%TO.P,J1,5*%
%TO.N,VCC*%
X16827500Y8890000D03*
%TO.P,J1,6*%
%TO.N,GND*%
X16827500Y11430000D03*
%TO.P,J1,7*%
%TO.N,/COUT2*%
X16827500Y13970000D03*
%TO.P,J1,8*%
%TO.N,/COUT1*%
X16827500Y16510000D03*
%TD*%
D17*
%TO.P,R10,1*%
%TO.N,VCC*%
X20877500Y16510000D03*
%TO.P,R10,2*%
%TO.N,/COUT1*%
X19127500Y16510000D03*
%TD*%
%TO.P,R20,1*%
%TO.N,VCC*%
X20877500Y14605000D03*
%TO.P,R20,2*%
%TO.N,/COUT2*%
X19127500Y14605000D03*
%TD*%
D18*
%TO.P,U1,1*%
%TO.N,GND*%
X15240000Y16056348D03*
%TO.P,U1,2*%
%TO.N,Net-(U1-Pad2)*%
X14605000Y16056348D03*
%TO.P,U1,3*%
%TO.N,GND*%
X13970000Y16056348D03*
%TO.P,U1,4*%
%TO.N,/COUT1*%
X13335000Y16056348D03*
%TO.P,U1,5*%
%TO.N,/COUT2*%
X12700000Y16056348D03*
%TO.P,U1,6*%
%TO.N,GND*%
X12065000Y16056348D03*
%TO.P,U1,7*%
%TO.N,Net-(U1-Pad7)*%
X11430000Y16056348D03*
%TO.P,U1,8*%
%TO.N,GND*%
X10795000Y16056348D03*
%TO.P,U1,9*%
%TO.N,Net-(C20-Pad2)*%
X10795000Y10613652D03*
%TO.P,U1,10*%
%TO.N,Net-(C20-Pad1)*%
X11430000Y10613652D03*
%TO.P,U1,11*%
%TO.N,GND*%
X12065000Y10613652D03*
%TO.P,U1,12*%
%TO.N,Net-(U1-Pad12)*%
X12700000Y10613652D03*
%TO.P,U1,13*%
%TO.N,GND*%
X13335000Y10613652D03*
%TO.P,U1,14*%
%TO.N,VCC*%
X13970000Y10613652D03*
%TO.P,U1,15*%
%TO.N,Net-(C10-Pad2)*%
X14605000Y10613652D03*
%TO.P,U1,16*%
%TO.N,Net-(C10-Pad1)*%
X15240000Y10613652D03*
%TD*%
D19*
%TO.P,R13,1*%
%TO.N,Net-(J1-Pad1)*%
X9525000Y20320000D03*
D16*
%TO.P,R13,2*%
%TO.N,Net-(J1-Pad2)*%
X17145000Y20320000D03*
%TD*%
D19*
%TO.P,R23,1*%
%TO.N,Net-(J1-Pad3)*%
X12700000Y19050000D03*
D16*
%TO.P,R23,2*%
%TO.N,Net-(J1-Pad4)*%
X20320000Y19050000D03*
%TD*%
D13*
%TO.P,R12,1*%
%TO.N,Net-(C10-Pad1)*%
X3935000Y16256000D03*
%TO.P,R12,2*%
%TO.N,Net-(J1-Pad1)*%
X6860000Y16256000D03*
%TD*%
D20*
%TO.P,J2,1*%
%TO.N,+12V*%
X8890000Y4445000D03*
D21*
%TO.P,J2,2*%
%TO.N,GND*%
X11430000Y4445000D03*
%TO.P,J2,3*%
%TO.N,/COUT2*%
X13970000Y4445000D03*
%TO.P,J2,4*%
%TO.N,/COUT1*%
X16510000Y4445000D03*
%TD*%
D22*
%TO.P,U2,1*%
%TO.N,GND*%
X15240000Y6650000D03*
D23*
%TO.P,U2,2*%
%TO.N,VCC*%
X12700000Y6650000D03*
%TO.P,U2,3*%
%TO.N,+12V*%
X10160000Y6650000D03*
%TD*%
D24*
%TO.N,GND*%
X13652500Y11972990D03*
X5169010Y11138010D03*
X19685000Y6985000D03*
X7089999Y3914999D03*
X6985000Y19685000D03*
X18415000Y19050000D03*
%TD*%
D25*
%TO.N,GND*%
X12065000Y15156496D02*
X12065000Y15127489D01*
X13335000Y11641101D02*
X13335000Y10613652D01*
X17462500Y10795000D02*
X16827500Y11430000D01*
X19127500Y10795000D02*
X17462500Y10795000D01*
D26*
X19127500Y10795000D02*
X19127500Y12700000D01*
X19127500Y10795000D02*
X19127500Y8890000D01*
D25*
X12065000Y15156496D02*
X12065000Y16056348D01*
X14147599Y14978897D02*
X15062401Y14978897D01*
X15240000Y15156496D02*
X15240000Y16056348D01*
X13970000Y15156496D02*
X14147599Y14978897D01*
X13970000Y16056348D02*
X13970000Y15156496D01*
X12065000Y16956199D02*
X12242599Y17133798D01*
X13792401Y17133798D02*
X13970000Y16956199D01*
X12065000Y16056348D02*
X12065000Y16956199D01*
X13970000Y16956199D02*
X13970000Y16056348D01*
X15062401Y14978897D02*
X15240000Y15156496D01*
X12242599Y17133798D02*
X13792401Y17133798D01*
X13335000Y11655490D02*
X13652500Y11972990D01*
X13335000Y10613652D02*
X13335000Y11655490D01*
X19685000Y6985000D02*
X19685000Y6985000D01*
D27*
X5169010Y11138010D02*
X5169010Y11138010D01*
D25*
X14732000Y13525500D02*
X16827500Y11430000D01*
D27*
X4453540Y11138010D02*
X4343510Y11138010D01*
D25*
X3022490Y11138010D02*
X3022490Y17627490D01*
X6985000Y19685000D02*
X6985000Y20955000D01*
X12065000Y14605000D02*
X12065000Y14605000D01*
X13652500Y11972990D02*
X12792010Y11972990D01*
X21752510Y17617490D02*
X21752510Y7782510D01*
X13335000Y10613652D02*
X13335000Y8841500D01*
X12792010Y11972990D02*
X12607990Y11972990D01*
X3022490Y11138010D02*
X3022490Y5158964D01*
X14620479Y13637021D02*
X14732000Y13525500D01*
X21590000Y17780000D02*
X21752510Y17617490D01*
X13335000Y8841500D02*
X13002500Y8509000D01*
X11430000Y6936500D02*
X11430000Y4445000D01*
X3022490Y5158964D02*
X3373964Y4807490D01*
X6985000Y20955000D02*
X7620000Y21590000D01*
D27*
X4343510Y11138010D02*
X5169010Y11138010D01*
D25*
X4082510Y4807490D02*
X4730750Y4159250D01*
X4889500Y3175000D02*
X21018500Y3175000D01*
X15240000Y6650000D02*
X14462498Y6650000D01*
X13032979Y13637021D02*
X14620479Y13637021D01*
X19685000Y6985000D02*
X15575000Y6985000D01*
X20955000Y6985000D02*
X19685000Y6985000D01*
X3175000Y17780000D02*
X6350000Y17780000D01*
X12065000Y15156496D02*
X12065000Y14605000D01*
X11430000Y4445000D02*
X12534999Y5549999D01*
X21018500Y3175000D02*
X21590000Y3746500D01*
X12065000Y14605000D02*
X11346496Y14605000D01*
X21752510Y7782510D02*
X20955000Y6985000D01*
X3022490Y17627490D02*
X3175000Y17780000D01*
X12065000Y10613652D02*
X12065000Y11641101D01*
D27*
X4343510Y11138010D02*
X3022490Y11138010D01*
D25*
X7620000Y21590000D02*
X19050000Y21590000D01*
X4730750Y4159250D02*
X4730750Y3333750D01*
X15575000Y6985000D02*
X15240000Y6650000D01*
X13002500Y8509000D02*
X11430000Y6936500D01*
X3373964Y4807490D02*
X4082510Y4807490D01*
X4730750Y3333750D02*
X4889500Y3175000D01*
X13362497Y5549999D02*
X14462498Y6650000D01*
X19050000Y21590000D02*
X19685000Y20955000D01*
X10795000Y15156496D02*
X10795000Y16056348D01*
X6350000Y17780000D02*
X6985000Y18415000D01*
X11346496Y14605000D02*
X10795000Y15156496D01*
X12534999Y5549999D02*
X13362497Y5549999D01*
X12065000Y11641101D02*
X12396889Y11972990D01*
X12065000Y14605000D02*
X13032979Y13637021D01*
X12396889Y11972990D02*
X12792010Y11972990D01*
X6985000Y18415000D02*
X6985000Y19685000D01*
D26*
%TO.N,VCC*%
X20002490Y8014990D02*
X17702510Y8014990D01*
X17702510Y8014990D02*
X16827500Y8890000D01*
D25*
X15257500Y8890000D02*
X16827500Y8890000D01*
X16321498Y8890000D02*
X16827500Y8890000D01*
D26*
X20877500Y8890000D02*
X20002490Y8014990D01*
D28*
X16827500Y8890000D02*
X17227510Y8489990D01*
D26*
X20877500Y10795000D02*
X20877500Y8890000D01*
X20877500Y12700000D02*
X20877500Y10795000D01*
X20877500Y14605000D02*
X20877500Y12700000D01*
X20877500Y16510000D02*
X20877500Y14605000D01*
D28*
X20877500Y12700000D02*
X20877500Y12545000D01*
D25*
X12700000Y6650000D02*
X14940000Y8890000D01*
X15240000Y8890000D02*
X16827500Y8890000D01*
X13970000Y10613652D02*
X13970000Y9586203D01*
X13970000Y9586203D02*
X14666203Y8890000D01*
X14940000Y8890000D02*
X15240000Y8890000D01*
X14666203Y8890000D02*
X14940000Y8890000D01*
D28*
%TO.N,Net-(C10-Pad2)*%
X14605000Y10613652D02*
X14605000Y12382500D01*
X14605000Y12382500D02*
X14160500Y12827000D01*
X10033000Y12827000D02*
X9017000Y12827000D01*
X6336244Y11183990D02*
X7383756Y11183990D01*
X9026766Y12827000D02*
X10033000Y12827000D01*
X6058000Y14287500D02*
X6058000Y13175766D01*
X6037490Y11482744D02*
X6336244Y11183990D01*
X7383756Y11183990D02*
X9026766Y12827000D01*
X6058000Y14287500D02*
X5903500Y14287500D01*
X14160500Y12827000D02*
X10033000Y12827000D01*
X6058000Y13175766D02*
X6037490Y13155256D01*
X6037490Y13155256D02*
X6037490Y11482744D01*
X5903500Y14287500D02*
X3935000Y12319000D01*
%TO.N,Net-(C10-Pad1)*%
X5070010Y15120990D02*
X9625312Y15120990D01*
X10647011Y13187011D02*
X14309621Y13187011D01*
X3935000Y16256000D02*
X5070010Y15120990D01*
X10307989Y13482989D02*
X10351033Y13482989D01*
X4483000Y14287500D02*
X4483000Y14533980D01*
X10351033Y13482989D02*
X10647011Y13187011D01*
X9625312Y15120990D02*
X10307989Y14438313D01*
X15240000Y12256632D02*
X15240000Y10613652D01*
X4483000Y14533980D02*
X5070010Y15120990D01*
X4483000Y15708000D02*
X3935000Y16256000D01*
X14309621Y13187011D02*
X15240000Y12256632D01*
X10307989Y14438313D02*
X10307989Y13482989D01*
%TO.N,Net-(C20-Pad2)*%
X10795000Y10613652D02*
X10214348Y10033000D01*
X8582266Y10033000D02*
X7529633Y8980367D01*
X4292500Y9612000D02*
X3935000Y9969500D01*
X7383756Y8834490D02*
X7529633Y8980367D01*
X5070010Y8834490D02*
X7383756Y8834490D01*
X4483000Y8001000D02*
X4483000Y8247480D01*
X3935000Y9969500D02*
X4729750Y9174750D01*
X10214348Y10033000D02*
X8582266Y10033000D01*
X4729750Y9174750D02*
X5070010Y8834490D01*
X4483000Y8247480D02*
X5070010Y8834490D01*
%TO.N,Net-(C20-Pad1)*%
X10267501Y9117995D02*
X10775707Y9626201D01*
X10775707Y9626201D02*
X11180401Y9626201D01*
X6336244Y4897490D02*
X7383756Y4897490D01*
X7383756Y4897490D02*
X7682510Y5196244D01*
X6037490Y5196244D02*
X6336244Y4897490D01*
X11180401Y9626201D02*
X11430000Y9875800D01*
X7682510Y5777510D02*
X10267501Y8362501D01*
X6058000Y6889266D02*
X6037490Y6868756D01*
X6058000Y8001000D02*
X6058000Y6889266D01*
X6058000Y8001000D02*
X5903500Y8001000D01*
X6037490Y6868756D02*
X6037490Y5196244D01*
X10267501Y8362501D02*
X10267501Y9117995D01*
X11430000Y9875800D02*
X11430000Y10613652D01*
X5903500Y8001000D02*
X3935000Y6032500D01*
X7682510Y5196244D02*
X7682510Y5777510D01*
%TO.N,Net-(J1-Pad4)*%
X9207500Y8380000D02*
X9207500Y8890000D01*
X6860000Y6032500D02*
X9207500Y8380000D01*
D27*
%TO.N,Net-(J1-Pad3)*%
X6860000Y9969500D02*
X7747000Y9969500D01*
X7747000Y9969500D02*
X9207500Y11430000D01*
D28*
%TO.N,Net-(J1-Pad2)*%
X6860000Y12319000D02*
X7556500Y12319000D01*
X7556500Y12319000D02*
X9207500Y13970000D01*
%TO.N,Net-(J1-Pad1)*%
X8953500Y16256000D02*
X9207500Y16510000D01*
X6860000Y16256000D02*
X8953500Y16256000D01*
%TO.N,/COUT1*%
X19127500Y16510000D02*
X16827500Y16510000D01*
X13335000Y16056348D02*
X13335000Y15128899D01*
X16827500Y16107586D02*
X16827500Y16510000D01*
X13335000Y15128899D02*
X13935012Y14528887D01*
X15248802Y14528888D02*
X16827500Y16107586D01*
X13935012Y14528887D02*
X15248802Y14528888D01*
D27*
X16827500Y16234996D02*
X16827500Y16510000D01*
D28*
%TO.N,/COUT2*%
X13741866Y14087033D02*
X16710467Y14087033D01*
X12700000Y16056348D02*
X12700000Y15128899D01*
X16710467Y14087033D02*
X16827500Y13970000D01*
X12700000Y15128899D02*
X13741866Y14087033D01*
X19127500Y14605000D02*
X17462500Y14605000D01*
X17462500Y14605000D02*
X16827500Y13970000D01*
D25*
%TO.N,+12V*%
X10160000Y5715000D02*
X8890000Y4445000D01*
X11127500Y8509000D02*
X11127500Y7617500D01*
X11127500Y7617500D02*
X10160000Y6650000D01*
X10160000Y6650000D02*
X10160000Y5715000D01*
%TD*%
%TA.AperFunction,Conductor*%
%TO.N,GND*%
G36*
X22067139Y14306185D02*
G01*
X22124116Y14263828D01*
X22149148Y14197390D01*
X22149500Y14187983D01*
X22149500Y3814956D01*
X22149112Y3805070D01*
X22135571Y3633025D01*
X22132478Y3613497D01*
X22093351Y3450521D01*
X22087241Y3431717D01*
X22023102Y3276872D01*
X22014126Y3259255D01*
X21926549Y3116342D01*
X21914927Y3100347D01*
X21806079Y2972902D01*
X21792098Y2958921D01*
X21664653Y2850073D01*
X21648658Y2838451D01*
X21505745Y2750874D01*
X21488128Y2741898D01*
X21333283Y2677759D01*
X21314479Y2671649D01*
X21151503Y2632522D01*
X21131975Y2629429D01*
X20959930Y2615888D01*
X20950044Y2615500D01*
X3814956Y2615500D01*
X3805070Y2615888D01*
X3633024Y2629429D01*
X3613496Y2632522D01*
X3450520Y2671649D01*
X3431716Y2677759D01*
X3276871Y2741898D01*
X3259254Y2750874D01*
X3116341Y2838451D01*
X3100346Y2850073D01*
X2972901Y2958921D01*
X2958920Y2972902D01*
X2861898Y3086500D01*
X2850070Y3100349D01*
X2838450Y3116342D01*
X2836238Y3119951D01*
X2750872Y3259256D01*
X2741897Y3276872D01*
X2677758Y3431717D01*
X2671648Y3450521D01*
X2632521Y3613497D01*
X2629428Y3633025D01*
X2615888Y3805070D01*
X2615500Y3814956D01*
X2615500Y3875892D01*
X3309500Y3875892D01*
X3309500Y3744108D01*
X3320218Y3704107D01*
X3343607Y3616817D01*
X3343610Y3616810D01*
X3409497Y3502690D01*
X3409505Y3502680D01*
X3502679Y3409506D01*
X3502684Y3409502D01*
X3502686Y3409500D01*
X3502687Y3409499D01*
X3502689Y3409498D01*
X3582906Y3363185D01*
X3616814Y3343608D01*
X3744108Y3309500D01*
X3744110Y3309500D01*
X3875890Y3309500D01*
X3875892Y3309500D01*
X4003186Y3343608D01*
X4117314Y3409500D01*
X4210500Y3502686D01*
X4276392Y3616814D01*
X4310500Y3744108D01*
X4310500Y3875892D01*
X4276392Y4003186D01*
X4210500Y4117314D01*
X4210498Y4117316D01*
X4210494Y4117321D01*
X4117320Y4210495D01*
X4117310Y4210503D01*
X4003190Y4276390D01*
X4003187Y4276391D01*
X4003186Y4276392D01*
X4003184Y4276393D01*
X4003183Y4276393D01*
X3956165Y4288991D01*
X3875892Y4310500D01*
X3744108Y4310500D01*
X3675894Y4292223D01*
X3616816Y4276393D01*
X3616809Y4276390D01*
X3502689Y4210503D01*
X3502679Y4210495D01*
X3409505Y4117321D01*
X3409497Y4117311D01*
X3343610Y4003191D01*
X3343607Y4003184D01*
X3328017Y3945000D01*
X3309500Y3875892D01*
X2615500Y3875892D01*
X2615500Y5316282D01*
X2635502Y5384403D01*
X2689158Y5430896D01*
X2759432Y5441000D01*
X2824012Y5411506D01*
X2862396Y5351780D01*
X2866848Y5329087D01*
X2874612Y5253075D01*
X2930385Y5084762D01*
X3023470Y4933848D01*
X3023475Y4933842D01*
X3148841Y4808476D01*
X3148847Y4808471D01*
X3148848Y4808470D01*
X3299762Y4715385D01*
X3468074Y4659613D01*
X3571955Y4649000D01*
X4298044Y4649001D01*
X4401926Y4659613D01*
X4570238Y4715385D01*
X4721152Y4808470D01*
X4846530Y4933848D01*
X4939615Y5084762D01*
X4995387Y5253074D01*
X5006000Y5356955D01*
X5005999Y6190761D01*
X5014782Y6220676D01*
X5021411Y6251145D01*
X5025225Y6256241D01*
X5026001Y6258881D01*
X5042904Y6279855D01*
X5213895Y6450846D01*
X5276207Y6484872D01*
X5347022Y6479807D01*
X5403858Y6437260D01*
X5428669Y6370740D01*
X5428990Y6361751D01*
X5428990Y5276354D01*
X5428990Y5116134D01*
X5470458Y4961371D01*
X5470459Y4961369D01*
X5470460Y4961367D01*
X5550565Y4822621D01*
X5550573Y4822611D01*
X5962610Y4410574D01*
X5962615Y4410570D01*
X5962617Y4410568D01*
X6101371Y4330458D01*
X6175856Y4310500D01*
X6256133Y4288990D01*
X6256134Y4288990D01*
X7405500Y4288990D01*
X7473621Y4268988D01*
X7520114Y4215332D01*
X7531500Y4162990D01*
X7531500Y3546351D01*
X7538009Y3485804D01*
X7538011Y3485796D01*
X7589110Y3348798D01*
X7589112Y3348793D01*
X7676738Y3231739D01*
X7793792Y3144113D01*
X7793794Y3144112D01*
X7793796Y3144111D01*
X7852875Y3122076D01*
X7930795Y3093012D01*
X7930803Y3093010D01*
X7991350Y3086501D01*
X7991355Y3086501D01*
X7991362Y3086500D01*
X7991368Y3086500D01*
X9788632Y3086500D01*
X9788638Y3086500D01*
X9788645Y3086501D01*
X9788649Y3086501D01*
X9849196Y3093010D01*
X9849199Y3093011D01*
X9849201Y3093011D01*
X9986204Y3144111D01*
X10042199Y3186028D01*
X10103261Y3231739D01*
X10190886Y3348792D01*
X10190885Y3348792D01*
X10190889Y3348796D01*
X10235062Y3467229D01*
X10277607Y3524060D01*
X10344127Y3548871D01*
X10413502Y3533779D01*
X10442211Y3512287D01*
X10545320Y3409178D01*
X10718249Y3283537D01*
X10908707Y3186494D01*
X10908713Y3186491D01*
X11111998Y3120440D01*
X11176000Y3110304D01*
X11176000Y4014298D01*
X11237007Y3979075D01*
X11364174Y3945000D01*
X11495826Y3945000D01*
X11622993Y3979075D01*
X11684000Y4014298D01*
X11684000Y3110304D01*
X11748001Y3120440D01*
X11951286Y3186491D01*
X11951292Y3186494D01*
X12141750Y3283537D01*
X12314679Y3409178D01*
X12465822Y3560321D01*
X12591460Y3733246D01*
X12592261Y3734552D01*
X12592695Y3734946D01*
X12594376Y3737258D01*
X12594861Y3736906D01*
X12644900Y3782193D01*
X12714940Y3793812D01*
X12780142Y3765720D01*
X12805097Y3736925D01*
X12805196Y3736996D01*
X12806025Y3735855D01*
X12807136Y3734573D01*
X12808103Y3732994D01*
X12810642Y3729500D01*
X12933794Y3559996D01*
X12933796Y3559994D01*
X12933798Y3559991D01*
X13084990Y3408799D01*
X13084993Y3408797D01*
X13084996Y3408794D01*
X13257991Y3283106D01*
X13448517Y3186028D01*
X13651878Y3119953D01*
X13651879Y3119953D01*
X13651884Y3119951D01*
X13863084Y3086500D01*
X13863087Y3086500D01*
X14076913Y3086500D01*
X14076916Y3086500D01*
X14288116Y3119951D01*
X14491483Y3186028D01*
X14682009Y3283106D01*
X14855004Y3408794D01*
X15006206Y3559996D01*
X15131894Y3732991D01*
X15131899Y3733003D01*
X15132561Y3734080D01*
X15132924Y3734409D01*
X15134804Y3736996D01*
X15135347Y3736602D01*
X15185204Y3781717D01*
X15255244Y3793330D01*
X15320445Y3765234D01*
X15345021Y3736870D01*
X15345196Y3736996D01*
X15346668Y3734970D01*
X15347439Y3734080D01*
X15348104Y3732994D01*
X15348106Y3732991D01*
X15473794Y3559996D01*
X15473796Y3559994D01*
X15473798Y3559991D01*
X15624990Y3408799D01*
X15624993Y3408797D01*
X15624996Y3408794D01*
X15797991Y3283106D01*
X15988517Y3186028D01*
X16191878Y3119953D01*
X16191879Y3119953D01*
X16191884Y3119951D01*
X16403084Y3086500D01*
X16403087Y3086500D01*
X16616913Y3086500D01*
X16616916Y3086500D01*
X16828116Y3119951D01*
X17031483Y3186028D01*
X17222009Y3283106D01*
X17395004Y3408794D01*
X17546206Y3559996D01*
X17671894Y3732991D01*
X17768972Y3923517D01*
X17835049Y4126884D01*
X17868500Y4338084D01*
X17868500Y4551916D01*
X17835049Y4763116D01*
X17768972Y4966483D01*
X17671894Y5157009D01*
X17671891Y5157013D01*
X17650622Y5186287D01*
X18334500Y5186287D01*
X18334500Y4973713D01*
X18367754Y4763757D01*
X18433443Y4561588D01*
X18529949Y4372184D01*
X18529951Y4372181D01*
X18560840Y4329666D01*
X18654896Y4200208D01*
X18654898Y4200206D01*
X18654900Y4200203D01*
X18805202Y4049901D01*
X18805205Y4049899D01*
X18805208Y4049896D01*
X18977184Y3924949D01*
X19166588Y3828443D01*
X19368757Y3762754D01*
X19578713Y3729500D01*
X19578716Y3729500D01*
X19791284Y3729500D01*
X19791287Y3729500D01*
X20001243Y3762754D01*
X20203412Y3828443D01*
X20392816Y3924949D01*
X20564792Y4049896D01*
X20715104Y4200208D01*
X20840051Y4372184D01*
X20936557Y4561588D01*
X21002246Y4763757D01*
X21035500Y4973713D01*
X21035500Y5186287D01*
X21002246Y5396243D01*
X20936557Y5598412D01*
X20840051Y5787816D01*
X20715104Y5959792D01*
X20715101Y5959795D01*
X20715099Y5959798D01*
X20564797Y6110100D01*
X20564794Y6110102D01*
X20564792Y6110104D01*
X20392816Y6235051D01*
X20203412Y6331557D01*
X20001243Y6397246D01*
X19791287Y6430500D01*
X19578713Y6430500D01*
X19368757Y6397246D01*
X19368754Y6397246D01*
X19368753Y6397245D01*
X19166588Y6331557D01*
X19166586Y6331556D01*
X18977180Y6235049D01*
X18805205Y6110102D01*
X18805202Y6110100D01*
X18654900Y5959798D01*
X18654898Y5959795D01*
X18529951Y5787820D01*
X18433444Y5598414D01*
X18433443Y5598412D01*
X18376282Y5422488D01*
X18367754Y5396243D01*
X18334500Y5186287D01*
X17650622Y5186287D01*
X17627173Y5218562D01*
X17546206Y5330004D01*
X17546203Y5330007D01*
X17546201Y5330010D01*
X17395009Y5481202D01*
X17395006Y5481204D01*
X17395004Y5481206D01*
X17264781Y5575818D01*
X17222012Y5606892D01*
X17222011Y5606893D01*
X17222009Y5606894D01*
X17031483Y5703972D01*
X17031480Y5703973D01*
X17031478Y5703974D01*
X16828120Y5770048D01*
X16828123Y5770048D01*
X16792408Y5775705D01*
X16616916Y5803500D01*
X16616913Y5803500D01*
X16616900Y5803502D01*
X16614097Y5803723D01*
X16613096Y5804105D01*
X16612026Y5804274D01*
X16612061Y5804500D01*
X16547759Y5829017D01*
X16505627Y5886161D01*
X16498000Y5929333D01*
X16498000Y6396000D01*
X15551686Y6396000D01*
X15560080Y6404394D01*
X15612741Y6495606D01*
X15640000Y6597339D01*
X15640000Y6702661D01*
X15612741Y6804394D01*
X15560080Y6895606D01*
X15551686Y6904000D01*
X16498000Y6904000D01*
X16498000Y7448586D01*
X16497999Y7448604D01*
X16497136Y7456627D01*
X16509738Y7526496D01*
X16558113Y7578461D01*
X16626904Y7596022D01*
X16642111Y7594553D01*
X16724519Y7581500D01*
X16724522Y7581500D01*
X16930478Y7581500D01*
X16930481Y7581500D01*
X17042789Y7599289D01*
X17113198Y7590190D01*
X17151591Y7563938D01*
X17250867Y7464662D01*
X17366909Y7387125D01*
X17457467Y7349615D01*
X17495848Y7333717D01*
X17564288Y7320104D01*
X17632728Y7306490D01*
X17632729Y7306490D01*
X17632733Y7306490D01*
X20072267Y7306490D01*
X20072272Y7306490D01*
X20140711Y7320104D01*
X20209152Y7333717D01*
X20247533Y7349615D01*
X20338091Y7387125D01*
X20454133Y7464662D01*
X20859066Y7869597D01*
X20921379Y7903621D01*
X20948162Y7906501D01*
X21057210Y7906501D01*
X21156814Y7916676D01*
X21318192Y7970151D01*
X21462887Y8059400D01*
X21583100Y8179613D01*
X21672349Y8324308D01*
X21725824Y8485686D01*
X21736000Y8585289D01*
X21735999Y9194710D01*
X21725824Y9294314D01*
X21672349Y9455692D01*
X21660802Y9474413D01*
X21604759Y9565274D01*
X21586000Y9631420D01*
X21586000Y10053582D01*
X21604758Y10119728D01*
X21672349Y10229308D01*
X21725824Y10390686D01*
X21736000Y10490289D01*
X21735999Y11099710D01*
X21725824Y11199314D01*
X21672349Y11360692D01*
X21646478Y11402636D01*
X21604759Y11470274D01*
X21586000Y11536420D01*
X21586000Y11958582D01*
X21604758Y12024728D01*
X21672349Y12134308D01*
X21725824Y12295686D01*
X21736000Y12395289D01*
X21735999Y13004710D01*
X21725824Y13104314D01*
X21672349Y13265692D01*
X21635305Y13325750D01*
X21604759Y13375274D01*
X21599987Y13392100D01*
X21591104Y13405922D01*
X21586000Y13441420D01*
X21586000Y13681882D01*
X21606002Y13750003D01*
X21626358Y13772451D01*
X21625657Y13773152D01*
X21754152Y13901648D01*
X21754158Y13901654D01*
X21845709Y14050080D01*
X21900562Y14215619D01*
X21900562Y14215623D01*
X21902725Y14222149D01*
X21904240Y14221647D01*
X21934108Y14276781D01*
X21996307Y14311014D01*
X22067139Y14306185D01*
G37*
%TD.AperFunction*%
%TA.AperFunction,Conductor*%
G36*
X11502598Y6195875D02*
G01*
X11542264Y6150098D01*
X11562643Y6110104D01*
X11623636Y5990399D01*
X11672754Y5922794D01*
X11696612Y5855926D01*
X11684000Y5801689D01*
X11684000Y4875703D01*
X11622993Y4910925D01*
X11495826Y4945000D01*
X11364174Y4945000D01*
X11237007Y4910925D01*
X11176000Y4875703D01*
X11176000Y5800946D01*
X11168542Y5812370D01*
X11168034Y5883365D01*
X11187246Y5922794D01*
X11236366Y5990402D01*
X11317734Y6150098D01*
X11366481Y6201710D01*
X11435396Y6218776D01*
X11502598Y6195875D01*
G37*
%TD.AperFunction*%
%TA.AperFunction,Conductor*%
G36*
X15494000Y5398755D02*
G01*
X15487945Y5378136D01*
X15486767Y5356679D01*
X15475179Y5334660D01*
X15473998Y5330634D01*
X15470102Y5324923D01*
X15348106Y5157009D01*
X15346737Y5154324D01*
X15342102Y5147913D01*
X15317692Y5129003D01*
X15294787Y5108279D01*
X15289895Y5107469D01*
X15285977Y5104433D01*
X15255216Y5101722D01*
X15224745Y5096672D01*
X15220192Y5098635D01*
X15215254Y5098199D01*
X15187910Y5112549D01*
X15159547Y5124774D01*
X15155320Y5129652D01*
X15152389Y5131190D01*
X15149351Y5136540D01*
X15134976Y5153130D01*
X15134804Y5153004D01*
X15133341Y5155018D01*
X15132566Y5155912D01*
X15131896Y5157004D01*
X15131894Y5157009D01*
X15010064Y5324694D01*
X14986205Y5391562D01*
X14986000Y5398755D01*
X14986000Y6338314D01*
X14994394Y6329920D01*
X15085606Y6277259D01*
X15187339Y6250000D01*
X15292661Y6250000D01*
X15394394Y6277259D01*
X15485606Y6329920D01*
X15494000Y6338314D01*
X15494000Y5398755D01*
G37*
%TD.AperFunction*%
%TA.AperFunction,Conductor*%
G36*
X2824012Y9348506D02*
G01*
X2862396Y9288780D01*
X2866848Y9266087D01*
X2874612Y9190075D01*
X2930385Y9021762D01*
X3023470Y8870848D01*
X3023475Y8870842D01*
X3148841Y8745476D01*
X3148847Y8745471D01*
X3148848Y8745470D01*
X3299762Y8652385D01*
X3468074Y8596613D01*
X3468076Y8596613D01*
X3474603Y8594450D01*
X3473812Y8592066D01*
X3526107Y8563739D01*
X3560342Y8501542D01*
X3556917Y8434714D01*
X3547176Y8405317D01*
X3547175Y8405314D01*
X3537000Y8305720D01*
X3537000Y7696290D01*
X3547175Y7596689D01*
X3556917Y7567290D01*
X3559357Y7496335D01*
X3523048Y7435325D01*
X3473880Y7409738D01*
X3474605Y7407551D01*
X3299761Y7349615D01*
X3148847Y7256530D01*
X3148841Y7256525D01*
X3023475Y7131159D01*
X3023470Y7131153D01*
X2930385Y6980238D01*
X2874613Y6811928D01*
X2874612Y6811921D01*
X2866847Y6735919D01*
X2840025Y6670184D01*
X2781921Y6629386D01*
X2710984Y6626477D01*
X2649736Y6662382D01*
X2617622Y6725700D01*
X2615500Y6748726D01*
X2615500Y9253282D01*
X2635502Y9321403D01*
X2689158Y9367896D01*
X2759432Y9378000D01*
X2824012Y9348506D01*
G37*
%TD.AperFunction*%
%TA.AperFunction,Conductor*%
G36*
X15692455Y8211498D02*
G01*
X15726270Y8179561D01*
X15743203Y8156254D01*
X15778218Y8108061D01*
X15802076Y8041193D01*
X15785996Y7972042D01*
X15735082Y7922562D01*
X15676282Y7908000D01*
X15494000Y7908000D01*
X15494000Y6961686D01*
X15485606Y6970080D01*
X15394394Y7022741D01*
X15292661Y7050000D01*
X15187339Y7050000D01*
X15085606Y7022741D01*
X14994394Y6970080D01*
X14986000Y6961686D01*
X14986000Y7952551D01*
X14994783Y7982467D01*
X15001412Y8012936D01*
X15005226Y8018032D01*
X15006002Y8020672D01*
X15022905Y8041646D01*
X15175854Y8194595D01*
X15238166Y8228621D01*
X15264949Y8231500D01*
X15624334Y8231500D01*
X15692455Y8211498D01*
G37*
%TD.AperFunction*%
%TA.AperFunction,Conductor*%
G36*
X18246486Y13852951D02*
G01*
X18279421Y13852481D01*
X18281967Y13850946D01*
X18284466Y13850804D01*
X18316196Y13834088D01*
X18324255Y13828241D01*
X18374154Y13778342D01*
X18500098Y13700658D01*
X18503923Y13697883D01*
X18522845Y13673377D01*
X18543553Y13650354D01*
X18544335Y13645546D01*
X18547313Y13641689D01*
X18549983Y13610839D01*
X18554956Y13580279D01*
X18553014Y13575812D01*
X18553435Y13570957D01*
X18539000Y13543558D01*
X18526663Y13515163D01*
X18522614Y13512455D01*
X18520344Y13508144D01*
X18519024Y13506804D01*
X18422295Y13410075D01*
X18333107Y13265480D01*
X18279669Y13104211D01*
X18279668Y13104207D01*
X18269500Y13004682D01*
X18269500Y12954000D01*
X19089000Y12954000D01*
X19157121Y12933998D01*
X19203614Y12880342D01*
X19215000Y12828000D01*
X19215000Y12700000D01*
X19343000Y12700000D01*
X19411121Y12679998D01*
X19457614Y12626342D01*
X19469000Y12574000D01*
X19469000Y9016000D01*
X19448998Y8947879D01*
X19395342Y8901386D01*
X19343000Y8890000D01*
X19087000Y8890000D01*
X19018879Y8910002D01*
X18972386Y8963658D01*
X18961000Y9016000D01*
X18961000Y10541000D01*
X18269501Y10541000D01*
X18269501Y10490327D01*
X18279668Y10390792D01*
X18333107Y10229522D01*
X18422295Y10084926D01*
X18422300Y10084920D01*
X18542419Y9964801D01*
X18542428Y9964794D01*
X18566833Y9949740D01*
X18614311Y9896953D01*
X18625713Y9826878D01*
X18597419Y9761763D01*
X18566833Y9735260D01*
X18542428Y9720207D01*
X18542419Y9720200D01*
X18422300Y9600081D01*
X18422295Y9600075D01*
X18333105Y9455476D01*
X18295595Y9342276D01*
X18255182Y9283905D01*
X18189625Y9256649D01*
X18119740Y9269162D01*
X18067714Y9317472D01*
X18056158Y9342972D01*
X18054360Y9348506D01*
X18040134Y9392290D01*
X17946629Y9575803D01*
X17825568Y9742430D01*
X17825565Y9742433D01*
X17825563Y9742436D01*
X17679935Y9888064D01*
X17679932Y9888066D01*
X17679930Y9888068D01*
X17513303Y10009129D01*
X17329790Y10102634D01*
X17329787Y10102635D01*
X17329785Y10102636D01*
X17133912Y10166279D01*
X17133910Y10166280D01*
X17133908Y10166280D01*
X16930481Y10198500D01*
X16724519Y10198500D01*
X16521092Y10166280D01*
X16521090Y10166280D01*
X16521087Y10166279D01*
X16325214Y10102636D01*
X16325208Y10102633D01*
X16141695Y10009128D01*
X16125959Y9997695D01*
X16059090Y9973838D01*
X15989939Y9989920D01*
X15940460Y10040835D01*
X15925900Y10099633D01*
X15925900Y11099682D01*
X18269500Y11099682D01*
X18269500Y11049000D01*
X18961000Y11049000D01*
X18961000Y12446000D01*
X18269501Y12446000D01*
X18269501Y12395327D01*
X18279668Y12295792D01*
X18333107Y12134522D01*
X18422295Y11989926D01*
X18422300Y11989920D01*
X18542419Y11869801D01*
X18542428Y11869794D01*
X18566833Y11854740D01*
X18614311Y11801953D01*
X18625713Y11731878D01*
X18597419Y11666763D01*
X18566833Y11640260D01*
X18542428Y11625207D01*
X18542419Y11625200D01*
X18422300Y11505081D01*
X18422295Y11505075D01*
X18333107Y11360480D01*
X18279669Y11199211D01*
X18279668Y11199207D01*
X18269500Y11099682D01*
X15925900Y11099682D01*
X15925900Y11389735D01*
X15925899Y11389752D01*
X15919390Y11450299D01*
X15919388Y11450307D01*
X15877409Y11562854D01*
X15868289Y11587306D01*
X15868286Y11587309D01*
X15863968Y11595220D01*
X15867282Y11597030D01*
X15848793Y11647094D01*
X15848500Y11655679D01*
X15848500Y12336742D01*
X15848500Y12336743D01*
X15807032Y12491504D01*
X15763291Y12567266D01*
X15759403Y12574000D01*
X15726924Y12630256D01*
X15726919Y12630262D01*
X15423183Y12933998D01*
X15093741Y13263440D01*
X15059718Y13325750D01*
X15064782Y13396565D01*
X15107329Y13453401D01*
X15173849Y13478212D01*
X15182838Y13478533D01*
X15532139Y13478533D01*
X15600260Y13458531D01*
X15644404Y13409738D01*
X15708371Y13284197D01*
X15829432Y13117570D01*
X15829434Y13117568D01*
X15829436Y13117565D01*
X15975064Y12971937D01*
X15975067Y12971935D01*
X15975070Y12971932D01*
X16141697Y12850871D01*
X16325210Y12757366D01*
X16521092Y12693720D01*
X16724519Y12661500D01*
X16724522Y12661500D01*
X16930478Y12661500D01*
X16930481Y12661500D01*
X17133908Y12693720D01*
X17329790Y12757366D01*
X17513303Y12850871D01*
X17679930Y12971932D01*
X17825568Y13117570D01*
X17946629Y13284197D01*
X18040134Y13467710D01*
X18103780Y13663592D01*
X18117753Y13751818D01*
X18118931Y13754303D01*
X18118694Y13757046D01*
X18134052Y13786200D01*
X18148164Y13815967D01*
X18150501Y13817423D01*
X18151785Y13819859D01*
X18180467Y13836082D01*
X18208432Y13853494D01*
X18211184Y13853455D01*
X18213583Y13854811D01*
X18246486Y13852951D01*
G37*
%TD.AperFunction*%
%TA.AperFunction,Conductor*%
G36*
X5347022Y12766307D02*
G01*
X5403858Y12723760D01*
X5428669Y12657240D01*
X5428990Y12648251D01*
X5428990Y11562854D01*
X5428990Y11402634D01*
X5470458Y11247871D01*
X5470459Y11247869D01*
X5470460Y11247867D01*
X5550565Y11109121D01*
X5550567Y11109119D01*
X5550568Y11109117D01*
X5772321Y10887364D01*
X5806345Y10825053D01*
X5802833Y10758646D01*
X5799613Y10748929D01*
X5799612Y10748924D01*
X5789000Y10645054D01*
X5789000Y10645046D01*
X5789000Y10645045D01*
X5789000Y10053582D01*
X5789001Y9568990D01*
X5768999Y9500869D01*
X5715343Y9454376D01*
X5663001Y9442990D01*
X5374249Y9442990D01*
X5306128Y9462992D01*
X5285154Y9479895D01*
X5042904Y9722145D01*
X5008878Y9784457D01*
X5005999Y9811240D01*
X5005999Y10645045D01*
X4995387Y10748926D01*
X4970161Y10825053D01*
X4939615Y10917238D01*
X4846530Y11068152D01*
X4846528Y11068154D01*
X4842677Y11074398D01*
X4844382Y11075450D01*
X4821592Y11131932D01*
X4834838Y11201682D01*
X4842779Y11214039D01*
X4842677Y11214102D01*
X4846530Y11220348D01*
X4939615Y11371262D01*
X4995387Y11539574D01*
X5006000Y11643455D01*
X5005999Y12477261D01*
X5014782Y12507176D01*
X5021411Y12537645D01*
X5025225Y12542741D01*
X5026001Y12545381D01*
X5042904Y12566355D01*
X5213895Y12737346D01*
X5276207Y12771372D01*
X5347022Y12766307D01*
G37*
%TD.AperFunction*%
%TA.AperFunction,Conductor*%
G36*
X2824012Y11698006D02*
G01*
X2862396Y11638280D01*
X2866848Y11615587D01*
X2874612Y11539575D01*
X2930385Y11371262D01*
X3027323Y11214102D01*
X3025620Y11213052D01*
X3048409Y11156548D01*
X3035151Y11086800D01*
X3027221Y11074461D01*
X3027323Y11074398D01*
X2930385Y10917238D01*
X2874613Y10748928D01*
X2874612Y10748921D01*
X2866847Y10672919D01*
X2840025Y10607184D01*
X2781921Y10566386D01*
X2710984Y10563477D01*
X2649736Y10599382D01*
X2617622Y10662700D01*
X2615500Y10685726D01*
X2615500Y11602782D01*
X2635502Y11670903D01*
X2689158Y11717396D01*
X2759432Y11727500D01*
X2824012Y11698006D01*
G37*
%TD.AperFunction*%
%TA.AperFunction,Conductor*%
G36*
X13924382Y12198498D02*
G01*
X13945356Y12181595D01*
X13959595Y12167356D01*
X13974539Y12139988D01*
X13991396Y12113759D01*
X13992301Y12107461D01*
X13993621Y12105044D01*
X13996500Y12078261D01*
X13996500Y11975602D01*
X13976498Y11907481D01*
X13922842Y11860988D01*
X13870500Y11849602D01*
X13743950Y11849602D01*
X13683403Y11843093D01*
X13683395Y11843091D01*
X13546397Y11791992D01*
X13546392Y11791990D01*
X13429336Y11704362D01*
X13424095Y11699120D01*
X13361783Y11665094D01*
X13290968Y11670159D01*
X13245905Y11699120D01*
X13240663Y11704362D01*
X13123607Y11791990D01*
X13123602Y11791992D01*
X12986604Y11843091D01*
X12986596Y11843093D01*
X12926049Y11849602D01*
X12926038Y11849602D01*
X12473962Y11849602D01*
X12473950Y11849602D01*
X12413403Y11843093D01*
X12413395Y11843091D01*
X12276397Y11791992D01*
X12276392Y11791990D01*
X12159336Y11704362D01*
X12154095Y11699120D01*
X12091783Y11665094D01*
X12020968Y11670159D01*
X11975905Y11699120D01*
X11970663Y11704362D01*
X11853607Y11791990D01*
X11853602Y11791992D01*
X11716604Y11843091D01*
X11716596Y11843093D01*
X11656049Y11849602D01*
X11656038Y11849602D01*
X11203962Y11849602D01*
X11203950Y11849602D01*
X11143398Y11843092D01*
X11141475Y11842637D01*
X11139171Y11842637D01*
X11135562Y11842249D01*
X11135520Y11842637D01*
X11089480Y11842637D01*
X11089438Y11842249D01*
X11085829Y11842637D01*
X11083525Y11842637D01*
X11081601Y11843092D01*
X11021049Y11849602D01*
X11021038Y11849602D01*
X10568962Y11849602D01*
X10568953Y11849602D01*
X10552805Y11847866D01*
X10482937Y11860476D01*
X10430978Y11908857D01*
X10426551Y11916986D01*
X10422393Y11925337D01*
X10420134Y11932290D01*
X10367419Y12035749D01*
X10367124Y12036341D01*
X10361000Y12070700D01*
X10354545Y12105074D01*
X10354773Y12105638D01*
X10354667Y12106236D01*
X10368097Y12138467D01*
X10381245Y12170859D01*
X10381742Y12171210D01*
X10381976Y12171770D01*
X10410717Y12191636D01*
X10439273Y12211765D01*
X10440021Y12211889D01*
X10440380Y12212137D01*
X10441806Y12212185D01*
X10479916Y12218500D01*
X13856261Y12218500D01*
X13924382Y12198498D01*
G37*
%TD.AperFunction*%
%TA.AperFunction,Conductor*%
G36*
X2824012Y15635006D02*
G01*
X2862396Y15575280D01*
X2866848Y15552587D01*
X2874612Y15476575D01*
X2930385Y15308262D01*
X3023470Y15157348D01*
X3023475Y15157342D01*
X3148841Y15031976D01*
X3148847Y15031971D01*
X3148848Y15031970D01*
X3299762Y14938885D01*
X3468074Y14883113D01*
X3468076Y14883113D01*
X3474603Y14880950D01*
X3473812Y14878566D01*
X3526107Y14850239D01*
X3560342Y14788042D01*
X3556917Y14721214D01*
X3547176Y14691817D01*
X3547175Y14691814D01*
X3537000Y14592220D01*
X3537000Y13982790D01*
X3547175Y13883189D01*
X3547176Y13883186D01*
X3556578Y13854811D01*
X3556917Y13853790D01*
X3559357Y13782835D01*
X3523048Y13721825D01*
X3473880Y13696238D01*
X3474605Y13694051D01*
X3299761Y13636115D01*
X3148847Y13543030D01*
X3148841Y13543025D01*
X3023475Y13417659D01*
X3023470Y13417653D01*
X2930385Y13266738D01*
X2874613Y13098428D01*
X2874612Y13098421D01*
X2866847Y13022419D01*
X2840025Y12956684D01*
X2781921Y12915886D01*
X2710984Y12912977D01*
X2649736Y12948882D01*
X2617622Y13012200D01*
X2615500Y13035226D01*
X2615500Y15539782D01*
X2635502Y15607903D01*
X2689158Y15654396D01*
X2759432Y15664500D01*
X2824012Y15635006D01*
G37*
%TD.AperFunction*%
%TA.AperFunction,Conductor*%
G36*
X12077957Y14953950D02*
G01*
X12128160Y14903748D01*
X12132052Y14895612D01*
X12213075Y14755276D01*
X12213077Y14755274D01*
X12213078Y14755272D01*
X12691942Y14276408D01*
X12957744Y14010607D01*
X12991769Y13948294D01*
X12986705Y13877479D01*
X12944158Y13820643D01*
X12877638Y13795832D01*
X12868649Y13795511D01*
X11042489Y13795511D01*
X10974368Y13815513D01*
X10927875Y13869169D01*
X10916489Y13921511D01*
X10916489Y14518423D01*
X10916489Y14518424D01*
X10880144Y14654065D01*
X10875021Y14673186D01*
X10859555Y14699973D01*
X10856490Y14707258D01*
X10853350Y14734995D01*
X10846770Y14762120D01*
X10849415Y14769765D01*
X10848506Y14777804D01*
X10860861Y14802836D01*
X10869990Y14829212D01*
X10876348Y14834213D01*
X10879930Y14841468D01*
X10903855Y14855846D01*
X10925796Y14873100D01*
X10933849Y14873870D01*
X10940784Y14878036D01*
X10968686Y14877196D01*
X10996471Y14879849D01*
X11010396Y14875940D01*
X11011749Y14875899D01*
X11012585Y14875326D01*
X11016653Y14874184D01*
X11143399Y14826909D01*
X11143401Y14826909D01*
X11143403Y14826908D01*
X11203950Y14820399D01*
X11203955Y14820399D01*
X11203962Y14820398D01*
X11203968Y14820398D01*
X11656032Y14820398D01*
X11656038Y14820398D01*
X11656045Y14820399D01*
X11656049Y14820399D01*
X11716596Y14826908D01*
X11716599Y14826909D01*
X11716601Y14826909D01*
X11853604Y14878009D01*
X11942066Y14944232D01*
X12008583Y14969041D01*
X12077957Y14953950D01*
G37*
%TD.AperFunction*%
%TA.AperFunction,Conductor*%
G36*
X22067139Y16211185D02*
G01*
X22124116Y16168828D01*
X22149148Y16102390D01*
X22149500Y16092983D01*
X22149500Y15022022D01*
X22129498Y14953901D01*
X22075842Y14907408D01*
X22005568Y14897304D01*
X21940988Y14926798D01*
X21902604Y14986524D01*
X21900776Y14993735D01*
X21891403Y15022022D01*
X21845709Y15159920D01*
X21754158Y15308346D01*
X21630846Y15431658D01*
X21630843Y15431660D01*
X21629708Y15432795D01*
X21629488Y15432895D01*
X21629272Y15433231D01*
X21625657Y15436846D01*
X21626443Y15437633D01*
X21611766Y15460470D01*
X21592812Y15487250D01*
X21592201Y15490914D01*
X21591104Y15492621D01*
X21586000Y15528119D01*
X21586000Y15586882D01*
X21606002Y15655003D01*
X21626358Y15677451D01*
X21625657Y15678152D01*
X21754152Y15806648D01*
X21754158Y15806654D01*
X21845709Y15955080D01*
X21900562Y16120619D01*
X21900562Y16120623D01*
X21902725Y16127149D01*
X21904240Y16126647D01*
X21934108Y16181781D01*
X21996307Y16216014D01*
X22067139Y16211185D01*
G37*
%TD.AperFunction*%
%TA.AperFunction,Conductor*%
G36*
X10678486Y15642032D02*
G01*
X10728688Y15591830D01*
X10744100Y15531445D01*
X10744100Y15280249D01*
X10750609Y15219702D01*
X10750611Y15219697D01*
X10764400Y15182728D01*
X10769465Y15111913D01*
X10735440Y15049601D01*
X10673128Y15015576D01*
X10602312Y15020640D01*
X10557249Y15049601D01*
X10400592Y15206258D01*
X10366566Y15268570D01*
X10371631Y15339385D01*
X10388816Y15370858D01*
X10458389Y15463796D01*
X10480549Y15523209D01*
X10500045Y15575478D01*
X10542592Y15632314D01*
X10609112Y15657124D01*
X10678486Y15642032D01*
G37*
%TD.AperFunction*%
%TA.AperFunction,Conductor*%
G36*
X15499412Y16341431D02*
G01*
X15537796Y16281705D01*
X15541347Y16265927D01*
X15551220Y16203592D01*
X15551221Y16203588D01*
X15614864Y16007715D01*
X15614869Y16007703D01*
X15658436Y15922198D01*
X15671540Y15852421D01*
X15644839Y15786637D01*
X15635264Y15775901D01*
X15505995Y15646632D01*
X15443683Y15612606D01*
X15372868Y15617671D01*
X15316032Y15660218D01*
X15291221Y15726738D01*
X15290900Y15735727D01*
X15290900Y16246207D01*
X15310902Y16314328D01*
X15364558Y16360821D01*
X15434832Y16370925D01*
X15499412Y16341431D01*
G37*
%TD.AperFunction*%
%TA.AperFunction,Conductor*%
G36*
X20959930Y22149112D02*
G01*
X21131975Y22135572D01*
X21151503Y22132479D01*
X21232991Y22112916D01*
X21314480Y22093352D01*
X21333283Y22087242D01*
X21488128Y22023103D01*
X21505745Y22014127D01*
X21648658Y21926550D01*
X21664653Y21914928D01*
X21792098Y21806080D01*
X21806079Y21792099D01*
X21914927Y21664654D01*
X21926549Y21648659D01*
X22014126Y21505746D01*
X22023102Y21488129D01*
X22087241Y21333284D01*
X22093351Y21314480D01*
X22132478Y21151504D01*
X22135571Y21131976D01*
X22149112Y20959931D01*
X22149500Y20950045D01*
X22149500Y16927022D01*
X22129498Y16858901D01*
X22075842Y16812408D01*
X22005568Y16802304D01*
X21940988Y16831798D01*
X21902604Y16891524D01*
X21900776Y16898735D01*
X21863241Y17012010D01*
X21845709Y17064920D01*
X21754158Y17213346D01*
X21754157Y17213347D01*
X21754152Y17213353D01*
X21630852Y17336653D01*
X21630846Y17336658D01*
X21595211Y17358638D01*
X21482420Y17428209D01*
X21316881Y17483062D01*
X21316879Y17483063D01*
X21316877Y17483063D01*
X21214721Y17493500D01*
X20540287Y17493500D01*
X20438119Y17483063D01*
X20272579Y17428209D01*
X20124153Y17336658D01*
X20124147Y17336653D01*
X20091595Y17304100D01*
X20029283Y17270074D01*
X19958468Y17275139D01*
X19913405Y17304100D01*
X19880852Y17336653D01*
X19880846Y17336658D01*
X19845211Y17358638D01*
X19732420Y17428209D01*
X19566881Y17483062D01*
X19566879Y17483063D01*
X19566877Y17483063D01*
X19464721Y17493500D01*
X18790287Y17493500D01*
X18688119Y17483063D01*
X18522579Y17428209D01*
X18374153Y17336658D01*
X18374147Y17336653D01*
X18250847Y17213353D01*
X18250840Y17213344D01*
X18229257Y17178352D01*
X18221547Y17171418D01*
X18217241Y17161988D01*
X18195602Y17148082D01*
X18176471Y17130874D01*
X18164646Y17128187D01*
X18157515Y17123604D01*
X18122017Y17118500D01*
X18063230Y17118500D01*
X17995109Y17138502D01*
X17950965Y17187294D01*
X17946629Y17195804D01*
X17881251Y17285789D01*
X17825568Y17362430D01*
X17825565Y17362433D01*
X17825563Y17362436D01*
X17679935Y17508064D01*
X17679932Y17508066D01*
X17679930Y17508068D01*
X17513303Y17629129D01*
X17329790Y17722634D01*
X17329787Y17722635D01*
X17329785Y17722636D01*
X17133912Y17786279D01*
X17133910Y17786280D01*
X17133908Y17786280D01*
X16930481Y17818500D01*
X16724519Y17818500D01*
X16521092Y17786280D01*
X16521090Y17786280D01*
X16521087Y17786279D01*
X16325214Y17722636D01*
X16325208Y17722633D01*
X16141693Y17629127D01*
X15975067Y17508066D01*
X15975064Y17508064D01*
X15829436Y17362436D01*
X15829434Y17362433D01*
X15708373Y17195807D01*
X15614867Y17012292D01*
X15614864Y17012286D01*
X15551221Y16816413D01*
X15551220Y16816410D01*
X15551220Y16816408D01*
X15550587Y16812408D01*
X15541349Y16754083D01*
X15510936Y16689930D01*
X15450668Y16652403D01*
X15379679Y16653417D01*
X15320507Y16692650D01*
X15291939Y16757645D01*
X15290900Y16773794D01*
X15290900Y16832431D01*
X15290899Y16832448D01*
X15284390Y16892995D01*
X15284388Y16893003D01*
X15254839Y16972226D01*
X15233289Y17030002D01*
X15233288Y17030004D01*
X15233287Y17030006D01*
X15145661Y17147060D01*
X15028607Y17234686D01*
X15028602Y17234688D01*
X14891604Y17285787D01*
X14891596Y17285789D01*
X14831049Y17292298D01*
X14831038Y17292298D01*
X14378962Y17292298D01*
X14378950Y17292298D01*
X14318403Y17285789D01*
X14318395Y17285787D01*
X14181397Y17234688D01*
X14181392Y17234686D01*
X14064336Y17147058D01*
X14059095Y17141816D01*
X13996783Y17107790D01*
X13925968Y17112855D01*
X13880905Y17141816D01*
X13875663Y17147058D01*
X13758607Y17234686D01*
X13758602Y17234688D01*
X13621604Y17285787D01*
X13621596Y17285789D01*
X13561049Y17292298D01*
X13561038Y17292298D01*
X13108962Y17292298D01*
X13108950Y17292298D01*
X13048398Y17285788D01*
X13046475Y17285333D01*
X13044171Y17285333D01*
X13040562Y17284945D01*
X13040520Y17285333D01*
X12994480Y17285333D01*
X12994438Y17284945D01*
X12990829Y17285333D01*
X12988525Y17285333D01*
X12986601Y17285788D01*
X12926049Y17292298D01*
X12926038Y17292298D01*
X12473962Y17292298D01*
X12473950Y17292298D01*
X12413403Y17285789D01*
X12413395Y17285787D01*
X12276397Y17234688D01*
X12276392Y17234686D01*
X12159336Y17147058D01*
X12154095Y17141816D01*
X12091783Y17107790D01*
X12020968Y17112855D01*
X11975905Y17141816D01*
X11970663Y17147058D01*
X11853607Y17234686D01*
X11853602Y17234688D01*
X11716604Y17285787D01*
X11716596Y17285789D01*
X11656049Y17292298D01*
X11656038Y17292298D01*
X11203962Y17292298D01*
X11203950Y17292298D01*
X11143403Y17285789D01*
X11143395Y17285787D01*
X11006397Y17234688D01*
X11006392Y17234686D01*
X10889338Y17147060D01*
X10801712Y17030006D01*
X10801710Y17030001D01*
X10760055Y16918321D01*
X10717508Y16861485D01*
X10650988Y16836675D01*
X10581614Y16851767D01*
X10531412Y16901969D01*
X10516000Y16962354D01*
X10516000Y17358633D01*
X10515999Y17358650D01*
X10509490Y17419197D01*
X10509488Y17419205D01*
X10458389Y17556203D01*
X10458387Y17556208D01*
X10370761Y17673262D01*
X10253707Y17760888D01*
X10253702Y17760890D01*
X10116704Y17811989D01*
X10116696Y17811991D01*
X10056149Y17818500D01*
X10056138Y17818500D01*
X8358862Y17818500D01*
X8358850Y17818500D01*
X8298303Y17811991D01*
X8298295Y17811989D01*
X8161297Y17760890D01*
X8161292Y17760888D01*
X8044238Y17673262D01*
X7956612Y17556208D01*
X7956610Y17556203D01*
X7920094Y17458301D01*
X7877547Y17401465D01*
X7811027Y17376655D01*
X7741653Y17391747D01*
X7712944Y17413239D01*
X7646158Y17480025D01*
X7646152Y17480030D01*
X7600702Y17508064D01*
X7495238Y17573115D01*
X7411082Y17601001D01*
X7326927Y17628887D01*
X7326920Y17628888D01*
X7223053Y17639500D01*
X6496955Y17639500D01*
X6393074Y17628888D01*
X6224761Y17573115D01*
X6073847Y17480030D01*
X6073841Y17480025D01*
X5948475Y17354659D01*
X5948470Y17354653D01*
X5855385Y17203738D01*
X5799613Y17035428D01*
X5799612Y17035421D01*
X5789000Y16931554D01*
X5789000Y16931546D01*
X5789000Y16931545D01*
X5789000Y16341431D01*
X5789001Y15855490D01*
X5768999Y15787369D01*
X5715343Y15740876D01*
X5663001Y15729490D01*
X5374249Y15729490D01*
X5306128Y15749492D01*
X5285154Y15766395D01*
X5042904Y16008645D01*
X5008878Y16070957D01*
X5005999Y16097740D01*
X5005999Y16931545D01*
X4995387Y17035426D01*
X4985614Y17064920D01*
X4939615Y17203738D01*
X4846530Y17354652D01*
X4846529Y17354653D01*
X4846524Y17354659D01*
X4721158Y17480025D01*
X4721152Y17480030D01*
X4675702Y17508064D01*
X4570238Y17573115D01*
X4486082Y17601001D01*
X4401927Y17628887D01*
X4401920Y17628888D01*
X4298053Y17639500D01*
X3571955Y17639500D01*
X3468074Y17628888D01*
X3299761Y17573115D01*
X3148847Y17480030D01*
X3148841Y17480025D01*
X3023475Y17354659D01*
X3023470Y17354653D01*
X2930385Y17203738D01*
X2874613Y17035428D01*
X2874612Y17035421D01*
X2866847Y16959419D01*
X2840025Y16893684D01*
X2781921Y16852886D01*
X2710984Y16849977D01*
X2649736Y16885882D01*
X2617622Y16949200D01*
X2615500Y16972226D01*
X2615500Y19791287D01*
X3729500Y19791287D01*
X3729500Y19578713D01*
X3762754Y19368757D01*
X3828443Y19166588D01*
X3924949Y18977184D01*
X4049896Y18805208D01*
X4049898Y18805206D01*
X4049900Y18805203D01*
X4200202Y18654901D01*
X4200205Y18654899D01*
X4200208Y18654896D01*
X4372184Y18529949D01*
X4561588Y18433443D01*
X4763757Y18367754D01*
X4973713Y18334500D01*
X4973716Y18334500D01*
X5186284Y18334500D01*
X5186287Y18334500D01*
X5396243Y18367754D01*
X5598412Y18433443D01*
X5787816Y18529949D01*
X5959792Y18654896D01*
X6110104Y18805208D01*
X6235051Y18977184D01*
X6331557Y19166588D01*
X6397246Y19368757D01*
X6430500Y19578713D01*
X6430500Y19791287D01*
X6397246Y20001243D01*
X6331557Y20203412D01*
X6235051Y20392816D01*
X6213135Y20422981D01*
X8216500Y20422981D01*
X8216500Y20217019D01*
X8248720Y20013592D01*
X8248721Y20013588D01*
X8284838Y19902430D01*
X8312366Y19817710D01*
X8405871Y19634197D01*
X8526932Y19467570D01*
X8526934Y19467568D01*
X8526936Y19467565D01*
X8672564Y19321937D01*
X8672567Y19321935D01*
X8672570Y19321932D01*
X8839197Y19200871D01*
X9022710Y19107366D01*
X9218592Y19043720D01*
X9422019Y19011500D01*
X9422022Y19011500D01*
X9627978Y19011500D01*
X9627981Y19011500D01*
X9831408Y19043720D01*
X10027290Y19107366D01*
X10116814Y19152981D01*
X11391500Y19152981D01*
X11391500Y18947019D01*
X11423720Y18743592D01*
X11487366Y18547710D01*
X11580871Y18364197D01*
X11701932Y18197570D01*
X11701934Y18197568D01*
X11701936Y18197565D01*
X11847564Y18051937D01*
X11847567Y18051935D01*
X11847570Y18051932D01*
X12014197Y17930871D01*
X12197710Y17837366D01*
X12393592Y17773720D01*
X12597019Y17741500D01*
X12597022Y17741500D01*
X12802978Y17741500D01*
X12802981Y17741500D01*
X13006408Y17773720D01*
X13202290Y17837366D01*
X13385803Y17930871D01*
X13552430Y18051932D01*
X13698068Y18197570D01*
X13819129Y18364197D01*
X13912634Y18547710D01*
X13976280Y18743592D01*
X14008500Y18947019D01*
X14008500Y19152981D01*
X13976280Y19356408D01*
X13912634Y19552290D01*
X13819129Y19735803D01*
X13698068Y19902430D01*
X13698065Y19902433D01*
X13698063Y19902436D01*
X13552435Y20048064D01*
X13552432Y20048066D01*
X13552430Y20048068D01*
X13385803Y20169129D01*
X13202290Y20262634D01*
X13062362Y20308100D01*
X13006412Y20326279D01*
X13006410Y20326280D01*
X13006408Y20326280D01*
X12802981Y20358500D01*
X12597019Y20358500D01*
X12393592Y20326280D01*
X12393590Y20326280D01*
X12393587Y20326279D01*
X12197714Y20262636D01*
X12197708Y20262633D01*
X12014193Y20169127D01*
X11847567Y20048066D01*
X11847564Y20048064D01*
X11701936Y19902436D01*
X11701934Y19902433D01*
X11580873Y19735807D01*
X11487367Y19552292D01*
X11487364Y19552286D01*
X11423721Y19356413D01*
X11423720Y19356410D01*
X11423720Y19356408D01*
X11391500Y19152981D01*
X10116814Y19152981D01*
X10210803Y19200871D01*
X10377430Y19321932D01*
X10523068Y19467570D01*
X10644129Y19634197D01*
X10737634Y19817710D01*
X10801280Y20013592D01*
X10833500Y20217019D01*
X10833500Y20422981D01*
X15836500Y20422981D01*
X15836500Y20217019D01*
X15868720Y20013592D01*
X15868721Y20013588D01*
X15904838Y19902430D01*
X15932366Y19817710D01*
X16025871Y19634197D01*
X16146932Y19467570D01*
X16146934Y19467568D01*
X16146936Y19467565D01*
X16292564Y19321937D01*
X16292567Y19321935D01*
X16292570Y19321932D01*
X16459197Y19200871D01*
X16642710Y19107366D01*
X16838592Y19043720D01*
X17042019Y19011500D01*
X17042022Y19011500D01*
X17247978Y19011500D01*
X17247981Y19011500D01*
X17451408Y19043720D01*
X17647290Y19107366D01*
X17736814Y19152981D01*
X19011500Y19152981D01*
X19011500Y18947019D01*
X19043720Y18743592D01*
X19107366Y18547710D01*
X19200871Y18364197D01*
X19321932Y18197570D01*
X19321934Y18197568D01*
X19321936Y18197565D01*
X19467564Y18051937D01*
X19467567Y18051935D01*
X19467570Y18051932D01*
X19634197Y17930871D01*
X19817710Y17837366D01*
X20013592Y17773720D01*
X20217019Y17741500D01*
X20217022Y17741500D01*
X20422978Y17741500D01*
X20422981Y17741500D01*
X20626408Y17773720D01*
X20822290Y17837366D01*
X21005803Y17930871D01*
X21172430Y18051932D01*
X21318068Y18197570D01*
X21439129Y18364197D01*
X21532634Y18547710D01*
X21596280Y18743592D01*
X21628500Y18947019D01*
X21628500Y19152981D01*
X21596280Y19356408D01*
X21532634Y19552290D01*
X21439129Y19735803D01*
X21318068Y19902430D01*
X21318065Y19902433D01*
X21318063Y19902436D01*
X21172435Y20048064D01*
X21172432Y20048066D01*
X21172430Y20048068D01*
X21005803Y20169129D01*
X20913355Y20216234D01*
X20861741Y20264982D01*
X20844675Y20333897D01*
X20867576Y20401098D01*
X20923174Y20445250D01*
X20970559Y20454500D01*
X21020890Y20454500D01*
X21020892Y20454500D01*
X21148186Y20488608D01*
X21262314Y20554500D01*
X21355500Y20647686D01*
X21421392Y20761814D01*
X21455500Y20889108D01*
X21455500Y21020892D01*
X21421392Y21148186D01*
X21355500Y21262314D01*
X21355498Y21262316D01*
X21355494Y21262321D01*
X21262320Y21355495D01*
X21262310Y21355503D01*
X21148190Y21421390D01*
X21148187Y21421391D01*
X21148186Y21421392D01*
X21148184Y21421393D01*
X21148183Y21421393D01*
X21081997Y21439127D01*
X21020892Y21455500D01*
X20889108Y21455500D01*
X20828010Y21439129D01*
X20761816Y21421393D01*
X20761809Y21421390D01*
X20647689Y21355503D01*
X20647679Y21355495D01*
X20554505Y21262321D01*
X20554497Y21262311D01*
X20488610Y21148191D01*
X20488607Y21148184D01*
X20466983Y21067483D01*
X20454500Y21020892D01*
X20454500Y20889108D01*
X20467645Y20840051D01*
X20488607Y20761817D01*
X20488610Y20761810D01*
X20554497Y20647690D01*
X20554505Y20647680D01*
X20648651Y20553534D01*
X20682677Y20491222D01*
X20677612Y20420407D01*
X20635065Y20363571D01*
X20568545Y20338760D01*
X20539848Y20339990D01*
X20422981Y20358500D01*
X20217019Y20358500D01*
X20013592Y20326280D01*
X20013590Y20326280D01*
X20013587Y20326279D01*
X19817714Y20262636D01*
X19817708Y20262633D01*
X19634193Y20169127D01*
X19467567Y20048066D01*
X19467564Y20048064D01*
X19321936Y19902436D01*
X19321934Y19902433D01*
X19200873Y19735807D01*
X19107367Y19552292D01*
X19107364Y19552286D01*
X19043721Y19356413D01*
X19043720Y19356410D01*
X19043720Y19356408D01*
X19011500Y19152981D01*
X17736814Y19152981D01*
X17830803Y19200871D01*
X17997430Y19321932D01*
X18143068Y19467570D01*
X18264129Y19634197D01*
X18357634Y19817710D01*
X18421280Y20013592D01*
X18453500Y20217019D01*
X18453500Y20422981D01*
X18421280Y20626408D01*
X18357634Y20822290D01*
X18264129Y21005803D01*
X18143068Y21172430D01*
X18143065Y21172433D01*
X18143063Y21172436D01*
X17997435Y21318064D01*
X17997432Y21318066D01*
X17997430Y21318068D01*
X17830803Y21439129D01*
X17647290Y21532634D01*
X17647287Y21532635D01*
X17647285Y21532636D01*
X17451412Y21596279D01*
X17451410Y21596280D01*
X17451408Y21596280D01*
X17247981Y21628500D01*
X17042019Y21628500D01*
X16838592Y21596280D01*
X16838590Y21596280D01*
X16838587Y21596279D01*
X16642714Y21532636D01*
X16642708Y21532633D01*
X16459193Y21439127D01*
X16292567Y21318066D01*
X16292564Y21318064D01*
X16146936Y21172436D01*
X16146934Y21172433D01*
X16025873Y21005807D01*
X15932367Y20822292D01*
X15932364Y20822286D01*
X15868721Y20626413D01*
X15868720Y20626410D01*
X15868720Y20626408D01*
X15836500Y20422981D01*
X10833500Y20422981D01*
X10801280Y20626408D01*
X10737634Y20822290D01*
X10644129Y21005803D01*
X10523068Y21172430D01*
X10523065Y21172433D01*
X10523063Y21172436D01*
X10377435Y21318064D01*
X10377432Y21318066D01*
X10377430Y21318068D01*
X10210803Y21439129D01*
X10027290Y21532634D01*
X10027287Y21532635D01*
X10027285Y21532636D01*
X9831412Y21596279D01*
X9831410Y21596280D01*
X9831408Y21596280D01*
X9627981Y21628500D01*
X9422019Y21628500D01*
X9218592Y21596280D01*
X9218590Y21596280D01*
X9218587Y21596279D01*
X9022714Y21532636D01*
X9022708Y21532633D01*
X8839193Y21439127D01*
X8672567Y21318066D01*
X8672564Y21318064D01*
X8526936Y21172436D01*
X8526934Y21172433D01*
X8405873Y21005807D01*
X8312367Y20822292D01*
X8312364Y20822286D01*
X8248721Y20626413D01*
X8248720Y20626410D01*
X8248720Y20626408D01*
X8216500Y20422981D01*
X6213135Y20422981D01*
X6110104Y20564792D01*
X6110101Y20564795D01*
X6110099Y20564798D01*
X5959797Y20715100D01*
X5959794Y20715102D01*
X5959792Y20715104D01*
X5787816Y20840051D01*
X5598412Y20936557D01*
X5396243Y21002246D01*
X5186287Y21035500D01*
X4973713Y21035500D01*
X4763757Y21002246D01*
X4763754Y21002246D01*
X4763753Y21002245D01*
X4561588Y20936557D01*
X4561586Y20936556D01*
X4372180Y20840049D01*
X4200205Y20715102D01*
X4200202Y20715100D01*
X4049900Y20564798D01*
X4049898Y20564795D01*
X3924951Y20392820D01*
X3924949Y20392816D01*
X3828443Y20203412D01*
X3762754Y20001243D01*
X3729500Y19791287D01*
X2615500Y19791287D01*
X2615500Y20950045D01*
X2615888Y20959931D01*
X2619499Y21005807D01*
X2629428Y21131977D01*
X2632521Y21151504D01*
X2637546Y21172436D01*
X2671649Y21314485D01*
X2677758Y21333284D01*
X2741899Y21488135D01*
X2750869Y21505741D01*
X2838455Y21648667D01*
X2850066Y21664646D01*
X2958928Y21792108D01*
X2972892Y21806072D01*
X3100354Y21914934D01*
X3116333Y21926545D01*
X3259259Y22014131D01*
X3276865Y22023101D01*
X3431721Y22087244D01*
X3450515Y22093351D01*
X3613497Y22132480D01*
X3633023Y22135572D01*
X3805070Y22149112D01*
X3814956Y22149500D01*
X3834531Y22149500D01*
X20930469Y22149500D01*
X20950044Y22149500D01*
X20959930Y22149112D01*
G37*
%TD.AperFunction*%
%TD*%
M02*
